<svg width="661" height="319" viewBox="0 0 661 319" fill="none" xmlns="http://www.w3.org/2000/svg">
<rect width="661" height="319" fill="white"/>
<rect x="49" y="83" width="1" height="96.6007" transform="rotate(-90 49 83)" fill="#008574"/>
<rect x="27" y="71.2004" width="22" height="22" rx="11" fill="#008574"/>
<path d="M37.6029 87.2004V79.4444L35.9929 79.8224V78.4504L38.3589 77.4004H39.4649V87.2004H37.6029Z" fill="white"/>
<rect x="27" y="71.2004" width="22" height="22" rx="11" stroke="white" stroke-width="2"/>
<rect x="49" y="180" width="1" height="96.6007" transform="rotate(-90 49 180)" fill="#008574"/>
<rect x="27" y="168.2" width="22" height="22" rx="11" fill="#008574"/>
<path d="M37.9881 184.368C37.3441 184.368 36.7607 184.256 36.2381 184.032C35.7154 183.799 35.2954 183.444 34.9781 182.968C34.6607 182.492 34.4927 181.895 34.4741 181.176H36.2381C36.2474 181.652 36.4014 182.054 36.7001 182.38C37.0081 182.698 37.4374 182.856 37.9881 182.856C38.5107 182.856 38.9121 182.712 39.1921 182.422C39.4721 182.133 39.6121 181.769 39.6121 181.33C39.6121 180.817 39.4254 180.43 39.0521 180.168C38.6881 179.898 38.2167 179.762 37.6381 179.762H36.9101V178.292H37.6521C38.1281 178.292 38.5247 178.18 38.8421 177.956C39.1594 177.732 39.3181 177.401 39.3181 176.962C39.3181 176.598 39.1967 176.309 38.9541 176.094C38.7207 175.87 38.3941 175.758 37.9741 175.758C37.5167 175.758 37.1574 175.894 36.8961 176.164C36.6441 176.435 36.5041 176.766 36.4761 177.158H34.7261C34.7634 176.253 35.0761 175.539 35.6641 175.016C36.2614 174.494 37.0314 174.232 37.9741 174.232C38.6461 174.232 39.2107 174.354 39.6681 174.596C40.1347 174.83 40.4847 175.142 40.7181 175.534C40.9607 175.926 41.0821 176.36 41.0821 176.836C41.0821 177.387 40.9281 177.854 40.6201 178.236C40.3214 178.61 39.9481 178.862 39.5001 178.992C40.0507 179.104 40.4987 179.375 40.8441 179.804C41.1894 180.224 41.3621 180.756 41.3621 181.4C41.3621 181.942 41.2314 182.436 40.9701 182.884C40.7087 183.332 40.3261 183.692 39.8221 183.962C39.3274 184.233 38.7161 184.368 37.9881 184.368Z" fill="white"/>
<rect x="27" y="168.2" width="22" height="22" rx="11" stroke="white" stroke-width="2"/>
<rect x="500" y="132" width="1" height="96.6007" transform="rotate(-90 500 132)" fill="#008574"/>
<rect x="596.399" y="120.2" width="22" height="22" rx="11" fill="#008574"/>
<path d="M604.114 136.2V134.898C604.712 134.404 605.29 133.914 605.85 133.428C606.42 132.943 606.924 132.462 607.362 131.986C607.81 131.51 608.165 131.048 608.426 130.6C608.697 130.143 608.832 129.7 608.832 129.27C608.832 128.869 608.72 128.514 608.496 128.206C608.282 127.898 607.922 127.744 607.418 127.744C606.905 127.744 606.518 127.912 606.256 128.248C605.995 128.584 605.864 128.99 605.864 129.466H604.128C604.147 128.748 604.306 128.15 604.604 127.674C604.903 127.189 605.3 126.83 605.794 126.596C606.289 126.354 606.844 126.232 607.46 126.232C608.459 126.232 609.234 126.508 609.784 127.058C610.344 127.6 610.624 128.304 610.624 129.172C610.624 129.714 610.498 130.241 610.246 130.754C610.004 131.268 609.682 131.762 609.28 132.238C608.879 132.714 608.445 133.162 607.978 133.582C607.512 133.993 607.059 134.376 606.62 134.73H610.862V136.2H604.114Z" fill="white"/>
<rect x="596.399" y="120.2" width="22" height="22" rx="11" stroke="white" stroke-width="2"/>
<path d="M160.352 76.8C161.632 76.8 162.64 77.168 163.28 77.792C163.744 78.272 164 78.864 164 79.584V79.616C164 81.072 163.104 81.824 162.224 82.208C163.552 82.608 164.624 83.376 164.624 84.912V84.944C164.624 86.864 163.008 88 160.56 88H155.584V76.8H160.352ZM156.832 86.864H160.592C162.288 86.864 163.344 86.112 163.344 84.864V84.832C163.344 83.616 162.32 82.912 160.368 82.912H156.832V86.864ZM156.832 81.792H160.144C161.664 81.792 162.72 81.104 162.72 79.792V79.76C162.72 78.656 161.84 77.936 160.24 77.936H156.832V81.792ZM170.463 88.176C168.463 88.176 167.295 86.832 167.295 84.864V79.728H168.527V84.56C168.527 86.096 169.359 87.056 170.815 87.056C172.223 87.056 173.295 86.016 173.295 84.464V79.728H174.511V88H173.295V86.56C172.735 87.456 171.887 88.176 170.463 88.176ZM180.518 88.16C179.334 88.16 178.022 87.696 177.094 86.944L177.718 86.064C178.614 86.736 179.606 87.12 180.582 87.12C181.574 87.12 182.294 86.608 182.294 85.808V85.776C182.294 84.944 181.318 84.624 180.23 84.32C178.934 83.952 177.494 83.504 177.494 81.984V81.952C177.494 80.528 178.678 79.584 180.31 79.584C181.318 79.584 182.438 79.936 183.286 80.496L182.726 81.424C181.958 80.928 181.078 80.624 180.278 80.624C179.302 80.624 178.678 81.136 178.678 81.824V81.856C178.678 82.64 179.702 82.944 180.806 83.28C182.086 83.664 183.462 84.16 183.462 85.648V85.68C183.462 87.248 182.166 88.16 180.518 88.16ZM186.283 76.56H187.691V77.92H186.283V76.56ZM186.363 88V79.728H187.595V88H186.363ZM190.954 79.728H192.186V81.168C192.73 80.272 193.594 79.552 195.018 79.552C197.018 79.552 198.186 80.896 198.186 82.864V88H196.954V83.168C196.954 81.632 196.122 80.672 194.666 80.672C193.242 80.672 192.186 81.712 192.186 83.264V88H190.954V79.728ZM202.049 84.368C202.226 86.112 203.506 87.12 204.962 87.12C206.098 87.12 206.898 86.656 207.57 85.952L208.338 86.64C207.506 87.568 206.498 88.192 204.93 88.192C202.658 88.192 200.802 86.448 200.802 83.872C200.802 81.472 202.482 79.552 204.77 79.552C207.218 79.552 208.626 81.504 208.626 83.936C208.626 84.048 208.626 84.176 208.61 84.368H202.049ZM202.049 83.376H207.378C207.234 81.872 206.37 80.592 204.738 80.592C203.314 80.592 202.226 81.776 202.049 83.376ZM214.018 88.16C212.834 88.16 211.522 87.696 210.594 86.944L211.218 86.064C212.114 86.736 213.106 87.12 214.082 87.12C215.074 87.12 215.794 86.608 215.794 85.808V85.776C215.794 84.944 214.818 84.624 213.73 84.32C212.434 83.952 210.994 83.504 210.994 81.984V81.952C210.994 80.528 212.178 79.584 213.81 79.584C214.818 79.584 215.938 79.936 216.786 80.496L216.226 81.424C215.458 80.928 214.578 80.624 213.778 80.624C212.802 80.624 212.178 81.136 212.178 81.824V81.856C212.178 82.64 213.202 82.944 214.306 83.28C215.586 83.664 216.962 84.16 216.962 85.648V85.68C216.962 87.248 215.666 88.16 214.018 88.16ZM222.331 88.16C221.147 88.16 219.835 87.696 218.907 86.944L219.531 86.064C220.427 86.736 221.419 87.12 222.395 87.12C223.387 87.12 224.107 86.608 224.107 85.808V85.776C224.107 84.944 223.131 84.624 222.043 84.32C220.747 83.952 219.307 83.504 219.307 81.984V81.952C219.307 80.528 220.491 79.584 222.123 79.584C223.131 79.584 224.251 79.936 225.099 80.496L224.539 81.424C223.771 80.928 222.891 80.624 222.091 80.624C221.115 80.624 220.491 81.136 220.491 81.824V81.856C220.491 82.64 221.515 82.944 222.619 83.28C223.899 83.664 225.275 84.16 225.275 85.648V85.68C225.275 87.248 223.979 88.16 222.331 88.16ZM238.688 88.192C235.456 88.192 233.072 85.648 233.072 82.432V82.4C233.072 79.232 235.44 76.608 238.736 76.608C240.768 76.608 241.984 77.328 243.104 78.384L242.24 79.312C241.296 78.416 240.24 77.776 238.72 77.776C236.24 77.776 234.384 79.792 234.384 82.368V82.4C234.384 84.992 236.256 87.024 238.72 87.024C240.256 87.024 241.264 86.432 242.336 85.408L243.168 86.224C242 87.408 240.72 88.192 238.688 88.192ZM249.293 88.192C246.813 88.192 245.005 86.24 245.005 83.904V83.872C245.005 81.536 246.829 79.552 249.325 79.552C251.805 79.552 253.629 81.504 253.629 83.84V83.872C253.629 86.208 251.789 88.192 249.293 88.192ZM246.269 83.872C246.269 85.648 247.581 87.088 249.325 87.088C251.117 87.088 252.365 85.648 252.365 83.904V83.872C252.365 82.096 251.037 80.64 249.293 80.64C247.501 80.64 246.269 82.096 246.269 83.84V83.872ZM256.36 79.728H257.592V81.168C258.136 80.272 259 79.552 260.424 79.552C262.424 79.552 263.592 80.896 263.592 82.864V88H262.36V83.168C262.36 81.632 261.528 80.672 260.072 80.672C258.648 80.672 257.592 81.712 257.592 83.264V88H256.36V79.728ZM269.456 88.16C268.272 88.16 266.96 87.696 266.032 86.944L266.656 86.064C267.552 86.736 268.544 87.12 269.52 87.12C270.512 87.12 271.232 86.608 271.232 85.808V85.776C271.232 84.944 270.256 84.624 269.168 84.32C267.872 83.952 266.432 83.504 266.432 81.984V81.952C266.432 80.528 267.616 79.584 269.248 79.584C270.256 79.584 271.376 79.936 272.224 80.496L271.664 81.424C270.896 80.928 270.016 80.624 269.216 80.624C268.24 80.624 267.616 81.136 267.616 81.824V81.856C267.616 82.64 268.64 82.944 269.744 83.28C271.024 83.664 272.4 84.16 272.4 85.648V85.68C272.4 87.248 271.104 88.16 269.456 88.16ZM278.229 88.176C276.229 88.176 275.061 86.832 275.061 84.864V79.728H276.293V84.56C276.293 86.096 277.125 87.056 278.581 87.056C279.989 87.056 281.061 86.016 281.061 84.464V79.728H282.277V88H281.061V86.56C280.501 87.456 279.653 88.176 278.229 88.176ZM285.66 76.32H286.892V88H285.66V76.32ZM293.019 88.144C291.691 88.144 290.683 87.488 290.683 85.808V80.816H289.531V79.728H290.683V77.232H291.915V79.728H294.539V80.816H291.915V85.648C291.915 86.656 292.475 87.024 293.307 87.024C293.723 87.024 294.075 86.944 294.507 86.736V87.792C294.075 88.016 293.611 88.144 293.019 88.144ZM297.252 76.56H298.66V77.92H297.252V76.56ZM297.332 88V79.728H298.564V88H297.332ZM301.923 79.728H303.155V81.168C303.699 80.272 304.563 79.552 305.987 79.552C307.987 79.552 309.155 80.896 309.155 82.864V88H307.923V83.168C307.923 81.632 307.091 80.672 305.635 80.672C304.211 80.672 303.155 81.712 303.155 83.264V88H301.923V79.728ZM315.946 90.592C314.57 90.592 313.29 90.208 312.186 89.44L312.746 88.48C313.69 89.168 314.746 89.536 315.93 89.536C317.754 89.536 318.938 88.528 318.938 86.592V85.616C318.218 86.576 317.21 87.36 315.69 87.36C313.706 87.36 311.802 85.872 311.802 83.488V83.456C311.802 81.04 313.722 79.552 315.69 79.552C317.242 79.552 318.25 80.32 318.922 81.216V79.728H320.154V86.56C320.154 87.84 319.77 88.816 319.098 89.488C318.362 90.224 317.258 90.592 315.946 90.592ZM313.066 83.456C313.066 85.12 314.394 86.272 315.93 86.272C317.498 86.272 318.97 85.136 318.97 83.472V83.44C318.97 81.744 317.498 80.64 315.93 80.64C314.362 80.64 313.066 81.728 313.066 83.424V83.456Z" fill="#171717"/>
<mask id="mask0_493_3869" style="mask-type:alpha" maskUnits="userSpaceOnUse" x="478" y="71" width="24" height="24">
<path d="M490 88L500 78H498.586L490 86.586L481.414 78H480L489.293 87.293L490 88Z" fill="black"/>
</mask>
<g mask="url(#mask0_493_3869)">
<rect x="478" y="71" width="24" height="24" fill="#141B4D"/>
</g>
<rect x="146" y="106" width="368" height="1" fill="#DCDFDF"/>
<path d="M158.544 125.968H154.784V124.8H163.584V125.968H159.824V136H158.544V125.968ZM164.956 132.368C165.132 134.112 166.412 135.12 167.868 135.12C169.004 135.12 169.804 134.656 170.476 133.952L171.244 134.64C170.412 135.568 169.404 136.192 167.836 136.192C165.564 136.192 163.708 134.448 163.708 131.872C163.708 129.472 165.388 127.552 167.676 127.552C170.124 127.552 171.532 129.504 171.532 131.936C171.532 132.048 171.532 132.176 171.516 132.368H164.956ZM164.956 131.376H170.284C170.14 129.872 169.276 128.592 167.644 128.592C166.22 128.592 165.132 129.776 164.956 131.376ZM177.917 136.192C175.501 136.192 173.677 134.224 173.677 131.904V131.872C173.677 129.536 175.501 127.552 177.917 127.552C179.485 127.552 180.461 128.208 181.229 129.024L180.413 129.888C179.757 129.2 179.021 128.64 177.901 128.64C176.221 128.64 174.941 130.064 174.941 131.84V131.872C174.941 133.664 176.253 135.088 177.981 135.088C179.037 135.088 179.853 134.56 180.509 133.856L181.293 134.592C180.461 135.52 179.469 136.192 177.917 136.192ZM183.829 124.32H185.061V129.168C185.605 128.272 186.469 127.552 187.893 127.552C189.893 127.552 191.061 128.896 191.061 130.864V136H189.829V131.168C189.829 129.632 188.997 128.672 187.541 128.672C186.117 128.672 185.061 129.712 185.061 131.264V136H183.829V124.32ZM194.189 127.728H195.421V129.168C195.965 128.272 196.829 127.552 198.253 127.552C200.253 127.552 201.421 128.896 201.421 130.864V136H200.189V131.168C200.189 129.632 199.357 128.672 197.901 128.672C196.477 128.672 195.421 129.712 195.421 131.264V136H194.189V127.728ZM208.324 136.192C205.844 136.192 204.036 134.24 204.036 131.904V131.872C204.036 129.536 205.86 127.552 208.356 127.552C210.836 127.552 212.66 129.504 212.66 131.84V131.872C212.66 134.208 210.82 136.192 208.324 136.192ZM205.3 131.872C205.3 133.648 206.612 135.088 208.356 135.088C210.148 135.088 211.396 133.648 211.396 131.904V131.872C211.396 130.096 210.068 128.64 208.324 128.64C206.532 128.64 205.3 130.096 205.3 131.84V131.872ZM215.504 124.32H216.736V136H215.504V124.32ZM223.871 136.192C221.391 136.192 219.583 134.24 219.583 131.904V131.872C219.583 129.536 221.407 127.552 223.903 127.552C226.383 127.552 228.207 129.504 228.207 131.84V131.872C228.207 134.208 226.367 136.192 223.871 136.192ZM220.847 131.872C220.847 133.648 222.159 135.088 223.903 135.088C225.695 135.088 226.943 133.648 226.943 131.904V131.872C226.943 130.096 225.615 128.64 223.871 128.64C222.079 128.64 220.847 130.096 220.847 131.84V131.872ZM234.603 138.592C233.227 138.592 231.947 138.208 230.843 137.44L231.403 136.48C232.347 137.168 233.403 137.536 234.587 137.536C236.411 137.536 237.595 136.528 237.595 134.592V133.616C236.875 134.576 235.867 135.36 234.347 135.36C232.363 135.36 230.459 133.872 230.459 131.488V131.456C230.459 129.04 232.379 127.552 234.347 127.552C235.899 127.552 236.907 128.32 237.579 129.216V127.728H238.811V134.56C238.811 135.84 238.427 136.816 237.755 137.488C237.019 138.224 235.915 138.592 234.603 138.592ZM231.723 131.456C231.723 133.12 233.051 134.272 234.587 134.272C236.155 134.272 237.627 133.136 237.627 131.472V131.44C237.627 129.744 236.155 128.64 234.587 128.64C233.019 128.64 231.723 129.728 231.723 131.424V131.456ZM243.344 138.608C242.656 138.608 242.144 138.464 241.584 138.192L242 137.216C242.4 137.424 242.768 137.52 243.296 137.52C244.032 137.52 244.496 137.136 244.992 135.968L241.232 127.728H242.592L245.6 134.624L248.256 127.728H249.568L246.096 136.272C245.391 137.984 244.592 138.608 243.344 138.608ZM261.362 136.16C259.586 136.16 258.13 135.568 256.786 134.368L257.57 133.44C258.738 134.496 259.858 135.024 261.41 135.024C262.914 135.024 263.906 134.224 263.906 133.12V133.088C263.906 132.048 263.346 131.456 260.994 130.96C258.418 130.4 257.234 129.568 257.234 127.728V127.696C257.234 125.936 258.786 124.64 260.914 124.64C262.546 124.64 263.714 125.104 264.85 126.016L264.114 126.992C263.074 126.144 262.034 125.776 260.882 125.776C259.426 125.776 258.498 126.576 258.498 127.584V127.616C258.498 128.672 259.074 129.264 261.538 129.792C264.034 130.336 265.186 131.248 265.186 132.96V132.992C265.186 134.912 263.586 136.16 261.362 136.16ZM268.784 132.368C268.96 134.112 270.24 135.12 271.696 135.12C272.832 135.12 273.632 134.656 274.304 133.952L275.072 134.64C274.24 135.568 273.232 136.192 271.664 136.192C269.392 136.192 267.536 134.448 267.536 131.872C267.536 129.472 269.216 127.552 271.504 127.552C273.952 127.552 275.36 129.504 275.36 131.936C275.36 132.048 275.36 132.176 275.344 132.368H268.784ZM268.784 131.376H274.112C273.968 129.872 273.104 128.592 271.472 128.592C270.048 128.592 268.96 129.776 268.784 131.376ZM278.017 127.728H279.249V129.888C279.857 128.512 281.057 127.52 282.625 127.584V128.912H282.529C280.721 128.912 279.249 130.208 279.249 132.704V136H278.017V127.728ZM284.185 127.728H285.545L288.329 134.592L291.129 127.728H292.457L288.857 136.064H287.769L284.185 127.728ZM294.924 124.56H296.332V125.92H294.924V124.56ZM295.004 136V127.728H296.236V136H295.004ZM303.323 136.192C300.907 136.192 299.083 134.224 299.083 131.904V131.872C299.083 129.536 300.907 127.552 303.323 127.552C304.891 127.552 305.867 128.208 306.635 129.024L305.819 129.888C305.163 129.2 304.427 128.64 303.307 128.64C301.627 128.64 300.347 130.064 300.347 131.84V131.872C300.347 133.664 301.659 135.088 303.387 135.088C304.443 135.088 305.259 134.56 305.915 133.856L306.699 134.592C305.867 135.52 304.875 136.192 303.323 136.192ZM309.737 132.368C309.913 134.112 311.193 135.12 312.649 135.12C313.785 135.12 314.585 134.656 315.257 133.952L316.025 134.64C315.193 135.568 314.185 136.192 312.617 136.192C310.345 136.192 308.489 134.448 308.489 131.872C308.489 129.472 310.169 127.552 312.457 127.552C314.905 127.552 316.313 129.504 316.313 131.936C316.313 132.048 316.313 132.176 316.297 132.368H309.737ZM309.737 131.376H315.065C314.921 129.872 314.057 128.592 312.425 128.592C311.001 128.592 309.913 129.776 309.737 131.376ZM321.706 136.16C320.522 136.16 319.21 135.696 318.282 134.944L318.906 134.064C319.802 134.736 320.794 135.12 321.77 135.12C322.762 135.12 323.482 134.608 323.482 133.808V133.776C323.482 132.944 322.506 132.624 321.418 132.32C320.122 131.952 318.682 131.504 318.682 129.984V129.952C318.682 128.528 319.866 127.584 321.498 127.584C322.506 127.584 323.626 127.936 324.474 128.496L323.914 129.424C323.146 128.928 322.266 128.624 321.466 128.624C320.49 128.624 319.866 129.136 319.866 129.824V129.856C319.866 130.64 320.89 130.944 321.994 131.28C323.274 131.664 324.65 132.16 324.65 133.648V133.68C324.65 135.248 323.354 136.16 321.706 136.16Z" fill="#171717"/>
<mask id="mask1_493_3869" style="mask-type:alpha" maskUnits="userSpaceOnUse" x="478" y="119" width="24" height="24">
<path d="M490 136L500 126H498.586L490 134.586L481.414 126H480L489.293 135.293L490 136Z" fill="black"/>
</mask>
<g mask="url(#mask1_493_3869)">
<rect x="478" y="119" width="24" height="24" fill="#141B4D"/>
</g>
<rect x="146" y="154" width="368" height="1" fill="#DCDFDF"/>
<rect x="146" y="106" width="368" height="1" fill="#DCDFDF"/>
<rect x="146" y="154" width="368" height="1" fill="#DCDFDF"/>
<path d="M164.633 180.18C164.633 181.466 164.398 182.542 163.93 183.406C163.461 184.266 162.781 184.914 161.891 185.352C161.005 185.784 159.93 186 158.664 186H155.562V174.578H159.008C160.169 174.578 161.169 174.792 162.008 175.219C162.846 175.641 163.492 176.268 163.945 177.102C164.404 177.93 164.633 178.956 164.633 180.18ZM163.234 180.227C163.234 179.201 163.062 178.354 162.719 177.688C162.38 177.021 161.88 176.526 161.219 176.203C160.562 175.875 159.758 175.711 158.805 175.711H156.891V184.859H158.508C160.081 184.859 161.26 184.471 162.047 183.695C162.839 182.919 163.234 181.763 163.234 180.227ZM168.773 177.438V186H167.477V177.438H168.773ZM168.141 174.234C168.354 174.234 168.536 174.305 168.688 174.445C168.844 174.581 168.922 174.794 168.922 175.086C168.922 175.372 168.844 175.586 168.688 175.727C168.536 175.867 168.354 175.938 168.141 175.938C167.917 175.938 167.729 175.867 167.578 175.727C167.432 175.586 167.359 175.372 167.359 175.086C167.359 174.794 167.432 174.581 167.578 174.445C167.729 174.305 167.917 174.234 168.141 174.234ZM174.414 189.844C173.289 189.844 172.422 189.633 171.812 189.211C171.203 188.794 170.898 188.208 170.898 187.453C170.898 186.917 171.068 186.458 171.406 186.078C171.75 185.698 172.224 185.445 172.828 185.32C172.604 185.216 172.411 185.06 172.25 184.852C172.094 184.643 172.016 184.404 172.016 184.133C172.016 183.82 172.102 183.547 172.273 183.312C172.451 183.073 172.719 182.844 173.078 182.625C172.63 182.443 172.266 182.135 171.984 181.703C171.708 181.266 171.57 180.758 171.57 180.18C171.57 179.565 171.698 179.042 171.953 178.609C172.208 178.172 172.578 177.839 173.062 177.609C173.547 177.38 174.133 177.266 174.82 177.266C174.971 177.266 175.122 177.273 175.273 177.289C175.43 177.299 175.578 177.318 175.719 177.344C175.859 177.365 175.982 177.391 176.086 177.422H179.023V178.258L177.445 178.453C177.602 178.656 177.732 178.901 177.836 179.188C177.94 179.474 177.992 179.792 177.992 180.141C177.992 180.995 177.703 181.674 177.125 182.18C176.547 182.68 175.753 182.93 174.742 182.93C174.503 182.93 174.258 182.909 174.008 182.867C173.753 183.008 173.557 183.164 173.422 183.336C173.292 183.508 173.227 183.706 173.227 183.93C173.227 184.096 173.276 184.229 173.375 184.328C173.479 184.427 173.628 184.5 173.82 184.547C174.013 184.589 174.245 184.609 174.516 184.609H176.023C176.956 184.609 177.669 184.805 178.164 185.195C178.664 185.586 178.914 186.156 178.914 186.906C178.914 187.854 178.529 188.581 177.758 189.086C176.987 189.591 175.872 189.844 174.414 189.844ZM174.453 188.828C175.161 188.828 175.747 188.755 176.211 188.609C176.68 188.469 177.029 188.263 177.258 187.992C177.492 187.727 177.609 187.409 177.609 187.039C177.609 186.695 177.531 186.435 177.375 186.258C177.219 186.086 176.99 185.971 176.688 185.914C176.385 185.852 176.016 185.82 175.578 185.82H174.094C173.708 185.82 173.372 185.88 173.086 186C172.799 186.12 172.578 186.297 172.422 186.531C172.271 186.766 172.195 187.057 172.195 187.406C172.195 187.87 172.391 188.221 172.781 188.461C173.172 188.706 173.729 188.828 174.453 188.828ZM174.789 181.984C175.409 181.984 175.875 181.828 176.188 181.516C176.5 181.203 176.656 180.747 176.656 180.148C176.656 179.508 176.497 179.029 176.18 178.711C175.862 178.388 175.393 178.227 174.773 178.227C174.18 178.227 173.721 178.393 173.398 178.727C173.081 179.055 172.922 179.536 172.922 180.172C172.922 180.755 173.083 181.203 173.406 181.516C173.729 181.828 174.19 181.984 174.789 181.984ZM182.508 177.438V186H181.211V177.438H182.508ZM181.875 174.234C182.089 174.234 182.271 174.305 182.422 174.445C182.578 174.581 182.656 174.794 182.656 175.086C182.656 175.372 182.578 175.586 182.422 175.727C182.271 175.867 182.089 175.938 181.875 175.938C181.651 175.938 181.464 175.867 181.312 175.727C181.167 175.586 181.094 175.372 181.094 175.086C181.094 174.794 181.167 174.581 181.312 174.445C181.464 174.305 181.651 174.234 181.875 174.234ZM188.523 185.094C188.737 185.094 188.956 185.076 189.18 185.039C189.404 185.003 189.586 184.958 189.727 184.906V185.914C189.576 185.982 189.365 186.039 189.094 186.086C188.828 186.133 188.568 186.156 188.312 186.156C187.859 186.156 187.448 186.078 187.078 185.922C186.708 185.76 186.411 185.49 186.188 185.109C185.969 184.729 185.859 184.203 185.859 183.531V178.453H184.641V177.82L185.867 177.312L186.383 175.453H187.164V177.438H189.672V178.453H187.164V183.492C187.164 184.029 187.286 184.43 187.531 184.695C187.781 184.961 188.112 185.094 188.523 185.094ZM195.164 177.297C196.185 177.297 196.943 177.526 197.438 177.984C197.932 178.443 198.18 179.174 198.18 180.18V186H197.234L196.984 184.734H196.922C196.682 185.047 196.432 185.31 196.172 185.523C195.911 185.732 195.609 185.891 195.266 186C194.927 186.104 194.51 186.156 194.016 186.156C193.495 186.156 193.031 186.065 192.625 185.883C192.224 185.701 191.906 185.424 191.672 185.055C191.443 184.685 191.328 184.216 191.328 183.648C191.328 182.794 191.667 182.138 192.344 181.68C193.021 181.221 194.052 180.971 195.438 180.93L196.914 180.867V180.344C196.914 179.604 196.755 179.086 196.438 178.789C196.12 178.492 195.672 178.344 195.094 178.344C194.646 178.344 194.219 178.409 193.812 178.539C193.406 178.669 193.021 178.823 192.656 179L192.258 178.016C192.643 177.818 193.086 177.648 193.586 177.508C194.086 177.367 194.612 177.297 195.164 177.297ZM196.898 181.781L195.594 181.836C194.526 181.878 193.773 182.052 193.336 182.359C192.898 182.667 192.68 183.102 192.68 183.664C192.68 184.154 192.828 184.516 193.125 184.75C193.422 184.984 193.815 185.102 194.305 185.102C195.065 185.102 195.688 184.891 196.172 184.469C196.656 184.047 196.898 183.414 196.898 182.57V181.781ZM202.656 186H201.352V173.844H202.656V186ZM217.195 182.961C217.195 183.638 217.026 184.216 216.688 184.695C216.354 185.169 215.885 185.531 215.281 185.781C214.677 186.031 213.966 186.156 213.148 186.156C212.716 186.156 212.307 186.135 211.922 186.094C211.536 186.052 211.182 185.992 210.859 185.914C210.536 185.836 210.253 185.74 210.008 185.625V184.352C210.398 184.513 210.875 184.664 211.438 184.805C212 184.94 212.589 185.008 213.203 185.008C213.776 185.008 214.26 184.932 214.656 184.781C215.052 184.625 215.352 184.404 215.555 184.117C215.763 183.826 215.867 183.477 215.867 183.07C215.867 182.68 215.781 182.354 215.609 182.094C215.438 181.828 215.151 181.589 214.75 181.375C214.354 181.156 213.812 180.924 213.125 180.68C212.641 180.508 212.214 180.32 211.844 180.117C211.474 179.909 211.164 179.674 210.914 179.414C210.664 179.154 210.474 178.852 210.344 178.508C210.219 178.164 210.156 177.771 210.156 177.328C210.156 176.719 210.31 176.198 210.617 175.766C210.93 175.328 211.359 174.995 211.906 174.766C212.458 174.531 213.091 174.414 213.805 174.414C214.414 174.414 214.977 174.471 215.492 174.586C216.013 174.701 216.49 174.854 216.922 175.047L216.508 176.188C216.096 176.016 215.659 175.872 215.195 175.758C214.737 175.643 214.263 175.586 213.773 175.586C213.284 175.586 212.87 175.659 212.531 175.805C212.198 175.945 211.943 176.146 211.766 176.406C211.589 176.667 211.5 176.977 211.5 177.336C211.5 177.737 211.583 178.07 211.75 178.336C211.922 178.602 212.193 178.839 212.562 179.047C212.938 179.25 213.432 179.464 214.047 179.688C214.719 179.932 215.289 180.193 215.758 180.469C216.227 180.74 216.583 181.073 216.828 181.469C217.073 181.859 217.195 182.357 217.195 182.961ZM227.219 181.703C227.219 182.406 227.128 183.034 226.945 183.586C226.763 184.138 226.5 184.604 226.156 184.984C225.812 185.365 225.396 185.656 224.906 185.859C224.422 186.057 223.872 186.156 223.258 186.156C222.685 186.156 222.159 186.057 221.68 185.859C221.206 185.656 220.794 185.365 220.445 184.984C220.102 184.604 219.833 184.138 219.641 183.586C219.453 183.034 219.359 182.406 219.359 181.703C219.359 180.766 219.518 179.969 219.836 179.312C220.154 178.651 220.607 178.148 221.195 177.805C221.789 177.456 222.495 177.281 223.312 177.281C224.094 177.281 224.776 177.456 225.359 177.805C225.948 178.154 226.404 178.659 226.727 179.32C227.055 179.977 227.219 180.771 227.219 181.703ZM220.703 181.703C220.703 182.391 220.794 182.987 220.977 183.492C221.159 183.997 221.44 184.388 221.82 184.664C222.201 184.94 222.69 185.078 223.289 185.078C223.883 185.078 224.37 184.94 224.75 184.664C225.135 184.388 225.419 183.997 225.602 183.492C225.784 182.987 225.875 182.391 225.875 181.703C225.875 181.021 225.784 180.432 225.602 179.938C225.419 179.438 225.138 179.052 224.758 178.781C224.378 178.51 223.885 178.375 223.281 178.375C222.391 178.375 221.737 178.669 221.32 179.258C220.909 179.846 220.703 180.661 220.703 181.703ZM231.266 186H229.961V173.844H231.266V186ZM241.578 177.438V186H240.516L240.328 184.797H240.258C240.081 185.094 239.852 185.344 239.57 185.547C239.289 185.75 238.971 185.901 238.617 186C238.268 186.104 237.896 186.156 237.5 186.156C236.823 186.156 236.255 186.047 235.797 185.828C235.339 185.609 234.992 185.271 234.758 184.812C234.529 184.354 234.414 183.766 234.414 183.047V177.438H235.727V182.953C235.727 183.667 235.888 184.201 236.211 184.555C236.534 184.904 237.026 185.078 237.688 185.078C238.323 185.078 238.828 184.958 239.203 184.719C239.583 184.479 239.857 184.128 240.023 183.664C240.19 183.195 240.273 182.622 240.273 181.945V177.438H241.578ZM247.586 185.094C247.799 185.094 248.018 185.076 248.242 185.039C248.466 185.003 248.648 184.958 248.789 184.906V185.914C248.638 185.982 248.427 186.039 248.156 186.086C247.891 186.133 247.63 186.156 247.375 186.156C246.922 186.156 246.51 186.078 246.141 185.922C245.771 185.76 245.474 185.49 245.25 185.109C245.031 184.729 244.922 184.203 244.922 183.531V178.453H243.703V177.82L244.93 177.312L245.445 175.453H246.227V177.438H248.734V178.453H246.227V183.492C246.227 184.029 246.349 184.43 246.594 184.695C246.844 184.961 247.174 185.094 247.586 185.094ZM252.32 177.438V186H251.023V177.438H252.32ZM251.688 174.234C251.901 174.234 252.083 174.305 252.234 174.445C252.391 174.581 252.469 174.794 252.469 175.086C252.469 175.372 252.391 175.586 252.234 175.727C252.083 175.867 251.901 175.938 251.688 175.938C251.464 175.938 251.276 175.867 251.125 175.727C250.979 175.586 250.906 175.372 250.906 175.086C250.906 174.794 250.979 174.581 251.125 174.445C251.276 174.305 251.464 174.234 251.688 174.234ZM262.953 181.703C262.953 182.406 262.862 183.034 262.68 183.586C262.497 184.138 262.234 184.604 261.891 184.984C261.547 185.365 261.13 185.656 260.641 185.859C260.156 186.057 259.607 186.156 258.992 186.156C258.419 186.156 257.893 186.057 257.414 185.859C256.94 185.656 256.529 185.365 256.18 184.984C255.836 184.604 255.568 184.138 255.375 183.586C255.188 183.034 255.094 182.406 255.094 181.703C255.094 180.766 255.253 179.969 255.57 179.312C255.888 178.651 256.341 178.148 256.93 177.805C257.523 177.456 258.229 177.281 259.047 177.281C259.828 177.281 260.51 177.456 261.094 177.805C261.682 178.154 262.138 178.659 262.461 179.32C262.789 179.977 262.953 180.771 262.953 181.703ZM256.438 181.703C256.438 182.391 256.529 182.987 256.711 183.492C256.893 183.997 257.174 184.388 257.555 184.664C257.935 184.94 258.424 185.078 259.023 185.078C259.617 185.078 260.104 184.94 260.484 184.664C260.87 184.388 261.154 183.997 261.336 183.492C261.518 182.987 261.609 182.391 261.609 181.703C261.609 181.021 261.518 180.432 261.336 179.938C261.154 179.438 260.872 179.052 260.492 178.781C260.112 178.51 259.62 178.375 259.016 178.375C258.125 178.375 257.471 178.669 257.055 179.258C256.643 179.846 256.438 180.661 256.438 181.703ZM269.75 177.281C270.766 177.281 271.534 177.531 272.055 178.031C272.576 178.526 272.836 179.323 272.836 180.422V186H271.555V180.508C271.555 179.794 271.391 179.26 271.062 178.906C270.74 178.552 270.242 178.375 269.57 178.375C268.622 178.375 267.956 178.643 267.57 179.18C267.185 179.716 266.992 180.495 266.992 181.516V186H265.695V177.438H266.742L266.938 178.672H267.008C267.19 178.37 267.422 178.117 267.703 177.914C267.984 177.706 268.299 177.549 268.648 177.445C268.997 177.336 269.365 177.281 269.75 177.281ZM281.547 183.656C281.547 184.203 281.409 184.664 281.133 185.039C280.862 185.409 280.471 185.688 279.961 185.875C279.456 186.062 278.852 186.156 278.148 186.156C277.549 186.156 277.031 186.109 276.594 186.016C276.156 185.922 275.773 185.789 275.445 185.617V184.422C275.794 184.594 276.211 184.75 276.695 184.891C277.18 185.031 277.674 185.102 278.18 185.102C278.919 185.102 279.456 184.982 279.789 184.742C280.122 184.503 280.289 184.177 280.289 183.766C280.289 183.531 280.221 183.326 280.086 183.148C279.956 182.966 279.734 182.792 279.422 182.625C279.109 182.453 278.677 182.266 278.125 182.062C277.578 181.854 277.104 181.648 276.703 181.445C276.307 181.237 276 180.984 275.781 180.688C275.568 180.391 275.461 180.005 275.461 179.531C275.461 178.807 275.753 178.253 276.336 177.867C276.924 177.477 277.695 177.281 278.648 177.281C279.164 177.281 279.646 177.333 280.094 177.438C280.547 177.536 280.969 177.672 281.359 177.844L280.922 178.883C280.568 178.732 280.19 178.604 279.789 178.5C279.388 178.396 278.979 178.344 278.562 178.344C277.964 178.344 277.503 178.443 277.18 178.641C276.862 178.839 276.703 179.109 276.703 179.453C276.703 179.719 276.776 179.938 276.922 180.109C277.073 180.281 277.312 180.443 277.641 180.594C277.969 180.745 278.401 180.922 278.938 181.125C279.474 181.323 279.938 181.529 280.328 181.742C280.719 181.951 281.018 182.206 281.227 182.508C281.44 182.805 281.547 183.188 281.547 183.656Z" fill="#002DA2"/>
<mask id="mask2_493_3869" style="mask-type:alpha" maskUnits="userSpaceOnUse" x="478" y="167" width="24" height="24">
<path d="M490 174L480 184H481.414L490 175.414L498.586 184H500L490.707 174.707L490 174Z" fill="black"/>
</mask>
<g mask="url(#mask2_493_3869)">
<rect x="478" y="167" width="24" height="24" fill="#002DA2"/>
</g>
<path d="M157.976 211.222H154.686V210.2H162.386V211.222H159.096V220H157.976V211.222ZM166.309 220.168C164.139 220.168 162.557 218.46 162.557 216.416V216.388C162.557 214.344 164.153 212.608 166.337 212.608C168.507 212.608 170.103 214.316 170.103 216.36V216.388C170.103 218.432 168.493 220.168 166.309 220.168ZM163.663 216.388C163.663 217.942 164.811 219.202 166.337 219.202C167.905 219.202 168.997 217.942 168.997 216.416V216.388C168.997 214.834 167.835 213.56 166.309 213.56C164.741 213.56 163.663 214.834 163.663 216.36V216.388ZM175.762 222.268C174.558 222.268 173.438 221.932 172.472 221.26L172.962 220.42C173.788 221.022 174.712 221.344 175.748 221.344C177.344 221.344 178.38 220.462 178.38 218.768V217.914C177.75 218.754 176.868 219.44 175.538 219.44C173.802 219.44 172.136 218.138 172.136 216.052V216.024C172.136 213.91 173.816 212.608 175.538 212.608C176.896 212.608 177.778 213.28 178.366 214.064V212.762H179.444V218.74C179.444 219.86 179.108 220.714 178.52 221.302C177.876 221.946 176.91 222.268 175.762 222.268ZM173.242 216.024C173.242 217.48 174.404 218.488 175.748 218.488C177.12 218.488 178.408 217.494 178.408 216.038V216.01C178.408 214.526 177.12 213.56 175.748 213.56C174.376 213.56 173.242 214.512 173.242 215.996V216.024ZM182.996 216.822C183.15 218.348 184.27 219.23 185.544 219.23C186.538 219.23 187.238 218.824 187.826 218.208L188.498 218.81C187.77 219.622 186.888 220.168 185.516 220.168C183.528 220.168 181.904 218.642 181.904 216.388C181.904 214.288 183.374 212.608 185.376 212.608C187.518 212.608 188.75 214.316 188.75 216.444C188.75 216.542 188.75 216.654 188.736 216.822H182.996ZM182.996 215.954H187.658C187.532 214.638 186.776 213.518 185.348 213.518C184.102 213.518 183.15 214.554 182.996 215.954ZM193.56 220.126C192.398 220.126 191.516 219.552 191.516 218.082V213.714H190.508V212.762H191.516V210.578H192.594V212.762H194.89V213.714H192.594V217.942C192.594 218.824 193.084 219.146 193.812 219.146C194.176 219.146 194.484 219.076 194.862 218.894V219.818C194.484 220.014 194.078 220.126 193.56 220.126ZM197.298 209.78H198.376V214.022C198.852 213.238 199.608 212.608 200.854 212.608C202.604 212.608 203.626 213.784 203.626 215.506V220H202.548V215.772C202.548 214.428 201.82 213.588 200.546 213.588C199.3 213.588 198.376 214.498 198.376 215.856V220H197.298V209.78ZM207.069 216.822C207.223 218.348 208.343 219.23 209.617 219.23C210.611 219.23 211.311 218.824 211.899 218.208L212.571 218.81C211.843 219.622 210.961 220.168 209.589 220.168C207.601 220.168 205.977 218.642 205.977 216.388C205.977 214.288 207.447 212.608 209.449 212.608C211.591 212.608 212.823 214.316 212.823 216.444C212.823 216.542 212.823 216.654 212.809 216.822H207.069ZM207.069 215.954H211.731C211.605 214.638 210.849 213.518 209.421 213.518C208.175 213.518 207.223 214.554 207.069 215.954ZM215.21 212.762H216.288V214.652C216.82 213.448 217.87 212.58 219.242 212.636V213.798H219.158C217.576 213.798 216.288 214.932 216.288 217.116V220H215.21V212.762ZM225.465 212.762H226.613L228.517 218.572L230.463 212.734H231.359L233.319 218.572L235.223 212.762H236.343L233.795 220.056H232.857L230.911 214.344L228.951 220.056H227.999L225.465 212.762ZM238.928 216.822C239.082 218.348 240.202 219.23 241.476 219.23C242.47 219.23 243.17 218.824 243.758 218.208L244.43 218.81C243.702 219.622 242.82 220.168 241.448 220.168C239.46 220.168 237.836 218.642 237.836 216.388C237.836 214.288 239.306 212.608 241.308 212.608C243.45 212.608 244.682 214.316 244.682 216.444C244.682 216.542 244.682 216.654 244.668 216.822H238.928ZM238.928 215.954H243.59C243.464 214.638 242.708 213.518 241.28 213.518C240.034 213.518 239.082 214.554 238.928 215.954ZM254.805 220.154C253.069 220.154 251.347 218.782 251.347 216.402V216.374C251.347 214.008 253.069 212.608 254.805 212.608C256.149 212.608 257.017 213.336 257.577 214.148V209.78H258.655V220H257.577V218.544C256.989 219.412 256.135 220.154 254.805 220.154ZM252.453 216.388C252.453 218.096 253.629 219.188 255.001 219.188C256.345 219.188 257.619 218.054 257.619 216.388V216.36C257.619 214.694 256.345 213.574 255.001 213.574C253.601 213.574 252.453 214.61 252.453 216.36V216.388ZM262.207 216.822C262.361 218.348 263.481 219.23 264.755 219.23C265.749 219.23 266.449 218.824 267.037 218.208L267.709 218.81C266.981 219.622 266.099 220.168 264.727 220.168C262.739 220.168 261.115 218.642 261.115 216.388C261.115 214.288 262.585 212.608 264.587 212.608C266.729 212.608 267.961 214.316 267.961 216.444C267.961 216.542 267.961 216.654 267.947 216.822H262.207ZM262.207 215.954H266.869C266.743 214.638 265.987 213.518 264.559 213.518C263.313 213.518 262.361 214.554 262.207 215.954ZM272.743 220.14C271.707 220.14 270.559 219.734 269.747 219.076L270.293 218.306C271.077 218.894 271.945 219.23 272.799 219.23C273.667 219.23 274.297 218.782 274.297 218.082V218.054C274.297 217.326 273.443 217.046 272.491 216.78C271.357 216.458 270.097 216.066 270.097 214.736V214.708C270.097 213.462 271.133 212.636 272.561 212.636C273.443 212.636 274.423 212.944 275.165 213.434L274.675 214.246C274.003 213.812 273.233 213.546 272.533 213.546C271.679 213.546 271.133 213.994 271.133 214.596V214.624C271.133 215.31 272.029 215.576 272.995 215.87C274.115 216.206 275.319 216.64 275.319 217.942V217.97C275.319 219.342 274.185 220.14 272.743 220.14ZM277.849 209.99H279.081V211.18H277.849V209.99ZM277.919 220V212.762H278.997V220H277.919ZM285.205 222.268C284.001 222.268 282.881 221.932 281.915 221.26L282.405 220.42C283.231 221.022 284.155 221.344 285.191 221.344C286.787 221.344 287.823 220.462 287.823 218.768V217.914C287.193 218.754 286.311 219.44 284.981 219.44C283.245 219.44 281.579 218.138 281.579 216.052V216.024C281.579 213.91 283.259 212.608 284.981 212.608C286.339 212.608 287.221 213.28 287.809 214.064V212.762H288.887V218.74C288.887 219.86 288.551 220.714 287.963 221.302C287.319 221.946 286.353 222.268 285.205 222.268ZM282.685 216.024C282.685 217.48 283.847 218.488 285.191 218.488C286.563 218.488 287.851 217.494 287.851 216.038V216.01C287.851 214.526 286.563 213.56 285.191 213.56C283.819 213.56 282.685 214.512 282.685 215.996V216.024ZM291.796 212.762H292.874V214.022C293.35 213.238 294.106 212.608 295.352 212.608C297.102 212.608 298.124 213.784 298.124 215.506V220H297.046V215.772C297.046 214.428 296.318 213.588 295.044 213.588C293.798 213.588 292.874 214.498 292.874 215.856V220H291.796V212.762ZM307.776 220.154C306.418 220.154 305.074 219.384 305.074 217.9V217.872C305.074 216.318 306.334 215.506 308.168 215.506C309.092 215.506 309.736 215.632 310.38 215.814V215.59C310.38 214.302 309.596 213.63 308.238 213.63C307.384 213.63 306.712 213.84 306.04 214.148L305.718 213.266C306.516 212.902 307.286 212.65 308.35 212.65C309.372 212.65 310.17 212.93 310.688 213.448C311.192 213.952 311.444 214.652 311.444 215.576V220H310.38V218.922C309.876 219.566 309.05 220.154 307.776 220.154ZM306.166 217.844C306.166 218.754 307.006 219.286 307.986 219.286C309.316 219.286 310.394 218.488 310.394 217.34V216.668C309.862 216.514 309.162 216.36 308.28 216.36C306.936 216.36 306.166 216.948 306.166 217.816V217.844ZM314.227 212.762H315.305V214.022C315.781 213.238 316.537 212.608 317.783 212.608C319.533 212.608 320.555 213.784 320.555 215.506V220H319.477V215.772C319.477 214.428 318.749 213.588 317.475 213.588C316.229 213.588 315.305 214.498 315.305 215.856V220H314.227V212.762ZM326.392 220.154C324.656 220.154 322.934 218.782 322.934 216.402V216.374C322.934 214.008 324.656 212.608 326.392 212.608C327.736 212.608 328.604 213.336 329.164 214.148V209.78H330.242V220H329.164V218.544C328.576 219.412 327.722 220.154 326.392 220.154ZM324.04 216.388C324.04 218.096 325.216 219.188 326.588 219.188C327.932 219.188 329.206 218.054 329.206 216.388V216.36C329.206 214.694 327.932 213.574 326.588 213.574C325.188 213.574 324.04 214.61 324.04 216.36V216.388ZM341.699 220.154C340.355 220.154 339.487 219.426 338.927 218.614V220H337.849V209.78H338.927V214.218C339.515 213.35 340.369 212.608 341.699 212.608C343.435 212.608 345.157 213.98 345.157 216.36V216.388C345.157 218.754 343.449 220.154 341.699 220.154ZM338.885 216.388C338.885 218.068 340.159 219.188 341.503 219.188C342.903 219.188 344.051 218.152 344.051 216.402V216.374C344.051 214.666 342.875 213.574 341.503 213.574C340.159 213.574 338.885 214.708 338.885 216.36V216.388ZM350.305 220.154C348.555 220.154 347.533 218.978 347.533 217.256V212.762H348.611V216.99C348.611 218.334 349.339 219.174 350.613 219.174C351.845 219.174 352.783 218.264 352.783 216.906V212.762H353.847V220H352.783V218.74C352.293 219.524 351.551 220.154 350.305 220.154ZM356.8 209.99H358.032V211.18H356.8V209.99ZM356.87 220V212.762H357.948V220H356.87ZM361.048 209.78H362.126V220H361.048V209.78ZM368.166 220.154C366.43 220.154 364.708 218.782 364.708 216.402V216.374C364.708 214.008 366.43 212.608 368.166 212.608C369.51 212.608 370.378 213.336 370.938 214.148V209.78H372.016V220H370.938V218.544C370.35 219.412 369.496 220.154 368.166 220.154ZM365.814 216.388C365.814 218.096 366.99 219.188 368.362 219.188C369.706 219.188 370.98 218.054 370.98 216.388V216.36C370.98 214.694 369.706 213.574 368.362 213.574C366.962 213.574 365.814 214.61 365.814 216.36V216.388ZM380.742 222.282C380.14 222.282 379.692 222.156 379.202 221.918L379.566 221.064C379.916 221.246 380.238 221.33 380.7 221.33C381.344 221.33 381.75 220.994 382.184 219.972L378.894 212.762H380.084L382.716 218.796L385.04 212.762H386.188L383.15 220.238C382.534 221.736 381.834 222.282 380.742 222.282ZM391.274 220.168C389.104 220.168 387.522 218.46 387.522 216.416V216.388C387.522 214.344 389.118 212.608 391.302 212.608C393.472 212.608 395.068 214.316 395.068 216.36V216.388C395.068 218.432 393.458 220.168 391.274 220.168ZM388.628 216.388C388.628 217.942 389.776 219.202 391.302 219.202C392.87 219.202 393.962 217.942 393.962 216.416V216.388C393.962 214.834 392.8 213.56 391.274 213.56C389.706 213.56 388.628 214.834 388.628 216.36V216.388ZM400.18 220.154C398.43 220.154 397.408 218.978 397.408 217.256V212.762H398.486V216.99C398.486 218.334 399.214 219.174 400.488 219.174C401.72 219.174 402.658 218.264 402.658 216.906V212.762H403.722V220H402.658V218.74C402.168 219.524 401.426 220.154 400.18 220.154ZM406.647 212.762H407.725V214.652C408.257 213.448 409.307 212.58 410.679 212.636V213.798H410.595C409.013 213.798 407.725 214.932 407.725 217.116V220H406.647V212.762ZM420.556 220.154C418.82 220.154 417.098 218.782 417.098 216.402V216.374C417.098 214.008 418.82 212.608 420.556 212.608C421.9 212.608 422.768 213.336 423.328 214.148V209.78H424.406V220H423.328V218.544C422.74 219.412 421.886 220.154 420.556 220.154ZM418.204 216.388C418.204 218.096 419.38 219.188 420.752 219.188C422.096 219.188 423.37 218.054 423.37 216.388V216.36C423.37 214.694 422.096 213.574 420.752 213.574C419.352 213.574 418.204 214.61 418.204 216.36V216.388ZM427.343 209.99H428.575V211.18H427.343V209.99ZM427.413 220V212.762H428.491V220H427.413ZM434.699 222.268C433.495 222.268 432.375 221.932 431.409 221.26L431.899 220.42C432.725 221.022 433.649 221.344 434.685 221.344C436.281 221.344 437.317 220.462 437.317 218.768V217.914C436.687 218.754 435.805 219.44 434.475 219.44C432.739 219.44 431.073 218.138 431.073 216.052V216.024C431.073 213.91 432.753 212.608 434.475 212.608C435.833 212.608 436.715 213.28 437.303 214.064V212.762H438.381V218.74C438.381 219.86 438.045 220.714 437.457 221.302C436.813 221.946 435.847 222.268 434.699 222.268ZM432.179 216.024C432.179 217.48 433.341 218.488 434.685 218.488C436.057 218.488 437.345 217.494 437.345 216.038V216.01C437.345 214.526 436.057 213.56 434.685 213.56C433.313 213.56 432.179 214.512 432.179 215.996V216.024ZM441.318 209.99H442.55V211.18H441.318V209.99ZM441.388 220V212.762H442.466V220H441.388ZM447.89 220.126C446.728 220.126 445.846 219.552 445.846 218.082V213.714H444.838V212.762H445.846V210.578H446.924V212.762H449.22V213.714H446.924V217.942C446.924 218.824 447.414 219.146 448.142 219.146C448.506 219.146 448.814 219.076 449.192 218.894V219.818C448.814 220.014 448.408 220.126 447.89 220.126ZM453.784 220.154C452.426 220.154 451.082 219.384 451.082 217.9V217.872C451.082 216.318 452.342 215.506 454.176 215.506C455.1 215.506 455.744 215.632 456.388 215.814V215.59C456.388 214.302 455.604 213.63 454.246 213.63C453.392 213.63 452.72 213.84 452.048 214.148L451.726 213.266C452.524 212.902 453.294 212.65 454.358 212.65C455.38 212.65 456.178 212.93 456.696 213.448C457.2 213.952 457.452 214.652 457.452 215.576V220H456.388V218.922C455.884 219.566 455.058 220.154 453.784 220.154ZM452.174 217.844C452.174 218.754 453.014 219.286 453.994 219.286C455.324 219.286 456.402 218.488 456.402 217.34V216.668C455.87 216.514 455.17 216.36 454.288 216.36C452.944 216.36 452.174 216.948 452.174 217.816V217.844ZM460.333 209.78H461.411V220H460.333V209.78ZM157.598 242.14C156.562 242.14 155.414 241.734 154.602 241.076L155.148 240.306C155.932 240.894 156.8 241.23 157.654 241.23C158.522 241.23 159.152 240.782 159.152 240.082V240.054C159.152 239.326 158.298 239.046 157.346 238.78C156.212 238.458 154.952 238.066 154.952 236.736V236.708C154.952 235.462 155.988 234.636 157.416 234.636C158.298 234.636 159.278 234.944 160.02 235.434L159.53 236.246C158.858 235.812 158.088 235.546 157.388 235.546C156.534 235.546 155.988 235.994 155.988 236.596V236.624C155.988 237.31 156.884 237.576 157.85 237.87C158.97 238.206 160.174 238.64 160.174 239.942V239.97C160.174 241.342 159.04 242.14 157.598 242.14ZM164.962 242.126C163.8 242.126 162.918 241.552 162.918 240.082V235.714H161.91V234.762H162.918V232.578H163.996V234.762H166.292V235.714H163.996V239.942C163.996 240.824 164.486 241.146 165.214 241.146C165.578 241.146 165.886 241.076 166.264 240.894V241.818C165.886 242.014 165.48 242.126 164.962 242.126ZM168.7 234.762H169.778V236.652C170.31 235.448 171.36 234.58 172.732 234.636V235.798H172.648C171.066 235.798 169.778 236.932 169.778 239.116V242H168.7V234.762ZM176.674 242.154C175.316 242.154 173.972 241.384 173.972 239.9V239.872C173.972 238.318 175.232 237.506 177.066 237.506C177.99 237.506 178.634 237.632 179.278 237.814V237.59C179.278 236.302 178.494 235.63 177.136 235.63C176.282 235.63 175.61 235.84 174.938 236.148L174.616 235.266C175.414 234.902 176.184 234.65 177.248 234.65C178.27 234.65 179.068 234.93 179.586 235.448C180.09 235.952 180.342 236.652 180.342 237.576V242H179.278V240.922C178.774 241.566 177.948 242.154 176.674 242.154ZM175.064 239.844C175.064 240.754 175.904 241.286 176.884 241.286C178.214 241.286 179.292 240.488 179.292 239.34V238.668C178.76 238.514 178.06 238.36 177.178 238.36C175.834 238.36 175.064 238.948 175.064 239.816V239.844ZM185.48 242.126C184.318 242.126 183.436 241.552 183.436 240.082V235.714H182.428V234.762H183.436V232.578H184.514V234.762H186.81V235.714H184.514V239.942C184.514 240.824 185.004 241.146 185.732 241.146C186.096 241.146 186.404 241.076 186.782 240.894V241.818C186.404 242.014 185.998 242.126 185.48 242.126ZM189.657 238.822C189.811 240.348 190.931 241.23 192.205 241.23C193.199 241.23 193.899 240.824 194.487 240.208L195.159 240.81C194.431 241.622 193.549 242.168 192.177 242.168C190.189 242.168 188.565 240.642 188.565 238.388C188.565 236.288 190.035 234.608 192.037 234.608C194.179 234.608 195.411 236.316 195.411 238.444C195.411 238.542 195.411 238.654 195.397 238.822H189.657ZM189.657 237.954H194.319C194.193 236.638 193.437 235.518 192.009 235.518C190.763 235.518 189.811 236.554 189.657 237.954ZM201.004 244.268C199.8 244.268 198.68 243.932 197.714 243.26L198.204 242.42C199.03 243.022 199.954 243.344 200.99 243.344C202.586 243.344 203.622 242.462 203.622 240.768V239.914C202.992 240.754 202.11 241.44 200.78 241.44C199.044 241.44 197.378 240.138 197.378 238.052V238.024C197.378 235.91 199.058 234.608 200.78 234.608C202.138 234.608 203.02 235.28 203.608 236.064V234.762H204.686V240.74C204.686 241.86 204.35 242.714 203.762 243.302C203.118 243.946 202.152 244.268 201.004 244.268ZM198.484 238.024C198.484 239.48 199.646 240.488 200.99 240.488C202.362 240.488 203.65 239.494 203.65 238.038V238.01C203.65 236.526 202.362 235.56 200.99 235.56C199.618 235.56 198.484 236.512 198.484 237.996V238.024ZM208.715 244.282C208.113 244.282 207.665 244.156 207.175 243.918L207.539 243.064C207.889 243.246 208.211 243.33 208.673 243.33C209.317 243.33 209.723 242.994 210.157 241.972L206.867 234.762H208.057L210.689 240.796L213.013 234.762H214.161L211.123 242.238C210.507 243.736 209.807 244.282 208.715 244.282ZM215.051 240.53H216.339V242H215.051V240.53Z" fill="#171717"/>
<rect x="146" y="261" width="368" height="1" fill="#DCDFDF"/>
</svg>
