<svg width="591" height="213" viewBox="0 0 591 213" fill="none" xmlns="http://www.w3.org/2000/svg">
<rect width="591" height="213" fill="white"/>
<g clip-path="url(#clip0_500_3650)">
<path d="M107.584 98.8H108.864L112.944 104.912L117.024 98.8H118.304V110H117.04V100.928L112.96 106.928H112.896L108.816 100.944V110H107.584V98.8ZM123.047 112.608C122.359 112.608 121.847 112.464 121.287 112.192L121.703 111.216C122.103 111.424 122.471 111.52 122.999 111.52C123.735 111.52 124.199 111.136 124.695 109.968L120.935 101.728H122.295L125.303 108.624L127.959 101.728H129.271L125.799 110.272C125.095 111.984 124.295 112.608 123.047 112.608ZM140.185 99.968H136.425V98.8H145.225V99.968H141.465V110H140.185V99.968ZM146.596 106.368C146.772 108.112 148.052 109.12 149.508 109.12C150.644 109.12 151.444 108.656 152.116 107.952L152.884 108.64C152.052 109.568 151.044 110.192 149.476 110.192C147.204 110.192 145.348 108.448 145.348 105.872C145.348 103.472 147.028 101.552 149.316 101.552C151.764 101.552 153.172 103.504 153.172 105.936C153.172 106.048 153.172 106.176 153.156 106.368H146.596ZM146.596 105.376H151.924C151.78 103.872 150.916 102.592 149.284 102.592C147.86 102.592 146.772 103.776 146.596 105.376ZM159.557 110.192C157.141 110.192 155.317 108.224 155.317 105.904V105.872C155.317 103.536 157.141 101.552 159.557 101.552C161.125 101.552 162.101 102.208 162.869 103.024L162.053 103.888C161.397 103.2 160.661 102.64 159.541 102.64C157.861 102.64 156.581 104.064 156.581 105.84V105.872C156.581 107.664 157.893 109.088 159.621 109.088C160.677 109.088 161.493 108.56 162.149 107.856L162.933 108.592C162.101 109.52 161.109 110.192 159.557 110.192ZM165.47 98.32H166.702V103.168C167.246 102.272 168.11 101.552 169.534 101.552C171.534 101.552 172.702 102.896 172.702 104.864V110H171.47V105.168C171.47 103.632 170.638 102.672 169.182 102.672C167.758 102.672 166.702 103.712 166.702 105.264V110H165.47V98.32ZM197.545 97.232H198.585V112.048H197.545V97.232Z" fill="#8CC8E9"/>
<path d="M228.892 110.192C225.66 110.192 223.276 107.648 223.276 104.432V104.4C223.276 101.232 225.644 98.608 228.94 98.608C230.972 98.608 232.188 99.328 233.308 100.384L232.444 101.312C231.5 100.416 230.444 99.776 228.924 99.776C226.444 99.776 224.588 101.792 224.588 104.368V104.4C224.588 106.992 226.46 109.024 228.924 109.024C230.46 109.024 231.468 108.432 232.54 107.408L233.372 108.224C232.204 109.408 230.924 110.192 228.892 110.192ZM238.34 110.176C236.788 110.176 235.252 109.296 235.252 107.6V107.568C235.252 105.792 236.692 104.864 238.788 104.864C239.844 104.864 240.58 105.008 241.316 105.216V104.96C241.316 103.488 240.42 102.72 238.868 102.72C237.892 102.72 237.124 102.96 236.356 103.312L235.988 102.304C236.9 101.888 237.78 101.6 238.996 101.6C240.164 101.6 241.076 101.92 241.668 102.512C242.244 103.088 242.532 103.888 242.532 104.944V110H241.316V108.768C240.74 109.504 239.796 110.176 238.34 110.176ZM236.5 107.536C236.5 108.576 237.46 109.184 238.58 109.184C240.1 109.184 241.332 108.272 241.332 106.96V106.192C240.724 106.016 239.924 105.84 238.916 105.84C237.38 105.84 236.5 106.512 236.5 107.504V107.536ZM248.332 110.144C247.004 110.144 245.996 109.488 245.996 107.808V102.816H244.844V101.728H245.996V99.232H247.228V101.728H249.852V102.816H247.228V107.648C247.228 108.656 247.788 109.024 248.62 109.024C249.036 109.024 249.388 108.944 249.82 108.736V109.792C249.388 110.016 248.924 110.144 248.332 110.144ZM253.034 106.368C253.21 108.112 254.49 109.12 255.946 109.12C257.082 109.12 257.882 108.656 258.554 107.952L259.322 108.64C258.49 109.568 257.482 110.192 255.914 110.192C253.642 110.192 251.786 108.448 251.786 105.872C251.786 103.472 253.466 101.552 255.754 101.552C258.202 101.552 259.61 103.504 259.61 105.936C259.61 106.048 259.61 106.176 259.594 106.368H253.034ZM253.034 105.376H258.362C258.218 103.872 257.354 102.592 255.722 102.592C254.298 102.592 253.21 103.776 253.034 105.376ZM265.931 112.592C264.555 112.592 263.275 112.208 262.171 111.44L262.731 110.48C263.675 111.168 264.731 111.536 265.915 111.536C267.739 111.536 268.923 110.528 268.923 108.592V107.616C268.203 108.576 267.195 109.36 265.675 109.36C263.691 109.36 261.787 107.872 261.787 105.488V105.456C261.787 103.04 263.707 101.552 265.675 101.552C267.227 101.552 268.235 102.32 268.907 103.216V101.728H270.139V108.56C270.139 109.84 269.755 110.816 269.083 111.488C268.347 112.224 267.243 112.592 265.931 112.592ZM263.051 105.456C263.051 107.12 264.379 108.272 265.915 108.272C267.483 108.272 268.955 107.136 268.955 105.472V105.44C268.955 103.744 267.483 102.64 265.915 102.64C264.347 102.64 263.051 103.728 263.051 105.424V105.456ZM277.168 110.192C274.688 110.192 272.88 108.24 272.88 105.904V105.872C272.88 103.536 274.704 101.552 277.2 101.552C279.68 101.552 281.504 103.504 281.504 105.84V105.872C281.504 108.208 279.664 110.192 277.168 110.192ZM274.144 105.872C274.144 107.648 275.456 109.088 277.2 109.088C278.992 109.088 280.24 107.648 280.24 105.904V105.872C280.24 104.096 278.912 102.64 277.168 102.64C275.376 102.64 274.144 104.096 274.144 105.84V105.872ZM284.235 101.728H285.467V103.888C286.075 102.512 287.275 101.52 288.843 101.584V102.912H288.747C286.939 102.912 285.467 104.208 285.467 106.704V110H284.235V101.728ZM292.5 112.608C291.812 112.608 291.3 112.464 290.74 112.192L291.156 111.216C291.556 111.424 291.924 111.52 292.452 111.52C293.188 111.52 293.652 111.136 294.148 109.968L290.388 101.728H291.748L294.756 108.624L297.412 101.728H298.724L295.252 110.272C294.548 111.984 293.748 112.608 292.5 112.608ZM317.592 97.232H318.632V112.048H317.592V97.232Z" fill="#8CC8E9"/>
<path d="M348.612 110.16C346.836 110.16 345.38 109.568 344.036 108.368L344.82 107.44C345.988 108.496 347.108 109.024 348.66 109.024C350.164 109.024 351.156 108.224 351.156 107.12V107.088C351.156 106.048 350.596 105.456 348.244 104.96C345.668 104.4 344.484 103.568 344.484 101.728V101.696C344.484 99.936 346.036 98.64 348.164 98.64C349.796 98.64 350.964 99.104 352.1 100.016L351.364 100.992C350.324 100.144 349.284 99.776 348.132 99.776C346.676 99.776 345.748 100.576 345.748 101.584V101.616C345.748 102.672 346.324 103.264 348.788 103.792C351.284 104.336 352.436 105.248 352.436 106.96V106.992C352.436 108.912 350.836 110.16 348.612 110.16ZM357.988 110.144C356.66 110.144 355.652 109.488 355.652 107.808V102.816H354.5V101.728H355.652V99.232H356.884V101.728H359.508V102.816H356.884V107.648C356.884 108.656 357.444 109.024 358.276 109.024C358.692 109.024 359.044 108.944 359.476 108.736V109.792C359.044 110.016 358.58 110.144 357.988 110.144ZM362.69 106.368C362.866 108.112 364.146 109.12 365.602 109.12C366.738 109.12 367.538 108.656 368.21 107.952L368.978 108.64C368.146 109.568 367.138 110.192 365.57 110.192C363.298 110.192 361.442 108.448 361.442 105.872C361.442 103.472 363.122 101.552 365.41 101.552C367.858 101.552 369.266 103.504 369.266 105.936C369.266 106.048 369.266 106.176 369.25 106.368H362.69ZM362.69 105.376H368.018C367.874 103.872 367.01 102.592 365.378 102.592C363.954 102.592 362.866 103.776 362.69 105.376ZM371.923 101.728H373.155V103.392C373.827 102.4 374.803 101.552 376.323 101.552C378.307 101.552 380.275 103.12 380.275 105.84V105.872C380.275 108.576 378.323 110.176 376.323 110.176C374.787 110.176 373.795 109.344 373.155 108.416V112.56H371.923V101.728ZM373.107 105.872C373.107 107.792 374.563 109.072 376.099 109.072C377.699 109.072 379.011 107.888 379.011 105.888V105.856C379.011 103.904 377.667 102.656 376.099 102.656C374.563 102.656 373.107 103.952 373.107 105.84V105.872ZM386.648 110.192C384.776 110.192 383.384 109.376 382.472 108.192L383.384 107.376C384.248 108.432 385.288 109.04 386.664 109.04C388.024 109.04 389.112 108.176 389.112 106.864V106.832C389.112 105.44 387.816 104.672 385.976 104.672H385.256L385 103.92L388.536 99.936H383.064V98.8H390.216V99.728L386.696 103.632C388.648 103.792 390.392 104.736 390.392 106.784V106.816C390.392 108.816 388.728 110.192 386.648 110.192ZM409.779 97.232H410.819V112.048H409.779V97.232Z" fill="#8CC8E9"/>
<path d="M435.219 110.16C433.523 110.16 431.811 109.568 430.467 108.368L431.923 106.624C432.931 107.456 433.987 107.984 435.267 107.984C436.275 107.984 436.883 107.584 436.883 106.928V106.896C436.883 106.272 436.499 105.952 434.627 105.472C432.371 104.896 430.915 104.272 430.915 102.048V102.016C430.915 99.984 432.547 98.64 434.835 98.64C436.467 98.64 437.859 99.152 438.995 100.064L437.715 101.92C436.723 101.232 435.747 100.816 434.803 100.816C433.859 100.816 433.363 101.248 433.363 101.792V101.824C433.363 102.56 433.843 102.8 435.779 103.296C438.051 103.888 439.331 104.704 439.331 106.656V106.688C439.331 108.912 437.635 110.16 435.219 110.16ZM444.531 110.144C443.043 110.144 442.035 109.552 442.035 107.568V103.504H441.011V101.424H442.035V99.232H444.467V101.424H446.483V103.504H444.467V107.168C444.467 107.728 444.707 108 445.251 108C445.699 108 446.099 107.888 446.451 107.696V109.648C445.939 109.952 445.347 110.144 444.531 110.144ZM452.605 110.192C450.029 110.192 448.125 108.384 448.125 105.76V105.728C448.125 103.28 449.869 101.264 452.365 101.264C455.229 101.264 456.541 103.488 456.541 105.92C456.541 106.112 456.525 106.336 456.509 106.56H450.541C450.781 107.664 451.549 108.24 452.637 108.24C453.453 108.24 454.045 107.984 454.717 107.36L456.109 108.592C455.309 109.584 454.157 110.192 452.605 110.192ZM450.509 105.04H454.173C454.029 103.952 453.389 103.216 452.365 103.216C451.357 103.216 450.701 103.936 450.509 105.04ZM458.854 101.424H461.286V102.656C461.878 101.856 462.694 101.264 463.958 101.264C465.958 101.264 467.862 102.832 467.862 105.696V105.728C467.862 108.592 465.99 110.16 463.958 110.16C462.662 110.16 461.862 109.568 461.286 108.88V112.56H458.854V101.424ZM461.254 105.728C461.254 107.152 462.198 108.096 463.334 108.096C464.47 108.096 465.43 107.168 465.43 105.728V105.696C465.43 104.272 464.47 103.328 463.334 103.328C462.198 103.328 461.254 104.272 461.254 105.696V105.728ZM480.727 107.584H475.255L474.855 105.84L480.999 98.72H483.079V105.584H484.583V107.584H483.079V110H480.727V107.584ZM477.751 105.584H480.727V102.096L477.751 105.584Z" fill="#1F74DB"/>
</g>
<rect x="135.5" y="47.9984" width="1" height="45.6007" fill="#008574"/>
<rect x="125" y="26" width="22" height="22" rx="11" fill="#008574"/>
<path d="M135.603 42V34.244L133.993 34.622V33.25L136.359 32.2H137.465V42H135.603Z" fill="white"/>
<rect x="125" y="26" width="22" height="22" rx="11" stroke="white" stroke-width="2"/>
<rect x="456.5" y="47.9984" width="1" height="45.6007" fill="#008574"/>
<rect x="446" y="26" width="22" height="22" rx="11" fill="#008574"/>
<path d="M456.988 42.168C456.344 42.168 455.761 42.056 455.238 41.832C454.715 41.5987 454.295 41.244 453.978 40.768C453.661 40.292 453.493 39.6947 453.474 38.976H455.238C455.247 39.452 455.401 39.8533 455.7 40.18C456.008 40.4973 456.437 40.656 456.988 40.656C457.511 40.656 457.912 40.5113 458.192 40.222C458.472 39.9327 458.612 39.5687 458.612 39.13C458.612 38.6167 458.425 38.2293 458.052 37.968C457.688 37.6973 457.217 37.562 456.638 37.562H455.91V36.092H456.652C457.128 36.092 457.525 35.98 457.842 35.756C458.159 35.532 458.318 35.2007 458.318 34.762C458.318 34.398 458.197 34.1087 457.954 33.894C457.721 33.67 457.394 33.558 456.974 33.558C456.517 33.558 456.157 33.6933 455.896 33.964C455.644 34.2347 455.504 34.566 455.476 34.958H453.726C453.763 34.0527 454.076 33.3387 454.664 32.816C455.261 32.2933 456.031 32.032 456.974 32.032C457.646 32.032 458.211 32.1533 458.668 32.396C459.135 32.6293 459.485 32.942 459.718 33.334C459.961 33.726 460.082 34.16 460.082 34.636C460.082 35.1867 459.928 35.6533 459.62 36.036C459.321 36.4093 458.948 36.6613 458.5 36.792C459.051 36.904 459.499 37.1747 459.844 37.604C460.189 38.024 460.362 38.556 460.362 39.2C460.362 39.7413 460.231 40.236 459.97 40.684C459.709 41.132 459.326 41.4913 458.822 41.762C458.327 42.0327 457.716 42.168 456.988 42.168Z" fill="white"/>
<rect x="446" y="26" width="22" height="22" rx="11" stroke="white" stroke-width="2"/>
<rect x="263.5" y="119.998" width="1" height="45.6007" fill="#008574"/>
<rect x="253" y="166" width="22" height="22" rx="11" fill="#008574"/>
<path d="M260.715 182V180.698C261.312 180.203 261.891 179.713 262.451 179.228C263.02 178.743 263.524 178.262 263.963 177.786C264.411 177.31 264.766 176.848 265.027 176.4C265.298 175.943 265.433 175.499 265.433 175.07C265.433 174.669 265.321 174.314 265.097 174.006C264.882 173.698 264.523 173.544 264.019 173.544C263.506 173.544 263.118 173.712 262.857 174.048C262.596 174.384 262.465 174.79 262.465 175.266H260.729C260.748 174.547 260.906 173.95 261.205 173.474C261.504 172.989 261.9 172.629 262.395 172.396C262.89 172.153 263.445 172.032 264.061 172.032C265.06 172.032 265.834 172.307 266.385 172.858C266.945 173.399 267.225 174.104 267.225 174.972C267.225 175.513 267.099 176.041 266.847 176.554C266.604 177.067 266.282 177.562 265.881 178.038C265.48 178.514 265.046 178.962 264.579 179.382C264.112 179.793 263.66 180.175 263.221 180.53H267.463V182H260.715Z" fill="white"/>
<rect x="253" y="166" width="22" height="22" rx="11" stroke="white" stroke-width="2"/>
<defs>
<clipPath id="clip0_500_3650">
<rect width="380" height="26" fill="white" transform="translate(106 94)"/>
</clipPath>
</defs>
</svg>
