<svg width="509" height="142" viewBox="0 0 509 142" fill="none" xmlns="http://www.w3.org/2000/svg">
<rect width="509" height="142" fill="white"/>
<rect x="23" y="74" width="157" height="50" rx="4" fill="#0047BB"/>
<path d="M71.544 92.8C72.824 92.8 73.832 93.152 74.472 93.792C74.984 94.304 75.24 94.928 75.24 95.696V95.728C75.24 96.992 74.568 97.696 73.768 98.144C75.064 98.64 75.864 99.392 75.864 100.896V100.928C75.864 102.976 74.2 104 71.672 104H66.344V92.8H71.544ZM68.744 101.84H71.672C72.76 101.84 73.416 101.456 73.416 100.624V100.592C73.416 99.84 72.856 99.376 71.592 99.376H68.744V101.84ZM68.744 97.328H71.016C72.104 97.328 72.792 96.976 72.792 96.144V96.112C72.792 95.376 72.216 94.96 71.176 94.96H68.744V97.328ZM83.0629 104.176C80.0549 104.176 78.2149 102.496 78.2149 99.2V92.8H80.6789V99.136C80.6789 100.96 81.5909 101.904 83.0949 101.904C84.5989 101.904 85.5109 100.992 85.5109 99.216V92.8H87.9749V99.12C87.9749 102.512 86.0709 104.176 83.0629 104.176ZM93.5926 95.072H90.1846V92.8H99.4646V95.072H96.0566V104H93.5926V95.072ZM104.468 95.072H101.06V92.8H110.34V95.072H106.932V104H104.468V95.072ZM117.69 104.192C114.234 104.192 111.754 101.616 111.754 98.432V98.4C111.754 95.216 114.266 92.608 117.722 92.608C121.178 92.608 123.658 95.184 123.658 98.368V98.4C123.658 101.584 121.146 104.192 117.69 104.192ZM114.33 98.4C114.33 100.32 115.738 101.92 117.722 101.92C119.706 101.92 121.082 100.352 121.082 98.432V98.4C121.082 96.48 119.674 94.88 117.69 94.88C115.706 94.88 114.33 96.448 114.33 98.368V98.4ZM126.344 92.8H128.616L133.864 99.696V92.8H136.296V104H134.2L128.776 96.88V104H126.344V92.8Z" fill="white"/>
<path d="M256.544 92.8C257.824 92.8 258.832 93.152 259.472 93.792C259.984 94.304 260.24 94.928 260.24 95.696V95.728C260.24 96.992 259.568 97.696 258.768 98.144C260.064 98.64 260.864 99.392 260.864 100.896V100.928C260.864 102.976 259.2 104 256.672 104H251.344V92.8H256.544ZM253.744 101.84H256.672C257.76 101.84 258.416 101.456 258.416 100.624V100.592C258.416 99.84 257.856 99.376 256.592 99.376H253.744V101.84ZM253.744 97.328H256.016C257.104 97.328 257.792 96.976 257.792 96.144V96.112C257.792 95.376 257.216 94.96 256.176 94.96H253.744V97.328ZM268.063 104.176C265.055 104.176 263.215 102.496 263.215 99.2V92.8H265.679V99.136C265.679 100.96 266.591 101.904 268.095 101.904C269.599 101.904 270.511 100.992 270.511 99.216V92.8H272.975V99.12C272.975 102.512 271.071 104.176 268.063 104.176ZM278.593 95.072H275.185V92.8H284.465V95.072H281.057V104H278.593V95.072ZM289.468 95.072H286.06V92.8H295.34V95.072H291.932V104H289.468V95.072ZM302.69 104.192C299.234 104.192 296.754 101.616 296.754 98.432V98.4C296.754 95.216 299.266 92.608 302.722 92.608C306.178 92.608 308.658 95.184 308.658 98.368V98.4C308.658 101.584 306.146 104.192 302.69 104.192ZM299.33 98.4C299.33 100.32 300.738 101.92 302.722 101.92C304.706 101.92 306.082 100.352 306.082 98.432V98.4C306.082 96.48 304.674 94.88 302.69 94.88C300.706 94.88 299.33 96.448 299.33 98.368V98.4ZM311.344 92.8H313.616L318.864 99.696V92.8H321.296V104H319.2L313.776 96.88V104H311.344V92.8Z" fill="#0047BB"/>
<rect x="209" y="75" width="155" height="48" rx="3" stroke="#0047BB" stroke-width="2"/>
<rect x="394" y="75" width="91" height="47" rx="7" stroke="#0047BB" stroke-width="2"/>
<path fill-rule="evenodd" clip-rule="evenodd" d="M439.5 83.0144C432.136 83.0144 426.166 88.9839 426.166 96.3477C426.166 103.712 432.136 109.681 439.5 109.681C446.864 109.681 452.833 103.712 452.833 96.3477C452.833 88.9839 446.864 83.0144 439.5 83.0144ZM439.499 84.9191C445.8 84.9191 450.928 90.0467 450.928 96.3477C450.928 102.649 445.8 107.776 439.499 107.776C433.199 107.776 428.071 102.649 428.071 96.3477C428.071 90.0467 433.199 84.9191 439.499 84.9191Z" fill="#0047BB" fill-opacity="0.25"/>
<path fill-rule="evenodd" clip-rule="evenodd" d="M439.5 83.0144C432.136 83.0144 426.166 88.9839 426.166 96.3477V96.3706C426.166 96.3763 426.166 96.3839 426.166 96.3896V96.3935C426.166 96.3954 426.166 96.3973 426.166 96.4011V96.403C426.166 96.4087 426.166 96.4163 426.166 96.422V96.4315C426.166 96.4335 426.166 96.4335 426.166 96.4354C426.166 96.4411 426.166 96.4487 426.166 96.4544C426.166 96.4544 426.166 96.4563 426.166 96.4582C426.166 96.4601 426.166 96.462 426.166 96.4639V96.4677C426.166 96.4735 426.166 96.4811 426.166 96.4868C426.166 96.4887 426.166 96.4887 426.166 96.4887C426.166 96.4925 426.166 96.4944 426.166 96.4963C426.166 96.4982 426.166 96.4982 426.166 96.5001C426.166 96.502 426.166 96.5058 426.166 96.5096C426.166 96.5096 426.166 96.5096 426.168 96.5096C426.168 96.5135 426.168 96.5154 426.168 96.5192V96.523C426.168 96.5249 426.168 96.5268 426.168 96.5287V96.5325C426.168 96.5344 426.168 96.5382 426.168 96.542C426.168 96.5439 426.168 96.5477 426.168 96.5515V96.5535C426.168 96.5573 426.168 96.5592 426.168 96.5611C426.168 96.563 426.168 96.563 426.168 96.5649C426.168 96.5706 426.168 96.5782 426.168 96.5839V96.5858C426.168 96.5896 426.168 96.5915 426.168 96.5935C426.168 96.5954 426.168 96.5954 426.168 96.5973C426.168 96.5992 426.168 96.603 426.168 96.6068C426.168 96.6087 426.168 96.6125 426.168 96.6163V96.6182C426.168 96.6201 426.168 96.6239 426.168 96.6258C426.168 96.6277 426.17 96.6277 426.17 96.6277C426.17 96.6354 426.17 96.6411 426.17 96.6487V96.6506C426.17 96.6525 426.17 96.6563 426.17 96.6582V96.6601C426.17 96.6639 426.17 96.6677 426.17 96.6696C426.17 96.6735 426.17 96.6773 426.17 96.6811V96.683C426.17 96.6849 426.17 96.6868 426.17 96.6906V96.6925C426.17 96.6963 426.17 96.6982 426.17 96.702C426.17 96.7058 426.172 96.7096 426.172 96.7135C426.172 96.7135 426.172 96.7135 426.172 96.7154C426.172 96.7173 426.172 96.7192 426.172 96.723V96.7249C426.172 96.7287 426.172 96.7306 426.172 96.7344C426.172 96.7382 426.172 96.742 426.172 96.7439C426.172 96.7458 426.172 96.7458 426.172 96.7477C426.172 96.7496 426.172 96.7515 426.172 96.7554V96.7573C426.172 96.7592 426.172 96.763 426.172 96.7668C426.172 96.7706 426.174 96.7744 426.174 96.7763C426.174 96.7782 426.174 96.7782 426.174 96.7801C426.174 96.782 426.174 96.7839 426.174 96.7877C426.174 96.7877 426.174 96.7877 426.174 96.7896C426.174 96.7954 426.174 96.803 426.174 96.8087C426.174 96.8106 426.174 96.8106 426.174 96.8106C426.174 96.8144 426.174 96.8163 426.174 96.8182C426.174 96.8201 426.174 96.8201 426.174 96.822C426.174 96.8239 426.174 96.8277 426.176 96.8315C426.176 96.8354 426.176 96.8373 426.176 96.8411V96.843C426.176 96.8449 426.176 96.8487 426.176 96.8506C426.176 96.8525 426.176 96.8525 426.176 96.8544C426.176 96.8563 426.176 96.8601 426.176 96.862V96.8639C426.176 96.8677 426.176 96.8696 426.176 96.8735C426.176 96.8735 426.176 96.8735 426.176 96.8754C426.176 96.8773 426.176 96.8811 426.178 96.883C426.178 96.8849 426.178 96.8849 426.178 96.8849C426.178 96.8887 426.178 96.8906 426.178 96.8944C426.178 96.8944 426.178 96.8944 426.178 96.8963C426.178 96.8982 426.178 96.902 426.178 96.9058C426.178 96.9058 426.178 96.9058 426.178 96.9077C426.178 96.9096 426.178 96.9135 426.178 96.9154V96.9173C426.178 96.9211 426.178 96.923 426.178 96.9268H426.18C426.18 96.9306 426.18 96.9344 426.18 96.9382C426.18 96.942 426.18 96.9439 426.18 96.9477V96.9496C426.18 96.9535 426.18 96.9554 426.18 96.9573C426.18 96.9592 426.18 96.9592 426.18 96.9592C426.18 96.963 426.18 96.9649 426.18 96.9687C426.18 96.9706 426.182 96.9706 426.182 96.9706C426.182 96.9744 426.182 96.9763 426.182 96.9801C426.182 96.9801 426.182 96.9801 426.182 96.982C426.182 96.9839 426.182 96.9877 426.182 96.9896C426.182 96.9915 426.182 96.9915 426.182 96.9915C426.182 96.9954 426.182 96.9973 426.182 97.0011V97.003C426.182 97.0068 426.182 97.0087 426.184 97.0106C426.184 97.0125 426.184 97.0125 426.184 97.0144C426.184 97.0163 426.184 97.0201 426.184 97.022V97.0239C426.184 97.0277 426.184 97.0296 426.184 97.0335V97.0354C426.184 97.0392 426.184 97.0411 426.184 97.043C426.184 97.0449 426.184 97.0449 426.184 97.0449C426.184 97.0487 426.185 97.0525 426.185 97.0544C426.185 97.0544 426.185 97.0544 426.185 97.0563C426.185 97.0582 426.185 97.062 426.185 97.0658C426.185 97.0658 426.185 97.0658 426.185 97.0677C426.185 97.0696 426.185 97.0715 426.185 97.0754V97.0773C426.185 97.0811 426.185 97.083 426.187 97.0868C426.187 97.0906 426.187 97.0944 426.187 97.0982C426.187 97.102 426.187 97.1039 426.187 97.1077V97.1096C426.187 97.1135 426.187 97.1154 426.189 97.1192C426.189 97.123 426.189 97.1268 426.189 97.1287V97.1306C426.189 97.1325 426.189 97.1363 426.189 97.1401C426.189 97.1401 426.189 97.1401 426.189 97.142C426.189 97.1439 426.189 97.1477 426.189 97.1515C426.191 97.1554 426.191 97.1573 426.191 97.1611C426.191 97.1611 426.191 97.1611 426.191 97.163C426.191 97.1649 426.191 97.1687 426.191 97.1706C426.191 97.1725 426.191 97.1725 426.191 97.1725C426.191 97.1763 426.191 97.1801 426.191 97.182C426.191 97.182 426.193 97.182 426.193 97.1839C426.193 97.1858 426.193 97.1896 426.193 97.1935C426.193 97.1973 426.193 97.1992 426.193 97.203V97.2049C426.193 97.2087 426.193 97.2106 426.195 97.2144C426.195 97.2182 426.195 97.222 426.195 97.2258C426.195 97.2296 426.195 97.2315 426.195 97.2354C426.195 97.2354 426.195 97.2354 426.195 97.2373C426.195 97.2392 426.197 97.243 426.197 97.2468C426.197 97.2506 426.197 97.2544 426.197 97.2563C426.197 97.2601 426.197 97.2639 426.197 97.2677C426.199 97.2715 426.199 97.2754 426.199 97.2773V97.2792C426.199 97.2811 426.199 97.2849 426.199 97.2887C426.199 97.2925 426.199 97.2963 426.201 97.2982C426.201 97.3001 426.201 97.3001 426.201 97.3001C426.201 97.3039 426.201 97.3058 426.201 97.3096C426.201 97.3173 426.201 97.3249 426.203 97.3306C426.203 97.3306 426.203 97.3306 426.203 97.3325C426.203 97.3344 426.203 97.3382 426.203 97.342C426.203 97.3496 426.205 97.3554 426.205 97.363C426.205 97.3668 426.205 97.3706 426.205 97.3725V97.3744C426.206 97.3801 426.206 97.3877 426.206 97.3935C426.206 97.3954 426.206 97.3954 426.206 97.3954C426.208 97.4068 426.208 97.4163 426.21 97.4258C426.21 97.4258 426.21 97.4258 426.21 97.4277C426.21 97.4296 426.21 97.4335 426.21 97.4373C426.21 97.4449 426.212 97.4506 426.212 97.4582C426.212 97.462 426.212 97.4658 426.212 97.4677V97.4696C426.214 97.4754 426.214 97.483 426.214 97.4906C426.214 97.4944 426.216 97.4963 426.216 97.5001C426.216 97.5077 426.216 97.5135 426.218 97.5211C426.218 97.5211 426.218 97.5211 426.218 97.523C426.218 97.5249 426.218 97.5287 426.218 97.5325C426.22 97.5382 426.22 97.5458 426.22 97.5535C426.222 97.5649 426.222 97.5744 426.224 97.5839V97.5858C426.225 97.6163 426.229 97.6487 426.231 97.6792C426.233 97.683 426.233 97.6868 426.233 97.6906C426.233 97.6963 426.235 97.7039 426.235 97.7096C426.235 97.7115 426.235 97.7115 426.235 97.7115C426.235 97.7154 426.237 97.7173 426.237 97.7211C426.422 99.5325 426.968 101.233 427.805 102.755V102.757C427.808 102.763 427.81 102.769 427.814 102.774C427.82 102.784 427.824 102.792 427.829 102.801C427.831 102.803 427.831 102.805 427.833 102.809C427.837 102.816 427.841 102.82 427.843 102.826L427.845 102.828C427.845 102.83 427.846 102.833 427.848 102.835C427.85 102.839 427.852 102.841 427.854 102.845C427.856 102.847 427.856 102.851 427.858 102.853C427.858 102.853 427.858 102.854 427.86 102.854C427.86 102.856 427.862 102.858 427.864 102.86C427.864 102.862 427.864 102.862 427.864 102.862C427.867 102.868 427.869 102.873 427.873 102.879C427.873 102.879 427.873 102.879 427.873 102.881C427.875 102.883 427.877 102.885 427.877 102.887C427.879 102.889 427.879 102.889 427.879 102.889C427.881 102.894 427.885 102.9 427.888 102.906C427.888 102.906 427.888 102.906 427.888 102.908C427.89 102.91 427.89 102.912 427.892 102.913C427.892 102.913 427.892 102.915 427.894 102.915C427.896 102.917 427.896 102.921 427.898 102.923C427.9 102.927 427.902 102.929 427.902 102.931C427.904 102.933 427.904 102.933 427.904 102.933C427.905 102.936 427.905 102.938 427.907 102.94C427.907 102.94 427.907 102.94 427.907 102.942C427.909 102.944 427.911 102.946 427.913 102.948C427.913 102.95 427.913 102.95 427.913 102.95C427.915 102.952 427.917 102.955 427.917 102.957C427.919 102.959 427.919 102.959 427.919 102.959C427.919 102.961 427.921 102.963 427.923 102.965C427.923 102.967 427.923 102.967 427.923 102.969C427.925 102.971 427.926 102.973 427.926 102.974C427.928 102.974 427.928 102.976 427.928 102.976C427.93 102.978 427.93 102.982 427.932 102.984C427.932 102.984 427.934 102.986 427.934 102.988C427.936 102.988 427.936 102.99 427.938 102.992V102.993C427.94 102.997 427.942 102.999 427.942 103.001C427.942 103.001 427.944 103.001 427.944 103.003C427.945 103.005 427.945 103.007 427.947 103.011L427.949 103.013C427.949 103.014 427.951 103.016 427.951 103.018C427.953 103.018 427.953 103.02 427.953 103.02C427.955 103.022 427.955 103.024 427.957 103.026C427.957 103.028 427.959 103.028 427.959 103.03C427.961 103.032 427.961 103.033 427.963 103.035C427.963 103.037 427.965 103.039 427.965 103.039C427.965 103.041 427.966 103.041 427.966 103.043C427.968 103.045 427.968 103.045 427.968 103.047C427.97 103.049 427.97 103.049 427.972 103.051C427.972 103.054 427.974 103.056 427.976 103.058C427.976 103.06 427.978 103.06 427.978 103.062C427.978 103.062 427.98 103.064 427.98 103.066C427.982 103.068 427.982 103.068 427.982 103.07C427.984 103.07 427.984 103.072 427.984 103.073C427.985 103.073 427.985 103.075 427.985 103.075C427.987 103.079 427.991 103.083 427.993 103.087C427.993 103.089 427.995 103.091 427.995 103.093C427.997 103.093 427.997 103.094 427.997 103.094C427.999 103.096 427.999 103.098 428.001 103.1V103.102C428.005 103.108 428.008 103.113 428.012 103.119C428.014 103.123 428.014 103.125 428.016 103.127C428.02 103.133 428.024 103.138 428.027 103.146C428.029 103.148 428.029 103.15 428.031 103.152V103.153C428.165 103.378 428.305 103.599 428.452 103.814L430.029 102.746C428.747 100.856 428.071 98.6429 428.071 96.3477C428.071 90.0467 433.199 84.9191 439.499 84.9191L439.5 83.0144Z" fill="#0047BB"/>
<rect x="100.5" y="41.9983" width="1" height="40.6007" fill="#008574"/>
<rect x="90" y="20" width="22" height="22" rx="11" fill="#008574"/>
<path d="M100.603 36V28.244L98.9929 28.622V27.25L101.359 26.2H102.465V36H100.603Z" fill="white"/>
<rect x="90" y="20" width="22" height="22" rx="11" stroke="white" stroke-width="2"/>
<rect x="285.5" y="41.9983" width="1" height="40.6007" fill="#008574"/>
<rect x="275" y="20" width="22" height="22" rx="11" fill="#008574"/>
<path d="M282.715 36V34.698C283.312 34.2033 283.891 33.7133 284.451 33.228C285.02 32.7427 285.524 32.262 285.963 31.786C286.411 31.31 286.766 30.848 287.027 30.4C287.298 29.9427 287.433 29.4993 287.433 29.07C287.433 28.6687 287.321 28.314 287.097 28.006C286.882 27.698 286.523 27.544 286.019 27.544C285.506 27.544 285.118 27.712 284.857 28.048C284.596 28.384 284.465 28.79 284.465 29.266H282.729C282.748 28.5473 282.906 27.95 283.205 27.474C283.504 26.9887 283.9 26.6293 284.395 26.396C284.89 26.1533 285.445 26.032 286.061 26.032C287.06 26.032 287.834 26.3073 288.385 26.858C288.945 27.3993 289.225 28.104 289.225 28.972C289.225 29.5133 289.099 30.0407 288.847 30.554C288.604 31.0673 288.282 31.562 287.881 32.038C287.48 32.514 287.046 32.962 286.579 33.382C286.112 33.7927 285.66 34.1753 285.221 34.53H289.463V36H282.715Z" fill="white"/>
<rect x="275" y="20" width="22" height="22" rx="11" stroke="white" stroke-width="2"/>
<rect x="438.5" y="41.9983" width="1" height="40.6007" fill="#008574"/>
<rect x="428" y="20" width="22" height="22" rx="11" fill="#008574"/>
<path d="M438.988 36.168C438.344 36.168 437.761 36.056 437.238 35.832C436.715 35.5987 436.295 35.244 435.978 34.768C435.661 34.292 435.493 33.6947 435.474 32.976H437.238C437.247 33.452 437.401 33.8533 437.7 34.18C438.008 34.4973 438.437 34.656 438.988 34.656C439.511 34.656 439.912 34.5113 440.192 34.222C440.472 33.9327 440.612 33.5687 440.612 33.13C440.612 32.6167 440.425 32.2293 440.052 31.968C439.688 31.6973 439.217 31.562 438.638 31.562H437.91V30.092H438.652C439.128 30.092 439.525 29.98 439.842 29.756C440.159 29.532 440.318 29.2007 440.318 28.762C440.318 28.398 440.197 28.1087 439.954 27.894C439.721 27.67 439.394 27.558 438.974 27.558C438.517 27.558 438.157 27.6933 437.896 27.964C437.644 28.2347 437.504 28.566 437.476 28.958H435.726C435.763 28.0527 436.076 27.3387 436.664 26.816C437.261 26.2933 438.031 26.032 438.974 26.032C439.646 26.032 440.211 26.1533 440.668 26.396C441.135 26.6293 441.485 26.942 441.718 27.334C441.961 27.726 442.082 28.16 442.082 28.636C442.082 29.1867 441.928 29.6533 441.62 30.036C441.321 30.4093 440.948 30.6613 440.5 30.792C441.051 30.904 441.499 31.1747 441.844 31.604C442.189 32.024 442.362 32.556 442.362 33.2C442.362 33.7413 442.231 34.236 441.97 34.684C441.709 35.132 441.326 35.4913 440.822 35.762C440.327 36.0327 439.716 36.168 438.988 36.168Z" fill="white"/>
<rect x="428" y="20" width="22" height="22" rx="11" stroke="white" stroke-width="2"/>
</svg>
