<svg width="708" height="286" viewBox="0 0 708 286" fill="none" xmlns="http://www.w3.org/2000/svg">
<rect width="708" height="286" fill="white"/>
<rect x="87" y="105" width="1" height="96.6007" transform="rotate(-90 87 105)" fill="#005670"/>
<rect x="65.5" y="85.7004" width="37" height="37" rx="18.5" fill="#005670"/>
<path d="M83.4895 110.7V100.728L81.4195 101.214V99.4504L84.4615 98.1004H85.8835V110.7H83.4895Z" fill="white"/>
<rect x="65.5" y="85.7004" width="37" height="37" rx="18.5" stroke="white" stroke-width="3"/>
<rect x="313" y="145" width="1" height="96.6007" transform="rotate(-90 313 145)" fill="#005670"/>
<rect x="291.5" y="125.7" width="37" height="37" rx="18.5" fill="#005670"/>
<path d="M305.776 150.7V149.026C306.544 148.39 307.288 147.76 308.008 147.136C308.74 146.512 309.388 145.894 309.952 145.282C310.528 144.67 310.984 144.076 311.32 143.5C311.668 142.912 311.842 142.342 311.842 141.79C311.842 141.274 311.698 140.818 311.41 140.422C311.134 140.026 310.672 139.828 310.024 139.828C309.364 139.828 308.866 140.044 308.53 140.476C308.194 140.908 308.026 141.43 308.026 142.042H305.794C305.818 141.118 306.022 140.35 306.406 139.738C306.79 139.114 307.3 138.652 307.936 138.352C308.572 138.04 309.286 137.884 310.078 137.884C311.362 137.884 312.358 138.238 313.066 138.946C313.786 139.642 314.146 140.548 314.146 141.664C314.146 142.36 313.984 143.038 313.66 143.698C313.348 144.358 312.934 144.994 312.418 145.606C311.902 146.218 311.344 146.794 310.744 147.334C310.144 147.862 309.562 148.354 308.998 148.81H314.452V150.7H305.776Z" fill="white"/>
<rect x="291.5" y="125.7" width="37" height="37" rx="18.5" stroke="white" stroke-width="3"/>
<rect x="524" y="183" width="1" height="96.6007" transform="rotate(-90 524 183)" fill="#005670"/>
<rect x="604.899" y="163.7" width="37" height="37" rx="18.5" fill="#005670"/>
<path d="M623.384 188.916C622.556 188.916 621.806 188.772 621.134 188.484C620.462 188.184 619.922 187.728 619.514 187.116C619.106 186.504 618.89 185.736 618.866 184.812H621.134C621.146 185.424 621.344 185.94 621.728 186.36C622.124 186.768 622.676 186.972 623.384 186.972C624.056 186.972 624.572 186.786 624.932 186.414C625.292 186.042 625.472 185.574 625.472 185.01C625.472 184.35 625.232 183.852 624.752 183.516C624.284 183.168 623.678 182.994 622.934 182.994H621.998V181.104H622.952C623.564 181.104 624.074 180.96 624.482 180.672C624.89 180.384 625.094 179.958 625.094 179.394C625.094 178.926 624.938 178.554 624.626 178.278C624.326 177.99 623.906 177.846 623.366 177.846C622.778 177.846 622.316 178.02 621.98 178.368C621.656 178.716 621.476 179.142 621.44 179.646H619.19C619.238 178.482 619.64 177.564 620.396 176.892C621.164 176.22 622.154 175.884 623.366 175.884C624.23 175.884 624.956 176.04 625.544 176.352C626.144 176.652 626.594 177.054 626.894 177.558C627.206 178.062 627.362 178.62 627.362 179.232C627.362 179.94 627.164 180.54 626.768 181.032C626.384 181.512 625.904 181.836 625.328 182.004C626.036 182.148 626.612 182.496 627.056 183.048C627.5 183.588 627.722 184.272 627.722 185.1C627.722 185.796 627.554 186.432 627.218 187.008C626.882 187.584 626.39 188.046 625.742 188.394C625.106 188.742 624.32 188.916 623.384 188.916Z" fill="white"/>
<rect x="604.899" y="163.7" width="37" height="37" rx="18.5" stroke="white" stroke-width="3"/>
<rect x="409" y="91" width="22" height="22" rx="4" stroke="#002DA2" stroke-width="2"/>
<rect x="409" y="131" width="22" height="22" rx="4" stroke="#002DA2" stroke-width="2"/>
<rect x="408" y="170" width="24" height="24" rx="5" fill="#002DA2"/>
<mask id="mask0_503_3688" style="mask-type:alpha" maskUnits="userSpaceOnUse" x="412" y="174" width="16" height="16">
<path d="M424.905 178.213L418.271 184.845L415.096 181.669L414.624 182.14L417.801 185.316L418.272 185.787L418.744 185.316L425.376 178.684L424.905 178.213Z" fill="black"/>
</mask>
<g mask="url(#mask0_503_3688)">
<rect x="412" y="174" width="16" height="16" fill="white"/>
</g>
<path d="M214.208 108V98.624H210.656V96.8H219.744V98.624H216.192V108H214.208ZM221.95 108V96.32H223.886V100.864C224.43 100.064 225.214 99.376 226.526 99.376C228.43 99.376 229.534 100.656 229.534 102.624V108H227.598V103.2C227.598 101.888 226.942 101.136 225.79 101.136C224.67 101.136 223.886 101.92 223.886 103.232V108H221.95ZM232.404 98.256V96.416H234.484V98.256H232.404ZM232.484 108V99.552H234.42V108H232.484ZM240.346 108.16C239.146 108.16 237.818 107.728 236.762 106.896L237.626 105.584C238.538 106.272 239.53 106.624 240.394 106.624C241.226 106.624 241.706 106.272 241.706 105.712V105.68C241.706 105.024 240.81 104.8 239.818 104.496C238.57 104.144 237.178 103.632 237.178 102.016V101.984C237.178 100.384 238.506 99.408 240.186 99.408C241.242 99.408 242.394 99.776 243.29 100.368L242.522 101.744C241.706 101.248 240.842 100.944 240.138 100.944C239.386 100.944 238.954 101.296 238.954 101.792V101.824C238.954 102.432 239.866 102.688 240.858 103.008C242.09 103.392 243.482 103.952 243.482 105.472V105.504C243.482 107.28 242.106 108.16 240.346 108.16ZM251.279 98.256V96.416H253.359V98.256H251.279ZM251.359 108V99.552H253.295V108H251.359ZM259.221 108.16C258.021 108.16 256.693 107.728 255.637 106.896L256.501 105.584C257.413 106.272 258.405 106.624 259.269 106.624C260.101 106.624 260.581 106.272 260.581 105.712V105.68C260.581 105.024 259.685 104.8 258.693 104.496C257.445 104.144 256.053 103.632 256.053 102.016V101.984C256.053 100.384 257.381 99.408 259.061 99.408C260.117 99.408 261.269 99.776 262.165 100.368L261.397 101.744C260.581 101.248 259.717 100.944 259.013 100.944C258.261 100.944 257.829 101.296 257.829 101.792V101.824C257.829 102.432 258.741 102.688 259.733 103.008C260.965 103.392 262.357 103.952 262.357 105.472V105.504C262.357 107.28 260.981 108.16 259.221 108.16ZM277.21 108H275.29V106.96C274.714 107.648 273.834 108.176 272.554 108.176C270.954 108.176 269.546 107.264 269.546 105.568V105.536C269.546 103.664 271.002 102.768 272.97 102.768C273.994 102.768 274.65 102.912 275.306 103.12V102.96C275.306 101.792 274.57 101.152 273.226 101.152C272.282 101.152 271.578 101.36 270.81 101.68L270.282 100.128C271.21 99.712 272.122 99.424 273.498 99.424C275.994 99.424 277.21 100.736 277.21 102.992V108ZM275.338 104.944V104.464C274.842 104.272 274.154 104.128 273.402 104.128C272.186 104.128 271.466 104.624 271.466 105.44V105.472C271.466 106.272 272.186 106.72 273.098 106.72C274.378 106.72 275.338 106 275.338 104.944ZM291.678 110.56V106.592C291.054 107.472 290.174 108.176 288.798 108.176C286.814 108.176 284.878 106.592 284.878 103.792V103.76C284.878 100.96 286.782 99.376 288.798 99.376C290.19 99.376 291.07 100.08 291.678 100.864V99.552H293.614V110.56H291.678ZM289.262 106.496C290.558 106.496 291.71 105.408 291.71 103.792V103.76C291.71 102.128 290.558 101.056 289.262 101.056C287.934 101.056 286.83 102.08 286.83 103.76V103.792C286.83 105.424 287.95 106.496 289.262 106.496ZM299.441 108.176C297.537 108.176 296.433 106.896 296.433 104.928V99.552H298.369V104.352C298.369 105.664 299.025 106.416 300.177 106.416C301.297 106.416 302.081 105.632 302.081 104.32V99.552H304.017V108H302.081V106.688C301.537 107.488 300.753 108.176 299.441 108.176ZM310.822 108.192C308.374 108.192 306.486 106.416 306.486 103.808V103.776C306.486 101.36 308.198 99.376 310.614 99.376C313.302 99.376 314.662 101.488 314.662 103.92C314.662 104.096 314.646 104.272 314.63 104.464H308.422C308.63 105.84 309.606 106.608 310.854 106.608C311.798 106.608 312.47 106.256 313.142 105.6L314.278 106.608C313.478 107.568 312.374 108.192 310.822 108.192ZM308.406 103.184H312.742C312.614 101.936 311.878 100.96 310.598 100.96C309.414 100.96 308.582 101.872 308.406 103.184ZM320.003 108.16C318.803 108.16 317.475 107.728 316.419 106.896L317.283 105.584C318.195 106.272 319.187 106.624 320.051 106.624C320.883 106.624 321.363 106.272 321.363 105.712V105.68C321.363 105.024 320.467 104.8 319.475 104.496C318.227 104.144 316.835 103.632 316.835 102.016V101.984C316.835 100.384 318.163 99.408 319.843 99.408C320.899 99.408 322.051 99.776 322.947 100.368L322.179 101.744C321.363 101.248 320.499 100.944 319.795 100.944C319.043 100.944 318.611 101.296 318.611 101.792V101.824C318.611 102.432 319.523 102.688 320.515 103.008C321.747 103.392 323.139 103.952 323.139 105.472V105.504C323.139 107.28 321.763 108.16 320.003 108.16ZM328.282 108.144C326.858 108.144 325.85 107.52 325.85 105.664V101.216H324.778V99.552H325.85V97.232H327.786V99.552H330.058V101.216H327.786V105.36C327.786 106.112 328.17 106.416 328.826 106.416C329.258 106.416 329.642 106.32 330.026 106.128V107.712C329.546 107.984 329.002 108.144 328.282 108.144ZM332.545 98.256V96.416H334.625V98.256H332.545ZM332.625 108V99.552H334.561V108H332.625ZM341.607 108.192C339.031 108.192 337.127 106.224 337.127 103.824V103.792C337.127 101.376 339.047 99.376 341.639 99.376C344.231 99.376 346.135 101.344 346.135 103.76V103.792C346.135 106.192 344.215 108.192 341.607 108.192ZM341.639 106.512C343.207 106.512 344.199 105.28 344.199 103.824V103.792C344.199 102.304 343.127 101.072 341.607 101.072C340.055 101.072 339.063 102.288 339.063 103.76V103.792C339.063 105.264 340.135 106.512 341.639 106.512ZM348.607 108V99.552H350.543V100.864C351.087 100.064 351.871 99.376 353.183 99.376C355.087 99.376 356.191 100.656 356.191 102.624V108H354.255V103.2C354.255 101.888 353.599 101.136 352.447 101.136C351.327 101.136 350.543 101.92 350.543 103.232V108H348.607Z" fill="black"/>
<path d="M365.989 101.888L366.213 99.936L364.613 101.104L364.037 100.128L365.861 99.328L364.037 98.528L364.613 97.552L366.213 98.72L365.989 96.768H367.109L366.885 98.72L368.485 97.552L369.061 98.528L367.237 99.328L369.061 100.128L368.485 101.104L366.885 99.936L367.109 101.888H365.989Z" fill="#CB0003"/>
<path d="M453.931 96.72H455.115L460.219 108H458.859L457.547 105.04H451.451L450.123 108H448.827L453.931 96.72ZM451.947 103.904H457.051L454.507 98.192L451.947 103.904ZM462.72 99.728H463.952V101.168C464.496 100.272 465.36 99.552 466.784 99.552C468.784 99.552 469.952 100.896 469.952 102.864V108H468.72V103.168C468.72 101.632 467.888 100.672 466.432 100.672C465.008 100.672 463.952 101.712 463.952 103.264V108H462.72V99.728ZM475.815 108.16C474.631 108.16 473.319 107.696 472.391 106.944L473.015 106.064C473.911 106.736 474.903 107.12 475.879 107.12C476.871 107.12 477.591 106.608 477.591 105.808V105.776C477.591 104.944 476.615 104.624 475.527 104.32C474.231 103.952 472.791 103.504 472.791 101.984V101.952C472.791 100.528 473.975 99.584 475.607 99.584C476.615 99.584 477.735 99.936 478.583 100.496L478.023 101.424C477.255 100.928 476.375 100.624 475.575 100.624C474.599 100.624 473.975 101.136 473.975 101.824V101.856C473.975 102.64 474.999 102.944 476.103 103.28C477.383 103.664 478.759 104.16 478.759 105.648V105.68C478.759 107.248 477.463 108.16 475.815 108.16ZM480.61 99.728H481.922L484.098 106.368L486.322 99.696H487.346L489.586 106.368L491.762 99.728H493.042L490.13 108.064H489.058L486.834 101.536L484.594 108.064H483.506L480.61 99.728ZM495.924 104.368C496.101 106.112 497.381 107.12 498.837 107.12C499.973 107.12 500.773 106.656 501.445 105.952L502.213 106.64C501.381 107.568 500.373 108.192 498.805 108.192C496.533 108.192 494.677 106.448 494.677 103.872C494.677 101.472 496.357 99.552 498.645 99.552C501.093 99.552 502.501 101.504 502.501 103.936C502.501 104.048 502.501 104.176 502.485 104.368H495.924ZM495.924 103.376H501.253C501.109 101.872 500.245 100.592 498.613 100.592C497.189 100.592 496.101 101.776 495.924 103.376ZM505.157 99.728H506.389V101.888C506.997 100.512 508.197 99.52 509.765 99.584V100.912H509.669C507.861 100.912 506.389 102.208 506.389 104.704V108H505.157V99.728ZM518.927 98.032L516.815 98.688L516.511 97.664L519.247 96.72H520.174V108H518.927V98.032Z" fill="black"/>
<path d="M452.009 136.72H453.193L458.297 148H456.937L455.625 145.04H449.529L448.201 148H446.905L452.009 136.72ZM450.025 143.904H455.129L452.585 138.192L450.025 143.904ZM460.798 139.728H462.03V141.168C462.574 140.272 463.438 139.552 464.862 139.552C466.862 139.552 468.03 140.896 468.03 142.864V148H466.798V143.168C466.798 141.632 465.966 140.672 464.51 140.672C463.086 140.672 462.03 141.712 462.03 143.264V148H460.798V139.728ZM473.893 148.16C472.709 148.16 471.397 147.696 470.469 146.944L471.093 146.064C471.989 146.736 472.981 147.12 473.957 147.12C474.949 147.12 475.669 146.608 475.669 145.808V145.776C475.669 144.944 474.693 144.624 473.605 144.32C472.309 143.952 470.869 143.504 470.869 141.984V141.952C470.869 140.528 472.053 139.584 473.685 139.584C474.693 139.584 475.813 139.936 476.661 140.496L476.101 141.424C475.333 140.928 474.453 140.624 473.653 140.624C472.677 140.624 472.053 141.136 472.053 141.824V141.856C472.053 142.64 473.077 142.944 474.181 143.28C475.461 143.664 476.837 144.16 476.837 145.648V145.68C476.837 147.248 475.541 148.16 473.893 148.16ZM478.688 139.728H480L482.176 146.368L484.4 139.696H485.424L487.664 146.368L489.84 139.728H491.12L488.208 148.064H487.136L484.912 141.536L482.672 148.064H481.584L478.688 139.728ZM494.003 144.368C494.179 146.112 495.459 147.12 496.915 147.12C498.051 147.12 498.851 146.656 499.523 145.952L500.291 146.64C499.459 147.568 498.451 148.192 496.883 148.192C494.611 148.192 492.755 146.448 492.755 143.872C492.755 141.472 494.435 139.552 496.723 139.552C499.171 139.552 500.579 141.504 500.579 143.936C500.579 144.048 500.579 144.176 500.563 144.368H494.003ZM494.003 143.376H499.331C499.187 141.872 498.323 140.592 496.691 140.592C495.267 140.592 494.179 141.776 494.003 143.376ZM503.235 139.728H504.467V141.888C505.075 140.512 506.275 139.52 507.843 139.584V140.912H507.747C505.939 140.912 504.467 142.208 504.467 144.704V148H503.235V139.728ZM518.973 143.44C520.685 141.904 521.309 141.04 521.309 139.92C521.309 138.608 520.269 137.776 519.053 137.776C517.773 137.776 516.941 138.448 516.045 139.696L515.117 139.024C516.125 137.52 517.181 136.64 519.149 136.64C521.165 136.64 522.621 137.984 522.621 139.808V139.84C522.621 141.472 521.757 142.48 519.789 144.192L516.797 146.848H522.733V148H514.909V147.024L518.973 143.44Z" fill="black"/>
<path d="M451.892 176.72H453.076L458.18 188H456.82L455.508 185.04H449.412L448.084 188H446.788L451.892 176.72ZM449.908 183.904H455.012L452.468 178.192L449.908 183.904ZM460.681 179.728H461.913V181.168C462.457 180.272 463.321 179.552 464.745 179.552C466.745 179.552 467.913 180.896 467.913 182.864V188H466.681V183.168C466.681 181.632 465.849 180.672 464.393 180.672C462.969 180.672 461.913 181.712 461.913 183.264V188H460.681V179.728ZM473.776 188.16C472.592 188.16 471.28 187.696 470.352 186.944L470.976 186.064C471.872 186.736 472.864 187.12 473.84 187.12C474.832 187.12 475.552 186.608 475.552 185.808V185.776C475.552 184.944 474.576 184.624 473.488 184.32C472.192 183.952 470.752 183.504 470.752 181.984V181.952C470.752 180.528 471.936 179.584 473.568 179.584C474.576 179.584 475.696 179.936 476.544 180.496L475.984 181.424C475.216 180.928 474.336 180.624 473.536 180.624C472.56 180.624 471.936 181.136 471.936 181.824V181.856C471.936 182.64 472.96 182.944 474.064 183.28C475.344 183.664 476.72 184.16 476.72 185.648V185.68C476.72 187.248 475.424 188.16 473.776 188.16ZM478.57 179.728H479.882L482.058 186.368L484.282 179.696H485.306L487.546 186.368L489.722 179.728H491.002L488.09 188.064H487.018L484.794 181.536L482.554 188.064H481.466L478.57 179.728ZM493.885 184.368C494.061 186.112 495.341 187.12 496.797 187.12C497.933 187.12 498.733 186.656 499.405 185.952L500.173 186.64C499.341 187.568 498.333 188.192 496.765 188.192C494.493 188.192 492.637 186.448 492.637 183.872C492.637 181.472 494.317 179.552 496.605 179.552C499.053 179.552 500.461 181.504 500.461 183.936C500.461 184.048 500.461 184.176 500.445 184.368H493.885ZM493.885 183.376H499.213C499.069 181.872 498.205 180.592 496.573 180.592C495.149 180.592 494.061 181.776 493.885 183.376ZM503.118 179.728H504.35V181.888C504.958 180.512 506.158 179.52 507.726 179.584V180.912H507.63C505.822 180.912 504.35 182.208 504.35 184.704V188H503.118V179.728ZM518.999 188.192C517.127 188.192 515.735 187.376 514.823 186.192L515.735 185.376C516.599 186.432 517.639 187.04 519.015 187.04C520.375 187.04 521.463 186.176 521.463 184.864V184.832C521.463 183.44 520.167 182.672 518.327 182.672H517.607L517.351 181.92L520.887 177.936H515.415V176.8H522.567V177.728L519.047 181.632C520.999 181.792 522.743 182.736 522.743 184.784V184.816C522.743 186.816 521.079 188.192 518.999 188.192Z" fill="black"/>
</svg>
