<svg width="1245" height="423" viewBox="0 0 1245 423" fill="none" xmlns="http://www.w3.org/2000/svg">
<rect width="1245" height="423" fill="white"/>
<rect x="153.5" y="161.5" width="379" height="39" fill="white"/>
<path d="M170.584 175.3H171.864L175.944 181.412L180.024 175.3H181.304V186.5H180.04V177.428L175.96 183.428H175.896L171.816 177.444V186.5H170.584V175.3ZM185.503 182.868C185.679 184.612 186.959 185.62 188.415 185.62C189.551 185.62 190.351 185.156 191.023 184.452L191.791 185.14C190.959 186.068 189.951 186.692 188.383 186.692C186.111 186.692 184.255 184.948 184.255 182.372C184.255 179.972 185.935 178.052 188.223 178.052C190.671 178.052 192.079 180.004 192.079 182.436C192.079 182.548 192.079 182.676 192.063 182.868H185.503ZM185.503 181.876H190.831C190.687 180.372 189.823 179.092 188.191 179.092C186.767 179.092 185.679 180.276 185.503 181.876ZM194.735 178.228H195.967V179.668C196.511 178.772 197.375 178.052 198.799 178.052C200.799 178.052 201.967 179.396 201.967 181.364V186.5H200.735V181.668C200.735 180.132 199.903 179.172 198.447 179.172C197.023 179.172 195.967 180.212 195.967 181.764V186.5H194.735V178.228ZM208.135 186.676C206.135 186.676 204.967 185.332 204.967 183.364V178.228H206.199V183.06C206.199 184.596 207.031 185.556 208.487 185.556C209.895 185.556 210.967 184.516 210.967 182.964V178.228H212.183V186.5H210.967V185.06C210.407 185.956 209.559 186.676 208.135 186.676Z" fill="#141B4D"/>
<mask id="mask0_503_3689" style="mask-type:alpha" maskUnits="userSpaceOnUse" x="493" y="169" width="24" height="25">
<path d="M505 176.5L495 186.5H496.414L505 177.914L513.586 186.5H515L505.707 177.207L505 176.5Z" fill="black"/>
</mask>
<g mask="url(#mask0_503_3689)">
<rect x="493" y="169.5" width="24" height="24" fill="#141B4D"/>
</g>
<rect x="153.5" y="161.5" width="379" height="39" stroke="#002DA2"/>
<rect x="150" y="158" width="386" height="46" stroke="#E6EDF8" stroke-width="2"/>
<g filter="url(#filter0_ddd_503_3689)">
<rect width="388" height="136" transform="translate(149 213)" fill="white"/>
<rect width="388" height="40" transform="translate(149 213)" fill="#F4F4F5"/>
<rect x="149" y="212.506" width="4" height="40" fill="#141B4D"/>
<path d="M193.726 232.779C193.726 233.66 193.614 234.462 193.39 235.186C193.166 235.904 192.833 236.524 192.39 237.045C191.952 237.561 191.408 237.959 190.757 238.24C190.106 238.521 189.351 238.662 188.491 238.662C187.606 238.662 186.833 238.521 186.171 238.24C185.515 237.959 184.968 237.558 184.531 237.037C184.098 236.516 183.773 235.894 183.554 235.17C183.34 234.446 183.234 233.644 183.234 232.764C183.234 231.597 183.426 230.574 183.812 229.693C184.197 228.813 184.781 228.128 185.562 227.639C186.348 227.149 187.333 226.904 188.515 226.904C189.645 226.904 190.596 227.146 191.366 227.631C192.142 228.115 192.728 228.798 193.124 229.678C193.525 230.553 193.726 231.587 193.726 232.779ZM184.632 232.779C184.632 233.748 184.77 234.587 185.046 235.295C185.322 236.003 185.744 236.55 186.312 236.936C186.885 237.321 187.611 237.514 188.491 237.514C189.377 237.514 190.101 237.321 190.663 236.936C191.231 236.55 191.65 236.003 191.921 235.295C192.192 234.587 192.327 233.748 192.327 232.779C192.327 231.305 192.017 230.154 191.398 229.326C190.783 228.493 189.822 228.076 188.515 228.076C187.629 228.076 186.9 228.266 186.327 228.646C185.754 229.027 185.327 229.568 185.046 230.271C184.77 230.969 184.632 231.805 184.632 232.779ZM200.601 229.787C201.669 229.787 202.52 230.154 203.156 230.889C203.791 231.623 204.109 232.727 204.109 234.201C204.109 235.175 203.963 235.993 203.671 236.654C203.379 237.316 202.968 237.816 202.437 238.154C201.911 238.493 201.288 238.662 200.57 238.662C200.116 238.662 199.718 238.602 199.374 238.482C199.031 238.363 198.736 238.201 198.491 237.998C198.247 237.795 198.044 237.574 197.882 237.334H197.788C197.804 237.537 197.822 237.782 197.843 238.068C197.869 238.355 197.882 238.605 197.882 238.818V242.334H196.577V229.943H197.648L197.82 231.209H197.882C198.049 230.949 198.252 230.712 198.491 230.498C198.731 230.279 199.023 230.107 199.366 229.982C199.715 229.852 200.127 229.787 200.601 229.787ZM200.374 230.881C199.781 230.881 199.301 230.995 198.937 231.225C198.577 231.454 198.314 231.798 198.148 232.256C197.981 232.709 197.892 233.279 197.882 233.967V234.217C197.882 234.941 197.96 235.553 198.116 236.053C198.278 236.553 198.541 236.933 198.906 237.193C199.275 237.454 199.77 237.584 200.39 237.584C200.921 237.584 201.364 237.441 201.718 237.154C202.072 236.868 202.335 236.469 202.507 235.959C202.684 235.443 202.773 234.852 202.773 234.186C202.773 233.175 202.575 232.373 202.179 231.779C201.788 231.18 201.187 230.881 200.374 230.881ZM209.64 237.6C209.853 237.6 210.072 237.581 210.296 237.545C210.52 237.508 210.702 237.464 210.843 237.412V238.42C210.692 238.488 210.481 238.545 210.21 238.592C209.945 238.639 209.684 238.662 209.429 238.662C208.976 238.662 208.564 238.584 208.195 238.428C207.825 238.266 207.528 237.995 207.304 237.615C207.085 237.235 206.976 236.709 206.976 236.037V230.959H205.757V230.326L206.984 229.818L207.499 227.959H208.281V229.943H210.788V230.959H208.281V235.998C208.281 236.535 208.403 236.936 208.648 237.201C208.898 237.467 209.228 237.6 209.64 237.6ZM214.374 229.943V238.506H213.077V229.943H214.374ZM213.741 226.74C213.955 226.74 214.137 226.811 214.288 226.951C214.445 227.087 214.523 227.3 214.523 227.592C214.523 227.878 214.445 228.092 214.288 228.232C214.137 228.373 213.955 228.443 213.741 228.443C213.517 228.443 213.33 228.373 213.179 228.232C213.033 228.092 212.96 227.878 212.96 227.592C212.96 227.3 213.033 227.087 213.179 226.951C213.33 226.811 213.517 226.74 213.741 226.74ZM225.007 234.209C225.007 234.912 224.916 235.54 224.734 236.092C224.551 236.644 224.288 237.11 223.945 237.49C223.601 237.87 223.184 238.162 222.695 238.365C222.21 238.563 221.661 238.662 221.046 238.662C220.473 238.662 219.947 238.563 219.468 238.365C218.994 238.162 218.583 237.87 218.234 237.49C217.89 237.11 217.622 236.644 217.429 236.092C217.241 235.54 217.148 234.912 217.148 234.209C217.148 233.271 217.307 232.475 217.624 231.818C217.942 231.157 218.395 230.654 218.984 230.311C219.577 229.962 220.283 229.787 221.101 229.787C221.882 229.787 222.564 229.962 223.148 230.311C223.736 230.66 224.192 231.165 224.515 231.826C224.843 232.482 225.007 233.277 225.007 234.209ZM218.491 234.209C218.491 234.896 218.583 235.493 218.765 235.998C218.947 236.503 219.228 236.894 219.609 237.17C219.989 237.446 220.478 237.584 221.077 237.584C221.671 237.584 222.158 237.446 222.538 237.17C222.924 236.894 223.208 236.503 223.39 235.998C223.572 235.493 223.663 234.896 223.663 234.209C223.663 233.527 223.572 232.938 223.39 232.443C223.208 231.943 222.926 231.558 222.546 231.287C222.166 231.016 221.674 230.881 221.07 230.881C220.179 230.881 219.525 231.175 219.109 231.764C218.697 232.352 218.491 233.167 218.491 234.209ZM231.804 229.787C232.82 229.787 233.588 230.037 234.109 230.537C234.629 231.032 234.89 231.829 234.89 232.928V238.506H233.609V233.014C233.609 232.3 233.445 231.766 233.116 231.412C232.794 231.058 232.296 230.881 231.624 230.881C230.676 230.881 230.01 231.149 229.624 231.686C229.239 232.222 229.046 233.001 229.046 234.021V238.506H227.749V229.943H228.796L228.991 231.178H229.062C229.244 230.876 229.476 230.623 229.757 230.42C230.038 230.212 230.353 230.055 230.702 229.951C231.051 229.842 231.419 229.787 231.804 229.787ZM246.968 238.506H245.702V230.412C245.702 230.105 245.702 229.842 245.702 229.623C245.708 229.399 245.713 229.196 245.718 229.014C245.728 228.826 245.741 228.636 245.757 228.443C245.596 228.61 245.445 228.753 245.304 228.873C245.163 228.988 244.989 229.131 244.781 229.303L243.476 230.35L242.796 229.467L245.89 227.084H246.968V238.506Z" fill="#141B4D"/>
<path d="M184.469 280.779C184.469 281.66 184.357 282.462 184.133 283.186C183.909 283.904 183.576 284.524 183.133 285.045C182.695 285.561 182.151 285.959 181.5 286.24C180.849 286.521 180.094 286.662 179.234 286.662C178.349 286.662 177.576 286.521 176.914 286.24C176.258 285.959 175.711 285.558 175.273 285.037C174.841 284.516 174.516 283.894 174.297 283.17C174.083 282.446 173.977 281.644 173.977 280.764C173.977 279.597 174.169 278.574 174.555 277.693C174.94 276.813 175.523 276.128 176.305 275.639C177.091 275.149 178.076 274.904 179.258 274.904C180.388 274.904 181.339 275.146 182.109 275.631C182.885 276.115 183.471 276.798 183.867 277.678C184.268 278.553 184.469 279.587 184.469 280.779ZM175.375 280.779C175.375 281.748 175.513 282.587 175.789 283.295C176.065 284.003 176.487 284.55 177.055 284.936C177.628 285.321 178.354 285.514 179.234 285.514C180.12 285.514 180.844 285.321 181.406 284.936C181.974 284.55 182.393 284.003 182.664 283.295C182.935 282.587 183.07 281.748 183.07 280.779C183.07 279.305 182.76 278.154 182.141 277.326C181.526 276.493 180.565 276.076 179.258 276.076C178.372 276.076 177.643 276.266 177.07 276.646C176.497 277.027 176.07 277.568 175.789 278.271C175.513 278.969 175.375 279.805 175.375 280.779ZM191.344 277.787C192.411 277.787 193.263 278.154 193.898 278.889C194.534 279.623 194.852 280.727 194.852 282.201C194.852 283.175 194.706 283.993 194.414 284.654C194.122 285.316 193.711 285.816 193.18 286.154C192.654 286.493 192.031 286.662 191.312 286.662C190.859 286.662 190.461 286.602 190.117 286.482C189.773 286.363 189.479 286.201 189.234 285.998C188.99 285.795 188.786 285.574 188.625 285.334H188.531C188.547 285.537 188.565 285.782 188.586 286.068C188.612 286.355 188.625 286.605 188.625 286.818V290.334H187.32V277.943H188.391L188.562 279.209H188.625C188.792 278.949 188.995 278.712 189.234 278.498C189.474 278.279 189.766 278.107 190.109 277.982C190.458 277.852 190.87 277.787 191.344 277.787ZM191.117 278.881C190.523 278.881 190.044 278.995 189.68 279.225C189.32 279.454 189.057 279.798 188.891 280.256C188.724 280.709 188.635 281.279 188.625 281.967V282.217C188.625 282.941 188.703 283.553 188.859 284.053C189.021 284.553 189.284 284.933 189.648 285.193C190.018 285.454 190.513 285.584 191.133 285.584C191.664 285.584 192.107 285.441 192.461 285.154C192.815 284.868 193.078 284.469 193.25 283.959C193.427 283.443 193.516 282.852 193.516 282.186C193.516 281.175 193.318 280.373 192.922 279.779C192.531 279.18 191.93 278.881 191.117 278.881ZM200.383 285.6C200.596 285.6 200.815 285.581 201.039 285.545C201.263 285.508 201.445 285.464 201.586 285.412V286.42C201.435 286.488 201.224 286.545 200.953 286.592C200.688 286.639 200.427 286.662 200.172 286.662C199.719 286.662 199.307 286.584 198.938 286.428C198.568 286.266 198.271 285.995 198.047 285.615C197.828 285.235 197.719 284.709 197.719 284.037V278.959H196.5V278.326L197.727 277.818L198.242 275.959H199.023V277.943H201.531V278.959H199.023V283.998C199.023 284.535 199.146 284.936 199.391 285.201C199.641 285.467 199.971 285.6 200.383 285.6ZM205.117 277.943V286.506H203.82V277.943H205.117ZM204.484 274.74C204.698 274.74 204.88 274.811 205.031 274.951C205.188 275.087 205.266 275.3 205.266 275.592C205.266 275.878 205.188 276.092 205.031 276.232C204.88 276.373 204.698 276.443 204.484 276.443C204.26 276.443 204.073 276.373 203.922 276.232C203.776 276.092 203.703 275.878 203.703 275.592C203.703 275.3 203.776 275.087 203.922 274.951C204.073 274.811 204.26 274.74 204.484 274.74ZM215.75 282.209C215.75 282.912 215.659 283.54 215.477 284.092C215.294 284.644 215.031 285.11 214.688 285.49C214.344 285.87 213.927 286.162 213.438 286.365C212.953 286.563 212.404 286.662 211.789 286.662C211.216 286.662 210.69 286.563 210.211 286.365C209.737 286.162 209.326 285.87 208.977 285.49C208.633 285.11 208.365 284.644 208.172 284.092C207.984 283.54 207.891 282.912 207.891 282.209C207.891 281.271 208.049 280.475 208.367 279.818C208.685 279.157 209.138 278.654 209.727 278.311C210.32 277.962 211.026 277.787 211.844 277.787C212.625 277.787 213.307 277.962 213.891 278.311C214.479 278.66 214.935 279.165 215.258 279.826C215.586 280.482 215.75 281.277 215.75 282.209ZM209.234 282.209C209.234 282.896 209.326 283.493 209.508 283.998C209.69 284.503 209.971 284.894 210.352 285.17C210.732 285.446 211.221 285.584 211.82 285.584C212.414 285.584 212.901 285.446 213.281 285.17C213.667 284.894 213.951 284.503 214.133 283.998C214.315 283.493 214.406 282.896 214.406 282.209C214.406 281.527 214.315 280.938 214.133 280.443C213.951 279.943 213.669 279.558 213.289 279.287C212.909 279.016 212.417 278.881 211.812 278.881C210.922 278.881 210.268 279.175 209.852 279.764C209.44 280.352 209.234 281.167 209.234 282.209ZM222.547 277.787C223.562 277.787 224.331 278.037 224.852 278.537C225.372 279.032 225.633 279.829 225.633 280.928V286.506H224.352V281.014C224.352 280.3 224.188 279.766 223.859 279.412C223.536 279.058 223.039 278.881 222.367 278.881C221.419 278.881 220.753 279.149 220.367 279.686C219.982 280.222 219.789 281.001 219.789 282.021V286.506H218.492V277.943H219.539L219.734 279.178H219.805C219.987 278.876 220.219 278.623 220.5 278.42C220.781 278.212 221.096 278.055 221.445 277.951C221.794 277.842 222.161 277.787 222.547 277.787ZM240.367 286.506H232.883V285.42L235.938 282.318C236.505 281.745 236.982 281.235 237.367 280.787C237.758 280.339 238.055 279.899 238.258 279.467C238.461 279.029 238.562 278.55 238.562 278.029C238.562 277.383 238.37 276.891 237.984 276.553C237.604 276.209 237.102 276.037 236.477 276.037C235.93 276.037 235.445 276.131 235.023 276.318C234.602 276.506 234.169 276.771 233.727 277.115L233.031 276.24C233.333 275.985 233.661 275.758 234.016 275.561C234.375 275.363 234.758 275.206 235.164 275.092C235.576 274.977 236.013 274.92 236.477 274.92C237.18 274.92 237.786 275.042 238.297 275.287C238.807 275.532 239.201 275.881 239.477 276.334C239.758 276.787 239.898 277.326 239.898 277.951C239.898 278.555 239.779 279.118 239.539 279.639C239.299 280.154 238.964 280.667 238.531 281.178C238.099 281.683 237.594 282.219 237.016 282.787L234.531 285.264V285.318H240.367V286.506Z" fill="#707070"/>
<path d="M184.469 328.779C184.469 329.66 184.357 330.462 184.133 331.186C183.909 331.904 183.576 332.524 183.133 333.045C182.695 333.561 182.151 333.959 181.5 334.24C180.849 334.521 180.094 334.662 179.234 334.662C178.349 334.662 177.576 334.521 176.914 334.24C176.258 333.959 175.711 333.558 175.273 333.037C174.841 332.516 174.516 331.894 174.297 331.17C174.083 330.446 173.977 329.644 173.977 328.764C173.977 327.597 174.169 326.574 174.555 325.693C174.94 324.813 175.523 324.128 176.305 323.639C177.091 323.149 178.076 322.904 179.258 322.904C180.388 322.904 181.339 323.146 182.109 323.631C182.885 324.115 183.471 324.798 183.867 325.678C184.268 326.553 184.469 327.587 184.469 328.779ZM175.375 328.779C175.375 329.748 175.513 330.587 175.789 331.295C176.065 332.003 176.487 332.55 177.055 332.936C177.628 333.321 178.354 333.514 179.234 333.514C180.12 333.514 180.844 333.321 181.406 332.936C181.974 332.55 182.393 332.003 182.664 331.295C182.935 330.587 183.07 329.748 183.07 328.779C183.07 327.305 182.76 326.154 182.141 325.326C181.526 324.493 180.565 324.076 179.258 324.076C178.372 324.076 177.643 324.266 177.07 324.646C176.497 325.027 176.07 325.568 175.789 326.271C175.513 326.969 175.375 327.805 175.375 328.779ZM191.344 325.787C192.411 325.787 193.263 326.154 193.898 326.889C194.534 327.623 194.852 328.727 194.852 330.201C194.852 331.175 194.706 331.993 194.414 332.654C194.122 333.316 193.711 333.816 193.18 334.154C192.654 334.493 192.031 334.662 191.312 334.662C190.859 334.662 190.461 334.602 190.117 334.482C189.773 334.363 189.479 334.201 189.234 333.998C188.99 333.795 188.786 333.574 188.625 333.334H188.531C188.547 333.537 188.565 333.782 188.586 334.068C188.612 334.355 188.625 334.605 188.625 334.818V338.334H187.32V325.943H188.391L188.562 327.209H188.625C188.792 326.949 188.995 326.712 189.234 326.498C189.474 326.279 189.766 326.107 190.109 325.982C190.458 325.852 190.87 325.787 191.344 325.787ZM191.117 326.881C190.523 326.881 190.044 326.995 189.68 327.225C189.32 327.454 189.057 327.798 188.891 328.256C188.724 328.709 188.635 329.279 188.625 329.967V330.217C188.625 330.941 188.703 331.553 188.859 332.053C189.021 332.553 189.284 332.933 189.648 333.193C190.018 333.454 190.513 333.584 191.133 333.584C191.664 333.584 192.107 333.441 192.461 333.154C192.815 332.868 193.078 332.469 193.25 331.959C193.427 331.443 193.516 330.852 193.516 330.186C193.516 329.175 193.318 328.373 192.922 327.779C192.531 327.18 191.93 326.881 191.117 326.881ZM200.383 333.6C200.596 333.6 200.815 333.581 201.039 333.545C201.263 333.508 201.445 333.464 201.586 333.412V334.42C201.435 334.488 201.224 334.545 200.953 334.592C200.688 334.639 200.427 334.662 200.172 334.662C199.719 334.662 199.307 334.584 198.938 334.428C198.568 334.266 198.271 333.995 198.047 333.615C197.828 333.235 197.719 332.709 197.719 332.037V326.959H196.5V326.326L197.727 325.818L198.242 323.959H199.023V325.943H201.531V326.959H199.023V331.998C199.023 332.535 199.146 332.936 199.391 333.201C199.641 333.467 199.971 333.6 200.383 333.6ZM205.117 325.943V334.506H203.82V325.943H205.117ZM204.484 322.74C204.698 322.74 204.88 322.811 205.031 322.951C205.188 323.087 205.266 323.3 205.266 323.592C205.266 323.878 205.188 324.092 205.031 324.232C204.88 324.373 204.698 324.443 204.484 324.443C204.26 324.443 204.073 324.373 203.922 324.232C203.776 324.092 203.703 323.878 203.703 323.592C203.703 323.3 203.776 323.087 203.922 322.951C204.073 322.811 204.26 322.74 204.484 322.74ZM215.75 330.209C215.75 330.912 215.659 331.54 215.477 332.092C215.294 332.644 215.031 333.11 214.688 333.49C214.344 333.87 213.927 334.162 213.438 334.365C212.953 334.563 212.404 334.662 211.789 334.662C211.216 334.662 210.69 334.563 210.211 334.365C209.737 334.162 209.326 333.87 208.977 333.49C208.633 333.11 208.365 332.644 208.172 332.092C207.984 331.54 207.891 330.912 207.891 330.209C207.891 329.271 208.049 328.475 208.367 327.818C208.685 327.157 209.138 326.654 209.727 326.311C210.32 325.962 211.026 325.787 211.844 325.787C212.625 325.787 213.307 325.962 213.891 326.311C214.479 326.66 214.935 327.165 215.258 327.826C215.586 328.482 215.75 329.277 215.75 330.209ZM209.234 330.209C209.234 330.896 209.326 331.493 209.508 331.998C209.69 332.503 209.971 332.894 210.352 333.17C210.732 333.446 211.221 333.584 211.82 333.584C212.414 333.584 212.901 333.446 213.281 333.17C213.667 332.894 213.951 332.503 214.133 331.998C214.315 331.493 214.406 330.896 214.406 330.209C214.406 329.527 214.315 328.938 214.133 328.443C213.951 327.943 213.669 327.558 213.289 327.287C212.909 327.016 212.417 326.881 211.812 326.881C210.922 326.881 210.268 327.175 209.852 327.764C209.44 328.352 209.234 329.167 209.234 330.209ZM222.547 325.787C223.562 325.787 224.331 326.037 224.852 326.537C225.372 327.032 225.633 327.829 225.633 328.928V334.506H224.352V329.014C224.352 328.3 224.188 327.766 223.859 327.412C223.536 327.058 223.039 326.881 222.367 326.881C221.419 326.881 220.753 327.149 220.367 327.686C219.982 328.222 219.789 329.001 219.789 330.021V334.506H218.492V325.943H219.539L219.734 327.178H219.805C219.987 326.876 220.219 326.623 220.5 326.42C220.781 326.212 221.096 326.055 221.445 325.951C221.794 325.842 222.161 325.787 222.547 325.787ZM239.945 325.748C239.945 326.258 239.846 326.701 239.648 327.076C239.451 327.451 239.174 327.758 238.82 327.998C238.466 328.232 238.049 328.396 237.57 328.49V328.553C238.477 328.667 239.156 328.959 239.609 329.428C240.068 329.896 240.297 330.511 240.297 331.271C240.297 331.933 240.141 332.519 239.828 333.029C239.521 333.54 239.047 333.941 238.406 334.232C237.771 334.519 236.956 334.662 235.961 334.662C235.357 334.662 234.797 334.613 234.281 334.514C233.771 334.42 233.281 334.261 232.812 334.037V332.818C233.286 333.053 233.802 333.238 234.359 333.373C234.917 333.503 235.456 333.568 235.977 333.568C237.018 333.568 237.771 333.363 238.234 332.951C238.698 332.535 238.93 331.967 238.93 331.248C238.93 330.753 238.799 330.355 238.539 330.053C238.284 329.745 237.914 329.521 237.43 329.381C236.951 329.235 236.372 329.162 235.695 329.162H234.555V328.053H235.703C236.323 328.053 236.849 327.962 237.281 327.779C237.714 327.597 238.042 327.342 238.266 327.014C238.495 326.68 238.609 326.287 238.609 325.834C238.609 325.256 238.417 324.811 238.031 324.498C237.646 324.18 237.122 324.021 236.461 324.021C236.055 324.021 235.685 324.063 235.352 324.146C235.018 324.23 234.706 324.344 234.414 324.49C234.122 324.636 233.831 324.805 233.539 324.998L232.883 324.107C233.299 323.785 233.807 323.506 234.406 323.271C235.005 323.037 235.685 322.92 236.445 322.92C237.612 322.92 238.487 323.186 239.07 323.717C239.654 324.248 239.945 324.925 239.945 325.748Z" fill="#707070"/>
</g>
<path d="M154.195 128.714H149.965V127.4H159.865V128.714H155.635V140H154.195V128.714ZM163.022 126.86H164.408V132.314C165.02 131.306 165.992 130.496 167.594 130.496C169.844 130.496 171.158 132.008 171.158 134.222V140H169.772V134.564C169.772 132.836 168.836 131.756 167.198 131.756C165.596 131.756 164.408 132.926 164.408 134.672V140H163.022V126.86ZM175.149 127.13H176.733V128.66H175.149V127.13ZM175.239 140V130.694H176.625V140H175.239ZM183.92 140.18C182.588 140.18 181.112 139.658 180.068 138.812L180.77 137.822C181.778 138.578 182.894 139.01 183.992 139.01C185.108 139.01 185.918 138.434 185.918 137.534V137.498C185.918 136.562 184.82 136.202 183.596 135.86C182.138 135.446 180.518 134.942 180.518 133.232V133.196C180.518 131.594 181.85 130.532 183.686 130.532C184.82 130.532 186.08 130.928 187.034 131.558L186.404 132.602C185.54 132.044 184.55 131.702 183.65 131.702C182.552 131.702 181.85 132.278 181.85 133.052V133.088C181.85 133.97 183.002 134.312 184.244 134.69C185.684 135.122 187.232 135.68 187.232 137.354V137.39C187.232 139.154 185.774 140.18 183.92 140.18ZM197.239 127.13H198.823V128.66H197.239V127.13ZM197.329 140V130.694H198.715V140H197.329ZM206.01 140.18C204.678 140.18 203.202 139.658 202.158 138.812L202.86 137.822C203.868 138.578 204.984 139.01 206.082 139.01C207.198 139.01 208.008 138.434 208.008 137.534V137.498C208.008 136.562 206.91 136.202 205.686 135.86C204.228 135.446 202.608 134.942 202.608 133.232V133.196C202.608 131.594 203.94 130.532 205.776 130.532C206.91 130.532 208.17 130.928 209.124 131.558L208.494 132.602C207.63 132.044 206.64 131.702 205.74 131.702C204.642 131.702 203.94 132.278 203.94 133.052V133.088C203.94 133.97 205.092 134.312 206.334 134.69C207.774 135.122 209.322 135.68 209.322 137.354V137.39C209.322 139.154 207.864 140.18 206.01 140.18ZM222.065 140.198C220.319 140.198 218.591 139.208 218.591 137.3V137.264C218.591 135.266 220.211 134.222 222.569 134.222C223.757 134.222 224.585 134.384 225.413 134.618V134.33C225.413 132.674 224.405 131.81 222.659 131.81C221.561 131.81 220.697 132.08 219.833 132.476L219.419 131.342C220.445 130.874 221.435 130.55 222.803 130.55C224.117 130.55 225.143 130.91 225.809 131.576C226.457 132.224 226.781 133.124 226.781 134.312V140H225.413V138.614C224.765 139.442 223.703 140.198 222.065 140.198ZM219.995 137.228C219.995 138.398 221.075 139.082 222.335 139.082C224.045 139.082 225.431 138.056 225.431 136.58V135.716C224.747 135.518 223.847 135.32 222.713 135.32C220.985 135.32 219.995 136.076 219.995 137.192V137.228ZM244.583 138.128C243.827 139.244 242.729 140.198 241.019 140.198C238.787 140.198 236.573 138.434 236.573 135.374V135.338C236.573 132.296 238.787 130.496 241.019 130.496C242.747 130.496 243.863 131.432 244.583 132.476V130.694H245.969V142.88H244.583V138.128ZM237.995 135.356C237.995 137.552 239.507 138.956 241.271 138.956C242.999 138.956 244.637 137.498 244.637 135.356V135.32C244.637 133.178 242.999 131.738 241.271 131.738C239.471 131.738 237.995 133.07 237.995 135.32V135.356ZM253.487 140.198C251.237 140.198 249.923 138.686 249.923 136.472V130.694H251.309V136.13C251.309 137.858 252.245 138.938 253.883 138.938C255.467 138.938 256.673 137.768 256.673 136.022V130.694H258.041V140H256.673V138.38C256.043 139.388 255.089 140.198 253.487 140.198ZM262.986 135.914C263.184 137.876 264.624 139.01 266.262 139.01C267.54 139.01 268.44 138.488 269.196 137.696L270.06 138.47C269.124 139.514 267.99 140.216 266.226 140.216C263.67 140.216 261.582 138.254 261.582 135.356C261.582 132.656 263.472 130.496 266.046 130.496C268.8 130.496 270.384 132.692 270.384 135.428C270.384 135.554 270.384 135.698 270.366 135.914H262.986ZM262.986 134.798H268.98C268.818 133.106 267.846 131.666 266.01 131.666C264.408 131.666 263.184 132.998 262.986 134.798ZM276.889 140.18C275.557 140.18 274.081 139.658 273.037 138.812L273.739 137.822C274.747 138.578 275.863 139.01 276.961 139.01C278.077 139.01 278.887 138.434 278.887 137.534V137.498C278.887 136.562 277.789 136.202 276.565 135.86C275.107 135.446 273.487 134.942 273.487 133.232V133.196C273.487 131.594 274.819 130.532 276.655 130.532C277.789 130.532 279.049 130.928 280.003 131.558L279.373 132.602C278.509 132.044 277.519 131.702 276.619 131.702C275.521 131.702 274.819 132.278 274.819 133.052V133.088C274.819 133.97 275.971 134.312 277.213 134.69C278.653 135.122 280.201 135.68 280.201 137.354V137.39C280.201 139.154 278.743 140.18 276.889 140.18ZM286.714 140.162C285.22 140.162 284.086 139.424 284.086 137.534V131.918H282.79V130.694H284.086V127.886H285.472V130.694H288.424V131.918H285.472V137.354C285.472 138.488 286.102 138.902 287.038 138.902C287.506 138.902 287.902 138.812 288.388 138.578V139.766C287.902 140.018 287.38 140.162 286.714 140.162ZM291.913 127.13H293.497V128.66H291.913V127.13ZM292.003 140V130.694H293.389V140H292.003ZM301.854 140.216C299.064 140.216 297.03 138.02 297.03 135.392V135.356C297.03 132.728 299.082 130.496 301.89 130.496C304.68 130.496 306.732 132.692 306.732 135.32V135.356C306.732 137.984 304.662 140.216 301.854 140.216ZM298.452 135.356C298.452 137.354 299.928 138.974 301.89 138.974C303.906 138.974 305.31 137.354 305.31 135.392V135.356C305.31 133.358 303.816 131.72 301.854 131.72C299.838 131.72 298.452 133.358 298.452 135.32V135.356ZM310.242 130.694H311.628V132.314C312.24 131.306 313.212 130.496 314.814 130.496C317.064 130.496 318.378 132.008 318.378 134.222V140H316.992V134.564C316.992 132.836 316.056 131.756 314.418 131.756C312.816 131.756 311.628 132.926 311.628 134.672V140H310.242V130.694Z" fill="black"/>
<path d="M330.765 130.604L328.911 131.918L328.425 131.072L330.513 130.118L328.425 129.146L328.911 128.318L330.765 129.614L330.585 127.364H331.521L331.341 129.614L333.195 128.318L333.681 129.146L331.593 130.118L333.681 131.072L333.195 131.918L331.341 130.604L331.521 132.854H330.585L330.765 130.604Z" fill="#CB0003"/>
<g filter="url(#filter1_d_503_3689)">
<rect width="377" height="40" transform="translate(812 208)" fill="#F4F4F5"/>
<rect x="812" y="207.506" width="4" height="40" fill="#141B4D"/>
<rect x="837" y="216.506" width="22" height="22" rx="4" stroke="#002DA2" stroke-width="2"/>
<path d="M882.586 233.506L878.75 223.396H878.688C878.708 223.61 878.727 223.87 878.742 224.178C878.758 224.485 878.771 224.821 878.781 225.186C878.792 225.545 878.797 225.912 878.797 226.287V233.506H877.562V222.084H879.531L883.148 231.584H883.203L886.875 222.084H888.828V233.506H887.516V226.193C887.516 225.855 887.521 225.516 887.531 225.178C887.542 224.834 887.555 224.511 887.57 224.209C887.586 223.902 887.602 223.636 887.617 223.412H887.555L883.672 233.506H882.586ZM895.555 224.787C896.284 224.787 896.909 224.949 897.43 225.271C897.951 225.594 898.349 226.048 898.625 226.631C898.901 227.209 899.039 227.886 899.039 228.662V229.467H893.125C893.141 230.472 893.391 231.238 893.875 231.764C894.359 232.29 895.042 232.553 895.922 232.553C896.464 232.553 896.943 232.503 897.359 232.404C897.776 232.305 898.208 232.16 898.656 231.967V233.107C898.224 233.3 897.794 233.441 897.367 233.529C896.945 233.618 896.445 233.662 895.867 233.662C895.044 233.662 894.326 233.495 893.711 233.162C893.102 232.824 892.628 232.329 892.289 231.678C891.951 231.027 891.781 230.23 891.781 229.287C891.781 228.365 891.935 227.568 892.242 226.896C892.555 226.219 892.992 225.699 893.555 225.334C894.122 224.969 894.789 224.787 895.555 224.787ZM895.539 225.85C894.846 225.85 894.294 226.076 893.883 226.529C893.471 226.982 893.227 227.615 893.148 228.428H897.68C897.674 227.917 897.594 227.469 897.438 227.084C897.286 226.693 897.055 226.391 896.742 226.178C896.43 225.959 896.029 225.85 895.539 225.85ZM905.797 224.787C906.812 224.787 907.581 225.037 908.102 225.537C908.622 226.032 908.883 226.829 908.883 227.928V233.506H907.602V228.014C907.602 227.3 907.438 226.766 907.109 226.412C906.786 226.058 906.289 225.881 905.617 225.881C904.669 225.881 904.003 226.149 903.617 226.686C903.232 227.222 903.039 228.001 903.039 229.021V233.506H901.742V224.943H902.789L902.984 226.178H903.055C903.237 225.876 903.469 225.623 903.75 225.42C904.031 225.212 904.346 225.055 904.695 224.951C905.044 224.842 905.411 224.787 905.797 224.787ZM919.125 224.943V233.506H918.062L917.875 232.303H917.805C917.628 232.6 917.398 232.85 917.117 233.053C916.836 233.256 916.518 233.407 916.164 233.506C915.815 233.61 915.443 233.662 915.047 233.662C914.37 233.662 913.802 233.553 913.344 233.334C912.885 233.115 912.539 232.777 912.305 232.318C912.076 231.86 911.961 231.271 911.961 230.553V224.943H913.273V230.459C913.273 231.173 913.435 231.706 913.758 232.061C914.081 232.41 914.573 232.584 915.234 232.584C915.87 232.584 916.375 232.464 916.75 232.225C917.13 231.985 917.404 231.633 917.57 231.17C917.737 230.701 917.82 230.128 917.82 229.451V224.943H919.125ZM928.32 224.943V233.506H927.023V224.943H928.32ZM927.688 221.74C927.901 221.74 928.083 221.811 928.234 221.951C928.391 222.087 928.469 222.3 928.469 222.592C928.469 222.878 928.391 223.092 928.234 223.232C928.083 223.373 927.901 223.443 927.688 223.443C927.464 223.443 927.276 223.373 927.125 223.232C926.979 223.092 926.906 222.878 926.906 222.592C926.906 222.3 926.979 222.087 927.125 221.951C927.276 221.811 927.464 221.74 927.688 221.74ZM934.336 232.6C934.549 232.6 934.768 232.581 934.992 232.545C935.216 232.508 935.398 232.464 935.539 232.412V233.42C935.388 233.488 935.177 233.545 934.906 233.592C934.641 233.639 934.38 233.662 934.125 233.662C933.672 233.662 933.26 233.584 932.891 233.428C932.521 233.266 932.224 232.995 932 232.615C931.781 232.235 931.672 231.709 931.672 231.037V225.959H930.453V225.326L931.68 224.818L932.195 222.959H932.977V224.943H935.484V225.959H932.977V230.998C932.977 231.535 933.099 231.936 933.344 232.201C933.594 232.467 933.924 232.6 934.336 232.6ZM941.07 224.787C941.799 224.787 942.424 224.949 942.945 225.271C943.466 225.594 943.865 226.048 944.141 226.631C944.417 227.209 944.555 227.886 944.555 228.662V229.467H938.641C938.656 230.472 938.906 231.238 939.391 231.764C939.875 232.29 940.557 232.553 941.438 232.553C941.979 232.553 942.458 232.503 942.875 232.404C943.292 232.305 943.724 232.16 944.172 231.967V233.107C943.74 233.3 943.31 233.441 942.883 233.529C942.461 233.618 941.961 233.662 941.383 233.662C940.56 233.662 939.841 233.495 939.227 233.162C938.617 232.824 938.143 232.329 937.805 231.678C937.466 231.027 937.297 230.23 937.297 229.287C937.297 228.365 937.451 227.568 937.758 226.896C938.07 226.219 938.508 225.699 939.07 225.334C939.638 224.969 940.305 224.787 941.07 224.787ZM941.055 225.85C940.362 225.85 939.81 226.076 939.398 226.529C938.987 226.982 938.742 227.615 938.664 228.428H943.195C943.19 227.917 943.109 227.469 942.953 227.084C942.802 226.693 942.57 226.391 942.258 226.178C941.945 225.959 941.544 225.85 941.055 225.85ZM956.555 224.787C957.497 224.787 958.208 225.035 958.688 225.529C959.167 226.019 959.406 226.808 959.406 227.896V233.506H958.125V227.959C958.125 227.266 957.974 226.748 957.672 226.404C957.375 226.055 956.932 225.881 956.344 225.881C955.516 225.881 954.914 226.12 954.539 226.6C954.164 227.079 953.977 227.785 953.977 228.717V233.506H952.688V227.959C952.688 227.495 952.62 227.11 952.484 226.803C952.354 226.495 952.156 226.266 951.891 226.115C951.63 225.959 951.299 225.881 950.898 225.881C950.331 225.881 949.875 225.998 949.531 226.232C949.188 226.467 948.938 226.816 948.781 227.279C948.63 227.738 948.555 228.303 948.555 228.975V233.506H947.258V224.943H948.305L948.5 226.154H948.57C948.742 225.857 948.958 225.607 949.219 225.404C949.479 225.201 949.771 225.048 950.094 224.943C950.417 224.839 950.76 224.787 951.125 224.787C951.776 224.787 952.32 224.91 952.758 225.154C953.201 225.394 953.521 225.761 953.719 226.256H953.789C954.07 225.761 954.456 225.394 954.945 225.154C955.435 224.91 955.971 224.787 956.555 224.787Z" fill="#141B4D"/>
<rect width="377" height="40" transform="translate(812 248)" fill="white"/>
<rect x="837" y="257" width="22" height="22" rx="4" stroke="#002DA2" stroke-width="2"/>
<path d="M882.586 274L878.75 263.891H878.688C878.708 264.104 878.727 264.365 878.742 264.672C878.758 264.979 878.771 265.315 878.781 265.68C878.792 266.039 878.797 266.406 878.797 266.781V274H877.562V262.578H879.531L883.148 272.078H883.203L886.875 262.578H888.828V274H887.516V266.688C887.516 266.349 887.521 266.01 887.531 265.672C887.542 265.328 887.555 265.005 887.57 264.703C887.586 264.396 887.602 264.13 887.617 263.906H887.555L883.672 274H882.586ZM895.555 265.281C896.284 265.281 896.909 265.443 897.43 265.766C897.951 266.089 898.349 266.542 898.625 267.125C898.901 267.703 899.039 268.38 899.039 269.156V269.961H893.125C893.141 270.966 893.391 271.732 893.875 272.258C894.359 272.784 895.042 273.047 895.922 273.047C896.464 273.047 896.943 272.997 897.359 272.898C897.776 272.799 898.208 272.654 898.656 272.461V273.602C898.224 273.794 897.794 273.935 897.367 274.023C896.945 274.112 896.445 274.156 895.867 274.156C895.044 274.156 894.326 273.99 893.711 273.656C893.102 273.318 892.628 272.823 892.289 272.172C891.951 271.521 891.781 270.724 891.781 269.781C891.781 268.859 891.935 268.062 892.242 267.391C892.555 266.714 892.992 266.193 893.555 265.828C894.122 265.464 894.789 265.281 895.555 265.281ZM895.539 266.344C894.846 266.344 894.294 266.57 893.883 267.023C893.471 267.477 893.227 268.109 893.148 268.922H897.68C897.674 268.411 897.594 267.964 897.438 267.578C897.286 267.188 897.055 266.885 896.742 266.672C896.43 266.453 896.029 266.344 895.539 266.344ZM905.797 265.281C906.812 265.281 907.581 265.531 908.102 266.031C908.622 266.526 908.883 267.323 908.883 268.422V274H907.602V268.508C907.602 267.794 907.438 267.26 907.109 266.906C906.786 266.552 906.289 266.375 905.617 266.375C904.669 266.375 904.003 266.643 903.617 267.18C903.232 267.716 903.039 268.495 903.039 269.516V274H901.742V265.438H902.789L902.984 266.672H903.055C903.237 266.37 903.469 266.117 903.75 265.914C904.031 265.706 904.346 265.549 904.695 265.445C905.044 265.336 905.411 265.281 905.797 265.281ZM919.125 265.438V274H918.062L917.875 272.797H917.805C917.628 273.094 917.398 273.344 917.117 273.547C916.836 273.75 916.518 273.901 916.164 274C915.815 274.104 915.443 274.156 915.047 274.156C914.37 274.156 913.802 274.047 913.344 273.828C912.885 273.609 912.539 273.271 912.305 272.812C912.076 272.354 911.961 271.766 911.961 271.047V265.438H913.273V270.953C913.273 271.667 913.435 272.201 913.758 272.555C914.081 272.904 914.573 273.078 915.234 273.078C915.87 273.078 916.375 272.958 916.75 272.719C917.13 272.479 917.404 272.128 917.57 271.664C917.737 271.195 917.82 270.622 917.82 269.945V265.438H919.125ZM928.32 265.438V274H927.023V265.438H928.32ZM927.688 262.234C927.901 262.234 928.083 262.305 928.234 262.445C928.391 262.581 928.469 262.794 928.469 263.086C928.469 263.372 928.391 263.586 928.234 263.727C928.083 263.867 927.901 263.938 927.688 263.938C927.464 263.938 927.276 263.867 927.125 263.727C926.979 263.586 926.906 263.372 926.906 263.086C926.906 262.794 926.979 262.581 927.125 262.445C927.276 262.305 927.464 262.234 927.688 262.234ZM934.336 273.094C934.549 273.094 934.768 273.076 934.992 273.039C935.216 273.003 935.398 272.958 935.539 272.906V273.914C935.388 273.982 935.177 274.039 934.906 274.086C934.641 274.133 934.38 274.156 934.125 274.156C933.672 274.156 933.26 274.078 932.891 273.922C932.521 273.76 932.224 273.49 932 273.109C931.781 272.729 931.672 272.203 931.672 271.531V266.453H930.453V265.82L931.68 265.312L932.195 263.453H932.977V265.438H935.484V266.453H932.977V271.492C932.977 272.029 933.099 272.43 933.344 272.695C933.594 272.961 933.924 273.094 934.336 273.094ZM941.07 265.281C941.799 265.281 942.424 265.443 942.945 265.766C943.466 266.089 943.865 266.542 944.141 267.125C944.417 267.703 944.555 268.38 944.555 269.156V269.961H938.641C938.656 270.966 938.906 271.732 939.391 272.258C939.875 272.784 940.557 273.047 941.438 273.047C941.979 273.047 942.458 272.997 942.875 272.898C943.292 272.799 943.724 272.654 944.172 272.461V273.602C943.74 273.794 943.31 273.935 942.883 274.023C942.461 274.112 941.961 274.156 941.383 274.156C940.56 274.156 939.841 273.99 939.227 273.656C938.617 273.318 938.143 272.823 937.805 272.172C937.466 271.521 937.297 270.724 937.297 269.781C937.297 268.859 937.451 268.062 937.758 267.391C938.07 266.714 938.508 266.193 939.07 265.828C939.638 265.464 940.305 265.281 941.07 265.281ZM941.055 266.344C940.362 266.344 939.81 266.57 939.398 267.023C938.987 267.477 938.742 268.109 938.664 268.922H943.195C943.19 268.411 943.109 267.964 942.953 267.578C942.802 267.188 942.57 266.885 942.258 266.672C941.945 266.453 941.544 266.344 941.055 266.344ZM956.555 265.281C957.497 265.281 958.208 265.529 958.688 266.023C959.167 266.513 959.406 267.302 959.406 268.391V274H958.125V268.453C958.125 267.76 957.974 267.242 957.672 266.898C957.375 266.549 956.932 266.375 956.344 266.375C955.516 266.375 954.914 266.615 954.539 267.094C954.164 267.573 953.977 268.279 953.977 269.211V274H952.688V268.453C952.688 267.99 952.62 267.604 952.484 267.297C952.354 266.99 952.156 266.76 951.891 266.609C951.63 266.453 951.299 266.375 950.898 266.375C950.331 266.375 949.875 266.492 949.531 266.727C949.188 266.961 948.938 267.31 948.781 267.773C948.63 268.232 948.555 268.797 948.555 269.469V274H947.258V265.438H948.305L948.5 266.648H948.57C948.742 266.352 948.958 266.102 949.219 265.898C949.479 265.695 949.771 265.542 950.094 265.438C950.417 265.333 950.76 265.281 951.125 265.281C951.776 265.281 952.32 265.404 952.758 265.648C953.201 265.888 953.521 266.255 953.719 266.75H953.789C954.07 266.255 954.456 265.888 954.945 265.648C955.435 265.404 955.971 265.281 956.555 265.281Z" fill="#141B4D"/>
<rect width="377" height="40" transform="translate(812 288)" fill="white"/>
<rect x="837" y="297" width="22" height="22" rx="4" stroke="#002DA2" stroke-width="2"/>
<path d="M882.586 314L878.75 303.891H878.688C878.708 304.104 878.727 304.365 878.742 304.672C878.758 304.979 878.771 305.315 878.781 305.68C878.792 306.039 878.797 306.406 878.797 306.781V314H877.562V302.578H879.531L883.148 312.078H883.203L886.875 302.578H888.828V314H887.516V306.688C887.516 306.349 887.521 306.01 887.531 305.672C887.542 305.328 887.555 305.005 887.57 304.703C887.586 304.396 887.602 304.13 887.617 303.906H887.555L883.672 314H882.586ZM895.555 305.281C896.284 305.281 896.909 305.443 897.43 305.766C897.951 306.089 898.349 306.542 898.625 307.125C898.901 307.703 899.039 308.38 899.039 309.156V309.961H893.125C893.141 310.966 893.391 311.732 893.875 312.258C894.359 312.784 895.042 313.047 895.922 313.047C896.464 313.047 896.943 312.997 897.359 312.898C897.776 312.799 898.208 312.654 898.656 312.461V313.602C898.224 313.794 897.794 313.935 897.367 314.023C896.945 314.112 896.445 314.156 895.867 314.156C895.044 314.156 894.326 313.99 893.711 313.656C893.102 313.318 892.628 312.823 892.289 312.172C891.951 311.521 891.781 310.724 891.781 309.781C891.781 308.859 891.935 308.062 892.242 307.391C892.555 306.714 892.992 306.193 893.555 305.828C894.122 305.464 894.789 305.281 895.555 305.281ZM895.539 306.344C894.846 306.344 894.294 306.57 893.883 307.023C893.471 307.477 893.227 308.109 893.148 308.922H897.68C897.674 308.411 897.594 307.964 897.438 307.578C897.286 307.188 897.055 306.885 896.742 306.672C896.43 306.453 896.029 306.344 895.539 306.344ZM905.797 305.281C906.812 305.281 907.581 305.531 908.102 306.031C908.622 306.526 908.883 307.323 908.883 308.422V314H907.602V308.508C907.602 307.794 907.438 307.26 907.109 306.906C906.786 306.552 906.289 306.375 905.617 306.375C904.669 306.375 904.003 306.643 903.617 307.18C903.232 307.716 903.039 308.495 903.039 309.516V314H901.742V305.438H902.789L902.984 306.672H903.055C903.237 306.37 903.469 306.117 903.75 305.914C904.031 305.706 904.346 305.549 904.695 305.445C905.044 305.336 905.411 305.281 905.797 305.281ZM919.125 305.438V314H918.062L917.875 312.797H917.805C917.628 313.094 917.398 313.344 917.117 313.547C916.836 313.75 916.518 313.901 916.164 314C915.815 314.104 915.443 314.156 915.047 314.156C914.37 314.156 913.802 314.047 913.344 313.828C912.885 313.609 912.539 313.271 912.305 312.812C912.076 312.354 911.961 311.766 911.961 311.047V305.438H913.273V310.953C913.273 311.667 913.435 312.201 913.758 312.555C914.081 312.904 914.573 313.078 915.234 313.078C915.87 313.078 916.375 312.958 916.75 312.719C917.13 312.479 917.404 312.128 917.57 311.664C917.737 311.195 917.82 310.622 917.82 309.945V305.438H919.125ZM928.32 305.438V314H927.023V305.438H928.32ZM927.688 302.234C927.901 302.234 928.083 302.305 928.234 302.445C928.391 302.581 928.469 302.794 928.469 303.086C928.469 303.372 928.391 303.586 928.234 303.727C928.083 303.867 927.901 303.938 927.688 303.938C927.464 303.938 927.276 303.867 927.125 303.727C926.979 303.586 926.906 303.372 926.906 303.086C926.906 302.794 926.979 302.581 927.125 302.445C927.276 302.305 927.464 302.234 927.688 302.234ZM934.336 313.094C934.549 313.094 934.768 313.076 934.992 313.039C935.216 313.003 935.398 312.958 935.539 312.906V313.914C935.388 313.982 935.177 314.039 934.906 314.086C934.641 314.133 934.38 314.156 934.125 314.156C933.672 314.156 933.26 314.078 932.891 313.922C932.521 313.76 932.224 313.49 932 313.109C931.781 312.729 931.672 312.203 931.672 311.531V306.453H930.453V305.82L931.68 305.312L932.195 303.453H932.977V305.438H935.484V306.453H932.977V311.492C932.977 312.029 933.099 312.43 933.344 312.695C933.594 312.961 933.924 313.094 934.336 313.094ZM941.07 305.281C941.799 305.281 942.424 305.443 942.945 305.766C943.466 306.089 943.865 306.542 944.141 307.125C944.417 307.703 944.555 308.38 944.555 309.156V309.961H938.641C938.656 310.966 938.906 311.732 939.391 312.258C939.875 312.784 940.557 313.047 941.438 313.047C941.979 313.047 942.458 312.997 942.875 312.898C943.292 312.799 943.724 312.654 944.172 312.461V313.602C943.74 313.794 943.31 313.935 942.883 314.023C942.461 314.112 941.961 314.156 941.383 314.156C940.56 314.156 939.841 313.99 939.227 313.656C938.617 313.318 938.143 312.823 937.805 312.172C937.466 311.521 937.297 310.724 937.297 309.781C937.297 308.859 937.451 308.062 937.758 307.391C938.07 306.714 938.508 306.193 939.07 305.828C939.638 305.464 940.305 305.281 941.07 305.281ZM941.055 306.344C940.362 306.344 939.81 306.57 939.398 307.023C938.987 307.477 938.742 308.109 938.664 308.922H943.195C943.19 308.411 943.109 307.964 942.953 307.578C942.802 307.188 942.57 306.885 942.258 306.672C941.945 306.453 941.544 306.344 941.055 306.344ZM956.555 305.281C957.497 305.281 958.208 305.529 958.688 306.023C959.167 306.513 959.406 307.302 959.406 308.391V314H958.125V308.453C958.125 307.76 957.974 307.242 957.672 306.898C957.375 306.549 956.932 306.375 956.344 306.375C955.516 306.375 954.914 306.615 954.539 307.094C954.164 307.573 953.977 308.279 953.977 309.211V314H952.688V308.453C952.688 307.99 952.62 307.604 952.484 307.297C952.354 306.99 952.156 306.76 951.891 306.609C951.63 306.453 951.299 306.375 950.898 306.375C950.331 306.375 949.875 306.492 949.531 306.727C949.188 306.961 948.938 307.31 948.781 307.773C948.63 308.232 948.555 308.797 948.555 309.469V314H947.258V305.438H948.305L948.5 306.648H948.57C948.742 306.352 948.958 306.102 949.219 305.898C949.479 305.695 949.771 305.542 950.094 305.438C950.417 305.333 950.76 305.281 951.125 305.281C951.776 305.281 952.32 305.404 952.758 305.648C953.201 305.888 953.521 306.255 953.719 306.75H953.789C954.07 306.255 954.456 305.888 954.945 305.648C955.435 305.404 955.971 305.281 956.555 305.281Z" fill="#141B4D"/>
<rect width="377" height="40" transform="translate(812 328)" fill="white"/>
<rect x="837" y="337" width="22" height="22" rx="4" stroke="#002DA2" stroke-width="2"/>
<path d="M882.586 354L878.75 343.891H878.688C878.708 344.104 878.727 344.365 878.742 344.672C878.758 344.979 878.771 345.315 878.781 345.68C878.792 346.039 878.797 346.406 878.797 346.781V354H877.562V342.578H879.531L883.148 352.078H883.203L886.875 342.578H888.828V354H887.516V346.688C887.516 346.349 887.521 346.01 887.531 345.672C887.542 345.328 887.555 345.005 887.57 344.703C887.586 344.396 887.602 344.13 887.617 343.906H887.555L883.672 354H882.586ZM895.555 345.281C896.284 345.281 896.909 345.443 897.43 345.766C897.951 346.089 898.349 346.542 898.625 347.125C898.901 347.703 899.039 348.38 899.039 349.156V349.961H893.125C893.141 350.966 893.391 351.732 893.875 352.258C894.359 352.784 895.042 353.047 895.922 353.047C896.464 353.047 896.943 352.997 897.359 352.898C897.776 352.799 898.208 352.654 898.656 352.461V353.602C898.224 353.794 897.794 353.935 897.367 354.023C896.945 354.112 896.445 354.156 895.867 354.156C895.044 354.156 894.326 353.99 893.711 353.656C893.102 353.318 892.628 352.823 892.289 352.172C891.951 351.521 891.781 350.724 891.781 349.781C891.781 348.859 891.935 348.062 892.242 347.391C892.555 346.714 892.992 346.193 893.555 345.828C894.122 345.464 894.789 345.281 895.555 345.281ZM895.539 346.344C894.846 346.344 894.294 346.57 893.883 347.023C893.471 347.477 893.227 348.109 893.148 348.922H897.68C897.674 348.411 897.594 347.964 897.438 347.578C897.286 347.188 897.055 346.885 896.742 346.672C896.43 346.453 896.029 346.344 895.539 346.344ZM905.797 345.281C906.812 345.281 907.581 345.531 908.102 346.031C908.622 346.526 908.883 347.323 908.883 348.422V354H907.602V348.508C907.602 347.794 907.438 347.26 907.109 346.906C906.786 346.552 906.289 346.375 905.617 346.375C904.669 346.375 904.003 346.643 903.617 347.18C903.232 347.716 903.039 348.495 903.039 349.516V354H901.742V345.438H902.789L902.984 346.672H903.055C903.237 346.37 903.469 346.117 903.75 345.914C904.031 345.706 904.346 345.549 904.695 345.445C905.044 345.336 905.411 345.281 905.797 345.281ZM919.125 345.438V354H918.062L917.875 352.797H917.805C917.628 353.094 917.398 353.344 917.117 353.547C916.836 353.75 916.518 353.901 916.164 354C915.815 354.104 915.443 354.156 915.047 354.156C914.37 354.156 913.802 354.047 913.344 353.828C912.885 353.609 912.539 353.271 912.305 352.812C912.076 352.354 911.961 351.766 911.961 351.047V345.438H913.273V350.953C913.273 351.667 913.435 352.201 913.758 352.555C914.081 352.904 914.573 353.078 915.234 353.078C915.87 353.078 916.375 352.958 916.75 352.719C917.13 352.479 917.404 352.128 917.57 351.664C917.737 351.195 917.82 350.622 917.82 349.945V345.438H919.125ZM928.32 345.438V354H927.023V345.438H928.32ZM927.688 342.234C927.901 342.234 928.083 342.305 928.234 342.445C928.391 342.581 928.469 342.794 928.469 343.086C928.469 343.372 928.391 343.586 928.234 343.727C928.083 343.867 927.901 343.938 927.688 343.938C927.464 343.938 927.276 343.867 927.125 343.727C926.979 343.586 926.906 343.372 926.906 343.086C926.906 342.794 926.979 342.581 927.125 342.445C927.276 342.305 927.464 342.234 927.688 342.234ZM934.336 353.094C934.549 353.094 934.768 353.076 934.992 353.039C935.216 353.003 935.398 352.958 935.539 352.906V353.914C935.388 353.982 935.177 354.039 934.906 354.086C934.641 354.133 934.38 354.156 934.125 354.156C933.672 354.156 933.26 354.078 932.891 353.922C932.521 353.76 932.224 353.49 932 353.109C931.781 352.729 931.672 352.203 931.672 351.531V346.453H930.453V345.82L931.68 345.312L932.195 343.453H932.977V345.438H935.484V346.453H932.977V351.492C932.977 352.029 933.099 352.43 933.344 352.695C933.594 352.961 933.924 353.094 934.336 353.094ZM941.07 345.281C941.799 345.281 942.424 345.443 942.945 345.766C943.466 346.089 943.865 346.542 944.141 347.125C944.417 347.703 944.555 348.38 944.555 349.156V349.961H938.641C938.656 350.966 938.906 351.732 939.391 352.258C939.875 352.784 940.557 353.047 941.438 353.047C941.979 353.047 942.458 352.997 942.875 352.898C943.292 352.799 943.724 352.654 944.172 352.461V353.602C943.74 353.794 943.31 353.935 942.883 354.023C942.461 354.112 941.961 354.156 941.383 354.156C940.56 354.156 939.841 353.99 939.227 353.656C938.617 353.318 938.143 352.823 937.805 352.172C937.466 351.521 937.297 350.724 937.297 349.781C937.297 348.859 937.451 348.062 937.758 347.391C938.07 346.714 938.508 346.193 939.07 345.828C939.638 345.464 940.305 345.281 941.07 345.281ZM941.055 346.344C940.362 346.344 939.81 346.57 939.398 347.023C938.987 347.477 938.742 348.109 938.664 348.922H943.195C943.19 348.411 943.109 347.964 942.953 347.578C942.802 347.188 942.57 346.885 942.258 346.672C941.945 346.453 941.544 346.344 941.055 346.344ZM956.555 345.281C957.497 345.281 958.208 345.529 958.688 346.023C959.167 346.513 959.406 347.302 959.406 348.391V354H958.125V348.453C958.125 347.76 957.974 347.242 957.672 346.898C957.375 346.549 956.932 346.375 956.344 346.375C955.516 346.375 954.914 346.615 954.539 347.094C954.164 347.573 953.977 348.279 953.977 349.211V354H952.688V348.453C952.688 347.99 952.62 347.604 952.484 347.297C952.354 346.99 952.156 346.76 951.891 346.609C951.63 346.453 951.299 346.375 950.898 346.375C950.331 346.375 949.875 346.492 949.531 346.727C949.188 346.961 948.938 347.31 948.781 347.773C948.63 348.232 948.555 348.797 948.555 349.469V354H947.258V345.438H948.305L948.5 346.648H948.57C948.742 346.352 948.958 346.102 949.219 345.898C949.479 345.695 949.771 345.542 950.094 345.438C950.417 345.333 950.76 345.281 951.125 345.281C951.776 345.281 952.32 345.404 952.758 345.648C953.201 345.888 953.521 346.255 953.719 346.75H953.789C954.07 346.255 954.456 345.888 954.945 345.648C955.435 345.404 955.971 345.281 956.555 345.281Z" fill="#141B4D"/>
<rect x="810.5" y="161.5" width="379" height="39" rx="3.5" fill="white"/>
<path d="M827.584 175.3H828.864L832.944 181.412L837.024 175.3H838.304V186.5H837.04V177.428L832.96 183.428H832.896L828.816 177.444V186.5H827.584V175.3ZM842.503 182.868C842.679 184.612 843.959 185.62 845.415 185.62C846.551 185.62 847.351 185.156 848.023 184.452L848.791 185.14C847.959 186.068 846.951 186.692 845.383 186.692C843.111 186.692 841.255 184.948 841.255 182.372C841.255 179.972 842.935 178.052 845.223 178.052C847.671 178.052 849.079 180.004 849.079 182.436C849.079 182.548 849.079 182.676 849.063 182.868H842.503ZM842.503 181.876H847.831C847.687 180.372 846.823 179.092 845.191 179.092C843.767 179.092 842.679 180.276 842.503 181.876ZM851.735 178.228H852.967V179.668C853.511 178.772 854.375 178.052 855.799 178.052C857.799 178.052 858.967 179.396 858.967 181.364V186.5H857.735V181.668C857.735 180.132 856.903 179.172 855.447 179.172C854.023 179.172 852.967 180.212 852.967 181.764V186.5H851.735V178.228ZM865.135 186.676C863.135 186.676 861.967 185.332 861.967 183.364V178.228H863.199V183.06C863.199 184.596 864.031 185.556 865.487 185.556C866.895 185.556 867.967 184.516 867.967 182.964V178.228H869.183V186.5H867.967V185.06C867.407 185.956 866.559 186.676 865.135 186.676Z" fill="#141B4D"/>
<mask id="mask1_503_3689" style="mask-type:alpha" maskUnits="userSpaceOnUse" x="1150" y="169" width="24" height="25">
<path d="M1162 176.5L1152 186.5H1153.41L1162 177.914L1170.59 186.5H1172L1162.71 177.207L1162 176.5Z" fill="black"/>
</mask>
<g mask="url(#mask1_503_3689)">
<rect x="1150" y="169.5" width="24" height="24" fill="#141B4D"/>
</g>
<rect x="810.5" y="161.5" width="379" height="39" rx="3.5" stroke="#002DA2"/>
<rect x="807" y="158" width="386" height="46" rx="3" stroke="#E6EDF8" stroke-width="2"/>
</g>
<path d="M811.195 128.714H806.965V127.4H816.865V128.714H812.635V140H811.195V128.714ZM820.022 126.86H821.408V132.314C822.02 131.306 822.992 130.496 824.594 130.496C826.844 130.496 828.158 132.008 828.158 134.222V140H826.772V134.564C826.772 132.836 825.836 131.756 824.198 131.756C822.596 131.756 821.408 132.926 821.408 134.672V140H820.022V126.86ZM832.149 127.13H833.733V128.66H832.149V127.13ZM832.239 140V130.694H833.625V140H832.239ZM840.92 140.18C839.588 140.18 838.112 139.658 837.068 138.812L837.77 137.822C838.778 138.578 839.894 139.01 840.992 139.01C842.108 139.01 842.918 138.434 842.918 137.534V137.498C842.918 136.562 841.82 136.202 840.596 135.86C839.138 135.446 837.518 134.942 837.518 133.232V133.196C837.518 131.594 838.85 130.532 840.686 130.532C841.82 130.532 843.08 130.928 844.034 131.558L843.404 132.602C842.54 132.044 841.55 131.702 840.65 131.702C839.552 131.702 838.85 132.278 838.85 133.052V133.088C838.85 133.97 840.002 134.312 841.244 134.69C842.684 135.122 844.232 135.68 844.232 137.354V137.39C844.232 139.154 842.774 140.18 840.92 140.18ZM854.239 127.13H855.823V128.66H854.239V127.13ZM854.329 140V130.694H855.715V140H854.329ZM863.01 140.18C861.678 140.18 860.202 139.658 859.158 138.812L859.86 137.822C860.868 138.578 861.984 139.01 863.082 139.01C864.198 139.01 865.008 138.434 865.008 137.534V137.498C865.008 136.562 863.91 136.202 862.686 135.86C861.228 135.446 859.608 134.942 859.608 133.232V133.196C859.608 131.594 860.94 130.532 862.776 130.532C863.91 130.532 865.17 130.928 866.124 131.558L865.494 132.602C864.63 132.044 863.64 131.702 862.74 131.702C861.642 131.702 860.94 132.278 860.94 133.052V133.088C860.94 133.97 862.092 134.312 863.334 134.69C864.774 135.122 866.322 135.68 866.322 137.354V137.39C866.322 139.154 864.864 140.18 863.01 140.18ZM879.065 140.198C877.319 140.198 875.591 139.208 875.591 137.3V137.264C875.591 135.266 877.211 134.222 879.569 134.222C880.757 134.222 881.585 134.384 882.413 134.618V134.33C882.413 132.674 881.405 131.81 879.659 131.81C878.561 131.81 877.697 132.08 876.833 132.476L876.419 131.342C877.445 130.874 878.435 130.55 879.803 130.55C881.117 130.55 882.143 130.91 882.809 131.576C883.457 132.224 883.781 133.124 883.781 134.312V140H882.413V138.614C881.765 139.442 880.703 140.198 879.065 140.198ZM876.995 137.228C876.995 138.398 878.075 139.082 879.335 139.082C881.045 139.082 882.431 138.056 882.431 136.58V135.716C881.747 135.518 880.847 135.32 879.713 135.32C877.985 135.32 876.995 136.076 876.995 137.192V137.228ZM901.583 138.128C900.827 139.244 899.729 140.198 898.019 140.198C895.787 140.198 893.573 138.434 893.573 135.374V135.338C893.573 132.296 895.787 130.496 898.019 130.496C899.747 130.496 900.863 131.432 901.583 132.476V130.694H902.969V142.88H901.583V138.128ZM894.995 135.356C894.995 137.552 896.507 138.956 898.271 138.956C899.999 138.956 901.637 137.498 901.637 135.356V135.32C901.637 133.178 899.999 131.738 898.271 131.738C896.471 131.738 894.995 133.07 894.995 135.32V135.356ZM910.487 140.198C908.237 140.198 906.923 138.686 906.923 136.472V130.694H908.309V136.13C908.309 137.858 909.245 138.938 910.883 138.938C912.467 138.938 913.673 137.768 913.673 136.022V130.694H915.041V140H913.673V138.38C913.043 139.388 912.089 140.198 910.487 140.198ZM919.986 135.914C920.184 137.876 921.624 139.01 923.262 139.01C924.54 139.01 925.44 138.488 926.196 137.696L927.06 138.47C926.124 139.514 924.99 140.216 923.226 140.216C920.67 140.216 918.582 138.254 918.582 135.356C918.582 132.656 920.472 130.496 923.046 130.496C925.8 130.496 927.384 132.692 927.384 135.428C927.384 135.554 927.384 135.698 927.366 135.914H919.986ZM919.986 134.798H925.98C925.818 133.106 924.846 131.666 923.01 131.666C921.408 131.666 920.184 132.998 919.986 134.798ZM933.889 140.18C932.557 140.18 931.081 139.658 930.037 138.812L930.739 137.822C931.747 138.578 932.863 139.01 933.961 139.01C935.077 139.01 935.887 138.434 935.887 137.534V137.498C935.887 136.562 934.789 136.202 933.565 135.86C932.107 135.446 930.487 134.942 930.487 133.232V133.196C930.487 131.594 931.819 130.532 933.655 130.532C934.789 130.532 936.049 130.928 937.003 131.558L936.373 132.602C935.509 132.044 934.519 131.702 933.619 131.702C932.521 131.702 931.819 132.278 931.819 133.052V133.088C931.819 133.97 932.971 134.312 934.213 134.69C935.653 135.122 937.201 135.68 937.201 137.354V137.39C937.201 139.154 935.743 140.18 933.889 140.18ZM943.714 140.162C942.22 140.162 941.086 139.424 941.086 137.534V131.918H939.79V130.694H941.086V127.886H942.472V130.694H945.424V131.918H942.472V137.354C942.472 138.488 943.102 138.902 944.038 138.902C944.506 138.902 944.902 138.812 945.388 138.578V139.766C944.902 140.018 944.38 140.162 943.714 140.162ZM948.913 127.13H950.497V128.66H948.913V127.13ZM949.003 140V130.694H950.389V140H949.003ZM958.854 140.216C956.064 140.216 954.03 138.02 954.03 135.392V135.356C954.03 132.728 956.082 130.496 958.89 130.496C961.68 130.496 963.732 132.692 963.732 135.32V135.356C963.732 137.984 961.662 140.216 958.854 140.216ZM955.452 135.356C955.452 137.354 956.928 138.974 958.89 138.974C960.906 138.974 962.31 137.354 962.31 135.392V135.356C962.31 133.358 960.816 131.72 958.854 131.72C956.838 131.72 955.452 133.358 955.452 135.32V135.356ZM967.242 130.694H968.628V132.314C969.24 131.306 970.212 130.496 971.814 130.496C974.064 130.496 975.378 132.008 975.378 134.222V140H973.992V134.564C973.992 132.836 973.056 131.756 971.418 131.756C969.816 131.756 968.628 132.926 968.628 134.672V140H967.242V130.694Z" fill="black"/>
<path d="M987.765 130.604L985.911 131.918L985.425 131.072L987.513 130.118L985.425 129.146L985.911 128.318L987.765 129.614L987.585 127.364H988.521L988.341 129.614L990.195 128.318L990.681 129.146L988.593 130.118L990.681 131.072L990.195 131.918L988.341 130.604L988.521 132.854H987.585L987.765 130.604Z" fill="#CB0003"/>
<rect x="155.5" y="77.9983" width="1" height="45.6007" fill="#008574"/>
<rect x="145" y="56" width="22" height="22" rx="11" fill="#008574"/>
<path d="M155.603 72V64.244L153.993 64.622V63.25L156.359 62.2H157.465V72H155.603Z" fill="white"/>
<rect x="145" y="56" width="22" height="22" rx="11" stroke="white" stroke-width="2"/>
<rect x="73" y="182" width="1" height="96.6007" transform="rotate(-90 73 182)" fill="#008574"/>
<rect x="51" y="170.2" width="22" height="22" rx="11" fill="#008574"/>
<path d="M58.715 186.2V184.898C59.3123 184.404 59.891 183.914 60.451 183.428C61.0203 182.943 61.5243 182.462 61.963 181.986C62.411 181.51 62.7656 181.048 63.027 180.6C63.2976 180.143 63.433 179.7 63.433 179.27C63.433 178.869 63.321 178.514 63.097 178.206C62.8823 177.898 62.523 177.744 62.019 177.744C61.5056 177.744 61.1183 177.912 60.857 178.248C60.5956 178.584 60.465 178.99 60.465 179.466H58.729C58.7476 178.748 58.9063 178.15 59.205 177.674C59.5036 177.189 59.9003 176.83 60.395 176.596C60.8896 176.354 61.445 176.232 62.061 176.232C63.0596 176.232 63.8343 176.508 64.385 177.058C64.945 177.6 65.225 178.304 65.225 179.172C65.225 179.714 65.099 180.241 64.847 180.754C64.6043 181.268 64.2823 181.762 63.881 182.238C63.4796 182.714 63.0456 183.162 62.579 183.582C62.1123 183.993 61.6596 184.376 61.221 184.73H65.463V186.2H58.715Z" fill="white"/>
<rect x="51" y="170.2" width="22" height="22" rx="11" stroke="white" stroke-width="2"/>
<rect x="73" y="281" width="1" height="96.6007" transform="rotate(-90 73 281)" fill="#008574"/>
<rect x="51" y="269.2" width="22" height="22" rx="11" fill="#008574"/>
<path d="M62.9476 285.2V283.38H58.1176V281.952L62.7096 275.4H64.7396V281.826H66.0276V283.38H64.7396V285.2H62.9476ZM60.0356 281.826H63.0596V277.374L60.0356 281.826Z" fill="white"/>
<rect x="51" y="269.2" width="22" height="22" rx="11" stroke="white" stroke-width="2"/>
<rect x="737" y="269" width="1" height="96.6007" transform="rotate(-90 737 269)" fill="#008574"/>
<rect x="715" y="257.2" width="22" height="22" rx="11" fill="#008574"/>
<path d="M726.125 273.368C725.407 273.368 724.786 273.242 724.263 272.99C723.75 272.738 723.344 272.393 723.045 271.954C722.756 271.506 722.588 271.002 722.541 270.442H724.291C724.375 270.844 724.581 271.18 724.907 271.45C725.234 271.712 725.64 271.842 726.125 271.842C726.648 271.842 727.073 271.651 727.399 271.268C727.735 270.886 727.903 270.41 727.903 269.84C727.903 269.252 727.735 268.786 727.399 268.44C727.073 268.095 726.657 267.922 726.153 267.922C725.733 267.922 725.369 268.025 725.061 268.23C724.753 268.436 724.534 268.692 724.403 269H722.681L723.521 263.4H728.953V264.968H724.865L724.417 267.236C724.623 267.012 724.903 266.83 725.257 266.69C725.612 266.541 726.009 266.466 726.447 266.466C727.147 266.466 727.731 266.625 728.197 266.942C728.664 267.25 729.019 267.661 729.261 268.174C729.504 268.678 729.625 269.229 729.625 269.826C729.625 270.508 729.476 271.114 729.177 271.646C728.888 272.178 728.477 272.598 727.945 272.906C727.423 273.214 726.816 273.368 726.125 273.368Z" fill="white"/>
<rect x="715" y="257.2" width="22" height="22" rx="11" stroke="white" stroke-width="2"/>
<rect x="516" y="182" width="1" height="96.6007" transform="rotate(-90 516 182)" fill="#008574"/>
<rect x="612.399" y="170.2" width="22" height="22" rx="11" fill="#008574"/>
<path d="M623.387 186.368C622.743 186.368 622.16 186.256 621.637 186.032C621.115 185.799 620.695 185.444 620.377 184.968C620.06 184.492 619.892 183.895 619.873 183.176H621.637C621.647 183.652 621.801 184.054 622.099 184.38C622.407 184.698 622.837 184.856 623.387 184.856C623.91 184.856 624.311 184.712 624.591 184.422C624.871 184.133 625.011 183.769 625.011 183.33C625.011 182.817 624.825 182.43 624.451 182.168C624.087 181.898 623.616 181.762 623.037 181.762H622.309V180.292H623.051C623.527 180.292 623.924 180.18 624.241 179.956C624.559 179.732 624.717 179.401 624.717 178.962C624.717 178.598 624.596 178.309 624.353 178.094C624.12 177.87 623.793 177.758 623.373 177.758C622.916 177.758 622.557 177.894 622.295 178.164C622.043 178.435 621.903 178.766 621.875 179.158H620.125C620.163 178.253 620.475 177.539 621.063 177.016C621.661 176.494 622.431 176.232 623.373 176.232C624.045 176.232 624.61 176.354 625.067 176.596C625.534 176.83 625.884 177.142 626.117 177.534C626.36 177.926 626.481 178.36 626.481 178.836C626.481 179.387 626.327 179.854 626.019 180.236C625.721 180.61 625.347 180.862 624.899 180.992C625.45 181.104 625.898 181.375 626.243 181.804C626.589 182.224 626.761 182.756 626.761 183.4C626.761 183.942 626.631 184.436 626.369 184.884C626.108 185.332 625.725 185.692 625.221 185.962C624.727 186.233 624.115 186.368 623.387 186.368Z" fill="white"/>
<rect x="612.399" y="170.2" width="22" height="22" rx="11" stroke="white" stroke-width="2"/>
<defs>
<filter id="filter0_ddd_503_3689" x="139" y="203.506" width="408" height="156.494" filterUnits="userSpaceOnUse" color-interpolation-filters="sRGB">
<feFlood flood-opacity="0" result="BackgroundImageFix"/>
<feColorMatrix in="SourceAlpha" type="matrix" values="0 0 0 0 0 0 0 0 0 0 0 0 0 0 0 0 0 0 127 0" result="hardAlpha"/>
<feOffset dy="2"/>
<feGaussianBlur stdDeviation="2"/>
<feColorMatrix type="matrix" values="0 0 0 0 0 0 0 0 0 0 0 0 0 0 0 0 0 0 0.1 0"/>
<feBlend mode="normal" in2="BackgroundImageFix" result="effect1_dropShadow_503_3689"/>
<feColorMatrix in="SourceAlpha" type="matrix" values="0 0 0 0 0 0 0 0 0 0 0 0 0 0 0 0 0 0 127 0" result="hardAlpha"/>
<feOffset dy="1"/>
<feGaussianBlur stdDeviation="5"/>
<feColorMatrix type="matrix" values="0 0 0 0 0.7625 0 0 0 0 0.727552 0 0 0 0 0.727552 0 0 0 0.12 0"/>
<feBlend mode="normal" in2="effect1_dropShadow_503_3689" result="effect2_dropShadow_503_3689"/>
<feColorMatrix in="SourceAlpha" type="matrix" values="0 0 0 0 0 0 0 0 0 0 0 0 0 0 0 0 0 0 127 0" result="hardAlpha"/>
<feOffset dy="2"/>
<feGaussianBlur stdDeviation="2.5"/>
<feColorMatrix type="matrix" values="0 0 0 0 0 0 0 0 0 0 0 0 0 0 0 0 0 0 0.14 0"/>
<feBlend mode="normal" in2="effect2_dropShadow_503_3689" result="effect3_dropShadow_503_3689"/>
<feBlend mode="normal" in="SourceGraphic" in2="effect3_dropShadow_503_3689" result="shape"/>
</filter>
<filter id="filter1_d_503_3689" x="802" y="157" width="396" height="220" filterUnits="userSpaceOnUse" color-interpolation-filters="sRGB">
<feFlood flood-opacity="0" result="BackgroundImageFix"/>
<feColorMatrix in="SourceAlpha" type="matrix" values="0 0 0 0 0 0 0 0 0 0 0 0 0 0 0 0 0 0 127 0" result="hardAlpha"/>
<feOffset dy="4"/>
<feGaussianBlur stdDeviation="2"/>
<feComposite in2="hardAlpha" operator="out"/>
<feColorMatrix type="matrix" values="0 0 0 0 0 0 0 0 0 0 0 0 0 0 0 0 0 0 0.25 0"/>
<feBlend mode="normal" in2="BackgroundImageFix" result="effect1_dropShadow_503_3689"/>
<feBlend mode="normal" in="SourceGraphic" in2="effect1_dropShadow_503_3689" result="shape"/>
</filter>
</defs>
</svg>
