<svg fill="none" height="53" viewBox="0 0 53 53" width="53" xmlns="http://www.w3.org/2000/svg"><g clip-rule="evenodd" fill-rule="evenodd"><path d="m32.7064 38.8788h7.1778v-23.7791h-6.5686v14.8157l-1.9067-1.8734v-11.8109c-.0338-6.94038.7909-10.2311.7909-10.2311-2.2235 0-3.3772 2.11438-3.6344 2.7394-1.2484.13839-2.2724.86043-2.957 2.2637-.3879.7942-.5812 1.564-.6502 1.9402-2.6314.6094-2.8593 5.3132-2.6867 6.158l-4.0868-4.0016h-7.1593v23.7791h6.5691v-14.3711l3.1758 3.0198c.289.8665.5695 1.2134.5695 1.2134l-1.2472-1.0732c-.2252 2.3332.4284 3.5292 1.0355 4.4137l-1.5161-1.2904c-.1175 2.3162.9967 3.7373 1.6794 4.3481l-2.0044-.9869c-.1373 1.3862 1.2482 3.4167 2.0528 3.8083l-1.691-.2529c.3677 1.9115 1.691 2.5986 1.691 2.5986s-2.888-.0608-4.2169-.0608c-3.6966 0-6.1229.3514-6.1229.3514s1.6357 1.6323 3.7261 1.7079l-1.8616 1.1518c1.3514.4429 2.6363.2889 2.6363.2889l-1.0752 1.2909s3.3841-1.3057 4.8124-1.2067c1.1375.0787 6.4453 2.1559 10.0089 2.1559 2.3913 0 4.1236-.9183 5.5158-1.6567.8493-.45 1.5816-.8144 2.3041-.9257 1.2914-.1992 1.8731.2728 1.8731.2728.1318-.5455.5311-1.9225-1.5631-2.2592-.0828-.3747-.4455-.8637-.9874-.9462-1.1252-.1713-5.8612-.5376-5.9999-.5459-.4062-.0245-1.7724-.2892-.5161-2.0953.095-.1364.7303-.9396.7303-.9396zm-.1682 1.7769c1.5544.12 2.659.2243 3.7683.364.4194.0531.5859.5396.6414.7679-.531-.1323-1.371-.1675-1.371-.1675l-.0461.5053s.7184-.2061 1.5044-.2151c0 0 1.6135-.0073 1.5367 1.0861-.4403-.3055-1.341-.1838-1.5954-.1419-.8098.1336-1.5805.5103-2.4726.9833-.8161.4328-1.6964.8984-2.7309 1.2134.4528-.442 1.6365-1.753 1.6365-1.753l-1.5775-.5515 1.2918-1.1309-1.9847-1.0781c.4953.0422.9637.0848 1.3991.118zm-2.2942-4.2589c-.731.8504-1.6797 2.0607-1.4743 2.9431.1523.7311 1.1802 1.1818 1.1802 1.1818l2.2089 1.2015-1.4335 1.2555 1.7201.5444s-1.577 1.6226-1.7578 1.7852c-.4503.076-.9275.1217-1.4407.1217-3.6494 0-8.7242-2.1619-9.9797-2.1776-1.5138-.0185-3.4154.8574-3.4154.8574l.9931-1.0788s-1.2994.2643-2.5594.1569l1.7764-1.211c-1.5604-.0509-2.9271-.5173-3.571-.9742 0 0 2.8728-.2284 6.7683-.1869 1.5764.0171 4.2488.1757 4.2488.1757-1.321-.5636-2.5561-1.3055-3.0861-2.6097l2.519.3809c-1.0576-.6498-2.5929-2.2773-2.8758-3.5368l2.809.9882c-.4986-.5428-2.2359-2.1751-2.5483-4.0674l2.223 1.4036c-.5827-.5891-2.1616-3.7164-1.893-4.631l2.0721 1.3987c-.992-1.231-2.1526-4.493-1.3627-5.7636.6297 2.4584 2.0322 3.3533 2.0322 3.3533-.9205-1.3383-2.9063-6.0801-1.0099-8.1678.4981 4.7287 2.5008 6.3255 2.5008 6.3255-1.6579-2.652-3.5465-10.7922-.0236-12.4383-.6899 5.2298.9753 8.0728.9753 8.0728-1.0511-4.8185-1.0167-11.6456 2.551-12.2696-1.7519 5.1472-.5074 9.1168-.5074 9.1168-.2554-12.04004 3.6092-11.83697 3.6092-11.83697s-.6354 3.41877-.6354 9.51167v17.5959c0 1.215-.1037 1.9394-.6134 2.5791z" fill="#1c57a5"/><path d="m32.5382 40.6557c1.5544.12 2.659.2243 3.7683.364.4194.0531.5859.5396.6414.7679-.531-.1323-1.371-.1675-1.371-.1675l-.0461.5053s.7184-.2061 1.5044-.2151c0 0 1.6135-.0073 1.5367 1.0861-.4403-.3055-1.341-.1838-1.5954-.1419-.8098.1336-1.5805.5103-2.4726.9833-.8161.4328-1.6964.8984-2.7309 1.2134.4528-.442 1.6365-1.753 1.6365-1.753l-1.5775-.5515 1.2918-1.1309-1.9847-1.0781c.4953.0422.9637.0848 1.3991.118zm-2.2942-4.2589c-.731.8504-1.6797 2.0607-1.4743 2.9431.1523.7311 1.1802 1.1818 1.1802 1.1818l2.2089 1.2015-1.4335 1.2555 1.7201.5444s-1.577 1.6226-1.7578 1.7852c-.4503.076-.9275.1217-1.4407.1217-3.6494 0-8.7242-2.1619-9.9797-2.1776-1.5138-.0185-3.4154.8574-3.4154.8574l.9931-1.0788s-1.2994.2643-2.5594.1569l1.7764-1.211c-1.5604-.0509-2.9271-.5173-3.571-.9742 0 0 2.8728-.2284 6.7683-.1869 1.5764.0171 4.2488.1757 4.2488.1757-1.321-.5636-2.5561-1.3055-3.0861-2.6097l2.519.3809c-1.0576-.6498-2.5929-2.2773-2.8758-3.5368l2.809.9882c-.4986-.5428-2.2359-2.1751-2.5483-4.0674l2.223 1.4036c-.5827-.5891-2.1616-3.7164-1.893-4.631l2.0721 1.3987c-.992-1.231-2.1526-4.493-1.3627-5.7636.6297 2.4584 2.0322 3.3533 2.0322 3.3533-.9205-1.3383-2.9063-6.0801-1.0099-8.1678.4981 4.7287 2.5008 6.3255 2.5008 6.3255-1.6579-2.652-3.5465-10.7922-.0236-12.4383-.6899 5.2298.9753 8.0728.9753 8.0728-1.0511-4.8185-1.0167-11.6456 2.551-12.2696-1.7519 5.1472-.5074 9.1168-.5074 9.1168-.2554-12.04004 3.6092-11.83697 3.6092-11.83697s-.6354 3.41877-.6354 9.51167v17.5959c0 1.215-.1037 1.9394-.6134 2.5791z" fill="#fffffe"/><path d="m41.7387 16.2015h.1071c.1246 0 .2253-.0426.2253-.1456 0-.0908-.065-.1515-.2076-.1515-.0594 0-.1011.0061-.1248.0123zm-.0057.5637h-.226v-.9941c.0891-.0183.2137-.0304.3745-.0304.1839 0 .2668.0304.3381.0728.0531.0425.0948.1212.0948.2182 0 .1091-.0832.194-.2014.2305v.0121c.0948.0363.1483.1091.1777.2424.0298.1515.0472.2122.0715.2485h-.2435c-.0296-.0363-.0476-.1273-.0772-.2424-.0176-.1091-.0771-.1578-.2017-.1578h-.1068zm-.5998-.5211c0 .4422.3207.794.7597.794.4276 0 .7418-.3518.7418-.7882 0-.4425-.3142-.8001-.7477-.8001-.4331 0-.7538.3576-.7538.7943zm1.751 0c0 .5634-.4331 1.0059-.9972 1.0059-.5577 0-1.0028-.4425-1.0028-1.0059 0-.5516.4451-.9941 1.0028-.9941.5641 0 .9972.4425.9972.9941z" fill="#1c57a5"/></g></svg>