<svg width="323" height="202" viewBox="0 0 323 202" fill="none" xmlns="http://www.w3.org/2000/svg">
<g clip-path="url(#clip0_505_4108)">
<rect width="323" height="202" fill="#D0D3D4"/>
<g filter="url(#filter0_d_505_4108)">
<rect x="34.4994" y="77.863" width="254.654" height="105.323" rx="4" fill="white"/>
<path d="M78.8158 99.4921L75.0558 99.4921L75.0558 98.3241L83.8558 98.3241L83.8558 99.4921L80.0958 99.4921L80.0958 109.524L78.8158 109.524L78.8158 99.4921ZM86.2728 97.8441L87.5048 97.8441L87.5048 102.692C88.0488 101.796 88.9128 101.076 90.3368 101.076C92.3368 101.076 93.5048 102.42 93.5048 104.388L93.5048 109.524L92.2728 109.524L92.2728 104.692C92.2728 103.156 91.4408 102.196 89.9848 102.196C88.5608 102.196 87.5048 103.236 87.5048 104.788L87.5048 109.524L86.2728 109.524L86.2728 97.8441ZM96.6642 98.0841L98.0722 98.0841L98.0722 99.4441L96.6642 99.4441L96.6642 98.0841ZM96.7442 109.524L96.7442 101.252L97.9762 101.252L97.9762 109.524L96.7442 109.524ZM104.071 109.684C102.887 109.684 101.575 109.22 100.647 108.468L101.271 107.588C102.167 108.26 103.159 108.644 104.135 108.644C105.127 108.644 105.847 108.132 105.847 107.332L105.847 107.3C105.847 106.468 104.871 106.148 103.783 105.844C102.487 105.476 101.047 105.028 101.047 103.508L101.047 103.476C101.047 102.052 102.231 101.108 103.863 101.108C104.871 101.108 105.991 101.46 106.839 102.02L106.279 102.948C105.511 102.452 104.631 102.148 103.831 102.148C102.855 102.148 102.231 102.66 102.231 103.348L102.231 103.38C102.231 104.164 103.255 104.468 104.359 104.804C105.639 105.188 107.015 105.684 107.015 107.172L107.015 107.204C107.015 108.772 105.719 109.684 104.071 109.684ZM115.133 98.0841L116.541 98.0841L116.541 99.4441L115.133 99.4441L115.133 98.0841ZM115.213 109.524L115.213 101.252L116.445 101.252L116.445 109.524L115.213 109.524ZM122.54 109.684C121.356 109.684 120.044 109.22 119.116 108.468L119.74 107.588C120.636 108.26 121.628 108.644 122.604 108.644C123.596 108.644 124.316 108.132 124.316 107.332L124.316 107.3C124.316 106.468 123.34 106.148 122.252 105.844C120.956 105.476 119.516 105.028 119.516 103.508L119.516 103.476C119.516 102.052 120.7 101.108 122.332 101.108C123.34 101.108 124.46 101.46 125.308 102.02L124.748 102.948C123.98 102.452 123.1 102.148 122.3 102.148C121.324 102.148 120.7 102.66 120.7 103.348L120.7 103.38C120.7 104.164 121.724 104.468 122.828 104.804C124.108 105.188 125.484 105.684 125.484 107.172L125.484 107.204C125.484 108.772 124.188 109.684 122.54 109.684ZM136.034 109.7C134.482 109.7 132.946 108.82 132.946 107.124L132.946 107.092C132.946 105.316 134.386 104.388 136.482 104.388C137.538 104.388 138.274 104.532 139.01 104.74L139.01 104.484C139.01 103.012 138.114 102.244 136.562 102.244C135.586 102.244 134.818 102.484 134.05 102.836L133.682 101.828C134.594 101.412 135.474 101.124 136.69 101.124C137.858 101.124 138.77 101.444 139.362 102.036C139.938 102.612 140.226 103.412 140.226 104.468L140.226 109.524L139.01 109.524L139.01 108.292C138.434 109.028 137.49 109.7 136.034 109.7ZM134.194 107.06C134.194 108.1 135.154 108.708 136.274 108.708C137.794 108.708 139.026 107.796 139.026 106.484L139.026 105.716C138.418 105.54 137.618 105.364 136.61 105.364C135.074 105.364 134.194 106.036 134.194 107.028L134.194 107.06ZM148.632 101.252L149.864 101.252L149.864 102.916C150.536 101.924 151.512 101.076 153.032 101.076C155.016 101.076 156.984 102.644 156.984 105.364L156.984 105.396C156.984 108.1 155.032 109.7 153.032 109.7C151.496 109.7 150.504 108.868 149.864 107.94L149.864 112.084L148.632 112.084L148.632 101.252ZM149.816 105.396C149.816 107.316 151.272 108.596 152.808 108.596C154.408 108.596 155.72 107.412 155.72 105.412L155.72 105.38C155.72 103.428 154.376 102.18 152.808 102.18C151.272 102.18 149.816 103.476 149.816 105.364L149.816 105.396ZM163.533 109.716C161.053 109.716 159.245 107.764 159.245 105.428L159.245 105.396C159.245 103.06 161.069 101.076 163.565 101.076C166.045 101.076 167.869 103.028 167.869 105.364L167.869 105.396C167.869 107.732 166.029 109.716 163.533 109.716ZM160.509 105.396C160.509 107.172 161.821 108.612 163.565 108.612C165.357 108.612 166.605 107.172 166.605 105.428L166.605 105.396C166.605 103.62 165.277 102.164 163.533 102.164C161.741 102.164 160.509 103.62 160.509 105.364L160.509 105.396ZM170.601 101.252L171.833 101.252L171.833 102.916C172.505 101.924 173.481 101.076 175.001 101.076C176.985 101.076 178.953 102.644 178.953 105.364L178.953 105.396C178.953 108.1 177.001 109.7 175.001 109.7C173.465 109.7 172.473 108.868 171.833 107.94L171.833 112.084L170.601 112.084L170.601 101.252ZM171.785 105.396C171.785 107.316 173.241 108.596 174.777 108.596C176.377 108.596 177.689 107.412 177.689 105.412L177.689 105.38C177.689 103.428 176.345 102.18 174.777 102.18C173.241 102.18 171.785 103.476 171.785 105.364L171.785 105.396ZM187.438 96.7561L188.574 96.7561L181.15 111.572L180.014 111.572L187.438 96.7561ZM192.806 109.668C191.478 109.668 190.47 109.012 190.47 107.332L190.47 102.34L189.318 102.34L189.318 101.252L190.47 101.252L190.47 98.7561L191.702 98.7561L191.702 101.252L194.326 101.252L194.326 102.34L191.702 102.34L191.702 107.172C191.702 108.18 192.262 108.548 193.094 108.548C193.51 108.548 193.862 108.468 194.294 108.26L194.294 109.316C193.862 109.54 193.398 109.668 192.806 109.668ZM200.549 109.716C198.069 109.716 196.261 107.764 196.261 105.428L196.261 105.396C196.261 103.06 198.085 101.076 200.581 101.076C203.061 101.076 204.885 103.028 204.885 105.364L204.885 105.396C204.885 107.732 203.045 109.716 200.549 109.716ZM197.525 105.396C197.525 107.172 198.837 108.612 200.581 108.612C202.373 108.612 203.621 107.172 203.621 105.428L203.621 105.396C203.621 103.62 202.293 102.164 200.549 102.164C198.757 102.164 197.525 103.62 197.525 105.364L197.525 105.396ZM211.393 109.716C208.913 109.716 207.105 107.764 207.105 105.428L207.105 105.396C207.105 103.06 208.929 101.076 211.425 101.076C213.905 101.076 215.729 103.028 215.729 105.364L215.729 105.396C215.729 107.732 213.889 109.716 211.393 109.716ZM208.369 105.396C208.369 107.172 209.681 108.612 211.425 108.612C213.217 108.612 214.465 107.172 214.465 105.428L214.465 105.396C214.465 103.62 213.137 102.164 211.393 102.164C209.601 102.164 208.369 103.62 208.369 105.364L208.369 105.396ZM218.572 97.8441L219.804 97.8441L219.804 109.524L218.572 109.524L218.572 97.8441ZM225.931 109.668C224.603 109.668 223.595 109.012 223.595 107.332L223.595 102.34L222.443 102.34L222.443 101.252L223.595 101.252L223.595 98.7561L224.827 98.7561L224.827 101.252L227.451 101.252L227.451 102.34L224.827 102.34L224.827 107.172C224.827 108.18 225.387 108.548 226.219 108.548C226.635 108.548 226.987 108.468 227.419 108.26L227.419 109.316C226.987 109.54 226.523 109.668 225.931 109.668ZM230.164 98.0841L231.572 98.0841L231.572 99.4441L230.164 99.4441L230.164 98.0841ZM230.244 109.524L230.244 101.252L231.476 101.252L231.476 109.524L230.244 109.524ZM234.835 101.252L236.067 101.252L236.067 102.916C236.739 101.924 237.715 101.076 239.235 101.076C241.219 101.076 243.187 102.644 243.187 105.364L243.187 105.396C243.187 108.1 241.235 109.7 239.235 109.7C237.699 109.7 236.707 108.868 236.067 107.94L236.067 112.084L234.835 112.084L234.835 101.252ZM236.019 105.396C236.019 107.316 237.475 108.596 239.011 108.596C240.611 108.596 241.923 107.412 241.923 105.412L241.923 105.38C241.923 103.428 240.579 102.18 239.011 102.18C237.475 102.18 236.019 103.476 236.019 105.364L236.019 105.396ZM49.545 138.132C48.857 138.132 48.345 137.988 47.785 137.716L48.201 136.74C48.601 136.948 48.969 137.044 49.497 137.044C50.233 137.044 50.697 136.66 51.193 135.492L47.433 127.252L48.793 127.252L51.801 134.148L54.457 127.252L55.769 127.252L52.297 135.796C51.593 137.508 50.793 138.132 49.545 138.132ZM61.5097 135.716C59.0297 135.716 57.2217 133.764 57.2217 131.428L57.2217 131.396C57.2217 129.06 59.0457 127.076 61.5417 127.076C64.0217 127.076 65.8457 129.028 65.8457 131.364L65.8457 131.396C65.8457 133.732 64.0057 135.716 61.5097 135.716ZM58.4857 131.396C58.4857 133.172 59.7977 134.612 61.5417 134.612C63.3337 134.612 64.5817 133.172 64.5817 131.428L64.5817 131.396C64.5817 129.62 63.2537 128.164 61.5097 128.164C59.7177 128.164 58.4857 129.62 58.4857 131.364L58.4857 131.396ZM71.6175 135.7C69.6175 135.7 68.4495 134.356 68.4495 132.388L68.4495 127.252L69.6815 127.252L69.6815 132.084C69.6815 133.62 70.5135 134.58 71.9695 134.58C73.3775 134.58 74.4495 133.54 74.4495 131.988L74.4495 127.252L75.6655 127.252L75.6655 135.524L74.4495 135.524L74.4495 134.084C73.8895 134.98 73.0415 135.7 71.6175 135.7ZM87.9617 135.716C85.5457 135.716 83.7217 133.748 83.7217 131.428L83.7217 131.396C83.7217 129.06 85.5457 127.076 87.9617 127.076C89.5297 127.076 90.5057 127.732 91.2737 128.548L90.4577 129.412C89.8017 128.724 89.0657 128.164 87.9457 128.164C86.2657 128.164 84.9857 129.588 84.9857 131.364L84.9857 131.396C84.9857 133.188 86.2977 134.612 88.0257 134.612C89.0817 134.612 89.8977 134.084 90.5537 133.38L91.3377 134.116C90.5057 135.044 89.5137 135.716 87.9617 135.716ZM96.3384 135.7C94.7864 135.7 93.2504 134.82 93.2504 133.124L93.2504 133.092C93.2504 131.316 94.6904 130.388 96.7864 130.388C97.8424 130.388 98.5784 130.532 99.3144 130.74L99.3144 130.484C99.3144 129.012 98.4184 128.244 96.8664 128.244C95.8904 128.244 95.1224 128.484 94.3544 128.836L93.9864 127.828C94.8984 127.412 95.7784 127.124 96.9944 127.124C98.1624 127.124 99.0744 127.444 99.6664 128.036C100.242 128.612 100.53 129.412 100.53 130.468L100.53 135.524L99.3144 135.524L99.3144 134.292C98.7384 135.028 97.7944 135.7 96.3384 135.7ZM94.4984 133.06C94.4984 134.1 95.4584 134.708 96.5784 134.708C98.0984 134.708 99.3304 133.796 99.3304 132.484L99.3304 131.716C98.7224 131.54 97.9224 131.364 96.9144 131.364C95.3784 131.364 94.4984 132.036 94.4984 133.028L94.4984 133.06ZM103.64 127.252L104.872 127.252L104.872 128.692C105.416 127.796 106.28 127.076 107.704 127.076C109.704 127.076 110.872 128.42 110.872 130.388L110.872 135.524L109.64 135.524L109.64 130.692C109.64 129.156 108.808 128.196 107.352 128.196C105.928 128.196 104.872 129.236 104.872 130.788L104.872 135.524L103.64 135.524L103.64 127.252ZM121.76 135.7C120.208 135.7 118.672 134.82 118.672 133.124L118.672 133.092C118.672 131.316 120.112 130.388 122.208 130.388C123.264 130.388 124 130.532 124.736 130.74L124.736 130.484C124.736 129.012 123.84 128.244 122.288 128.244C121.312 128.244 120.544 128.484 119.776 128.836L119.408 127.828C120.32 127.412 121.2 127.124 122.416 127.124C123.584 127.124 124.496 127.444 125.088 128.036C125.664 128.612 125.952 129.412 125.952 130.468L125.952 135.524L124.736 135.524L124.736 134.292C124.16 135.028 123.216 135.7 121.76 135.7ZM119.92 133.06C119.92 134.1 120.88 134.708 122 134.708C123.52 134.708 124.752 133.796 124.752 132.484L124.752 131.716C124.144 131.54 123.344 131.364 122.336 131.364C120.8 131.364 119.92 132.036 119.92 133.028L119.92 133.06ZM132.534 135.7C130.55 135.7 128.582 134.132 128.582 131.412L128.582 131.38C128.582 128.676 130.55 127.076 132.534 127.076C134.07 127.076 135.062 127.908 135.702 128.836L135.702 123.844L136.934 123.844L136.934 135.524L135.702 135.524L135.702 133.86C135.03 134.852 134.054 135.7 132.534 135.7ZM129.846 131.396C129.846 133.348 131.19 134.596 132.758 134.596C134.294 134.596 135.75 133.3 135.75 131.396L135.75 131.364C135.75 129.46 134.294 128.18 132.758 128.18C131.158 128.18 129.846 129.364 129.846 131.364L129.846 131.396ZM143.659 135.7C141.675 135.7 139.707 134.132 139.707 131.412L139.707 131.38C139.707 128.676 141.675 127.076 143.659 127.076C145.195 127.076 146.187 127.908 146.827 128.836L146.827 123.844L148.059 123.844L148.059 135.524L146.827 135.524L146.827 133.86C146.155 134.852 145.179 135.7 143.659 135.7ZM140.971 131.396C140.971 133.348 142.315 134.596 143.883 134.596C145.419 134.596 146.875 133.3 146.875 131.396L146.875 131.364C146.875 129.46 145.419 128.18 143.883 128.18C142.283 128.18 140.971 129.364 140.971 131.364L140.971 131.396ZM159.377 135.668C158.049 135.668 157.041 135.012 157.041 133.332L157.041 128.34L155.889 128.34L155.889 127.252L157.041 127.252L157.041 124.756L158.273 124.756L158.273 127.252L160.897 127.252L160.897 128.34L158.273 128.34L158.273 133.172C158.273 134.18 158.833 134.548 159.665 134.548C160.081 134.548 160.433 134.468 160.865 134.26L160.865 135.316C160.433 135.54 159.969 135.668 159.377 135.668ZM164.079 131.892C164.255 133.636 165.535 134.644 166.991 134.644C168.127 134.644 168.927 134.18 169.599 133.476L170.367 134.164C169.535 135.092 168.527 135.716 166.959 135.716C164.687 135.716 162.831 133.972 162.831 131.396C162.831 128.996 164.511 127.076 166.799 127.076C169.247 127.076 170.655 129.028 170.655 131.46C170.655 131.572 170.655 131.7 170.639 131.892L164.079 131.892ZM164.079 130.9L169.407 130.9C169.263 129.396 168.399 128.116 166.767 128.116C165.343 128.116 164.255 129.3 164.079 130.9ZM175.323 131.316L172.203 127.252L173.611 127.252L176.059 130.452L178.507 127.252L179.883 127.252L176.747 131.284L180.011 135.524L178.587 135.524L176.027 132.148L173.451 135.524L172.075 135.524L175.323 131.316ZM185.283 135.668C183.955 135.668 182.947 135.012 182.947 133.332L182.947 128.34L181.795 128.34L181.795 127.252L182.947 127.252L182.947 124.756L184.179 124.756L184.179 127.252L186.803 127.252L186.803 128.34L184.179 128.34L184.179 133.172C184.179 134.18 184.739 134.548 185.571 134.548C185.987 134.548 186.339 134.468 186.771 134.26L186.771 135.316C186.339 135.54 185.875 135.668 185.283 135.668ZM198.557 135.716C196.077 135.716 194.269 133.764 194.269 131.428L194.269 131.396C194.269 129.06 196.093 127.076 198.589 127.076C201.069 127.076 202.893 129.028 202.893 131.364L202.893 131.396C202.893 133.732 201.053 135.716 198.557 135.716ZM195.533 131.396C195.533 133.172 196.845 134.612 198.589 134.612C200.381 134.612 201.629 133.172 201.629 131.428L201.629 131.396C201.629 129.62 200.301 128.164 198.557 128.164C196.765 128.164 195.533 129.62 195.533 131.364L195.533 131.396ZM205.624 127.252L206.856 127.252L206.856 129.412C207.464 128.036 208.664 127.044 210.232 127.108L210.232 128.436L210.136 128.436C208.328 128.436 206.856 129.732 206.856 132.228L206.856 135.524L205.624 135.524L205.624 127.252ZM220.37 135.7C218.818 135.7 217.282 134.82 217.282 133.124L217.282 133.092C217.282 131.316 218.722 130.388 220.818 130.388C221.874 130.388 222.61 130.532 223.346 130.74L223.346 130.484C223.346 129.012 222.45 128.244 220.898 128.244C219.922 128.244 219.154 128.484 218.386 128.836L218.018 127.828C218.93 127.412 219.81 127.124 221.026 127.124C222.194 127.124 223.106 127.444 223.698 128.036C224.274 128.612 224.562 129.412 224.562 130.468L224.562 135.524L223.346 135.524L223.346 134.292C222.77 135.028 221.826 135.7 220.37 135.7ZM218.53 133.06C218.53 134.1 219.49 134.708 220.61 134.708C222.13 134.708 223.362 133.796 223.362 132.484L223.362 131.716C222.754 131.54 221.954 131.364 220.946 131.364C219.41 131.364 218.53 132.036 218.53 133.028L218.53 133.06ZM227.671 127.252L228.903 127.252L228.903 128.692C229.447 127.796 230.311 127.076 231.735 127.076C233.735 127.076 234.903 128.42 234.903 130.388L234.903 135.524L233.671 135.524L233.671 130.692C233.671 129.156 232.839 128.196 231.383 128.196C229.959 128.196 228.903 129.236 228.903 130.788L228.903 135.524L227.671 135.524L227.671 127.252ZM243.359 124.084L244.767 124.084L244.767 125.444L243.359 125.444L243.359 124.084ZM243.439 135.524L243.439 127.252L244.671 127.252L244.671 135.524L243.439 135.524ZM251.759 135.716C249.343 135.716 247.519 133.748 247.519 131.428L247.519 131.396C247.519 129.06 249.343 127.076 251.759 127.076C253.327 127.076 254.303 127.732 255.071 128.548L254.255 129.412C253.599 128.724 252.863 128.164 251.743 128.164C250.063 128.164 248.783 129.588 248.783 131.364L248.783 131.396C248.783 133.188 250.095 134.612 251.823 134.612C252.879 134.612 253.695 134.084 254.351 133.38L255.135 134.116C254.303 135.044 253.311 135.716 251.759 135.716ZM261.213 135.716C258.733 135.716 256.925 133.764 256.925 131.428L256.925 131.396C256.925 129.06 258.749 127.076 261.245 127.076C263.725 127.076 265.549 129.028 265.549 131.364L265.549 131.396C265.549 133.732 263.709 135.716 261.213 135.716ZM258.189 131.396C258.189 133.172 259.501 134.612 261.245 134.612C263.037 134.612 264.285 133.172 264.285 131.428L264.285 131.396C264.285 129.62 262.957 128.164 261.213 128.164C259.421 128.164 258.189 129.62 258.189 131.364L258.189 131.396ZM268.281 127.252L269.513 127.252L269.513 128.692C270.057 127.796 270.921 127.076 272.345 127.076C274.345 127.076 275.513 128.42 275.513 130.388L275.513 135.524L274.281 135.524L274.281 130.692C274.281 129.156 273.449 128.196 271.993 128.196C270.569 128.196 269.513 129.236 269.513 130.788L269.513 135.524L268.281 135.524L268.281 127.252ZM134.844 150.084L136.252 150.084L136.252 151.444L134.844 151.444L134.844 150.084ZM134.924 161.524L134.924 153.252L136.156 153.252L136.156 161.524L134.924 161.524ZM139.515 153.252L140.747 153.252L140.747 154.692C141.291 153.796 142.155 153.076 143.579 153.076C145.579 153.076 146.747 154.42 146.747 156.388L146.747 161.524L145.515 161.524L145.515 156.692C145.515 155.156 144.683 154.196 143.227 154.196C141.803 154.196 140.747 155.236 140.747 156.788L140.747 161.524L139.515 161.524L139.515 153.252ZM155.171 149.844L156.403 149.844L156.403 154.692C156.947 153.796 157.811 153.076 159.235 153.076C161.235 153.076 162.403 154.42 162.403 156.388L162.403 161.524L161.171 161.524L161.171 156.692C161.171 155.156 160.339 154.196 158.883 154.196C157.459 154.196 156.403 155.236 156.403 156.788L156.403 161.524L155.171 161.524L155.171 149.844ZM166.267 157.892C166.443 159.636 167.723 160.644 169.179 160.644C170.315 160.644 171.115 160.18 171.787 159.476L172.555 160.164C171.723 161.092 170.715 161.716 169.147 161.716C166.875 161.716 165.019 159.972 165.019 157.396C165.019 154.996 166.699 153.076 168.987 153.076C171.435 153.076 172.843 155.028 172.843 157.46C172.843 157.572 172.843 157.7 172.827 157.892L166.267 157.892ZM166.267 156.9L171.595 156.9C171.451 155.396 170.587 154.116 168.955 154.116C167.531 154.116 166.443 155.3 166.267 156.9ZM175.499 153.252L176.731 153.252L176.731 155.412C177.339 154.036 178.539 153.044 180.107 153.108L180.107 154.436L180.011 154.436C178.203 154.436 176.731 155.732 176.731 158.228L176.731 161.524L175.499 161.524L175.499 153.252ZM182.86 157.892C183.036 159.636 184.316 160.644 185.772 160.644C186.908 160.644 187.708 160.18 188.38 159.476L189.148 160.164C188.316 161.092 187.308 161.716 185.74 161.716C183.468 161.716 181.612 159.972 181.612 157.396C181.612 154.996 183.292 153.076 185.58 153.076C188.028 153.076 189.436 155.028 189.436 157.46C189.436 157.572 189.436 157.7 189.42 157.892L182.86 157.892ZM182.86 156.9L188.188 156.9C188.044 155.396 187.18 154.116 185.548 154.116C184.124 154.116 183.036 155.3 182.86 156.9Z" fill="#141B4D"/>
<path d="M161.119 189.478L154.119 182.478C153.932 182.291 153.677 182.185 153.412 182.185H170.241C169.975 182.185 169.721 182.291 169.534 182.478L162.534 189.478C162.143 189.869 161.51 189.869 161.119 189.478Z" fill="white"/>
</g>
<rect x="161.5" y="40.9984" width="1" height="39.6007" fill="#008574"/>
<rect x="151" y="19" width="22" height="22" rx="11" fill="#008574"/>
<path d="M161.603 35V27.244L159.993 27.622V26.25L162.359 25.2H163.465V35H161.603Z" fill="white"/>
<rect x="151" y="19" width="22" height="22" rx="11" stroke="white" stroke-width="2"/>
</g>
<defs>
<filter id="filter0_d_505_4108" x="26.4994" y="73.863" width="270.654" height="129.322" filterUnits="userSpaceOnUse" color-interpolation-filters="sRGB">
<feFlood flood-opacity="0" result="BackgroundImageFix"/>
<feColorMatrix in="SourceAlpha" type="matrix" values="0 0 0 0 0 0 0 0 0 0 0 0 0 0 0 0 0 0 127 0" result="hardAlpha"/>
<feOffset dy="4"/>
<feGaussianBlur stdDeviation="4"/>
<feColorMatrix type="matrix" values="0 0 0 0 0.196078 0 0 0 0 0.196078 0 0 0 0 0.278431 0 0 0 0.06 0"/>
<feBlend mode="normal" in2="BackgroundImageFix" result="effect1_dropShadow_505_4108"/>
<feBlend mode="normal" in="SourceGraphic" in2="effect1_dropShadow_505_4108" result="shape"/>
</filter>
<clipPath id="clip0_505_4108">
<rect width="323" height="202" fill="white"/>
</clipPath>
</defs>
</svg>
