<svg width="936" height="429" viewBox="0 0 936 429" fill="none" xmlns="http://www.w3.org/2000/svg">
<rect width="936" height="429" fill="white" fill-opacity="0.35"/>
<rect x="221" y="50" width="544.066" height="319" rx="4" fill="white"/>
<path d="M720.074 94.4012L715.066 99.4104L710.058 94.4021L709.468 94.9912L714.476 100.001L709.468 105.01L710.058 105.599L715.066 100.59L720.074 105.599L720.664 105.01L715.655 100.001L720.664 94.9921L720.074 94.4012Z" fill="black"/>
<path d="M386.87 142.44H391.414L401.014 165H395.862L393.814 159.976H384.342L382.294 165H377.27L386.87 142.44ZM386.102 155.624H392.054L389.078 148.36L386.102 155.624ZM404.959 147.848H409.823V151.304C410.815 148.936 412.415 147.4 415.295 147.528V152.616H415.039C411.807 152.616 409.823 154.568 409.823 158.664V165H404.959V147.848ZM426.993 165.384C421.841 165.384 418.033 161.768 418.033 156.52V156.456C418.033 151.56 421.521 147.528 426.513 147.528C432.241 147.528 434.865 151.976 434.865 156.84C434.865 157.224 434.833 157.672 434.801 158.12H422.865C423.345 160.328 424.881 161.48 427.057 161.48C428.689 161.48 429.873 160.968 431.217 159.72L434.001 162.184C432.401 164.168 430.097 165.384 426.993 165.384ZM422.801 155.08H430.129C429.841 152.904 428.561 151.432 426.513 151.432C424.497 151.432 423.185 152.872 422.801 155.08ZM454.18 170.216C452.42 170.216 451.108 169.768 449.86 169.032L451.492 165.512C452.132 165.896 452.932 166.184 453.572 166.184C454.404 166.184 454.852 165.928 455.268 165.064L448.548 147.848H453.7L457.604 159.528L461.348 147.848H466.404L459.812 165.416C458.5 168.904 457.092 170.216 454.18 170.216ZM477.719 165.384C472.407 165.384 468.471 161.448 468.471 156.52V156.456C468.471 151.528 472.439 147.528 477.783 147.528C483.095 147.528 487.031 151.464 487.031 156.392V156.456C487.031 161.384 483.063 165.384 477.719 165.384ZM473.271 156.456C473.271 158.984 475.095 161.192 477.783 161.192C480.567 161.192 482.231 159.048 482.231 156.52V156.456C482.231 153.928 480.407 151.72 477.719 151.72C474.935 151.72 473.271 153.864 473.271 156.392V156.456ZM497.249 165.32C493.569 165.32 491.425 162.888 491.425 158.952V147.848H496.289V157.416C496.289 159.72 497.377 160.904 499.233 160.904C501.089 160.904 502.273 159.72 502.273 157.416V147.848H507.137V165H502.273V162.568C501.153 164.008 499.713 165.32 497.249 165.32ZM529.1 165.32C526.7 165.32 524.012 164.52 521.74 162.728L523.82 159.528C525.676 160.872 527.628 161.576 529.228 161.576C530.636 161.576 531.276 161.064 531.276 160.296V160.232C531.276 159.176 529.612 158.824 527.724 158.248C525.324 157.544 522.604 156.424 522.604 153.096V153.032C522.604 149.544 525.42 147.592 528.876 147.592C531.052 147.592 533.42 148.328 535.276 149.576L533.42 152.936C531.724 151.944 530.028 151.336 528.78 151.336C527.596 151.336 526.988 151.848 526.988 152.52V152.584C526.988 153.544 528.62 153.992 530.476 154.632C532.876 155.432 535.66 156.584 535.66 159.72V159.784C535.66 163.592 532.812 165.32 529.1 165.32ZM545.842 165.32C542.162 165.32 540.018 162.888 540.018 158.952V147.848H544.882V157.416C544.882 159.72 545.97 160.904 547.826 160.904C549.682 160.904 550.866 159.72 550.866 157.416V147.848H555.73V165H550.866V162.568C549.746 164.008 548.306 165.32 545.842 165.32ZM561.084 147.848H565.948V151.304C566.94 148.936 568.54 147.4 571.42 147.528V152.616H571.164C567.932 152.616 565.948 154.568 565.948 158.664V165H561.084V147.848ZM583.118 165.384C577.966 165.384 574.158 161.768 574.158 156.52V156.456C574.158 151.56 577.646 147.528 582.638 147.528C588.366 147.528 590.99 151.976 590.99 156.84C590.99 157.224 590.958 157.672 590.926 158.12H578.99C579.47 160.328 581.006 161.48 583.182 161.48C584.814 161.48 585.998 160.968 587.342 159.72L590.126 162.184C588.526 164.168 586.222 165.384 583.118 165.384ZM578.926 155.08H586.254C585.966 152.904 584.686 151.432 582.638 151.432C580.622 151.432 579.31 152.872 578.926 155.08ZM597.886 152.04C601.918 151.88 603.486 150.824 603.486 149.128V149.064C603.486 147.624 602.398 146.792 600.542 146.792C598.75 146.792 597.214 147.528 595.742 149L592.798 145.768C594.654 143.72 597.15 142.312 600.638 142.312C605.246 142.312 608.382 144.68 608.382 148.936V149C608.382 153.064 605.566 154.728 602.078 155.432L601.726 157.384H598.462L597.726 152.2L597.886 152.04ZM597.406 165V159.88H602.59V165H597.406Z" fill="#141B4D"/>
<path d="M272.675 214.593L276.094 208.15H277.703L273.422 216.017V221H271.928V216.087L267.639 208.15H269.274L272.675 214.593ZM288.555 216.166C288.555 216.957 288.453 217.663 288.248 218.284C288.043 218.905 287.747 219.43 287.36 219.857C286.973 220.285 286.505 220.613 285.954 220.842C285.409 221.064 284.791 221.176 284.099 221.176C283.455 221.176 282.863 221.064 282.324 220.842C281.791 220.613 281.328 220.285 280.935 219.857C280.548 219.43 280.247 218.905 280.03 218.284C279.819 217.663 279.713 216.957 279.713 216.166C279.713 215.111 279.892 214.215 280.25 213.477C280.607 212.732 281.117 212.167 281.779 211.78C282.447 211.388 283.241 211.191 284.161 211.191C285.04 211.191 285.807 211.388 286.463 211.78C287.126 212.173 287.638 212.741 288.002 213.485C288.371 214.224 288.555 215.117 288.555 216.166ZM281.225 216.166C281.225 216.939 281.328 217.61 281.533 218.179C281.738 218.747 282.054 219.187 282.482 219.497C282.91 219.808 283.461 219.963 284.134 219.963C284.802 219.963 285.35 219.808 285.778 219.497C286.212 219.187 286.531 218.747 286.736 218.179C286.941 217.61 287.044 216.939 287.044 216.166C287.044 215.398 286.941 214.736 286.736 214.18C286.531 213.617 286.214 213.184 285.787 212.879C285.359 212.574 284.805 212.422 284.126 212.422C283.124 212.422 282.388 212.753 281.92 213.415C281.457 214.077 281.225 214.994 281.225 216.166ZM300.032 211.367V221H298.837L298.626 219.646H298.546C298.347 219.98 298.089 220.262 297.773 220.49C297.457 220.719 297.099 220.889 296.701 221C296.308 221.117 295.889 221.176 295.444 221.176C294.682 221.176 294.044 221.053 293.528 220.807C293.012 220.561 292.623 220.18 292.359 219.664C292.101 219.148 291.972 218.486 291.972 217.678V211.367H293.449V217.572C293.449 218.375 293.63 218.976 293.994 219.374C294.357 219.767 294.911 219.963 295.655 219.963C296.37 219.963 296.938 219.828 297.36 219.559C297.788 219.289 298.095 218.894 298.283 218.372C298.47 217.845 298.564 217.2 298.564 216.438V211.367H300.032ZM308.494 211.191C308.687 211.191 308.889 211.203 309.1 211.227C309.311 211.244 309.499 211.271 309.663 211.306L309.478 212.659C309.32 212.618 309.144 212.586 308.951 212.562C308.757 212.539 308.576 212.527 308.406 212.527C308.019 212.527 307.653 212.606 307.307 212.765C306.967 212.917 306.669 213.14 306.411 213.433C306.153 213.72 305.951 214.068 305.804 214.479C305.658 214.883 305.585 215.334 305.585 215.832V221H304.117V211.367H305.33L305.488 213.143H305.549C305.749 212.785 305.989 212.46 306.27 212.167C306.551 211.868 306.877 211.631 307.246 211.455C307.621 211.279 308.037 211.191 308.494 211.191ZM321.586 221.176C320.367 221.176 319.4 220.76 318.685 219.928C317.976 219.096 317.622 217.859 317.622 216.219C317.622 214.561 317.985 213.31 318.712 212.466C319.438 211.616 320.405 211.191 321.612 211.191C322.122 211.191 322.567 211.259 322.948 211.394C323.329 211.528 323.657 211.71 323.932 211.938C324.208 212.161 324.439 212.416 324.627 212.703H324.732C324.709 212.521 324.685 212.272 324.662 211.956C324.638 211.64 324.627 211.382 324.627 211.183V207.324H326.086V221H324.908L324.688 219.629H324.627C324.445 219.916 324.213 220.177 323.932 220.411C323.657 220.646 323.326 220.833 322.939 220.974C322.558 221.108 322.107 221.176 321.586 221.176ZM321.814 219.963C322.845 219.963 323.575 219.67 324.003 219.084C324.43 218.498 324.644 217.628 324.644 216.474V216.21C324.644 214.985 324.439 214.045 324.029 213.389C323.625 212.732 322.886 212.404 321.814 212.404C320.918 212.404 320.247 212.75 319.801 213.441C319.356 214.127 319.133 215.064 319.133 216.254C319.133 217.438 319.353 218.352 319.793 218.996C320.238 219.641 320.912 219.963 321.814 219.963ZM333.888 211.191C334.709 211.191 335.412 211.373 335.998 211.736C336.584 212.1 337.032 212.609 337.342 213.266C337.653 213.916 337.808 214.678 337.808 215.551V216.456H331.155C331.172 217.587 331.454 218.448 331.999 219.04C332.544 219.632 333.311 219.928 334.301 219.928C334.911 219.928 335.45 219.872 335.919 219.761C336.387 219.649 336.874 219.485 337.378 219.269V220.552C336.891 220.769 336.408 220.927 335.927 221.026C335.453 221.126 334.89 221.176 334.24 221.176C333.314 221.176 332.505 220.988 331.814 220.613C331.129 220.232 330.595 219.676 330.214 218.943C329.834 218.211 329.643 217.314 329.643 216.254C329.643 215.217 329.816 214.32 330.162 213.564C330.513 212.803 331.005 212.217 331.638 211.807C332.277 211.396 333.027 211.191 333.888 211.191ZM333.871 212.387C333.091 212.387 332.47 212.642 332.007 213.151C331.545 213.661 331.269 214.373 331.181 215.287H336.279C336.273 214.713 336.182 214.209 336.006 213.775C335.837 213.336 335.576 212.996 335.224 212.756C334.873 212.51 334.421 212.387 333.871 212.387ZM343.405 221L339.749 211.367H341.313L343.431 217.194C343.578 217.593 343.727 218.032 343.88 218.513C344.032 218.993 344.137 219.38 344.196 219.673H344.257C344.328 219.38 344.445 218.993 344.609 218.513C344.773 218.026 344.922 217.587 345.057 217.194L347.175 211.367H348.74L345.075 221H343.405ZM352.746 211.367V221H351.287V211.367H352.746ZM352.034 207.764C352.274 207.764 352.479 207.843 352.649 208.001C352.825 208.153 352.913 208.394 352.913 208.722C352.913 209.044 352.825 209.284 352.649 209.442C352.479 209.601 352.274 209.68 352.034 209.68C351.782 209.68 351.571 209.601 351.401 209.442C351.237 209.284 351.155 209.044 351.155 208.722C351.155 208.394 351.237 208.153 351.401 208.001C351.571 207.843 351.782 207.764 352.034 207.764ZM360.698 221.176C359.831 221.176 359.066 220.997 358.404 220.64C357.742 220.282 357.226 219.737 356.857 219.005C356.488 218.272 356.303 217.35 356.303 216.236C356.303 215.07 356.497 214.118 356.883 213.38C357.276 212.636 357.815 212.085 358.501 211.728C359.186 211.37 359.965 211.191 360.838 211.191C361.319 211.191 361.782 211.241 362.227 211.341C362.678 211.435 363.047 211.555 363.335 211.701L362.895 212.923C362.602 212.806 362.262 212.7 361.876 212.606C361.495 212.513 361.137 212.466 360.803 212.466C360.135 212.466 359.579 212.609 359.133 212.896C358.694 213.184 358.363 213.605 358.14 214.162C357.923 214.719 357.815 215.404 357.815 216.219C357.815 216.998 357.921 217.663 358.131 218.214C358.348 218.765 358.668 219.187 359.089 219.479C359.517 219.767 360.05 219.91 360.689 219.91C361.199 219.91 361.659 219.857 362.069 219.752C362.479 219.641 362.851 219.512 363.185 219.365V220.666C362.863 220.83 362.503 220.956 362.104 221.044C361.712 221.132 361.243 221.176 360.698 221.176ZM370.179 211.191C371 211.191 371.703 211.373 372.289 211.736C372.875 212.1 373.323 212.609 373.633 213.266C373.944 213.916 374.099 214.678 374.099 215.551V216.456H367.446C367.463 217.587 367.745 218.448 368.29 219.04C368.835 219.632 369.602 219.928 370.592 219.928C371.202 219.928 371.741 219.872 372.21 219.761C372.678 219.649 373.165 219.485 373.669 219.269V220.552C373.182 220.769 372.699 220.927 372.218 221.026C371.744 221.126 371.181 221.176 370.531 221.176C369.605 221.176 368.796 220.988 368.105 220.613C367.42 220.232 366.886 219.676 366.505 218.943C366.125 218.211 365.934 217.314 365.934 216.254C365.934 215.217 366.107 214.32 366.453 213.564C366.804 212.803 367.296 212.217 367.929 211.807C368.568 211.396 369.318 211.191 370.179 211.191ZM370.162 212.387C369.382 212.387 368.761 212.642 368.298 213.151C367.836 213.661 367.56 214.373 367.472 215.287H372.57C372.564 214.713 372.473 214.209 372.297 213.775C372.128 213.336 371.867 212.996 371.515 212.756C371.164 212.51 370.713 212.387 370.162 212.387ZM391.093 220.982L389.38 215.375C389.303 215.135 389.23 214.9 389.16 214.672C389.095 214.438 389.034 214.215 388.975 214.004C388.922 213.787 388.873 213.588 388.826 213.406C388.785 213.219 388.75 213.058 388.72 212.923H388.659C388.635 213.058 388.603 213.219 388.562 213.406C388.521 213.588 388.471 213.787 388.413 214.004C388.36 214.221 388.301 214.449 388.237 214.689C388.172 214.924 388.099 215.161 388.017 215.401L386.224 220.982H384.581L381.926 211.35H383.438L384.827 216.667C384.921 217.019 385.008 217.367 385.09 217.713C385.178 218.053 385.252 218.375 385.31 218.68C385.375 218.979 385.421 219.239 385.451 219.462H385.521C385.556 219.315 385.594 219.14 385.635 218.935C385.682 218.729 385.732 218.513 385.785 218.284C385.843 218.05 385.905 217.818 385.969 217.59C386.034 217.355 386.098 217.136 386.163 216.931L387.938 211.35H389.511L391.225 216.922C391.313 217.203 391.398 217.496 391.48 217.801C391.568 218.105 391.647 218.401 391.717 218.688C391.788 218.97 391.838 219.222 391.867 219.444H391.937C391.961 219.245 392.005 218.999 392.069 218.706C392.133 218.413 392.207 218.091 392.289 217.739C392.377 217.388 392.467 217.03 392.561 216.667L393.967 211.35H395.453L392.79 220.982H391.093ZM399.67 211.367V221H398.211V211.367H399.67ZM398.958 207.764C399.198 207.764 399.403 207.843 399.573 208.001C399.749 208.153 399.837 208.394 399.837 208.722C399.837 209.044 399.749 209.284 399.573 209.442C399.403 209.601 399.198 209.68 398.958 209.68C398.706 209.68 398.495 209.601 398.325 209.442C398.161 209.284 398.079 209.044 398.079 208.722C398.079 208.394 398.161 208.153 398.325 208.001C398.495 207.843 398.706 207.764 398.958 207.764ZM405.231 221H403.763V207.324H405.231V221ZM410.784 221H409.316V207.324H410.784V221ZM422.004 207.324V210.743C422.004 211.136 421.992 211.517 421.968 211.886C421.951 212.255 421.936 212.542 421.924 212.747H422.004C422.267 212.313 422.648 211.947 423.146 211.648C423.644 211.35 424.28 211.2 425.053 211.2C426.26 211.2 427.221 211.619 427.936 212.457C428.657 213.289 429.017 214.528 429.017 216.175C429.017 217.259 428.853 218.173 428.525 218.917C428.197 219.661 427.734 220.224 427.136 220.604C426.539 220.985 425.833 221.176 425.018 221.176C424.256 221.176 423.63 221.035 423.137 220.754C422.651 220.467 422.276 220.118 422.012 219.708H421.898L421.599 221H420.545V207.324H422.004ZM424.816 212.422C424.119 212.422 423.565 212.56 423.155 212.835C422.745 213.104 422.449 213.515 422.267 214.065C422.091 214.61 422.004 215.302 422.004 216.14V216.219C422.004 217.432 422.206 218.36 422.61 219.005C423.014 219.644 423.75 219.963 424.816 219.963C425.713 219.963 426.383 219.635 426.829 218.979C427.28 218.322 427.505 217.385 427.505 216.166C427.505 214.924 427.283 213.989 426.838 213.362C426.398 212.735 425.724 212.422 424.816 212.422ZM436.275 211.191C437.095 211.191 437.798 211.373 438.384 211.736C438.97 212.1 439.419 212.609 439.729 213.266C440.04 213.916 440.195 214.678 440.195 215.551V216.456H433.542C433.559 217.587 433.84 218.448 434.385 219.04C434.93 219.632 435.698 219.928 436.688 219.928C437.297 219.928 437.837 219.872 438.305 219.761C438.774 219.649 439.26 219.485 439.764 219.269V220.552C439.278 220.769 438.795 220.927 438.314 221.026C437.839 221.126 437.277 221.176 436.627 221.176C435.701 221.176 434.892 220.988 434.201 220.613C433.515 220.232 432.982 219.676 432.601 218.943C432.22 218.211 432.03 217.314 432.03 216.254C432.03 215.217 432.203 214.32 432.548 213.564C432.9 212.803 433.392 212.217 434.025 211.807C434.664 211.396 435.414 211.191 436.275 211.191ZM436.257 212.387C435.478 212.387 434.857 212.642 434.394 213.151C433.931 213.661 433.656 214.373 433.568 215.287H438.666C438.66 214.713 438.569 214.209 438.393 213.775C438.223 213.336 437.963 212.996 437.611 212.756C437.259 212.51 436.808 212.387 436.257 212.387ZM452.777 221.176C451.558 221.176 450.591 220.76 449.877 219.928C449.168 219.096 448.813 217.859 448.813 216.219C448.813 214.561 449.176 213.31 449.903 212.466C450.63 211.616 451.596 211.191 452.803 211.191C453.313 211.191 453.758 211.259 454.139 211.394C454.52 211.528 454.848 211.71 455.124 211.938C455.399 212.161 455.63 212.416 455.818 212.703H455.923C455.9 212.521 455.877 212.272 455.853 211.956C455.83 211.64 455.818 211.382 455.818 211.183V207.324H457.277V221H456.099L455.88 219.629H455.818C455.636 219.916 455.405 220.177 455.124 220.411C454.848 220.646 454.517 220.833 454.13 220.974C453.75 221.108 453.298 221.176 452.777 221.176ZM453.005 219.963C454.037 219.963 454.766 219.67 455.194 219.084C455.622 218.498 455.836 217.628 455.836 216.474V216.21C455.836 214.985 455.63 214.045 455.22 213.389C454.816 212.732 454.078 212.404 453.005 212.404C452.109 212.404 451.438 212.75 450.993 213.441C450.547 214.127 450.325 215.064 450.325 216.254C450.325 217.438 450.545 218.352 450.984 218.996C451.429 219.641 452.103 219.963 453.005 219.963ZM465.08 211.191C465.9 211.191 466.603 211.373 467.189 211.736C467.775 212.1 468.223 212.609 468.534 213.266C468.844 213.916 469 214.678 469 215.551V216.456H462.346C462.364 217.587 462.645 218.448 463.19 219.04C463.735 219.632 464.503 219.928 465.493 219.928C466.102 219.928 466.641 219.872 467.11 219.761C467.579 219.649 468.065 219.485 468.569 219.269V220.552C468.083 220.769 467.599 220.927 467.119 221.026C466.644 221.126 466.082 221.176 465.431 221.176C464.505 221.176 463.697 220.988 463.005 220.613C462.32 220.232 461.787 219.676 461.406 218.943C461.025 218.211 460.835 217.314 460.835 216.254C460.835 215.217 461.007 214.32 461.353 213.564C461.705 212.803 462.197 212.217 462.83 211.807C463.468 211.396 464.218 211.191 465.08 211.191ZM465.062 212.387C464.283 212.387 463.662 212.642 463.199 213.151C462.736 213.661 462.461 214.373 462.373 215.287H467.47C467.464 214.713 467.374 214.209 467.198 213.775C467.028 213.336 466.767 212.996 466.416 212.756C466.064 212.51 465.613 212.387 465.062 212.387ZM473.946 221H472.478V207.324H473.946V221ZM481.74 211.191C482.56 211.191 483.263 211.373 483.849 211.736C484.435 212.1 484.883 212.609 485.194 213.266C485.505 213.916 485.66 214.678 485.66 215.551V216.456H479.006C479.024 217.587 479.305 218.448 479.85 219.04C480.395 219.632 481.163 219.928 482.153 219.928C482.762 219.928 483.301 219.872 483.77 219.761C484.239 219.649 484.725 219.485 485.229 219.269V220.552C484.743 220.769 484.259 220.927 483.779 221.026C483.304 221.126 482.742 221.176 482.091 221.176C481.166 221.176 480.357 220.988 479.666 220.613C478.98 220.232 478.447 219.676 478.066 218.943C477.685 218.211 477.495 217.314 477.495 216.254C477.495 215.217 477.668 214.32 478.013 213.564C478.365 212.803 478.857 212.217 479.49 211.807C480.129 211.396 480.879 211.191 481.74 211.191ZM481.722 212.387C480.943 212.387 480.322 212.642 479.859 213.151C479.396 213.661 479.121 214.373 479.033 215.287H484.13C484.125 214.713 484.034 214.209 483.858 213.775C483.688 213.336 483.427 212.996 483.076 212.756C482.724 212.51 482.273 212.387 481.722 212.387ZM492.25 219.98C492.49 219.98 492.736 219.96 492.988 219.919C493.24 219.878 493.445 219.828 493.603 219.77V220.903C493.433 220.979 493.196 221.044 492.891 221.097C492.592 221.149 492.299 221.176 492.012 221.176C491.503 221.176 491.04 221.088 490.624 220.912C490.208 220.73 489.874 220.426 489.622 219.998C489.376 219.57 489.253 218.979 489.253 218.223V212.51H487.881V211.798L489.261 211.227L489.841 209.135H490.72V211.367H493.542V212.51H490.72V218.179C490.72 218.782 490.858 219.233 491.133 219.532C491.415 219.831 491.787 219.98 492.25 219.98ZM500.263 211.191C501.084 211.191 501.787 211.373 502.373 211.736C502.959 212.1 503.407 212.609 503.717 213.266C504.028 213.916 504.183 214.678 504.183 215.551V216.456H497.53C497.547 217.587 497.829 218.448 498.374 219.04C498.919 219.632 499.686 219.928 500.676 219.928C501.286 219.928 501.825 219.872 502.294 219.761C502.762 219.649 503.249 219.485 503.753 219.269V220.552C503.266 220.769 502.783 220.927 502.302 221.026C501.828 221.126 501.265 221.176 500.615 221.176C499.689 221.176 498.88 220.988 498.189 220.613C497.504 220.232 496.97 219.676 496.589 218.943C496.209 218.211 496.018 217.314 496.018 216.254C496.018 215.217 496.191 214.32 496.537 213.564C496.888 212.803 497.38 212.217 498.013 211.807C498.652 211.396 499.402 211.191 500.263 211.191ZM500.246 212.387C499.466 212.387 498.845 212.642 498.382 213.151C497.92 213.661 497.644 214.373 497.556 215.287H502.654C502.648 214.713 502.557 214.209 502.381 213.775C502.212 213.336 501.951 212.996 501.599 212.756C501.248 212.51 500.796 212.387 500.246 212.387ZM511.089 221.176C509.871 221.176 508.904 220.76 508.189 219.928C507.48 219.096 507.126 217.859 507.126 216.219C507.126 214.561 507.489 213.31 508.215 212.466C508.942 211.616 509.909 211.191 511.116 211.191C511.626 211.191 512.071 211.259 512.452 211.394C512.833 211.528 513.161 211.71 513.436 211.938C513.712 212.161 513.943 212.416 514.13 212.703H514.236C514.213 212.521 514.189 212.272 514.166 211.956C514.142 211.64 514.13 211.382 514.13 211.183V207.324H515.589V221H514.412L514.192 219.629H514.13C513.949 219.916 513.717 220.177 513.436 220.411C513.161 220.646 512.83 220.833 512.443 220.974C512.062 221.108 511.611 221.176 511.089 221.176ZM511.318 219.963C512.349 219.963 513.079 219.67 513.506 219.084C513.934 218.498 514.148 217.628 514.148 216.474V216.21C514.148 214.985 513.943 214.045 513.533 213.389C513.129 212.732 512.39 212.404 511.318 212.404C510.421 212.404 509.751 212.75 509.305 213.441C508.86 214.127 508.637 215.064 508.637 216.254C508.637 217.438 508.857 218.352 509.296 218.996C509.742 219.641 510.416 219.963 511.318 219.963ZM529.648 212.51H527.249V221H525.79V212.51H524.085V211.807L525.79 211.323V210.682C525.79 209.873 525.91 209.217 526.15 208.713C526.39 208.203 526.739 207.828 527.196 207.588C527.653 207.348 528.21 207.228 528.866 207.228C529.235 207.228 529.572 207.26 529.877 207.324C530.187 207.389 530.46 207.462 530.694 207.544L530.316 208.695C530.117 208.631 529.891 208.572 529.639 208.52C529.393 208.461 529.141 208.432 528.883 208.432C528.327 208.432 527.914 208.613 527.644 208.977C527.38 209.334 527.249 209.896 527.249 210.664V211.367H529.648V212.51ZM536.8 211.191C536.994 211.191 537.196 211.203 537.407 211.227C537.618 211.244 537.805 211.271 537.969 211.306L537.785 212.659C537.627 212.618 537.451 212.586 537.257 212.562C537.064 212.539 536.882 212.527 536.713 212.527C536.326 212.527 535.96 212.606 535.614 212.765C535.274 212.917 534.975 213.14 534.717 213.433C534.46 213.72 534.257 214.068 534.111 214.479C533.964 214.883 533.891 215.334 533.891 215.832V221H532.423V211.367H533.636L533.795 213.143H533.856C534.055 212.785 534.296 212.46 534.577 212.167C534.858 211.868 535.183 211.631 535.552 211.455C535.927 211.279 536.343 211.191 536.8 211.191ZM549.094 216.166C549.094 216.957 548.992 217.663 548.787 218.284C548.582 218.905 548.286 219.43 547.899 219.857C547.512 220.285 547.044 220.613 546.493 220.842C545.948 221.064 545.33 221.176 544.638 221.176C543.994 221.176 543.402 221.064 542.863 220.842C542.33 220.613 541.867 220.285 541.474 219.857C541.088 219.43 540.786 218.905 540.569 218.284C540.358 217.663 540.253 216.957 540.253 216.166C540.253 215.111 540.431 214.215 540.789 213.477C541.146 212.732 541.656 212.167 542.318 211.78C542.986 211.388 543.78 211.191 544.7 211.191C545.579 211.191 546.346 211.388 547.003 211.78C547.665 212.173 548.177 212.741 548.541 213.485C548.91 214.224 549.094 215.117 549.094 216.166ZM541.764 216.166C541.764 216.939 541.867 217.61 542.072 218.179C542.277 218.747 542.593 219.187 543.021 219.497C543.449 219.808 544 219.963 544.673 219.963C545.341 219.963 545.889 219.808 546.317 219.497C546.751 219.187 547.07 218.747 547.275 218.179C547.48 217.61 547.583 216.939 547.583 216.166C547.583 215.398 547.48 214.736 547.275 214.18C547.07 213.617 546.754 213.184 546.326 212.879C545.898 212.574 545.344 212.422 544.665 212.422C543.663 212.422 542.927 212.753 542.459 213.415C541.996 214.077 541.764 214.994 541.764 216.166ZM563.076 211.191C564.136 211.191 564.936 211.47 565.475 212.026C566.014 212.577 566.284 213.465 566.284 214.689V221H564.842V214.76C564.842 213.98 564.672 213.397 564.333 213.011C563.999 212.618 563.501 212.422 562.839 212.422C561.907 212.422 561.23 212.691 560.808 213.23C560.386 213.77 560.175 214.563 560.175 215.612V221H558.725V214.76C558.725 214.238 558.649 213.805 558.497 213.459C558.35 213.113 558.128 212.855 557.829 212.686C557.536 212.51 557.164 212.422 556.713 212.422C556.074 212.422 555.561 212.554 555.174 212.817C554.788 213.081 554.506 213.474 554.331 213.995C554.161 214.511 554.076 215.146 554.076 215.902V221H552.617V211.367H553.795L554.014 212.729H554.093C554.287 212.396 554.53 212.114 554.823 211.886C555.116 211.657 555.444 211.484 555.807 211.367C556.171 211.25 556.557 211.191 556.967 211.191C557.7 211.191 558.312 211.329 558.804 211.604C559.302 211.874 559.663 212.287 559.885 212.844H559.964C560.281 212.287 560.714 211.874 561.265 211.604C561.816 211.329 562.42 211.191 563.076 211.191ZM584.262 216.166C584.262 216.957 584.16 217.663 583.955 218.284C583.75 218.905 583.454 219.43 583.067 219.857C582.68 220.285 582.212 220.613 581.661 220.842C581.116 221.064 580.498 221.176 579.806 221.176C579.162 221.176 578.57 221.064 578.031 220.842C577.498 220.613 577.035 220.285 576.642 219.857C576.255 219.43 575.954 218.905 575.737 218.284C575.526 217.663 575.421 216.957 575.421 216.166C575.421 215.111 575.599 214.215 575.957 213.477C576.314 212.732 576.824 212.167 577.486 211.78C578.154 211.388 578.948 211.191 579.868 211.191C580.747 211.191 581.514 211.388 582.171 211.78C582.833 212.173 583.345 212.741 583.709 213.485C584.078 214.224 584.262 215.117 584.262 216.166ZM576.932 216.166C576.932 216.939 577.035 217.61 577.24 218.179C577.445 218.747 577.761 219.187 578.189 219.497C578.617 219.808 579.168 219.963 579.841 219.963C580.509 219.963 581.057 219.808 581.485 219.497C581.919 219.187 582.238 218.747 582.443 218.179C582.648 217.61 582.751 216.939 582.751 216.166C582.751 215.398 582.648 214.736 582.443 214.18C582.238 213.617 581.922 213.184 581.494 212.879C581.066 212.574 580.512 212.422 579.833 212.422C578.831 212.422 578.095 212.753 577.627 213.415C577.164 214.077 576.932 214.994 576.932 216.166ZM595.739 211.367V221H594.544L594.333 219.646H594.254C594.054 219.98 593.797 220.262 593.48 220.49C593.164 220.719 592.806 220.889 592.408 221C592.015 221.117 591.596 221.176 591.151 221.176C590.389 221.176 589.751 221.053 589.235 220.807C588.719 220.561 588.33 220.18 588.066 219.664C587.808 219.148 587.679 218.486 587.679 217.678V211.367H589.156V217.572C589.156 218.375 589.338 218.976 589.701 219.374C590.064 219.767 590.618 219.963 591.362 219.963C592.077 219.963 592.645 219.828 593.067 219.559C593.495 219.289 593.802 218.894 593.99 218.372C594.177 217.845 594.271 217.2 594.271 216.438V211.367H595.739ZM604.201 211.191C604.394 211.191 604.596 211.203 604.807 211.227C605.018 211.244 605.206 211.271 605.37 211.306L605.185 212.659C605.027 212.618 604.851 212.586 604.658 212.562C604.464 212.539 604.283 212.527 604.113 212.527C603.726 212.527 603.36 212.606 603.014 212.765C602.674 212.917 602.376 213.14 602.118 213.433C601.86 213.72 601.658 214.068 601.511 214.479C601.365 214.883 601.292 215.334 601.292 215.832V221H599.824V211.367H601.037L601.195 213.143H601.256C601.456 212.785 601.696 212.46 601.977 212.167C602.258 211.868 602.584 211.631 602.953 211.455C603.328 211.279 603.744 211.191 604.201 211.191ZM620.096 218.363C620.096 218.979 619.941 219.497 619.63 219.919C619.326 220.335 618.886 220.648 618.312 220.859C617.744 221.07 617.064 221.176 616.273 221.176C615.599 221.176 615.016 221.123 614.524 221.018C614.032 220.912 613.601 220.763 613.232 220.569V219.225C613.625 219.418 614.093 219.594 614.638 219.752C615.183 219.91 615.74 219.989 616.308 219.989C617.14 219.989 617.744 219.854 618.119 219.585C618.494 219.315 618.681 218.949 618.681 218.486C618.681 218.223 618.605 217.991 618.453 217.792C618.306 217.587 618.057 217.391 617.706 217.203C617.354 217.01 616.868 216.799 616.247 216.57C615.631 216.336 615.098 216.104 614.647 215.876C614.202 215.642 613.856 215.357 613.61 215.023C613.37 214.689 613.25 214.256 613.25 213.723C613.25 212.908 613.578 212.284 614.234 211.851C614.896 211.411 615.763 211.191 616.836 211.191C617.416 211.191 617.958 211.25 618.462 211.367C618.971 211.479 619.446 211.631 619.885 211.824L619.393 212.993C618.995 212.823 618.57 212.68 618.119 212.562C617.668 212.445 617.208 212.387 616.739 212.387C616.065 212.387 615.547 212.498 615.183 212.721C614.826 212.943 614.647 213.248 614.647 213.635C614.647 213.934 614.729 214.18 614.893 214.373C615.063 214.566 615.333 214.748 615.702 214.918C616.071 215.088 616.557 215.287 617.161 215.516C617.764 215.738 618.286 215.97 618.725 216.21C619.165 216.444 619.502 216.731 619.736 217.071C619.976 217.405 620.096 217.836 620.096 218.363ZM621.922 211.367H623.487L625.614 216.957C625.737 217.285 625.851 217.602 625.957 217.906C626.062 218.205 626.156 218.492 626.238 218.768C626.32 219.043 626.384 219.31 626.431 219.567H626.493C626.575 219.274 626.692 218.891 626.844 218.416C626.997 217.936 627.161 217.446 627.337 216.948L629.349 211.367H630.922L626.73 222.415C626.507 223.007 626.247 223.522 625.948 223.962C625.655 224.401 625.297 224.738 624.876 224.973C624.454 225.213 623.944 225.333 623.346 225.333C623.071 225.333 622.828 225.315 622.617 225.28C622.406 225.251 622.224 225.216 622.072 225.175V224.006C622.201 224.035 622.356 224.062 622.538 224.085C622.725 224.108 622.919 224.12 623.118 224.12C623.481 224.12 623.795 224.05 624.058 223.909C624.328 223.774 624.559 223.575 624.753 223.312C624.946 223.048 625.113 222.734 625.254 222.371L625.781 221.018L621.922 211.367ZM639.692 218.363C639.692 218.979 639.537 219.497 639.226 219.919C638.922 220.335 638.482 220.648 637.908 220.859C637.339 221.07 636.66 221.176 635.869 221.176C635.195 221.176 634.612 221.123 634.12 221.018C633.628 220.912 633.197 220.763 632.828 220.569V219.225C633.22 219.418 633.689 219.594 634.234 219.752C634.779 219.91 635.336 219.989 635.904 219.989C636.736 219.989 637.339 219.854 637.714 219.585C638.089 219.315 638.277 218.949 638.277 218.486C638.277 218.223 638.201 217.991 638.048 217.792C637.902 217.587 637.653 217.391 637.301 217.203C636.95 217.01 636.464 216.799 635.842 216.57C635.227 216.336 634.694 216.104 634.243 215.876C633.797 215.642 633.452 215.357 633.206 215.023C632.965 214.689 632.845 214.256 632.845 213.723C632.845 212.908 633.173 212.284 633.83 211.851C634.492 211.411 635.359 211.191 636.431 211.191C637.011 211.191 637.553 211.25 638.057 211.367C638.567 211.479 639.042 211.631 639.481 211.824L638.989 212.993C638.59 212.823 638.166 212.68 637.714 212.562C637.263 212.445 636.803 212.387 636.335 212.387C635.661 212.387 635.142 212.498 634.779 212.721C634.422 212.943 634.243 213.248 634.243 213.635C634.243 213.934 634.325 214.18 634.489 214.373C634.659 214.566 634.928 214.748 635.297 214.918C635.667 215.088 636.153 215.287 636.756 215.516C637.36 215.738 637.881 215.97 638.321 216.21C638.76 216.444 639.097 216.731 639.332 217.071C639.572 217.405 639.692 217.836 639.692 218.363ZM646.15 219.98C646.39 219.98 646.636 219.96 646.888 219.919C647.14 219.878 647.345 219.828 647.504 219.77V220.903C647.334 220.979 647.096 221.044 646.792 221.097C646.493 221.149 646.2 221.176 645.913 221.176C645.403 221.176 644.94 221.088 644.524 220.912C644.108 220.73 643.774 220.426 643.522 219.998C643.276 219.57 643.153 218.979 643.153 218.223V212.51H641.782V211.798L643.162 211.227L643.742 209.135H644.621V211.367H647.442V212.51H644.621V218.179C644.621 218.782 644.758 219.233 645.034 219.532C645.315 219.831 645.687 219.98 646.15 219.98ZM654.164 211.191C654.984 211.191 655.687 211.373 656.273 211.736C656.859 212.1 657.307 212.609 657.618 213.266C657.928 213.916 658.084 214.678 658.084 215.551V216.456H651.43C651.448 217.587 651.729 218.448 652.274 219.04C652.819 219.632 653.587 219.928 654.577 219.928C655.186 219.928 655.725 219.872 656.194 219.761C656.663 219.649 657.149 219.485 657.653 219.269V220.552C657.167 220.769 656.683 220.927 656.203 221.026C655.728 221.126 655.166 221.176 654.515 221.176C653.589 221.176 652.781 220.988 652.089 220.613C651.404 220.232 650.871 219.676 650.49 218.943C650.109 218.211 649.919 217.314 649.919 216.254C649.919 215.217 650.091 214.32 650.437 213.564C650.789 212.803 651.281 212.217 651.914 211.807C652.552 211.396 653.302 211.191 654.164 211.191ZM654.146 212.387C653.367 212.387 652.746 212.642 652.283 213.151C651.82 213.661 651.545 214.373 651.457 215.287H656.554C656.548 214.713 656.458 214.209 656.282 213.775C656.112 213.336 655.851 212.996 655.5 212.756C655.148 212.51 654.697 212.387 654.146 212.387ZM672.021 211.191C673.082 211.191 673.881 211.47 674.421 212.026C674.96 212.577 675.229 213.465 675.229 214.689V221H673.788V214.76C673.788 213.98 673.618 213.397 673.278 213.011C672.944 212.618 672.446 212.422 671.784 212.422C670.852 212.422 670.175 212.691 669.754 213.23C669.332 213.77 669.121 214.563 669.121 215.612V221H667.671V214.76C667.671 214.238 667.594 213.805 667.442 213.459C667.296 213.113 667.073 212.855 666.774 212.686C666.481 212.51 666.109 212.422 665.658 212.422C665.019 212.422 664.506 212.554 664.12 212.817C663.733 213.081 663.452 213.474 663.276 213.995C663.106 214.511 663.021 215.146 663.021 215.902V221H661.562V211.367H662.74L662.96 212.729H663.039C663.232 212.396 663.475 212.114 663.768 211.886C664.061 211.657 664.389 211.484 664.753 211.367C665.116 211.25 665.503 211.191 665.913 211.191C666.645 211.191 667.257 211.329 667.75 211.604C668.248 211.874 668.608 212.287 668.831 212.844H668.91C669.226 212.287 669.66 211.874 670.211 211.604C670.761 211.329 671.365 211.191 672.021 211.191ZM688.505 211.209C689.654 211.209 690.506 211.467 691.063 211.982C691.62 212.498 691.898 213.321 691.898 214.452V221H690.835L690.553 219.576H690.483C690.214 219.928 689.932 220.224 689.639 220.464C689.346 220.698 689.006 220.877 688.62 221C688.239 221.117 687.77 221.176 687.214 221.176C686.628 221.176 686.106 221.073 685.649 220.868C685.198 220.663 684.84 220.353 684.577 219.937C684.319 219.521 684.19 218.993 684.19 218.354C684.19 217.394 684.571 216.655 685.333 216.14C686.094 215.624 687.255 215.343 688.813 215.296L690.474 215.226V214.637C690.474 213.805 690.296 213.222 689.938 212.888C689.581 212.554 689.077 212.387 688.426 212.387C687.922 212.387 687.442 212.46 686.985 212.606C686.528 212.753 686.094 212.926 685.684 213.125L685.236 212.018C685.67 211.795 686.168 211.604 686.73 211.446C687.293 211.288 687.884 211.209 688.505 211.209ZM690.457 216.254L688.989 216.315C687.788 216.362 686.941 216.559 686.449 216.904C685.957 217.25 685.711 217.739 685.711 218.372C685.711 218.923 685.878 219.33 686.212 219.594C686.546 219.857 686.988 219.989 687.539 219.989C688.394 219.989 689.094 219.752 689.639 219.277C690.184 218.803 690.457 218.091 690.457 217.142V216.254ZM700.465 211.191C701.608 211.191 702.472 211.473 703.058 212.035C703.644 212.592 703.937 213.488 703.937 214.725V221H702.496V214.821C702.496 214.019 702.311 213.418 701.942 213.02C701.579 212.621 701.019 212.422 700.263 212.422C699.197 212.422 698.447 212.724 698.013 213.327C697.58 213.931 697.363 214.807 697.363 215.955V221H695.904V211.367H697.082L697.301 212.756H697.38C697.586 212.416 697.846 212.132 698.163 211.903C698.479 211.669 698.834 211.493 699.226 211.376C699.619 211.253 700.032 211.191 700.465 211.191ZM711.371 221.176C710.152 221.176 709.185 220.76 708.47 219.928C707.761 219.096 707.407 217.859 707.407 216.219C707.407 214.561 707.77 213.31 708.497 212.466C709.223 211.616 710.19 211.191 711.397 211.191C711.907 211.191 712.352 211.259 712.733 211.394C713.114 211.528 713.442 211.71 713.717 211.938C713.993 212.161 714.224 212.416 714.412 212.703H714.517C714.494 212.521 714.47 212.272 714.447 211.956C714.423 211.64 714.412 211.382 714.412 211.183V207.324H715.871V221H714.693L714.473 219.629H714.412C714.23 219.916 713.999 220.177 713.717 220.411C713.442 220.646 713.111 220.833 712.724 220.974C712.343 221.108 711.892 221.176 711.371 221.176ZM711.599 219.963C712.63 219.963 713.36 219.67 713.788 219.084C714.215 218.498 714.429 217.628 714.429 216.474V216.21C714.429 214.985 714.224 214.045 713.814 213.389C713.41 212.732 712.672 212.404 711.599 212.404C710.703 212.404 710.032 212.75 709.587 213.441C709.141 214.127 708.919 215.064 708.919 216.254C708.919 217.438 709.138 218.352 709.578 218.996C710.023 219.641 710.697 219.963 711.599 219.963ZM297.595 240.367H299.16L301.287 245.957C301.41 246.285 301.524 246.602 301.63 246.906C301.735 247.205 301.829 247.492 301.911 247.768C301.993 248.043 302.057 248.31 302.104 248.567H302.166C302.248 248.274 302.365 247.891 302.517 247.416C302.67 246.936 302.834 246.446 303.009 245.948L305.022 240.367H306.595L302.403 251.415C302.18 252.007 301.92 252.522 301.621 252.962C301.328 253.401 300.97 253.738 300.548 253.973C300.127 254.213 299.617 254.333 299.019 254.333C298.744 254.333 298.501 254.315 298.29 254.28C298.079 254.251 297.897 254.216 297.745 254.175V253.006C297.874 253.035 298.029 253.062 298.211 253.085C298.398 253.108 298.591 253.12 298.791 253.12C299.154 253.12 299.467 253.05 299.731 252.909C300.001 252.774 300.232 252.575 300.425 252.312C300.619 252.048 300.786 251.734 300.926 251.371L301.454 250.018L297.595 240.367ZM317.439 245.166C317.439 245.957 317.337 246.663 317.131 247.284C316.926 247.905 316.63 248.43 316.244 248.857C315.857 249.285 315.388 249.613 314.838 249.842C314.293 250.064 313.674 250.176 312.983 250.176C312.338 250.176 311.747 250.064 311.208 249.842C310.674 249.613 310.212 249.285 309.819 248.857C309.432 248.43 309.13 247.905 308.914 247.284C308.703 246.663 308.597 245.957 308.597 245.166C308.597 244.111 308.776 243.215 309.133 242.477C309.491 241.732 310.001 241.167 310.663 240.78C311.331 240.388 312.125 240.191 313.045 240.191C313.923 240.191 314.691 240.388 315.347 240.78C316.009 241.173 316.522 241.741 316.885 242.485C317.255 243.224 317.439 244.117 317.439 245.166ZM310.109 245.166C310.109 245.939 310.212 246.61 310.417 247.179C310.622 247.747 310.938 248.187 311.366 248.497C311.794 248.808 312.344 248.963 313.018 248.963C313.686 248.963 314.234 248.808 314.662 248.497C315.095 248.187 315.415 247.747 315.62 247.179C315.825 246.61 315.927 245.939 315.927 245.166C315.927 244.398 315.825 243.736 315.62 243.18C315.415 242.617 315.098 242.184 314.671 241.879C314.243 241.574 313.689 241.422 313.009 241.422C312.007 241.422 311.272 241.753 310.803 242.415C310.34 243.077 310.109 243.994 310.109 245.166ZM328.916 240.367V250H327.72L327.509 248.646H327.43C327.231 248.98 326.973 249.262 326.657 249.49C326.34 249.719 325.983 249.889 325.585 250C325.192 250.117 324.773 250.176 324.328 250.176C323.566 250.176 322.927 250.053 322.412 249.807C321.896 249.561 321.506 249.18 321.243 248.664C320.985 248.148 320.856 247.486 320.856 246.678V240.367H322.333V246.572C322.333 247.375 322.514 247.976 322.878 248.374C323.241 248.767 323.795 248.963 324.539 248.963C325.254 248.963 325.822 248.828 326.244 248.559C326.671 248.289 326.979 247.894 327.167 247.372C327.354 246.845 327.448 246.2 327.448 245.438V240.367H328.916ZM346.516 249.982L344.802 244.375C344.726 244.135 344.653 243.9 344.583 243.672C344.518 243.438 344.457 243.215 344.398 243.004C344.345 242.787 344.296 242.588 344.249 242.406C344.208 242.219 344.172 242.058 344.143 241.923H344.082C344.058 242.058 344.026 242.219 343.985 242.406C343.944 242.588 343.894 242.787 343.836 243.004C343.783 243.221 343.724 243.449 343.66 243.689C343.595 243.924 343.522 244.161 343.44 244.401L341.647 249.982H340.004L337.349 240.35H338.861L340.25 245.667C340.343 246.019 340.431 246.367 340.513 246.713C340.601 247.053 340.674 247.375 340.733 247.68C340.797 247.979 340.844 248.239 340.874 248.462H340.944C340.979 248.315 341.017 248.14 341.058 247.935C341.105 247.729 341.155 247.513 341.208 247.284C341.266 247.05 341.328 246.818 341.392 246.59C341.457 246.355 341.521 246.136 341.586 245.931L343.361 240.35H344.934L346.648 245.922C346.736 246.203 346.821 246.496 346.903 246.801C346.991 247.105 347.07 247.401 347.14 247.688C347.211 247.97 347.26 248.222 347.29 248.444H347.36C347.383 248.245 347.427 247.999 347.492 247.706C347.556 247.413 347.63 247.091 347.712 246.739C347.799 246.388 347.89 246.03 347.984 245.667L349.39 240.35H350.876L348.213 249.982H346.516ZM355.092 240.367V250H353.633V240.367H355.092ZM354.38 236.764C354.621 236.764 354.826 236.843 354.996 237.001C355.171 237.153 355.259 237.394 355.259 237.722C355.259 238.044 355.171 238.284 354.996 238.442C354.826 238.601 354.621 238.68 354.38 238.68C354.129 238.68 353.918 238.601 353.748 238.442C353.584 238.284 353.502 238.044 353.502 237.722C353.502 237.394 353.584 237.153 353.748 237.001C353.918 236.843 354.129 236.764 354.38 236.764ZM360.654 250H359.186V236.324H360.654V250ZM366.207 250H364.739V236.324H366.207V250ZM380.529 240.191C381.671 240.191 382.536 240.473 383.122 241.035C383.708 241.592 384.001 242.488 384.001 243.725V250H382.559V243.821C382.559 243.019 382.375 242.418 382.005 242.02C381.642 241.621 381.083 241.422 380.327 241.422C379.26 241.422 378.51 241.724 378.077 242.327C377.643 242.931 377.426 243.807 377.426 244.955V250H375.967V240.367H377.145L377.365 241.756H377.444C377.649 241.416 377.91 241.132 378.226 240.903C378.543 240.669 378.897 240.493 379.29 240.376C379.682 240.253 380.095 240.191 380.529 240.191ZM396.312 245.166C396.312 245.957 396.21 246.663 396.005 247.284C395.799 247.905 395.504 248.43 395.117 248.857C394.73 249.285 394.261 249.613 393.711 249.842C393.166 250.064 392.547 250.176 391.856 250.176C391.212 250.176 390.62 250.064 390.081 249.842C389.547 249.613 389.085 249.285 388.692 248.857C388.305 248.43 388.004 247.905 387.787 247.284C387.576 246.663 387.47 245.957 387.47 245.166C387.47 244.111 387.649 243.215 388.006 242.477C388.364 241.732 388.874 241.167 389.536 240.78C390.204 240.388 390.998 240.191 391.918 240.191C392.796 240.191 393.564 240.388 394.22 240.78C394.882 241.173 395.395 241.741 395.758 242.485C396.128 243.224 396.312 244.117 396.312 245.166ZM388.982 245.166C388.982 245.939 389.085 246.61 389.29 247.179C389.495 247.747 389.811 248.187 390.239 248.497C390.667 248.808 391.217 248.963 391.891 248.963C392.559 248.963 393.107 248.808 393.535 248.497C393.968 248.187 394.288 247.747 394.493 247.179C394.698 246.61 394.8 245.939 394.8 245.166C394.8 244.398 394.698 243.736 394.493 243.18C394.288 242.617 393.971 242.184 393.544 241.879C393.116 241.574 392.562 241.422 391.882 241.422C390.88 241.422 390.145 241.753 389.676 242.415C389.213 243.077 388.982 243.994 388.982 245.166ZM406.969 236.324V239.743C406.969 240.136 406.958 240.517 406.934 240.886C406.917 241.255 406.902 241.542 406.89 241.747H406.969C407.233 241.313 407.614 240.947 408.112 240.648C408.61 240.35 409.246 240.2 410.019 240.2C411.226 240.2 412.187 240.619 412.902 241.457C413.623 242.289 413.983 243.528 413.983 245.175C413.983 246.259 413.819 247.173 413.491 247.917C413.163 248.661 412.7 249.224 412.102 249.604C411.505 249.985 410.798 250.176 409.984 250.176C409.222 250.176 408.595 250.035 408.103 249.754C407.617 249.467 407.242 249.118 406.978 248.708H406.864L406.565 250H405.51V236.324H406.969ZM409.782 241.422C409.085 241.422 408.531 241.56 408.121 241.835C407.711 242.104 407.415 242.515 407.233 243.065C407.057 243.61 406.969 244.302 406.969 245.14V245.219C406.969 246.432 407.171 247.36 407.576 248.005C407.98 248.644 408.715 248.963 409.782 248.963C410.678 248.963 411.349 248.635 411.795 247.979C412.246 247.322 412.471 246.385 412.471 245.166C412.471 243.924 412.249 242.989 411.803 242.362C411.364 241.735 410.69 241.422 409.782 241.422ZM421.241 240.191C422.061 240.191 422.764 240.373 423.35 240.736C423.936 241.1 424.384 241.609 424.695 242.266C425.005 242.916 425.161 243.678 425.161 244.551V245.456H418.507C418.525 246.587 418.806 247.448 419.351 248.04C419.896 248.632 420.664 248.928 421.654 248.928C422.263 248.928 422.802 248.872 423.271 248.761C423.74 248.649 424.226 248.485 424.73 248.269V249.552C424.244 249.769 423.76 249.927 423.28 250.026C422.805 250.126 422.243 250.176 421.592 250.176C420.667 250.176 419.858 249.988 419.167 249.613C418.481 249.232 417.948 248.676 417.567 247.943C417.186 247.211 416.996 246.314 416.996 245.254C416.996 244.217 417.169 243.32 417.514 242.564C417.866 241.803 418.358 241.217 418.991 240.807C419.63 240.396 420.38 240.191 421.241 240.191ZM421.223 241.387C420.444 241.387 419.823 241.642 419.36 242.151C418.897 242.661 418.622 243.373 418.534 244.287H423.631C423.626 243.713 423.535 243.209 423.359 242.775C423.189 242.336 422.928 241.996 422.577 241.756C422.225 241.51 421.774 241.387 421.223 241.387ZM437.919 240.209C439.067 240.209 439.92 240.467 440.476 240.982C441.033 241.498 441.311 242.321 441.311 243.452V250H440.248L439.966 248.576H439.896C439.627 248.928 439.345 249.224 439.052 249.464C438.759 249.698 438.42 249.877 438.033 250C437.652 250.117 437.183 250.176 436.627 250.176C436.041 250.176 435.519 250.073 435.062 249.868C434.611 249.663 434.254 249.353 433.99 248.937C433.732 248.521 433.603 247.993 433.603 247.354C433.603 246.394 433.984 245.655 434.746 245.14C435.507 244.624 436.668 244.343 438.226 244.296L439.887 244.226V243.637C439.887 242.805 439.709 242.222 439.351 241.888C438.994 241.554 438.49 241.387 437.839 241.387C437.336 241.387 436.855 241.46 436.398 241.606C435.941 241.753 435.507 241.926 435.097 242.125L434.649 241.018C435.083 240.795 435.581 240.604 436.143 240.446C436.706 240.288 437.297 240.209 437.919 240.209ZM439.87 245.254L438.402 245.315C437.201 245.362 436.354 245.559 435.862 245.904C435.37 246.25 435.124 246.739 435.124 247.372C435.124 247.923 435.291 248.33 435.625 248.594C435.959 248.857 436.401 248.989 436.952 248.989C437.807 248.989 438.507 248.752 439.052 248.277C439.597 247.803 439.87 247.091 439.87 246.142V245.254ZM446.776 236.324V239.743C446.776 240.136 446.764 240.517 446.741 240.886C446.723 241.255 446.709 241.542 446.697 241.747H446.776C447.04 241.313 447.421 240.947 447.919 240.648C448.417 240.35 449.052 240.2 449.826 240.2C451.033 240.2 451.994 240.619 452.709 241.457C453.429 242.289 453.79 243.528 453.79 245.175C453.79 246.259 453.626 247.173 453.297 247.917C452.969 248.661 452.506 249.224 451.909 249.604C451.311 249.985 450.605 250.176 449.791 250.176C449.029 250.176 448.402 250.035 447.91 249.754C447.423 249.467 447.048 249.118 446.785 248.708H446.671L446.372 250H445.317V236.324H446.776ZM449.588 241.422C448.891 241.422 448.338 241.56 447.927 241.835C447.517 242.104 447.221 242.515 447.04 243.065C446.864 243.61 446.776 244.302 446.776 245.14V245.219C446.776 246.432 446.978 247.36 447.382 248.005C447.787 248.644 448.522 248.963 449.588 248.963C450.485 248.963 451.156 248.635 451.601 247.979C452.052 247.322 452.278 246.385 452.278 245.166C452.278 243.924 452.055 242.989 451.61 242.362C451.171 241.735 450.497 241.422 449.588 241.422ZM458.806 250H457.338V236.324H458.806V250ZM466.6 240.191C467.421 240.191 468.124 240.373 468.71 240.736C469.296 241.1 469.744 241.609 470.054 242.266C470.365 242.916 470.52 243.678 470.52 244.551V245.456H463.867C463.884 246.587 464.166 247.448 464.711 248.04C465.255 248.632 466.023 248.928 467.013 248.928C467.623 248.928 468.162 248.872 468.63 248.761C469.099 248.649 469.586 248.485 470.089 248.269V249.552C469.603 249.769 469.12 249.927 468.639 250.026C468.165 250.126 467.602 250.176 466.952 250.176C466.026 250.176 465.217 249.988 464.526 249.613C463.84 249.232 463.307 248.676 462.926 247.943C462.546 247.211 462.355 246.314 462.355 245.254C462.355 244.217 462.528 243.32 462.874 242.564C463.225 241.803 463.717 241.217 464.35 240.807C464.989 240.396 465.739 240.191 466.6 240.191ZM466.583 241.387C465.803 241.387 465.182 241.642 464.719 242.151C464.256 242.661 463.981 243.373 463.893 244.287H468.991C468.985 243.713 468.894 243.209 468.718 242.775C468.548 242.336 468.288 241.996 467.936 241.756C467.585 241.51 467.133 241.387 466.583 241.387ZM482.786 248.98C483.026 248.98 483.272 248.96 483.524 248.919C483.776 248.878 483.981 248.828 484.139 248.77V249.903C483.969 249.979 483.732 250.044 483.427 250.097C483.129 250.149 482.836 250.176 482.548 250.176C482.039 250.176 481.576 250.088 481.16 249.912C480.744 249.73 480.41 249.426 480.158 248.998C479.912 248.57 479.789 247.979 479.789 247.223V241.51H478.418V240.798L479.797 240.227L480.378 238.135H481.256V240.367H484.078V241.51H481.256V247.179C481.256 247.782 481.394 248.233 481.67 248.532C481.951 248.831 482.323 248.98 482.786 248.98ZM495.396 245.166C495.396 245.957 495.294 246.663 495.088 247.284C494.883 247.905 494.588 248.43 494.201 248.857C493.814 249.285 493.345 249.613 492.795 249.842C492.25 250.064 491.631 250.176 490.94 250.176C490.296 250.176 489.704 250.064 489.165 249.842C488.631 249.613 488.169 249.285 487.776 248.857C487.389 248.43 487.088 247.905 486.871 247.284C486.66 246.663 486.554 245.957 486.554 245.166C486.554 244.111 486.733 243.215 487.09 242.477C487.448 241.732 487.958 241.167 488.62 240.78C489.288 240.388 490.082 240.191 491.002 240.191C491.88 240.191 492.648 240.388 493.304 240.78C493.966 241.173 494.479 241.741 494.842 242.485C495.212 243.224 495.396 244.117 495.396 245.166ZM488.066 245.166C488.066 245.939 488.169 246.61 488.374 247.179C488.579 247.747 488.895 248.187 489.323 248.497C489.751 248.808 490.301 248.963 490.975 248.963C491.643 248.963 492.191 248.808 492.619 248.497C493.052 248.187 493.372 247.747 493.577 247.179C493.782 246.61 493.884 245.939 493.884 245.166C493.884 244.398 493.782 243.736 493.577 243.18C493.372 242.617 493.055 242.184 492.628 241.879C492.2 241.574 491.646 241.422 490.966 241.422C489.964 241.422 489.229 241.753 488.76 242.415C488.297 243.077 488.066 243.994 488.066 245.166ZM508.971 240.191C509.165 240.191 509.367 240.203 509.578 240.227C509.789 240.244 509.976 240.271 510.14 240.306L509.956 241.659C509.797 241.618 509.622 241.586 509.428 241.562C509.235 241.539 509.053 241.527 508.883 241.527C508.497 241.527 508.13 241.606 507.785 241.765C507.445 241.917 507.146 242.14 506.888 242.433C506.63 242.72 506.428 243.068 506.282 243.479C506.135 243.883 506.062 244.334 506.062 244.832V250H504.594V240.367H505.807L505.965 242.143H506.027C506.226 241.785 506.466 241.46 506.748 241.167C507.029 240.868 507.354 240.631 507.723 240.455C508.098 240.279 508.514 240.191 508.971 240.191ZM516.669 240.191C517.489 240.191 518.192 240.373 518.778 240.736C519.364 241.1 519.812 241.609 520.123 242.266C520.433 242.916 520.588 243.678 520.588 244.551V245.456H513.935C513.953 246.587 514.234 247.448 514.779 248.04C515.324 248.632 516.091 248.928 517.082 248.928C517.691 248.928 518.23 248.872 518.699 248.761C519.168 248.649 519.654 248.485 520.158 248.269V249.552C519.671 249.769 519.188 249.927 518.708 250.026C518.233 250.126 517.671 250.176 517.02 250.176C516.094 250.176 515.286 249.988 514.594 249.613C513.909 249.232 513.376 248.676 512.995 247.943C512.614 247.211 512.423 246.314 512.423 245.254C512.423 244.217 512.596 243.32 512.942 242.564C513.294 241.803 513.786 241.217 514.419 240.807C515.057 240.396 515.807 240.191 516.669 240.191ZM516.651 241.387C515.872 241.387 515.251 241.642 514.788 242.151C514.325 242.661 514.049 243.373 513.962 244.287H519.059C519.053 243.713 518.963 243.209 518.787 242.775C518.617 242.336 518.356 241.996 518.005 241.756C517.653 241.51 517.202 241.387 516.651 241.387ZM527.925 250.176C527.058 250.176 526.294 249.997 525.631 249.64C524.969 249.282 524.454 248.737 524.085 248.005C523.715 247.272 523.531 246.35 523.531 245.236C523.531 244.07 523.724 243.118 524.111 242.38C524.504 241.636 525.043 241.085 525.728 240.728C526.414 240.37 527.193 240.191 528.066 240.191C528.547 240.191 529.009 240.241 529.455 240.341C529.906 240.435 530.275 240.555 530.562 240.701L530.123 241.923C529.83 241.806 529.49 241.7 529.103 241.606C528.722 241.513 528.365 241.466 528.031 241.466C527.363 241.466 526.806 241.609 526.361 241.896C525.922 242.184 525.59 242.605 525.368 243.162C525.151 243.719 525.043 244.404 525.043 245.219C525.043 245.998 525.148 246.663 525.359 247.214C525.576 247.765 525.895 248.187 526.317 248.479C526.745 248.767 527.278 248.91 527.917 248.91C528.426 248.91 528.886 248.857 529.297 248.752C529.707 248.641 530.079 248.512 530.413 248.365V249.666C530.09 249.83 529.73 249.956 529.332 250.044C528.939 250.132 528.47 250.176 527.925 250.176ZM542.004 245.166C542.004 245.957 541.901 246.663 541.696 247.284C541.491 247.905 541.195 248.43 540.808 248.857C540.422 249.285 539.953 249.613 539.402 249.842C538.857 250.064 538.239 250.176 537.547 250.176C536.903 250.176 536.311 250.064 535.772 249.842C535.239 249.613 534.776 249.285 534.383 248.857C533.997 248.43 533.695 247.905 533.478 247.284C533.267 246.663 533.162 245.957 533.162 245.166C533.162 244.111 533.34 243.215 533.698 242.477C534.055 241.732 534.565 241.167 535.227 240.78C535.895 240.388 536.689 240.191 537.609 240.191C538.488 240.191 539.255 240.388 539.912 240.78C540.574 241.173 541.087 241.741 541.45 242.485C541.819 243.224 542.004 244.117 542.004 245.166ZM534.673 245.166C534.673 245.939 534.776 246.61 534.981 247.179C535.186 247.747 535.503 248.187 535.93 248.497C536.358 248.808 536.909 248.963 537.583 248.963C538.251 248.963 538.798 248.808 539.226 248.497C539.66 248.187 539.979 247.747 540.184 247.179C540.389 246.61 540.492 245.939 540.492 245.166C540.492 244.398 540.389 243.736 540.184 243.18C539.979 242.617 539.663 242.184 539.235 241.879C538.807 241.574 538.254 241.422 537.574 241.422C536.572 241.422 535.837 241.753 535.368 242.415C534.905 243.077 534.673 243.994 534.673 245.166ZM547.644 250L543.988 240.367H545.552L547.671 246.194C547.817 246.593 547.966 247.032 548.119 247.513C548.271 247.993 548.377 248.38 548.435 248.673H548.497C548.567 248.38 548.684 247.993 548.848 247.513C549.012 247.026 549.162 246.587 549.297 246.194L551.415 240.367H552.979L549.314 250H547.644ZM559.235 240.191C560.055 240.191 560.758 240.373 561.344 240.736C561.93 241.1 562.379 241.609 562.689 242.266C563 242.916 563.155 243.678 563.155 244.551V245.456H556.502C556.519 246.587 556.8 247.448 557.345 248.04C557.89 248.632 558.658 248.928 559.648 248.928C560.257 248.928 560.797 248.872 561.265 248.761C561.734 248.649 562.22 248.485 562.724 248.269V249.552C562.238 249.769 561.755 249.927 561.274 250.026C560.799 250.126 560.237 250.176 559.587 250.176C558.661 250.176 557.852 249.988 557.161 249.613C556.475 249.232 555.942 248.676 555.561 247.943C555.18 247.211 554.99 246.314 554.99 245.254C554.99 244.217 555.163 243.32 555.508 242.564C555.86 241.803 556.352 241.217 556.985 240.807C557.624 240.396 558.374 240.191 559.235 240.191ZM559.217 241.387C558.438 241.387 557.817 241.642 557.354 242.151C556.891 242.661 556.616 243.373 556.528 244.287H561.626C561.62 243.713 561.529 243.209 561.353 242.775C561.183 242.336 560.922 241.996 560.571 241.756C560.219 241.51 559.768 241.387 559.217 241.387ZM571.01 240.191C571.204 240.191 571.406 240.203 571.617 240.227C571.828 240.244 572.015 240.271 572.179 240.306L571.995 241.659C571.837 241.618 571.661 241.586 571.467 241.562C571.274 241.539 571.092 241.527 570.922 241.527C570.536 241.527 570.17 241.606 569.824 241.765C569.484 241.917 569.185 242.14 568.927 242.433C568.67 242.72 568.467 243.068 568.321 243.479C568.174 243.883 568.101 244.334 568.101 244.832V250H566.633V240.367H567.846L568.005 242.143H568.066C568.265 241.785 568.505 241.46 568.787 241.167C569.068 240.868 569.393 240.631 569.762 240.455C570.137 240.279 570.553 240.191 571.01 240.191ZM582.133 240.367V250H580.674V240.367H582.133ZM581.422 236.764C581.662 236.764 581.867 236.843 582.037 237.001C582.213 237.153 582.3 237.394 582.3 237.722C582.3 238.044 582.213 238.284 582.037 238.442C581.867 238.601 581.662 238.68 581.422 238.68C581.17 238.68 580.959 238.601 580.789 238.442C580.625 238.284 580.543 238.044 580.543 237.722C580.543 237.394 580.625 237.153 580.789 237.001C580.959 236.843 581.17 236.764 581.422 236.764ZM590.789 240.191C591.931 240.191 592.796 240.473 593.381 241.035C593.967 241.592 594.26 242.488 594.26 243.725V250H592.819V243.821C592.819 243.019 592.634 242.418 592.265 242.02C591.902 241.621 591.342 241.422 590.587 241.422C589.52 241.422 588.77 241.724 588.337 242.327C587.903 242.931 587.686 243.807 587.686 244.955V250H586.227V240.367H587.405L587.625 241.756H587.704C587.909 241.416 588.17 241.132 588.486 240.903C588.802 240.669 589.157 240.493 589.549 240.376C589.942 240.253 590.355 240.191 590.789 240.191ZM602.555 241.51H600.156V250H598.697V241.51H596.992V240.807L598.697 240.323V239.682C598.697 238.873 598.817 238.217 599.057 237.713C599.297 237.203 599.646 236.828 600.103 236.588C600.56 236.348 601.117 236.228 601.773 236.228C602.142 236.228 602.479 236.26 602.784 236.324C603.094 236.389 603.367 236.462 603.601 236.544L603.223 237.695C603.024 237.631 602.798 237.572 602.547 237.52C602.3 237.461 602.048 237.432 601.791 237.432C601.234 237.432 600.821 237.613 600.551 237.977C600.288 238.334 600.156 238.896 600.156 239.664V240.367H602.555V241.51ZM613.636 245.166C613.636 245.957 613.534 246.663 613.329 247.284C613.124 247.905 612.828 248.43 612.441 248.857C612.054 249.285 611.586 249.613 611.035 249.842C610.49 250.064 609.872 250.176 609.18 250.176C608.536 250.176 607.944 250.064 607.405 249.842C606.872 249.613 606.409 249.285 606.016 248.857C605.63 248.43 605.328 247.905 605.111 247.284C604.9 246.663 604.795 245.957 604.795 245.166C604.795 244.111 604.973 243.215 605.331 242.477C605.688 241.732 606.198 241.167 606.86 240.78C607.528 240.388 608.322 240.191 609.242 240.191C610.121 240.191 610.888 240.388 611.545 240.78C612.207 241.173 612.719 241.741 613.083 242.485C613.452 243.224 613.636 244.117 613.636 245.166ZM606.306 245.166C606.306 245.939 606.409 246.61 606.614 247.179C606.819 247.747 607.135 248.187 607.563 248.497C607.991 248.808 608.542 248.963 609.215 248.963C609.883 248.963 610.431 248.808 610.859 248.497C611.293 248.187 611.612 247.747 611.817 247.179C612.022 246.61 612.125 245.939 612.125 245.166C612.125 244.398 612.022 243.736 611.817 243.18C611.612 242.617 611.296 242.184 610.868 241.879C610.44 241.574 609.886 241.422 609.207 241.422C608.205 241.422 607.469 241.753 607.001 242.415C606.538 243.077 606.306 243.994 606.306 245.166ZM621.536 240.191C621.729 240.191 621.931 240.203 622.142 240.227C622.353 240.244 622.541 240.271 622.705 240.306L622.52 241.659C622.362 241.618 622.186 241.586 621.993 241.562C621.799 241.539 621.618 241.527 621.448 241.527C621.061 241.527 620.695 241.606 620.349 241.765C620.009 241.917 619.711 242.14 619.453 242.433C619.195 242.72 618.993 243.068 618.846 243.479C618.7 243.883 618.627 244.334 618.627 244.832V250H617.159V240.367H618.372L618.53 242.143H618.591C618.791 241.785 619.031 241.46 619.312 241.167C619.593 240.868 619.919 240.631 620.288 240.455C620.663 240.279 621.079 240.191 621.536 240.191ZM635.983 240.191C637.044 240.191 637.843 240.47 638.382 241.026C638.922 241.577 639.191 242.465 639.191 243.689V250H637.75V243.76C637.75 242.98 637.58 242.397 637.24 242.011C636.906 241.618 636.408 241.422 635.746 241.422C634.814 241.422 634.137 241.691 633.715 242.23C633.294 242.77 633.083 243.563 633.083 244.612V250H631.632V243.76C631.632 243.238 631.556 242.805 631.404 242.459C631.257 242.113 631.035 241.855 630.736 241.686C630.443 241.51 630.071 241.422 629.62 241.422C628.981 241.422 628.468 241.554 628.082 241.817C627.695 242.081 627.414 242.474 627.238 242.995C627.068 243.511 626.983 244.146 626.983 244.902V250H625.524V240.367H626.702L626.922 241.729H627.001C627.194 241.396 627.437 241.114 627.73 240.886C628.023 240.657 628.351 240.484 628.714 240.367C629.078 240.25 629.464 240.191 629.875 240.191C630.607 240.191 631.219 240.329 631.712 240.604C632.21 240.874 632.57 241.287 632.793 241.844H632.872C633.188 241.287 633.622 240.874 634.172 240.604C634.723 240.329 635.327 240.191 635.983 240.191ZM646.792 240.209C647.94 240.209 648.793 240.467 649.349 240.982C649.906 241.498 650.184 242.321 650.184 243.452V250H649.121L648.839 248.576H648.769C648.5 248.928 648.218 249.224 647.925 249.464C647.632 249.698 647.293 249.877 646.906 250C646.525 250.117 646.056 250.176 645.5 250.176C644.914 250.176 644.392 250.073 643.935 249.868C643.484 249.663 643.127 249.353 642.863 248.937C642.605 248.521 642.476 247.993 642.476 247.354C642.476 246.394 642.857 245.655 643.619 245.14C644.38 244.624 645.541 244.343 647.099 244.296L648.76 244.226V243.637C648.76 242.805 648.582 242.222 648.224 241.888C647.867 241.554 647.363 241.387 646.713 241.387C646.209 241.387 645.728 241.46 645.271 241.606C644.814 241.753 644.38 241.926 643.97 242.125L643.522 241.018C643.956 240.795 644.454 240.604 645.016 240.446C645.579 240.288 646.171 240.209 646.792 240.209ZM648.743 245.254L647.275 245.315C646.074 245.362 645.227 245.559 644.735 245.904C644.243 246.25 643.997 246.739 643.997 247.372C643.997 247.923 644.164 248.33 644.498 248.594C644.832 248.857 645.274 248.989 645.825 248.989C646.68 248.989 647.38 248.752 647.925 248.277C648.47 247.803 648.743 247.091 648.743 246.142V245.254ZM657.301 248.98C657.542 248.98 657.788 248.96 658.04 248.919C658.292 248.878 658.497 248.828 658.655 248.77V249.903C658.485 249.979 658.248 250.044 657.943 250.097C657.644 250.149 657.351 250.176 657.064 250.176C656.554 250.176 656.091 250.088 655.675 249.912C655.259 249.73 654.925 249.426 654.673 248.998C654.427 248.57 654.304 247.979 654.304 247.223V241.51H652.933V240.798L654.313 240.227L654.893 238.135H655.772V240.367H658.593V241.51H655.772V247.179C655.772 247.782 655.91 248.233 656.185 248.532C656.466 248.831 656.839 248.98 657.301 248.98ZM663.065 240.367V250H661.606V240.367H663.065ZM662.353 236.764C662.593 236.764 662.798 236.843 662.968 237.001C663.144 237.153 663.232 237.394 663.232 237.722C663.232 238.044 663.144 238.284 662.968 238.442C662.798 238.601 662.593 238.68 662.353 238.68C662.101 238.68 661.89 238.601 661.72 238.442C661.556 238.284 661.474 238.044 661.474 237.722C661.474 237.394 661.556 237.153 661.72 237.001C661.89 236.843 662.101 236.764 662.353 236.764ZM675.464 245.166C675.464 245.957 675.362 246.663 675.157 247.284C674.952 247.905 674.656 248.43 674.269 248.857C673.882 249.285 673.414 249.613 672.863 249.842C672.318 250.064 671.7 250.176 671.008 250.176C670.364 250.176 669.772 250.064 669.233 249.842C668.7 249.613 668.237 249.285 667.844 248.857C667.458 248.43 667.156 247.905 666.939 247.284C666.728 246.663 666.623 245.957 666.623 245.166C666.623 244.111 666.801 243.215 667.159 242.477C667.516 241.732 668.026 241.167 668.688 240.78C669.356 240.388 670.15 240.191 671.07 240.191C671.949 240.191 672.716 240.388 673.373 240.78C674.035 241.173 674.547 241.741 674.911 242.485C675.28 243.224 675.464 244.117 675.464 245.166ZM668.134 245.166C668.134 245.939 668.237 246.61 668.442 247.179C668.647 247.747 668.964 248.187 669.391 248.497C669.819 248.808 670.37 248.963 671.044 248.963C671.712 248.963 672.259 248.808 672.687 248.497C673.121 248.187 673.44 247.747 673.645 247.179C673.85 246.61 673.953 245.939 673.953 245.166C673.953 244.398 673.85 243.736 673.645 243.18C673.44 242.617 673.124 242.184 672.696 241.879C672.268 241.574 671.714 241.422 671.035 241.422C670.033 241.422 669.297 241.753 668.829 242.415C668.366 243.077 668.134 243.994 668.134 245.166ZM683.548 240.191C684.691 240.191 685.555 240.473 686.141 241.035C686.727 241.592 687.02 242.488 687.02 243.725V250H685.579V243.821C685.579 243.019 685.394 242.418 685.025 242.02C684.662 241.621 684.102 241.422 683.346 241.422C682.28 241.422 681.53 241.724 681.096 242.327C680.663 242.931 680.446 243.807 680.446 244.955V250H678.987V240.367H680.165L680.384 241.756H680.464C680.669 241.416 680.929 241.132 681.246 240.903C681.562 240.669 681.917 240.493 682.309 240.376C682.702 240.253 683.115 240.191 683.548 240.191Z" fill="#707070"/>
<path d="M349.125 309.192C345.829 309.192 343.381 306.648 343.381 303.432V303.4C343.381 300.216 345.781 297.608 349.221 297.608C351.333 297.608 352.597 298.312 353.637 299.336L352.069 301.144C351.205 300.36 350.325 299.88 349.205 299.88C347.317 299.88 345.957 301.448 345.957 303.368V303.4C345.957 305.32 347.285 306.92 349.205 306.92C350.485 306.92 351.269 306.408 352.149 305.608L353.717 307.192C352.565 308.424 351.285 309.192 349.125 309.192ZM360.029 297.72H362.301L367.101 309H364.525L363.501 306.488H358.765L357.741 309H355.229L360.029 297.72ZM359.645 304.312H362.621L361.133 300.68L359.645 304.312ZM369.33 297.8H371.602L376.85 304.696V297.8H379.282V309H377.186L371.762 301.88V309H369.33V297.8ZM387.719 309.192C384.423 309.192 381.975 306.648 381.975 303.432V303.4C381.975 300.216 384.375 297.608 387.815 297.608C389.927 297.608 391.191 298.312 392.231 299.336L390.663 301.144C389.799 300.36 388.919 299.88 387.799 299.88C385.911 299.88 384.551 301.448 384.551 303.368V303.4C384.551 305.32 385.879 306.92 387.799 306.92C389.079 306.92 389.863 306.408 390.743 305.608L392.311 307.192C391.159 308.424 389.879 309.192 387.719 309.192ZM394.783 297.8H403.231V299.992H397.231V302.264H402.511V304.456H397.231V306.808H403.311V309H394.783V297.8ZM406.002 297.8H408.466V306.76H414.05V309H406.002V297.8Z" fill="#0047BB"/>
<rect x="301.533" y="280" width="155" height="48" rx="3" stroke="#0047BB" stroke-width="2"/>
<rect x="489.533" y="279" width="196" height="50" rx="4" fill="#0047BB"/>
<path d="M536.029 304.584L531.725 297.8H534.605L537.277 302.296L539.997 297.8H542.797L538.493 304.536V309H536.029V304.584ZM544.83 297.8H553.278V299.992H547.278V302.264H552.558V304.456H547.278V306.808H553.358V309H544.83V297.8ZM560.033 309.16C558.337 309.16 556.625 308.568 555.281 307.368L556.737 305.624C557.745 306.456 558.801 306.984 560.081 306.984C561.089 306.984 561.697 306.584 561.697 305.928V305.896C561.697 305.272 561.313 304.952 559.441 304.472C557.185 303.896 555.729 303.272 555.729 301.048V301.016C555.729 298.984 557.361 297.64 559.649 297.64C561.281 297.64 562.673 298.152 563.809 299.064L562.529 300.92C561.537 300.232 560.561 299.816 559.617 299.816C558.673 299.816 558.177 300.248 558.177 300.792V300.824C558.177 301.56 558.657 301.8 560.593 302.296C562.865 302.888 564.145 303.704 564.145 305.656V305.688C564.145 307.912 562.449 309.16 560.033 309.16ZM565.855 310.584C566.959 310.472 567.503 309.912 567.423 309H566.431V306.44H569.023V308.6C569.023 310.712 567.967 311.56 566.063 311.592L565.855 310.584ZM581.526 297.8C585.046 297.8 587.478 300.216 587.478 303.368V303.4C587.478 306.552 585.046 309 581.526 309H577.158V297.8H581.526ZM579.622 306.776H581.526C583.542 306.776 584.902 305.416 584.902 303.432V303.4C584.902 301.416 583.542 300.024 581.526 300.024H579.622V306.776ZM590.174 297.8H598.622V299.992H592.622V302.264H597.902V304.456H592.622V306.808H598.702V309H590.174V297.8ZM601.392 297.8H603.856V306.76H609.44V309H601.392V297.8ZM611.799 297.8H620.247V299.992H614.247V302.264H619.527V304.456H614.247V306.808H620.327V309H611.799V297.8ZM625.625 300.072H622.217V297.8H631.497V300.072H628.089V309H625.625V300.072ZM633.892 297.8H642.34V299.992H636.34V302.264H641.62V304.456H636.34V306.808H642.42V309H633.892V297.8Z" fill="white"/>
<rect x="724" y="100" width="1" height="142.601" transform="rotate(-90 724 100)" fill="#008574"/>
<rect x="866.399" y="88.2004" width="22" height="22" rx="11" fill="#008574"/>
<path d="M877.387 104.368C876.743 104.368 876.16 104.256 875.637 104.032C875.115 103.799 874.695 103.444 874.377 102.968C874.06 102.492 873.892 101.895 873.873 101.176H875.637C875.647 101.652 875.801 102.054 876.099 102.38C876.407 102.698 876.837 102.856 877.387 102.856C877.91 102.856 878.311 102.712 878.591 102.422C878.871 102.133 879.011 101.769 879.011 101.33C879.011 100.817 878.825 100.43 878.451 100.168C878.087 99.8978 877.616 99.7624 877.037 99.7624H876.309V98.2924H877.051C877.527 98.2924 877.924 98.1804 878.241 97.9564C878.559 97.7324 878.717 97.4011 878.717 96.9624C878.717 96.5984 878.596 96.3091 878.353 96.0944C878.12 95.8704 877.793 95.7584 877.373 95.7584C876.916 95.7584 876.557 95.8938 876.295 96.1644C876.043 96.4351 875.903 96.7664 875.875 97.1584H874.125C874.163 96.2531 874.475 95.5391 875.063 95.0164C875.661 94.4938 876.431 94.2324 877.373 94.2324C878.045 94.2324 878.61 94.3538 879.067 94.5964C879.534 94.8298 879.884 95.1424 880.117 95.5344C880.36 95.9264 880.481 96.3604 880.481 96.8364C880.481 97.3871 880.327 97.8538 880.019 98.2364C879.721 98.6098 879.347 98.8618 878.899 98.9924C879.45 99.1044 879.898 99.3751 880.243 99.8044C880.589 100.224 880.761 100.756 880.761 101.4C880.761 101.942 880.631 102.436 880.369 102.884C880.108 103.332 879.725 103.692 879.221 103.962C878.727 104.233 878.115 104.368 877.387 104.368Z" fill="white"/>
<rect x="866.399" y="88.2004" width="22" height="22" rx="11" stroke="white" stroke-width="2"/>
<rect x="700" y="310" width="1" height="142.601" transform="rotate(-90 700 310)" fill="#008574"/>
<rect x="842.399" y="298.2" width="22" height="22" rx="11" fill="#008574"/>
<path d="M854.347 314.2V312.38H849.517V310.952L854.109 304.4H856.139V310.826H857.427V312.38H856.139V314.2H854.347ZM851.435 310.826H854.459V306.374L851.435 310.826Z" fill="white"/>
<rect x="842.399" y="298.2" width="22" height="22" rx="11" stroke="white" stroke-width="2"/>
<rect x="168" y="154" width="1" height="209.601" transform="rotate(-90 168 154)" fill="#008574"/>
<rect x="146" y="142.2" width="22" height="22" rx="11" fill="#008574"/>
<path d="M156.603 158.2V150.444L154.993 150.822V149.45L157.359 148.4H158.465V158.2H156.603Z" fill="white"/>
<rect x="146" y="142.2" width="22" height="22" rx="11" stroke="white" stroke-width="2"/>
<rect x="69" y="231" width="1" height="209.601" transform="rotate(-90 69 231)" fill="#008574"/>
<rect x="47" y="219.2" width="22" height="22" rx="11" fill="#008574"/>
<path d="M54.715 235.2V233.898C55.3123 233.404 55.891 232.914 56.451 232.428C57.0203 231.943 57.5243 231.462 57.963 230.986C58.411 230.51 58.7656 230.048 59.027 229.6C59.2976 229.143 59.433 228.7 59.433 228.27C59.433 227.869 59.321 227.514 59.097 227.206C58.8823 226.898 58.523 226.744 58.019 226.744C57.5056 226.744 57.1183 226.912 56.857 227.248C56.5956 227.584 56.465 227.99 56.465 228.466H54.729C54.7476 227.748 54.9063 227.15 55.205 226.674C55.5036 226.189 55.9003 225.83 56.395 225.596C56.8896 225.354 57.445 225.232 58.061 225.232C59.0596 225.232 59.8343 225.508 60.385 226.058C60.945 226.6 61.225 227.304 61.225 228.172C61.225 228.714 61.099 229.241 60.847 229.754C60.6043 230.268 60.2823 230.762 59.881 231.238C59.4796 231.714 59.0456 232.162 58.579 232.582C58.1123 232.993 57.6596 233.376 57.221 233.73H61.463V235.2H54.715Z" fill="white"/>
<rect x="47" y="219.2" width="22" height="22" rx="11" stroke="white" stroke-width="2"/>
</svg>
