<svg width="626" height="234" viewBox="0 0 626 234" fill="none" xmlns="http://www.w3.org/2000/svg">
<rect width="626" height="234" fill="white"/>
<g clip-path="url(#clip0_503_3694)">
<rect x="174" y="87" width="30" height="30" rx="15" fill="white" stroke="#002DA2" stroke-width="2"/>
<path d="M188.157 98.118L185.961 98.658L185.385 96.39L189.003 95.31H190.893V108H188.157V98.118Z" fill="#002DA2"/>
</g>
<g clip-path="url(#clip1_503_3694)">
<rect x="215" y="86" width="32" height="32" rx="16" fill="#F4F4F5"/>
<path d="M230.548 102.87C232.474 101.142 233.176 100.17 233.176 98.91C233.176 97.434 232.006 96.498 230.638 96.498C229.198 96.498 228.262 97.254 227.254 98.658L226.21 97.902C227.344 96.21 228.532 95.22 230.746 95.22C233.014 95.22 234.652 96.732 234.652 98.784V98.82C234.652 100.656 233.68 101.79 231.466 103.716L228.1 106.704H234.778V108H225.976V106.902L230.548 102.87Z" fill="#171717"/>
</g>
<g clip-path="url(#clip2_503_3694)">
<rect x="257" y="86" width="32" height="32" rx="16" fill="#F4F4F5"/>
<path d="M272.578 108.216C270.472 108.216 268.906 107.298 267.88 105.966L268.906 105.048C269.878 106.236 271.048 106.92 272.596 106.92C274.126 106.92 275.35 105.948 275.35 104.472V104.436C275.35 102.87 273.892 102.006 271.822 102.006H271.012L270.724 101.16L274.702 96.678H268.546V95.4H276.592V96.444L272.632 100.836C274.828 101.016 276.79 102.078 276.79 104.382V104.418C276.79 106.668 274.918 108.216 272.578 108.216Z" fill="#171717"/>
</g>
<g clip-path="url(#clip3_503_3694)">
<rect x="299" y="86" width="32" height="32" rx="16" fill="#F4F4F5"/>
<path d="M316.238 105.012H309.596L309.236 103.986L316.364 95.31H317.606V103.824H319.568V105.012H317.606V108H316.238V105.012ZM310.946 103.824H316.238V97.326L310.946 103.824Z" fill="#171717"/>
</g>
<g clip-path="url(#clip4_503_3694)">
<rect x="341" y="86" width="32" height="32" rx="16" fill="#F4F4F5"/>
<path d="M356.443 108.216C354.643 108.216 353.077 107.352 351.943 106.218L352.879 105.192C353.977 106.254 355.183 106.92 356.461 106.92C358.261 106.92 359.503 105.732 359.503 104.13V104.094C359.503 102.528 358.207 101.448 356.371 101.448C355.309 101.448 354.463 101.772 353.725 102.168L352.771 101.538L353.131 95.4H360.385V96.714H354.373L354.103 100.746C354.841 100.422 355.543 100.188 356.587 100.188C359.035 100.188 360.943 101.646 360.943 104.04V104.076C360.943 106.542 359.071 108.216 356.443 108.216Z" fill="#171717"/>
</g>
<g clip-path="url(#clip5_503_3694)">
<rect x="383" y="86" width="32" height="32" rx="16" fill="#F4F4F5"/>
<path d="M398.667 108.216C397.281 108.216 396.147 107.73 395.355 106.938C394.347 105.93 393.771 104.634 393.771 102.06V102.024C393.771 98.19 395.715 95.184 399.009 95.184C400.521 95.184 401.637 95.724 402.735 96.624L401.907 97.722C400.971 96.93 400.089 96.48 398.937 96.48C396.651 96.48 395.229 98.784 395.247 102.042C395.931 101.034 396.993 100.116 398.829 100.116C401.169 100.116 403.185 101.628 403.185 103.986V104.022C403.185 106.452 401.223 108.216 398.667 108.216ZM395.499 104.13C395.499 105.732 396.831 106.956 398.685 106.956C400.539 106.956 401.727 105.678 401.727 104.076V104.04C401.727 102.492 400.467 101.34 398.649 101.34C396.759 101.34 395.499 102.69 395.499 104.094V104.13Z" fill="#171717"/>
</g>
<g clip-path="url(#clip6_503_3694)">
<rect x="425" y="86" width="32" height="32" rx="16" fill="#F4F4F5"/>
<path d="M443.293 96.696H436.363V95.4H444.913V96.462L439.189 108H437.605L443.293 96.696Z" fill="#171717"/>
</g>
<g clip-path="url(#clip7_503_3694)">
<rect x="467" y="86" width="32" height="32" rx="16" fill="#F4F4F5"/>
<path d="M482.501 108.18C479.819 108.18 477.767 106.722 477.767 104.616V104.58C477.767 103.086 478.847 102.024 480.359 101.484C479.189 100.944 478.199 100.044 478.199 98.586V98.55C478.199 96.606 480.197 95.22 482.501 95.22C484.805 95.22 486.803 96.606 486.803 98.55V98.586C486.803 100.044 485.813 100.944 484.643 101.484C486.137 102.042 487.235 103.068 487.235 104.562V104.598C487.235 106.74 485.183 108.18 482.501 108.18ZM479.207 104.58C479.207 105.858 480.431 106.938 482.501 106.938C484.571 106.938 485.795 105.858 485.795 104.58V104.544C485.795 103.14 484.337 102.15 482.501 102.15C480.665 102.15 479.207 103.14 479.207 104.544V104.58ZM479.621 98.676C479.621 100.044 480.899 100.98 482.501 100.98C484.103 100.98 485.381 100.044 485.381 98.676V98.64C485.381 97.398 484.139 96.462 482.501 96.462C480.863 96.462 479.621 97.38 479.621 98.64V98.676Z" fill="#171717"/>
</g>
<mask id="mask0_503_3694" style="mask-type:alpha" maskUnits="userSpaceOnUse" x="507" y="90" width="24" height="24">
<path d="M524 102L514 92V93.414L522.586 102L514 110.586V112L523.293 102.707L524 102Z" fill="black"/>
</mask>
<g mask="url(#mask0_503_3694)">
<rect x="507" y="90" width="24" height="24" fill="#141B4D"/>
</g>
<mask id="mask1_503_3694" style="mask-type:alpha" maskUnits="userSpaceOnUse" x="141" y="90" width="24" height="24">
<path d="M148 102L158 112V110.586L149.414 102L158 93.414V92L148.707 101.293L148 102Z" fill="black"/>
</mask>
<g mask="url(#mask1_503_3694)">
<rect x="141" y="90" width="24" height="24" fill="#141B4D"/>
</g>
<rect x="117" y="103" width="1" height="30.6007" transform="rotate(-90 117 103)" fill="#008574"/>
<rect x="95" y="91.2004" width="22" height="22" rx="11" fill="#008574"/>
<path d="M105.603 107.2V99.4444L103.993 99.8224V98.4504L106.359 97.4004H107.465V107.2H105.603Z" fill="white"/>
<rect x="95" y="91.2004" width="22" height="22" rx="11" stroke="white" stroke-width="2"/>
<rect x="188.5" y="38.9984" width="1" height="46.6007" fill="#008574"/>
<rect x="178" y="17" width="22" height="22" rx="11" fill="#008574"/>
<path d="M185.715 33V31.698C186.312 31.2033 186.891 30.7133 187.451 30.228C188.02 29.7427 188.524 29.262 188.963 28.786C189.411 28.31 189.766 27.848 190.027 27.4C190.298 26.9427 190.433 26.4993 190.433 26.07C190.433 25.6687 190.321 25.314 190.097 25.006C189.882 24.698 189.523 24.544 189.019 24.544C188.506 24.544 188.118 24.712 187.857 25.048C187.596 25.384 187.465 25.79 187.465 26.266H185.729C185.748 25.5473 185.906 24.95 186.205 24.474C186.504 23.9887 186.9 23.6293 187.395 23.396C187.89 23.1533 188.445 23.032 189.061 23.032C190.06 23.032 190.834 23.3073 191.385 23.858C191.945 24.3993 192.225 25.104 192.225 25.972C192.225 26.5133 192.099 27.0407 191.847 27.554C191.604 28.0673 191.282 28.562 190.881 29.038C190.48 29.514 190.046 29.962 189.579 30.382C189.112 30.7927 188.66 31.1753 188.221 31.53H192.463V33H185.715Z" fill="white"/>
<rect x="178" y="17" width="22" height="22" rx="11" stroke="white" stroke-width="2"/>
<rect x="335.5" y="148.998" width="1" height="46.6007" fill="#008574"/>
<rect x="325" y="196" width="22" height="22" rx="11" fill="#008574"/>
<path d="M335.988 212.168C335.344 212.168 334.761 212.056 334.238 211.832C333.715 211.599 333.295 211.244 332.978 210.768C332.661 210.292 332.493 209.695 332.474 208.976H334.238C334.247 209.452 334.401 209.853 334.7 210.18C335.008 210.497 335.437 210.656 335.988 210.656C336.511 210.656 336.912 210.511 337.192 210.222C337.472 209.933 337.612 209.569 337.612 209.13C337.612 208.617 337.425 208.229 337.052 207.968C336.688 207.697 336.217 207.562 335.638 207.562H334.91V206.092H335.652C336.128 206.092 336.525 205.98 336.842 205.756C337.159 205.532 337.318 205.201 337.318 204.762C337.318 204.398 337.197 204.109 336.954 203.894C336.721 203.67 336.394 203.558 335.974 203.558C335.517 203.558 335.157 203.693 334.896 203.964C334.644 204.235 334.504 204.566 334.476 204.958H332.726C332.763 204.053 333.076 203.339 333.664 202.816C334.261 202.293 335.031 202.032 335.974 202.032C336.646 202.032 337.211 202.153 337.668 202.396C338.135 202.629 338.485 202.942 338.718 203.334C338.961 203.726 339.082 204.16 339.082 204.636C339.082 205.187 338.928 205.653 338.62 206.036C338.321 206.409 337.948 206.661 337.5 206.792C338.051 206.904 338.499 207.175 338.844 207.604C339.189 208.024 339.362 208.556 339.362 209.2C339.362 209.741 339.231 210.236 338.97 210.684C338.709 211.132 338.326 211.491 337.822 211.762C337.327 212.033 336.716 212.168 335.988 212.168Z" fill="white"/>
<rect x="325" y="196" width="22" height="22" rx="11" stroke="white" stroke-width="2"/>
<path d="M257.976 132.2C261.056 132.2 263.184 134.314 263.184 137.072V137.1C263.184 139.858 261.056 142 257.976 142H254.574V132.2H257.976ZM255.68 140.978H257.976C260.454 140.978 262.036 139.298 262.036 137.128V137.1C262.036 134.93 260.454 133.222 257.976 133.222H255.68V140.978ZM265.872 131.99H267.104V133.18H265.872V131.99ZM265.942 142V134.762H267.02V142H265.942ZM272.415 142.14C271.379 142.14 270.231 141.734 269.419 141.076L269.965 140.306C270.749 140.894 271.617 141.23 272.471 141.23C273.339 141.23 273.969 140.782 273.969 140.082V140.054C273.969 139.326 273.115 139.046 272.163 138.78C271.029 138.458 269.769 138.066 269.769 136.736V136.708C269.769 135.462 270.805 134.636 272.233 134.636C273.115 134.636 274.095 134.944 274.837 135.434L274.347 136.246C273.675 135.812 272.905 135.546 272.205 135.546C271.351 135.546 270.805 135.994 270.805 136.596V136.624C270.805 137.31 271.701 137.576 272.667 137.87C273.787 138.206 274.991 138.64 274.991 139.942V139.97C274.991 141.342 273.857 142.14 272.415 142.14ZM277.494 134.762H278.572V136.218C279.16 135.35 280.014 134.608 281.344 134.608C283.08 134.608 284.802 135.98 284.802 138.36V138.388C284.802 140.754 283.094 142.154 281.344 142.154C280 142.154 279.132 141.426 278.572 140.614V144.24H277.494V134.762ZM278.53 138.388C278.53 140.068 279.804 141.188 281.148 141.188C282.548 141.188 283.696 140.152 283.696 138.402V138.374C283.696 136.666 282.52 135.574 281.148 135.574C279.804 135.574 278.53 136.708 278.53 138.36V138.388ZM287.389 131.78H288.467V142H287.389V131.78ZM293.625 142.154C292.267 142.154 290.923 141.384 290.923 139.9V139.872C290.923 138.318 292.183 137.506 294.017 137.506C294.941 137.506 295.585 137.632 296.229 137.814V137.59C296.229 136.302 295.445 135.63 294.087 135.63C293.233 135.63 292.561 135.84 291.889 136.148L291.567 135.266C292.365 134.902 293.135 134.65 294.199 134.65C295.221 134.65 296.019 134.93 296.537 135.448C297.041 135.952 297.293 136.652 297.293 137.576V142H296.229V140.922C295.725 141.566 294.899 142.154 293.625 142.154ZM292.015 139.844C292.015 140.754 292.855 141.286 293.835 141.286C295.165 141.286 296.243 140.488 296.243 139.34V138.668C295.711 138.514 295.011 138.36 294.129 138.36C292.785 138.36 292.015 138.948 292.015 139.816V139.844ZM300.923 144.282C300.321 144.282 299.873 144.156 299.383 143.918L299.747 143.064C300.097 143.246 300.419 143.33 300.881 143.33C301.525 143.33 301.931 142.994 302.365 141.972L299.075 134.762H300.265L302.897 140.796L305.221 134.762H306.369L303.331 142.238C302.715 143.736 302.015 144.282 300.923 144.282ZM308.602 131.99H309.834V133.18H308.602V131.99ZM308.672 142V134.762H309.75V142H308.672ZM312.752 134.762H313.83V136.022C314.306 135.238 315.062 134.608 316.308 134.608C318.058 134.608 319.08 135.784 319.08 137.506V142H318.002V137.772C318.002 136.428 317.274 135.588 316 135.588C314.754 135.588 313.83 136.498 313.83 137.856V142H312.752V134.762ZM325.085 144.268C323.881 144.268 322.761 143.932 321.795 143.26L322.285 142.42C323.111 143.022 324.035 143.344 325.071 143.344C326.667 143.344 327.703 142.462 327.703 140.768V139.914C327.073 140.754 326.191 141.44 324.861 141.44C323.125 141.44 321.459 140.138 321.459 138.052V138.024C321.459 135.91 323.139 134.608 324.861 134.608C326.219 134.608 327.101 135.28 327.689 136.064V134.762H328.767V140.74C328.767 141.86 328.431 142.714 327.843 143.302C327.199 143.946 326.233 144.268 325.085 144.268ZM322.565 138.024C322.565 139.48 323.727 140.488 325.071 140.488C326.443 140.488 327.731 139.494 327.731 138.038V138.01C327.731 136.526 326.443 135.56 325.071 135.56C323.699 135.56 322.565 136.512 322.565 137.996V138.024ZM339.579 142.14C337.493 142.14 335.897 141.006 335.897 139.368V139.34C335.897 138.178 336.737 137.352 337.913 136.932C337.003 136.512 336.233 135.812 336.233 134.678V134.65C336.233 133.138 337.787 132.06 339.579 132.06C341.371 132.06 342.925 133.138 342.925 134.65V134.678C342.925 135.812 342.155 136.512 341.245 136.932C342.407 137.366 343.261 138.164 343.261 139.326V139.354C343.261 141.02 341.665 142.14 339.579 142.14ZM337.017 139.34C337.017 140.334 337.969 141.174 339.579 141.174C341.189 141.174 342.141 140.334 342.141 139.34V139.312C342.141 138.22 341.007 137.45 339.579 137.45C338.151 137.45 337.017 138.22 337.017 139.312V139.34ZM337.339 134.748C337.339 135.812 338.333 136.54 339.579 136.54C340.825 136.54 341.819 135.812 341.819 134.748V134.72C341.819 133.754 340.853 133.026 339.579 133.026C338.305 133.026 337.339 133.74 337.339 134.72V134.748ZM353.693 142.168C351.523 142.168 349.941 140.46 349.941 138.416V138.388C349.941 136.344 351.537 134.608 353.721 134.608C355.891 134.608 357.487 136.316 357.487 138.36V138.388C357.487 140.432 355.877 142.168 353.693 142.168ZM351.047 138.388C351.047 139.942 352.195 141.202 353.721 141.202C355.289 141.202 356.381 139.942 356.381 138.416V138.388C356.381 136.834 355.219 135.56 353.693 135.56C352.125 135.56 351.047 136.834 351.047 138.36V138.388ZM360.345 135.714H359.351V134.776H360.345V134.146C360.345 133.32 360.569 132.69 360.975 132.284C361.339 131.92 361.871 131.724 362.529 131.724C363.033 131.724 363.369 131.78 363.719 131.906V132.844C363.327 132.732 363.033 132.662 362.669 132.662C361.829 132.662 361.409 133.166 361.409 134.202V134.79H363.705V135.714H361.423V142H360.345V135.714ZM371.579 133.278L369.731 133.852L369.465 132.956L371.859 132.13H372.671V142H371.579V133.278ZM379.253 142.168C378.175 142.168 377.293 141.79 376.677 141.174C375.893 140.39 375.445 139.382 375.445 137.38V137.352C375.445 134.37 376.957 132.032 379.519 132.032C380.695 132.032 381.563 132.452 382.417 133.152L381.773 134.006C381.045 133.39 380.359 133.04 379.463 133.04C377.685 133.04 376.579 134.832 376.593 137.366C377.125 136.582 377.951 135.868 379.379 135.868C381.199 135.868 382.767 137.044 382.767 138.878V138.906C382.767 140.796 381.241 142.168 379.253 142.168ZM376.789 138.99C376.789 140.236 377.825 141.188 379.267 141.188C380.709 141.188 381.633 140.194 381.633 138.948V138.92C381.633 137.716 380.653 136.82 379.239 136.82C377.769 136.82 376.789 137.87 376.789 138.962V138.99ZM390.057 134.762H391.135V136.218C391.723 135.35 392.577 134.608 393.907 134.608C395.643 134.608 397.365 135.98 397.365 138.36V138.388C397.365 140.754 395.657 142.154 393.907 142.154C392.563 142.154 391.695 141.426 391.135 140.614V144.24H390.057V134.762ZM391.093 138.388C391.093 140.068 392.367 141.188 393.711 141.188C395.111 141.188 396.259 140.152 396.259 138.402V138.374C396.259 136.666 395.083 135.574 393.711 135.574C392.367 135.574 391.093 136.708 391.093 138.36V138.388ZM402.009 142.154C400.651 142.154 399.307 141.384 399.307 139.9V139.872C399.307 138.318 400.567 137.506 402.401 137.506C403.325 137.506 403.969 137.632 404.613 137.814V137.59C404.613 136.302 403.829 135.63 402.471 135.63C401.617 135.63 400.945 135.84 400.273 136.148L399.951 135.266C400.749 134.902 401.519 134.65 402.583 134.65C403.605 134.65 404.403 134.93 404.921 135.448C405.425 135.952 405.677 136.652 405.677 137.576V142H404.613V140.922C404.109 141.566 403.283 142.154 402.009 142.154ZM400.399 139.844C400.399 140.754 401.239 141.286 402.219 141.286C403.549 141.286 404.627 140.488 404.627 139.34V138.668C404.095 138.514 403.395 138.36 402.513 138.36C401.169 138.36 400.399 138.948 400.399 139.816V139.844ZM411.667 144.268C410.463 144.268 409.343 143.932 408.377 143.26L408.867 142.42C409.693 143.022 410.617 143.344 411.653 143.344C413.249 143.344 414.285 142.462 414.285 140.768V139.914C413.655 140.754 412.773 141.44 411.443 141.44C409.707 141.44 408.041 140.138 408.041 138.052V138.024C408.041 135.91 409.721 134.608 411.443 134.608C412.801 134.608 413.683 135.28 414.271 136.064V134.762H415.349V140.74C415.349 141.86 415.013 142.714 414.425 143.302C413.781 143.946 412.815 144.268 411.667 144.268ZM409.147 138.024C409.147 139.48 410.309 140.488 411.653 140.488C413.025 140.488 414.313 139.494 414.313 138.038V138.01C414.313 136.526 413.025 135.56 411.653 135.56C410.281 135.56 409.147 136.512 409.147 137.996V138.024ZM418.902 138.822C419.056 140.348 420.176 141.23 421.45 141.23C422.444 141.23 423.144 140.824 423.732 140.208L424.404 140.81C423.676 141.622 422.794 142.168 421.422 142.168C419.434 142.168 417.81 140.642 417.81 138.388C417.81 136.288 419.28 134.608 421.282 134.608C423.424 134.608 424.656 136.316 424.656 138.444C424.656 138.542 424.656 138.654 424.642 138.822H418.902ZM418.902 137.954H423.564C423.438 136.638 422.682 135.518 421.254 135.518C420.008 135.518 419.056 136.554 418.902 137.954ZM429.437 142.14C428.401 142.14 427.253 141.734 426.441 141.076L426.987 140.306C427.771 140.894 428.639 141.23 429.493 141.23C430.361 141.23 430.991 140.782 430.991 140.082V140.054C430.991 139.326 430.137 139.046 429.185 138.78C428.051 138.458 426.791 138.066 426.791 136.736V136.708C426.791 135.462 427.827 134.636 429.255 134.636C430.137 134.636 431.117 134.944 431.859 135.434L431.369 136.246C430.697 135.812 429.927 135.546 429.227 135.546C428.373 135.546 427.827 135.994 427.827 136.596V136.624C427.827 137.31 428.723 137.576 429.689 137.87C430.809 138.206 432.013 138.64 432.013 139.942V139.97C432.013 141.342 430.879 142.14 429.437 142.14Z" fill="black"/>
<defs>
<clipPath id="clip0_503_3694">
<rect width="32" height="32" fill="white" transform="translate(173 86)"/>
</clipPath>
<clipPath id="clip1_503_3694">
<rect width="32" height="32" fill="white" transform="translate(215 86)"/>
</clipPath>
<clipPath id="clip2_503_3694">
<rect width="32" height="32" fill="white" transform="translate(257 86)"/>
</clipPath>
<clipPath id="clip3_503_3694">
<rect width="32" height="32" fill="white" transform="translate(299 86)"/>
</clipPath>
<clipPath id="clip4_503_3694">
<rect width="32" height="32" fill="white" transform="translate(341 86)"/>
</clipPath>
<clipPath id="clip5_503_3694">
<rect width="32" height="32" fill="white" transform="translate(383 86)"/>
</clipPath>
<clipPath id="clip6_503_3694">
<rect width="32" height="32" fill="white" transform="translate(425 86)"/>
</clipPath>
<clipPath id="clip7_503_3694">
<rect width="32" height="32" fill="white" transform="translate(467 86)"/>
</clipPath>
</defs>
</svg>
