<svg width="601" height="254" viewBox="0 0 601 254" fill="none" xmlns="http://www.w3.org/2000/svg">
<rect width="601" height="254" fill="white"/>
<rect x="58" y="88" width="1" height="61.6007" transform="rotate(-90 58 88)" fill="#008574"/>
<rect x="36" y="76.2004" width="22" height="22" rx="11" fill="#008574"/>
<path d="M46.6029 92.2004V84.4444L44.9929 84.8224V83.4504L47.3589 82.4004H48.4649V92.2004H46.6029Z" fill="white"/>
<rect x="36" y="76.2004" width="22" height="22" rx="11" stroke="white" stroke-width="2"/>
<rect x="236" y="132" width="1" height="96.6007" transform="rotate(-90 236 132)" fill="#008574"/>
<rect x="214" y="120.2" width="22" height="22" rx="11" fill="#008574"/>
<path d="M221.715 136.2V134.898C222.312 134.404 222.891 133.914 223.451 133.428C224.02 132.943 224.524 132.462 224.963 131.986C225.411 131.51 225.766 131.048 226.027 130.6C226.298 130.143 226.433 129.7 226.433 129.27C226.433 128.869 226.321 128.514 226.097 128.206C225.882 127.898 225.523 127.744 225.019 127.744C224.506 127.744 224.118 127.912 223.857 128.248C223.596 128.584 223.465 128.99 223.465 129.466H221.729C221.748 128.748 221.906 128.15 222.205 127.674C222.504 127.189 222.9 126.83 223.395 126.596C223.89 126.354 224.445 126.232 225.061 126.232C226.06 126.232 226.834 126.508 227.385 127.058C227.945 127.6 228.225 128.304 228.225 129.172C228.225 129.714 228.099 130.241 227.847 130.754C227.604 131.268 227.282 131.762 226.881 132.238C226.48 132.714 226.046 133.162 225.579 133.582C225.112 133.993 224.66 134.376 224.221 134.73H228.463V136.2H221.715Z" fill="white"/>
<rect x="214" y="120.2" width="22" height="22" rx="11" stroke="white" stroke-width="2"/>
<rect x="447" y="170" width="1" height="96.6007" transform="rotate(-90 447 170)" fill="#008574"/>
<rect x="543.399" y="158.2" width="22" height="22" rx="11" fill="#008574"/>
<path d="M554.387 174.368C553.743 174.368 553.16 174.256 552.637 174.032C552.115 173.799 551.695 173.444 551.377 172.968C551.06 172.492 550.892 171.895 550.873 171.176H552.637C552.647 171.652 552.801 172.054 553.099 172.38C553.407 172.698 553.837 172.856 554.387 172.856C554.91 172.856 555.311 172.712 555.591 172.422C555.871 172.133 556.011 171.769 556.011 171.33C556.011 170.817 555.825 170.43 555.451 170.168C555.087 169.898 554.616 169.762 554.037 169.762H553.309V168.292H554.051C554.527 168.292 554.924 168.18 555.241 167.956C555.559 167.732 555.717 167.401 555.717 166.962C555.717 166.598 555.596 166.309 555.353 166.094C555.12 165.87 554.793 165.758 554.373 165.758C553.916 165.758 553.557 165.894 553.295 166.164C553.043 166.435 552.903 166.766 552.875 167.158H551.125C551.163 166.253 551.475 165.539 552.063 165.016C552.661 164.494 553.431 164.232 554.373 164.232C555.045 164.232 555.61 164.354 556.067 164.596C556.534 164.83 556.884 165.142 557.117 165.534C557.36 165.926 557.481 166.36 557.481 166.836C557.481 167.387 557.327 167.854 557.019 168.236C556.721 168.61 556.347 168.862 555.899 168.992C556.45 169.104 556.898 169.375 557.243 169.804C557.589 170.224 557.761 170.756 557.761 171.4C557.761 171.942 557.631 172.436 557.369 172.884C557.108 173.332 556.725 173.692 556.221 173.962C555.727 174.233 555.115 174.368 554.387 174.368Z" fill="white"/>
<rect x="543.399" y="158.2" width="22" height="22" rx="11" stroke="white" stroke-width="2"/>
<circle cx="343" cy="89" r="11" stroke="#002DA2" stroke-width="2"/>
<circle cx="343" cy="89" r="6" fill="#002DA2"/>
<circle cx="343" cy="129" r="11" stroke="#002DA2" stroke-width="2"/>
<circle cx="343" cy="169" r="11" stroke="#002DA2" stroke-width="2"/>
<path d="M125.195 80.714H120.965V79.4H130.865V80.714H126.635V92H125.195V80.714ZM134.022 78.86H135.408V84.314C136.02 83.306 136.992 82.496 138.594 82.496C140.844 82.496 142.158 84.008 142.158 86.222V92H140.772V86.564C140.772 84.836 139.836 83.756 138.198 83.756C136.596 83.756 135.408 84.926 135.408 86.672V92H134.022V78.86ZM146.149 79.13H147.733V80.66H146.149V79.13ZM146.239 92V82.694H147.625V92H146.239ZM154.92 92.18C153.588 92.18 152.112 91.658 151.068 90.812L151.77 89.822C152.778 90.578 153.894 91.01 154.992 91.01C156.108 91.01 156.918 90.434 156.918 89.534V89.498C156.918 88.562 155.82 88.202 154.596 87.86C153.138 87.446 151.518 86.942 151.518 85.232V85.196C151.518 83.594 152.85 82.532 154.686 82.532C155.82 82.532 157.08 82.928 158.034 83.558L157.404 84.602C156.54 84.044 155.55 83.702 154.65 83.702C153.552 83.702 152.85 84.278 152.85 85.052V85.088C152.85 85.97 154.002 86.312 155.244 86.69C156.684 87.122 158.232 87.68 158.232 89.354V89.39C158.232 91.154 156.774 92.18 154.92 92.18ZM168.239 79.13H169.823V80.66H168.239V79.13ZM168.329 92V82.694H169.715V92H168.329ZM177.01 92.18C175.678 92.18 174.202 91.658 173.158 90.812L173.86 89.822C174.868 90.578 175.984 91.01 177.082 91.01C178.198 91.01 179.008 90.434 179.008 89.534V89.498C179.008 88.562 177.91 88.202 176.686 87.86C175.228 87.446 173.608 86.942 173.608 85.232V85.196C173.608 83.594 174.94 82.532 176.776 82.532C177.91 82.532 179.17 82.928 180.124 83.558L179.494 84.602C178.63 84.044 177.64 83.702 176.74 83.702C175.642 83.702 174.94 84.278 174.94 85.052V85.088C174.94 85.97 176.092 86.312 177.334 86.69C178.774 87.122 180.322 87.68 180.322 89.354V89.39C180.322 91.154 178.864 92.18 177.01 92.18ZM193.065 92.198C191.319 92.198 189.591 91.208 189.591 89.3V89.264C189.591 87.266 191.211 86.222 193.569 86.222C194.757 86.222 195.585 86.384 196.413 86.618V86.33C196.413 84.674 195.405 83.81 193.659 83.81C192.561 83.81 191.697 84.08 190.833 84.476L190.419 83.342C191.445 82.874 192.435 82.55 193.803 82.55C195.117 82.55 196.143 82.91 196.809 83.576C197.457 84.224 197.781 85.124 197.781 86.312V92H196.413V90.614C195.765 91.442 194.703 92.198 193.065 92.198ZM190.995 89.228C190.995 90.398 192.075 91.082 193.335 91.082C195.045 91.082 196.431 90.056 196.431 88.58V87.716C195.747 87.518 194.847 87.32 193.713 87.32C191.985 87.32 190.995 88.076 190.995 89.192V89.228ZM215.583 90.128C214.827 91.244 213.729 92.198 212.019 92.198C209.787 92.198 207.573 90.434 207.573 87.374V87.338C207.573 84.296 209.787 82.496 212.019 82.496C213.747 82.496 214.863 83.432 215.583 84.476V82.694H216.969V94.88H215.583V90.128ZM208.995 87.356C208.995 89.552 210.507 90.956 212.271 90.956C213.999 90.956 215.637 89.498 215.637 87.356V87.32C215.637 85.178 213.999 83.738 212.271 83.738C210.471 83.738 208.995 85.07 208.995 87.32V87.356ZM224.487 92.198C222.237 92.198 220.923 90.686 220.923 88.472V82.694H222.309V88.13C222.309 89.858 223.245 90.938 224.883 90.938C226.467 90.938 227.673 89.768 227.673 88.022V82.694H229.041V92H227.673V90.38C227.043 91.388 226.089 92.198 224.487 92.198ZM233.986 87.914C234.184 89.876 235.624 91.01 237.262 91.01C238.54 91.01 239.44 90.488 240.196 89.696L241.06 90.47C240.124 91.514 238.99 92.216 237.226 92.216C234.67 92.216 232.582 90.254 232.582 87.356C232.582 84.656 234.472 82.496 237.046 82.496C239.8 82.496 241.384 84.692 241.384 87.428C241.384 87.554 241.384 87.698 241.366 87.914H233.986ZM233.986 86.798H239.98C239.818 85.106 238.846 83.666 237.01 83.666C235.408 83.666 234.184 84.998 233.986 86.798ZM247.889 92.18C246.557 92.18 245.081 91.658 244.037 90.812L244.739 89.822C245.747 90.578 246.863 91.01 247.961 91.01C249.077 91.01 249.887 90.434 249.887 89.534V89.498C249.887 88.562 248.789 88.202 247.565 87.86C246.107 87.446 244.487 86.942 244.487 85.232V85.196C244.487 83.594 245.819 82.532 247.655 82.532C248.789 82.532 250.049 82.928 251.003 83.558L250.373 84.602C249.509 84.044 248.519 83.702 247.619 83.702C246.521 83.702 245.819 84.278 245.819 85.052V85.088C245.819 85.97 246.971 86.312 248.213 86.69C249.653 87.122 251.201 87.68 251.201 89.354V89.39C251.201 91.154 249.743 92.18 247.889 92.18ZM257.714 92.162C256.22 92.162 255.086 91.424 255.086 89.534V83.918H253.79V82.694H255.086V79.886H256.472V82.694H259.424V83.918H256.472V89.354C256.472 90.488 257.102 90.902 258.038 90.902C258.506 90.902 258.902 90.812 259.388 90.578V91.766C258.902 92.018 258.38 92.162 257.714 92.162ZM262.913 79.13H264.497V80.66H262.913V79.13ZM263.003 92V82.694H264.389V92H263.003ZM272.854 92.216C270.064 92.216 268.03 90.02 268.03 87.392V87.356C268.03 84.728 270.082 82.496 272.89 82.496C275.68 82.496 277.732 84.692 277.732 87.32V87.356C277.732 89.984 275.662 92.216 272.854 92.216ZM269.452 87.356C269.452 89.354 270.928 90.974 272.89 90.974C274.906 90.974 276.31 89.354 276.31 87.392V87.356C276.31 85.358 274.816 83.72 272.854 83.72C270.838 83.72 269.452 85.358 269.452 87.32V87.356ZM281.242 82.694H282.628V84.314C283.24 83.306 284.212 82.496 285.814 82.496C288.064 82.496 289.378 84.008 289.378 86.222V92H287.992V86.564C287.992 84.836 287.056 83.756 285.418 83.756C283.816 83.756 282.628 84.926 282.628 86.672V92H281.242V82.694Z" fill="black"/>
<path d="M301.765 82.604L299.911 83.918L299.425 83.072L301.513 82.118L299.425 81.146L299.911 80.318L301.765 81.614L301.585 79.364H302.521L302.341 81.614L304.195 80.318L304.681 81.146L302.593 82.118L304.681 83.072L304.195 83.918L302.341 82.604L302.521 84.854H301.585L301.765 82.604Z" fill="#CB0003"/>
<path d="M376.931 83.72H378.115L383.219 95H381.859L380.547 92.04H374.451L373.123 95H371.827L376.931 83.72ZM374.947 90.904H380.051L377.507 85.192L374.947 90.904ZM385.72 86.728H386.952V88.168C387.496 87.272 388.36 86.552 389.784 86.552C391.784 86.552 392.952 87.896 392.952 89.864V95H391.72V90.168C391.72 88.632 390.888 87.672 389.432 87.672C388.008 87.672 386.952 88.712 386.952 90.264V95H385.72V86.728ZM398.815 95.16C397.631 95.16 396.319 94.696 395.391 93.944L396.015 93.064C396.911 93.736 397.903 94.12 398.879 94.12C399.871 94.12 400.591 93.608 400.591 92.808V92.776C400.591 91.944 399.615 91.624 398.527 91.32C397.231 90.952 395.791 90.504 395.791 88.984V88.952C395.791 87.528 396.975 86.584 398.607 86.584C399.615 86.584 400.735 86.936 401.583 87.496L401.023 88.424C400.255 87.928 399.375 87.624 398.575 87.624C397.599 87.624 396.975 88.136 396.975 88.824V88.856C396.975 89.64 397.999 89.944 399.103 90.28C400.383 90.664 401.759 91.16 401.759 92.648V92.68C401.759 94.248 400.463 95.16 398.815 95.16ZM403.61 86.728H404.922L407.098 93.368L409.322 86.696H410.346L412.586 93.368L414.762 86.728H416.042L413.13 95.064H412.058L409.834 88.536L407.594 95.064H406.506L403.61 86.728ZM418.924 91.368C419.101 93.112 420.381 94.12 421.837 94.12C422.973 94.12 423.773 93.656 424.445 92.952L425.213 93.64C424.381 94.568 423.373 95.192 421.805 95.192C419.533 95.192 417.677 93.448 417.677 90.872C417.677 88.472 419.357 86.552 421.645 86.552C424.093 86.552 425.501 88.504 425.501 90.936C425.501 91.048 425.501 91.176 425.485 91.368H418.924ZM418.924 90.376H424.253C424.109 88.872 423.245 87.592 421.613 87.592C420.189 87.592 419.101 88.776 418.924 90.376ZM428.157 86.728H429.389V88.888C429.997 87.512 431.197 86.52 432.765 86.584V87.912H432.669C430.861 87.912 429.389 89.208 429.389 91.704V95H428.157V86.728ZM441.927 85.032L439.815 85.688L439.511 84.664L442.247 83.72H443.174V95H441.927V85.032Z" fill="black"/>
<path d="M375.009 123.72H376.193L381.297 135H379.937L378.625 132.04H372.529L371.201 135H369.905L375.009 123.72ZM373.025 130.904H378.129L375.585 125.192L373.025 130.904ZM383.798 126.728H385.03V128.168C385.574 127.272 386.438 126.552 387.862 126.552C389.862 126.552 391.03 127.896 391.03 129.864V135H389.798V130.168C389.798 128.632 388.966 127.672 387.51 127.672C386.086 127.672 385.03 128.712 385.03 130.264V135H383.798V126.728ZM396.893 135.16C395.709 135.16 394.397 134.696 393.469 133.944L394.093 133.064C394.989 133.736 395.981 134.12 396.957 134.12C397.949 134.12 398.669 133.608 398.669 132.808V132.776C398.669 131.944 397.693 131.624 396.605 131.32C395.309 130.952 393.869 130.504 393.869 128.984V128.952C393.869 127.528 395.053 126.584 396.685 126.584C397.693 126.584 398.813 126.936 399.661 127.496L399.101 128.424C398.333 127.928 397.453 127.624 396.653 127.624C395.677 127.624 395.053 128.136 395.053 128.824V128.856C395.053 129.64 396.077 129.944 397.181 130.28C398.461 130.664 399.837 131.16 399.837 132.648V132.68C399.837 134.248 398.541 135.16 396.893 135.16ZM401.688 126.728H403L405.176 133.368L407.4 126.696H408.424L410.664 133.368L412.84 126.728H414.12L411.208 135.064H410.136L407.912 128.536L405.672 135.064H404.584L401.688 126.728ZM417.003 131.368C417.179 133.112 418.459 134.12 419.915 134.12C421.051 134.12 421.851 133.656 422.523 132.952L423.291 133.64C422.459 134.568 421.451 135.192 419.883 135.192C417.611 135.192 415.755 133.448 415.755 130.872C415.755 128.472 417.435 126.552 419.723 126.552C422.171 126.552 423.579 128.504 423.579 130.936C423.579 131.048 423.579 131.176 423.563 131.368H417.003ZM417.003 130.376H422.331C422.187 128.872 421.323 127.592 419.691 127.592C418.267 127.592 417.179 128.776 417.003 130.376ZM426.235 126.728H427.467V128.888C428.075 127.512 429.275 126.52 430.843 126.584V127.912H430.747C428.939 127.912 427.467 129.208 427.467 131.704V135H426.235V126.728ZM441.973 130.44C443.685 128.904 444.309 128.04 444.309 126.92C444.309 125.608 443.269 124.776 442.053 124.776C440.773 124.776 439.941 125.448 439.045 126.696L438.117 126.024C439.125 124.52 440.181 123.64 442.149 123.64C444.165 123.64 445.621 124.984 445.621 126.808V126.84C445.621 128.472 444.757 129.48 442.789 131.192L439.797 133.848H445.733V135H437.909V134.024L441.973 130.44Z" fill="black"/>
<path d="M374.892 163.72H376.076L381.18 175H379.82L378.508 172.04H372.412L371.084 175H369.788L374.892 163.72ZM372.908 170.904H378.012L375.468 165.192L372.908 170.904ZM383.681 166.728H384.913V168.168C385.457 167.272 386.321 166.552 387.745 166.552C389.745 166.552 390.913 167.896 390.913 169.864V175H389.681V170.168C389.681 168.632 388.849 167.672 387.393 167.672C385.969 167.672 384.913 168.712 384.913 170.264V175H383.681V166.728ZM396.776 175.16C395.592 175.16 394.28 174.696 393.352 173.944L393.976 173.064C394.872 173.736 395.864 174.12 396.84 174.12C397.832 174.12 398.552 173.608 398.552 172.808V172.776C398.552 171.944 397.576 171.624 396.488 171.32C395.192 170.952 393.752 170.504 393.752 168.984V168.952C393.752 167.528 394.936 166.584 396.568 166.584C397.576 166.584 398.696 166.936 399.544 167.496L398.984 168.424C398.216 167.928 397.336 167.624 396.536 167.624C395.56 167.624 394.936 168.136 394.936 168.824V168.856C394.936 169.64 395.96 169.944 397.064 170.28C398.344 170.664 399.72 171.16 399.72 172.648V172.68C399.72 174.248 398.424 175.16 396.776 175.16ZM401.57 166.728H402.882L405.058 173.368L407.282 166.696H408.306L410.546 173.368L412.722 166.728H414.002L411.09 175.064H410.018L407.794 168.536L405.554 175.064H404.466L401.57 166.728ZM416.885 171.368C417.061 173.112 418.341 174.12 419.797 174.12C420.933 174.12 421.733 173.656 422.405 172.952L423.173 173.64C422.341 174.568 421.333 175.192 419.765 175.192C417.493 175.192 415.637 173.448 415.637 170.872C415.637 168.472 417.317 166.552 419.605 166.552C422.053 166.552 423.461 168.504 423.461 170.936C423.461 171.048 423.461 171.176 423.445 171.368H416.885ZM416.885 170.376H422.213C422.069 168.872 421.205 167.592 419.573 167.592C418.149 167.592 417.061 168.776 416.885 170.376ZM426.118 166.728H427.35V168.888C427.958 167.512 429.158 166.52 430.726 166.584V167.912H430.63C428.822 167.912 427.35 169.208 427.35 171.704V175H426.118V166.728ZM441.999 175.192C440.127 175.192 438.735 174.376 437.823 173.192L438.735 172.376C439.599 173.432 440.639 174.04 442.015 174.04C443.375 174.04 444.463 173.176 444.463 171.864V171.832C444.463 170.44 443.167 169.672 441.327 169.672H440.607L440.351 168.92L443.887 164.936H438.415V163.8H445.567V164.728L442.047 168.632C443.999 168.792 445.743 169.736 445.743 171.784V171.816C445.743 173.816 444.079 175.192 441.999 175.192Z" fill="black"/>
</svg>
