<svg width="603" height="276" viewBox="0 0 603 276" fill="none" xmlns="http://www.w3.org/2000/svg">
<rect width="603" height="276" fill="white"/>
<g clip-path="url(#clip0_503_3696)">
<path d="M107.707 131L112.635 119.72H114.459L119.387 131H117.307L116.171 128.296H110.875L109.723 131H107.707ZM111.595 126.552H115.451L113.515 122.072L111.595 126.552ZM121.695 131V119.32H123.631V131H121.695ZM126.773 131V119.32H128.709V131H126.773Z" fill="#171717"/>
<rect x="72" y="154" width="93.75" height="3" fill="#002DA2"/>
</g>
<g clip-path="url(#clip1_503_3696)">
<path d="M188.024 131.16C186.312 131.16 184.696 130.568 183.352 129.368L184.536 127.96C185.608 128.888 186.68 129.416 188.072 129.416C189.288 129.416 190.056 128.856 190.056 128.008V127.976C190.056 127.176 189.608 126.744 187.528 126.264C185.144 125.688 183.8 124.984 183.8 122.92V122.888C183.8 120.968 185.4 119.64 187.624 119.64C189.256 119.64 190.552 120.136 191.688 121.048L190.632 122.536C189.624 121.784 188.616 121.384 187.592 121.384C186.44 121.384 185.768 121.976 185.768 122.712V122.744C185.768 123.608 186.28 123.992 188.424 124.504C190.792 125.08 192.024 125.928 192.024 127.784V127.816C192.024 129.912 190.376 131.16 188.024 131.16ZM198.63 131.192C196.054 131.192 194.15 129.224 194.15 126.824V126.792C194.15 124.376 196.07 122.376 198.662 122.376C201.254 122.376 203.158 124.344 203.158 126.76V126.792C203.158 129.192 201.238 131.192 198.63 131.192ZM198.662 129.512C200.23 129.512 201.222 128.28 201.222 126.824V126.792C201.222 125.304 200.15 124.072 198.63 124.072C197.078 124.072 196.086 125.288 196.086 126.76V126.792C196.086 128.264 197.158 129.512 198.662 129.512ZM206.062 131V124.216H204.99V122.6H206.062V121.992C206.062 121.048 206.302 120.344 206.75 119.896C207.198 119.448 207.822 119.224 208.654 119.224C209.326 119.224 209.79 119.32 210.222 119.448V121.08C209.838 120.952 209.502 120.872 209.086 120.872C208.35 120.872 207.966 121.272 207.966 122.152V122.616H210.206V124.216H207.998V131H206.062ZM214.978 131.144C213.554 131.144 212.546 130.52 212.546 128.664V124.216H211.474V122.552H212.546V120.232H214.482V122.552H216.754V124.216H214.482V128.36C214.482 129.112 214.866 129.416 215.522 129.416C215.954 129.416 216.338 129.32 216.722 129.128V130.712C216.242 130.984 215.698 131.144 214.978 131.144ZM221.24 131.064L218.504 122.552H220.488L222.184 128.344L224.056 122.52H225.704L227.592 128.344L229.32 122.552H231.256L228.488 131.064H226.76L224.872 125.288L222.968 131.064H221.24ZM240.265 131H238.345V129.96C237.769 130.648 236.889 131.176 235.609 131.176C234.009 131.176 232.601 130.264 232.601 128.568V128.536C232.601 126.664 234.057 125.768 236.025 125.768C237.049 125.768 237.705 125.912 238.361 126.12V125.96C238.361 124.792 237.625 124.152 236.281 124.152C235.337 124.152 234.633 124.36 233.865 124.68L233.337 123.128C234.265 122.712 235.177 122.424 236.553 122.424C239.049 122.424 240.265 123.736 240.265 125.992V131ZM238.393 127.944V127.464C237.897 127.272 237.209 127.128 236.457 127.128C235.241 127.128 234.521 127.624 234.521 128.44V128.472C234.521 129.272 235.241 129.72 236.153 129.72C237.433 129.72 238.393 129 238.393 127.944ZM243.068 131V122.552H245.004V124.456C245.532 123.192 246.508 122.328 247.996 122.392V124.44H247.884C246.188 124.44 245.004 125.544 245.004 127.784V131H243.068ZM253.768 131.192C251.32 131.192 249.432 129.416 249.432 126.808V126.776C249.432 124.36 251.144 122.376 253.56 122.376C256.248 122.376 257.608 124.488 257.608 126.92C257.608 127.096 257.592 127.272 257.576 127.464H251.368C251.576 128.84 252.552 129.608 253.8 129.608C254.744 129.608 255.416 129.256 256.088 128.6L257.224 129.608C256.424 130.568 255.32 131.192 253.768 131.192ZM251.352 126.184H255.688C255.56 124.936 254.824 123.96 253.544 123.96C252.36 123.96 251.528 124.872 251.352 126.184Z" fill="#AFA9A0"/>
<rect x="165.75" y="154" width="109.75" height="3" fill="#D0D3D4"/>
</g>
<g clip-path="url(#clip2_503_3696)">
<path d="M307.184 131V121.624H303.632V119.8H312.72V121.624H309.168V131H307.184ZM317.127 131.192C314.679 131.192 312.791 129.416 312.791 126.808V126.776C312.791 124.36 314.503 122.376 316.919 122.376C319.607 122.376 320.967 124.488 320.967 126.92C320.967 127.096 320.951 127.272 320.935 127.464H314.727C314.935 128.84 315.911 129.608 317.159 129.608C318.103 129.608 318.775 129.256 319.447 128.6L320.583 129.608C319.783 130.568 318.679 131.192 317.127 131.192ZM314.711 126.184H319.047C318.919 124.936 318.183 123.96 316.903 123.96C315.719 123.96 314.887 124.872 314.711 126.184ZM327.315 131.192C324.803 131.192 322.947 129.224 322.947 126.824V126.792C322.947 124.392 324.803 122.376 327.331 122.376C328.931 122.376 329.923 122.968 330.707 123.832L329.507 125.128C328.915 124.504 328.291 124.072 327.315 124.072C325.907 124.072 324.883 125.288 324.883 126.76V126.792C324.883 128.296 325.923 129.512 327.411 129.512C328.323 129.512 328.995 129.08 329.603 128.456L330.771 129.608C329.939 130.536 328.963 131.192 327.315 131.192ZM333.052 131V119.32H334.988V123.864C335.532 123.064 336.316 122.376 337.628 122.376C339.532 122.376 340.636 123.656 340.636 125.624V131H338.7V126.2C338.7 124.888 338.044 124.136 336.892 124.136C335.772 124.136 334.988 124.92 334.988 126.232V131H333.052Z" fill="#AFA9A0"/>
<rect x="275.75" y="154" width="93.75" height="3" fill="#D0D3D4"/>
</g>
<g clip-path="url(#clip3_503_3696)">
<rect x="369.5" y="154" width="93.75" height="3" fill="#D0D3D4"/>
</g>
<g clip-path="url(#clip4_503_3696)">
<rect x="463.25" y="154" width="93.75" height="3" fill="#D0D3D4"/>
</g>
<rect x="118.5" y="75.9983" width="1" height="42.6007" fill="#008574"/>
<rect x="108" y="54" width="22" height="22" rx="11" fill="#008574"/>
<path d="M118.603 70V62.244L116.993 62.622V61.25L119.359 60.2H120.465V70H118.603Z" fill="white"/>
<rect x="108" y="54" width="22" height="22" rx="11" stroke="white" stroke-width="2"/>
<rect x="222.5" y="75.9983" width="1" height="42.6007" fill="#008574"/>
<rect x="212" y="54" width="22" height="22" rx="11" fill="#008574"/>
<path d="M222.988 70.168C222.344 70.168 221.761 70.056 221.238 69.832C220.715 69.5987 220.295 69.244 219.978 68.768C219.661 68.292 219.493 67.6947 219.474 66.976H221.238C221.247 67.452 221.401 67.8533 221.7 68.18C222.008 68.4973 222.437 68.656 222.988 68.656C223.511 68.656 223.912 68.5113 224.192 68.222C224.472 67.9327 224.612 67.5687 224.612 67.13C224.612 66.6167 224.425 66.2293 224.052 65.968C223.688 65.6973 223.217 65.562 222.638 65.562H221.91V64.092H222.652C223.128 64.092 223.525 63.98 223.842 63.756C224.159 63.532 224.318 63.2007 224.318 62.762C224.318 62.398 224.197 62.1087 223.954 61.894C223.721 61.67 223.394 61.558 222.974 61.558C222.517 61.558 222.157 61.6933 221.896 61.964C221.644 62.2347 221.504 62.566 221.476 62.958H219.726C219.763 62.0527 220.076 61.3387 220.664 60.816C221.261 60.2933 222.031 60.032 222.974 60.032C223.646 60.032 224.211 60.1533 224.668 60.396C225.135 60.6293 225.485 60.942 225.718 61.334C225.961 61.726 226.082 62.16 226.082 62.636C226.082 63.1867 225.928 63.6533 225.62 64.036C225.321 64.4093 224.948 64.6613 224.5 64.792C225.051 64.904 225.499 65.1747 225.844 65.604C226.189 66.024 226.362 66.556 226.362 67.2C226.362 67.7413 226.231 68.236 225.97 68.684C225.709 69.132 225.326 69.4913 224.822 69.762C224.327 70.0327 223.716 70.168 222.988 70.168Z" fill="white"/>
<rect x="212" y="54" width="22" height="22" rx="11" stroke="white" stroke-width="2"/>
<rect x="149.5" y="156.998" width="1" height="42.6007" fill="#008574"/>
<rect x="139" y="200" width="22" height="22" rx="11" fill="#008574"/>
<path d="M146.715 216V214.698C147.312 214.203 147.891 213.713 148.451 213.228C149.02 212.743 149.524 212.262 149.963 211.786C150.411 211.31 150.766 210.848 151.027 210.4C151.298 209.943 151.433 209.499 151.433 209.07C151.433 208.669 151.321 208.314 151.097 208.006C150.882 207.698 150.523 207.544 150.019 207.544C149.506 207.544 149.118 207.712 148.857 208.048C148.596 208.384 148.465 208.79 148.465 209.266H146.729C146.748 208.547 146.906 207.95 147.205 207.474C147.504 206.989 147.9 206.629 148.395 206.396C148.89 206.153 149.445 206.032 150.061 206.032C151.06 206.032 151.834 206.307 152.385 206.858C152.945 207.399 153.225 208.104 153.225 208.972C153.225 209.513 153.099 210.041 152.847 210.554C152.604 211.067 152.282 211.562 151.881 212.038C151.48 212.514 151.046 212.962 150.579 213.382C150.112 213.793 149.66 214.175 149.221 214.53H153.463V216H146.715Z" fill="white"/>
<rect x="139" y="200" width="22" height="22" rx="11" stroke="white" stroke-width="2"/>
<rect x="408.5" y="156.998" width="1" height="42.6007" fill="#008574"/>
<rect x="398" y="200" width="22" height="22" rx="11" fill="#008574"/>
<path d="M409.948 216V214.18H405.118V212.752L409.71 206.2H411.74V212.626H413.028V214.18H411.74V216H409.948ZM407.036 212.626H410.06V208.174L407.036 212.626Z" fill="white"/>
<rect x="398" y="200" width="22" height="22" rx="11" stroke="white" stroke-width="2"/>
<defs>
<clipPath id="clip0_503_3696">
<rect width="93.75" height="54" fill="white" transform="translate(72 103)"/>
</clipPath>
<clipPath id="clip1_503_3696">
<rect width="110" height="54" fill="white" transform="translate(165.75 103)"/>
</clipPath>
<clipPath id="clip2_503_3696">
<rect width="93.75" height="54" fill="white" transform="translate(275.75 103)"/>
</clipPath>
<clipPath id="clip3_503_3696">
<rect width="93.75" height="54" fill="white" transform="translate(369.5 103)"/>
</clipPath>
<clipPath id="clip4_503_3696">
<rect width="93.75" height="54" fill="white" transform="translate(463.25 103)"/>
</clipPath>
</defs>
</svg>
