<svg width="966" height="274" viewBox="0 0 966 274" fill="none" xmlns="http://www.w3.org/2000/svg">
<rect width="966" height="274" fill="white"/>
<rect x="132.5" y="78.5" width="381" height="39" rx="3.5" fill="white"/>
<path d="M152.452 98.122L148.378 92.2H149.722L153.026 97.1L156.358 92.2H157.646L153.572 98.108V102H152.452V98.122ZM161.485 102.168C159.315 102.168 157.733 100.46 157.733 98.416V98.388C157.733 96.344 159.329 94.608 161.513 94.608C163.683 94.608 165.279 96.316 165.279 98.36V98.388C165.279 100.432 163.669 102.168 161.485 102.168ZM158.839 98.388C158.839 99.942 159.987 101.202 161.513 101.202C163.081 101.202 164.173 99.942 164.173 98.416V98.388C164.173 96.834 163.011 95.56 161.485 95.56C159.917 95.56 158.839 96.834 158.839 98.36V98.388ZM170.391 102.154C168.641 102.154 167.619 100.978 167.619 99.256V94.762H168.697V98.99C168.697 100.334 169.425 101.174 170.699 101.174C171.931 101.174 172.869 100.264 172.869 98.906V94.762H173.933V102H172.869V100.74C172.379 101.524 171.637 102.154 170.391 102.154ZM176.858 94.762H177.936V96.652C178.468 95.448 179.518 94.58 180.89 94.636V95.798H180.806C179.224 95.798 177.936 96.932 177.936 99.116V102H176.858V94.762ZM187.911 92.2H194.995V93.208H189.017V96.554H194.365V97.562H189.017V100.992H195.065V102H187.911V92.2ZM197.608 94.762H198.686V95.98C199.162 95.266 199.806 94.608 201.024 94.608C202.2 94.608 202.956 95.238 203.348 96.05C203.866 95.252 204.636 94.608 205.896 94.608C207.562 94.608 208.584 95.728 208.584 97.52V102H207.506V97.772C207.506 96.372 206.806 95.588 205.63 95.588C204.538 95.588 203.628 96.4 203.628 97.828V102H202.564V97.744C202.564 96.386 201.85 95.588 200.702 95.588C199.554 95.588 198.686 96.54 198.686 97.87V102H197.608V94.762ZM213.581 102.154C212.223 102.154 210.879 101.384 210.879 99.9V99.872C210.879 98.318 212.139 97.506 213.973 97.506C214.897 97.506 215.541 97.632 216.185 97.814V97.59C216.185 96.302 215.401 95.63 214.043 95.63C213.189 95.63 212.517 95.84 211.845 96.148L211.523 95.266C212.321 94.902 213.091 94.65 214.155 94.65C215.177 94.65 215.975 94.93 216.493 95.448C216.997 95.952 217.249 96.652 217.249 97.576V102H216.185V100.922C215.681 101.566 214.855 102.154 213.581 102.154ZM211.971 99.844C211.971 100.754 212.811 101.286 213.791 101.286C215.121 101.286 216.199 100.488 216.199 99.34V98.668C215.667 98.514 214.967 98.36 214.085 98.36C212.741 98.36 211.971 98.948 211.971 99.816V99.844ZM220.06 91.99H221.292V93.18H220.06V91.99ZM220.13 102V94.762H221.208V102H220.13ZM224.308 91.78H225.386V102H224.308V91.78Z" fill="#171717"/>
<rect x="132.5" y="78.5" width="381" height="39" rx="3.5" stroke="#002DA2"/>
<path d="M136.646 51.968H132.886V50.8H141.686V51.968H137.926V62H136.646V51.968ZM144.103 50.32H145.335V55.168C145.879 54.272 146.743 53.552 148.167 53.552C150.167 53.552 151.335 54.896 151.335 56.864V62H150.103V57.168C150.103 55.632 149.271 54.672 147.815 54.672C146.391 54.672 145.335 55.712 145.335 57.264V62H144.103V50.32ZM154.494 50.56H155.902V51.92H154.494V50.56ZM154.574 62V53.728H155.806V62H154.574ZM161.901 62.16C160.717 62.16 159.405 61.696 158.477 60.944L159.101 60.064C159.997 60.736 160.989 61.12 161.965 61.12C162.957 61.12 163.677 60.608 163.677 59.808V59.776C163.677 58.944 162.701 58.624 161.613 58.32C160.317 57.952 158.877 57.504 158.877 55.984V55.952C158.877 54.528 160.061 53.584 161.693 53.584C162.701 53.584 163.821 53.936 164.669 54.496L164.109 55.424C163.341 54.928 162.461 54.624 161.661 54.624C160.685 54.624 160.061 55.136 160.061 55.824V55.856C160.061 56.64 161.085 56.944 162.189 57.28C163.469 57.664 164.845 58.16 164.845 59.648V59.68C164.845 61.248 163.549 62.16 161.901 62.16ZM172.963 50.56H174.371V51.92H172.963V50.56ZM173.043 62V53.728H174.275V62H173.043ZM180.37 62.16C179.186 62.16 177.874 61.696 176.946 60.944L177.57 60.064C178.466 60.736 179.458 61.12 180.434 61.12C181.426 61.12 182.146 60.608 182.146 59.808V59.776C182.146 58.944 181.17 58.624 180.082 58.32C178.786 57.952 177.346 57.504 177.346 55.984V55.952C177.346 54.528 178.53 53.584 180.162 53.584C181.17 53.584 182.29 53.936 183.138 54.496L182.578 55.424C181.81 54.928 180.93 54.624 180.13 54.624C179.154 54.624 178.53 55.136 178.53 55.824V55.856C178.53 56.64 179.554 56.944 180.658 57.28C181.938 57.664 183.314 58.16 183.314 59.648V59.68C183.314 61.248 182.018 62.16 180.37 62.16ZM193.863 62.176C192.311 62.176 190.775 61.296 190.775 59.6V59.568C190.775 57.792 192.215 56.864 194.311 56.864C195.367 56.864 196.103 57.008 196.839 57.216V56.96C196.839 55.488 195.943 54.72 194.391 54.72C193.415 54.72 192.647 54.96 191.879 55.312L191.511 54.304C192.423 53.888 193.303 53.6 194.519 53.6C195.687 53.6 196.599 53.92 197.191 54.512C197.767 55.088 198.055 55.888 198.055 56.944V62H196.839V60.768C196.263 61.504 195.319 62.176 193.863 62.176ZM192.023 59.536C192.023 60.576 192.983 61.184 194.103 61.184C195.623 61.184 196.855 60.272 196.855 58.96V58.192C196.247 58.016 195.447 57.84 194.439 57.84C192.903 57.84 192.023 58.512 192.023 59.504V59.536ZM213.102 60.336C212.43 61.328 211.454 62.176 209.934 62.176C207.95 62.176 205.982 60.608 205.982 57.888V57.856C205.982 55.152 207.95 53.552 209.934 53.552C211.47 53.552 212.462 54.384 213.102 55.312V53.728H214.334V64.56H213.102V60.336ZM207.246 57.872C207.246 59.824 208.59 61.072 210.158 61.072C211.694 61.072 213.15 59.776 213.15 57.872V57.84C213.15 55.936 211.694 54.656 210.158 54.656C208.558 54.656 207.246 55.84 207.246 57.84V57.872ZM220.627 62.176C218.627 62.176 217.459 60.832 217.459 58.864V53.728H218.691V58.56C218.691 60.096 219.523 61.056 220.979 61.056C222.387 61.056 223.459 60.016 223.459 58.464V53.728H224.675V62H223.459V60.56C222.899 61.456 222.051 62.176 220.627 62.176ZM228.682 58.368C228.858 60.112 230.138 61.12 231.594 61.12C232.73 61.12 233.53 60.656 234.202 59.952L234.97 60.64C234.138 61.568 233.13 62.192 231.562 62.192C229.29 62.192 227.434 60.448 227.434 57.872C227.434 55.472 229.114 53.552 231.402 53.552C233.85 53.552 235.258 55.504 235.258 57.936C235.258 58.048 235.258 58.176 235.242 58.368H228.682ZM228.682 57.376H234.01C233.866 55.872 233.002 54.592 231.37 54.592C229.946 54.592 228.858 55.776 228.682 57.376ZM240.651 62.16C239.467 62.16 238.155 61.696 237.227 60.944L237.851 60.064C238.747 60.736 239.739 61.12 240.715 61.12C241.707 61.12 242.427 60.608 242.427 59.808V59.776C242.427 58.944 241.451 58.624 240.363 58.32C239.067 57.952 237.627 57.504 237.627 55.984V55.952C237.627 54.528 238.811 53.584 240.443 53.584C241.451 53.584 242.571 53.936 243.419 54.496L242.859 55.424C242.091 54.928 241.211 54.624 240.411 54.624C239.435 54.624 238.811 55.136 238.811 55.824V55.856C238.811 56.64 239.835 56.944 240.939 57.28C242.219 57.664 243.595 58.16 243.595 59.648V59.68C243.595 61.248 242.299 62.16 240.651 62.16ZM248.996 62.144C247.668 62.144 246.66 61.488 246.66 59.808V54.816H245.508V53.728H246.66V51.232H247.892V53.728H250.516V54.816H247.892V59.648C247.892 60.656 248.452 61.024 249.284 61.024C249.7 61.024 250.052 60.944 250.484 60.736V61.792C250.052 62.016 249.588 62.144 248.996 62.144ZM253.228 50.56H254.636V51.92H253.228V50.56ZM253.308 62V53.728H254.54V62H253.308ZM261.675 62.192C259.195 62.192 257.387 60.24 257.387 57.904V57.872C257.387 55.536 259.211 53.552 261.707 53.552C264.187 53.552 266.011 55.504 266.011 57.84V57.872C266.011 60.208 264.171 62.192 261.675 62.192ZM258.651 57.872C258.651 59.648 259.963 61.088 261.707 61.088C263.499 61.088 264.747 59.648 264.747 57.904V57.872C264.747 56.096 263.419 54.64 261.675 54.64C259.883 54.64 258.651 56.096 258.651 57.84V57.872ZM268.743 53.728H269.975V55.168C270.519 54.272 271.383 53.552 272.807 53.552C274.807 53.552 275.975 54.896 275.975 56.864V62H274.743V57.168C274.743 55.632 273.911 54.672 272.455 54.672C271.031 54.672 269.975 55.712 269.975 57.264V62H268.743V53.728Z" fill="black"/>
<path d="M286.207 53.648L284.559 54.816L284.127 54.064L285.983 53.216L284.127 52.352L284.559 51.616L286.207 52.768L286.047 50.768H286.879L286.719 52.768L288.367 51.616L288.799 52.352L286.943 53.216L288.799 54.064L288.367 54.816L286.719 53.648L286.879 55.648H286.047L286.207 53.648Z" fill="#CB0003"/>
<rect x="564.5" y="78.5" width="381" height="39" rx="3.5" fill="#FAE6E6"/>
<path d="M584.452 98.122L580.378 92.2H581.722L585.026 97.1L588.358 92.2H589.646L585.572 98.108V102H584.452V98.122ZM593.485 102.168C591.315 102.168 589.733 100.46 589.733 98.416V98.388C589.733 96.344 591.329 94.608 593.513 94.608C595.683 94.608 597.279 96.316 597.279 98.36V98.388C597.279 100.432 595.669 102.168 593.485 102.168ZM590.839 98.388C590.839 99.942 591.987 101.202 593.513 101.202C595.081 101.202 596.173 99.942 596.173 98.416V98.388C596.173 96.834 595.011 95.56 593.485 95.56C591.917 95.56 590.839 96.834 590.839 98.36V98.388ZM602.391 102.154C600.641 102.154 599.619 100.978 599.619 99.256V94.762H600.697V98.99C600.697 100.334 601.425 101.174 602.699 101.174C603.931 101.174 604.869 100.264 604.869 98.906V94.762H605.933V102H604.869V100.74C604.379 101.524 603.637 102.154 602.391 102.154ZM608.858 94.762H609.936V96.652C610.468 95.448 611.518 94.58 612.89 94.636V95.798H612.806C611.224 95.798 609.936 96.932 609.936 99.116V102H608.858V94.762ZM619.911 92.2H626.995V93.208H621.017V96.554H626.365V97.562H621.017V100.992H627.065V102H619.911V92.2ZM629.608 94.762H630.686V95.98C631.162 95.266 631.806 94.608 633.024 94.608C634.2 94.608 634.956 95.238 635.348 96.05C635.866 95.252 636.636 94.608 637.896 94.608C639.562 94.608 640.584 95.728 640.584 97.52V102H639.506V97.772C639.506 96.372 638.806 95.588 637.63 95.588C636.538 95.588 635.628 96.4 635.628 97.828V102H634.564V97.744C634.564 96.386 633.85 95.588 632.702 95.588C631.554 95.588 630.686 96.54 630.686 97.87V102H629.608V94.762ZM645.581 102.154C644.223 102.154 642.879 101.384 642.879 99.9V99.872C642.879 98.318 644.139 97.506 645.973 97.506C646.897 97.506 647.541 97.632 648.185 97.814V97.59C648.185 96.302 647.401 95.63 646.043 95.63C645.189 95.63 644.517 95.84 643.845 96.148L643.523 95.266C644.321 94.902 645.091 94.65 646.155 94.65C647.177 94.65 647.975 94.93 648.493 95.448C648.997 95.952 649.249 96.652 649.249 97.576V102H648.185V100.922C647.681 101.566 646.855 102.154 645.581 102.154ZM643.971 99.844C643.971 100.754 644.811 101.286 645.791 101.286C647.121 101.286 648.199 100.488 648.199 99.34V98.668C647.667 98.514 646.967 98.36 646.085 98.36C644.741 98.36 643.971 98.948 643.971 99.816V99.844ZM652.06 91.99H653.292V93.18H652.06V91.99ZM652.13 102V94.762H653.208V102H652.13ZM656.308 91.78H657.386V102H656.308V91.78Z" fill="#707070"/>
<rect x="564.5" y="78.5" width="381" height="39" rx="3.5" stroke="#7A7266"/>
<circle cx="588" cy="131" r="8" fill="white"/>
<path d="M588 123.4C592.191 123.4 595.6 126.809 595.6 131C595.6 135.191 592.191 138.6 588 138.6C583.809 138.6 580.4 135.191 580.4 131C580.4 126.809 583.809 123.4 588 123.4ZM588 133.764C587.771 133.764 587.551 133.855 587.389 134.017C587.227 134.179 587.136 134.399 587.136 134.628C587.136 134.857 587.228 135.077 587.39 135.239C587.552 135.401 587.771 135.492 588.001 135.492C588.114 135.491 588.226 135.469 588.331 135.426C588.436 135.382 588.531 135.319 588.611 135.238C588.691 135.158 588.755 135.063 588.798 134.958C588.842 134.853 588.864 134.741 588.864 134.627C588.864 134.514 588.842 134.402 588.798 134.297C588.755 134.192 588.691 134.097 588.611 134.017C588.531 133.936 588.435 133.873 588.331 133.829C588.226 133.786 588.113 133.764 588 133.764ZM588.69 126.509H587.31V132.036H588.69V126.509Z" fill="#CB0003"/>
<path d="M605.936 135.168C602.954 135.168 600.952 132.83 600.952 130.128V130.1C600.952 127.398 602.982 125.032 605.964 125.032C608.946 125.032 610.948 127.37 610.948 130.072V130.1C610.948 132.802 608.918 135.168 605.936 135.168ZM602.1 130.1C602.1 132.326 603.724 134.146 605.964 134.146C608.204 134.146 609.8 132.354 609.8 130.128V130.1C609.8 127.874 608.176 126.054 605.936 126.054C603.696 126.054 602.1 127.846 602.1 130.072V130.1ZM616.903 135.168C614.733 135.168 613.151 133.46 613.151 131.416V131.388C613.151 129.344 614.747 127.608 616.931 127.608C619.101 127.608 620.697 129.316 620.697 131.36V131.388C620.697 133.432 619.087 135.168 616.903 135.168ZM614.257 131.388C614.257 132.942 615.405 134.202 616.931 134.202C618.499 134.202 619.591 132.942 619.591 131.416V131.388C619.591 129.834 618.429 128.56 616.903 128.56C615.335 128.56 614.257 129.834 614.257 131.36V131.388ZM623.149 127.762H624.227V129.218C624.815 128.35 625.669 127.608 626.999 127.608C628.735 127.608 630.457 128.98 630.457 131.36V131.388C630.457 133.754 628.749 135.154 626.999 135.154C625.655 135.154 624.787 134.426 624.227 133.614V137.24H623.149V127.762ZM624.185 131.388C624.185 133.068 625.459 134.188 626.803 134.188C628.203 134.188 629.351 133.152 629.351 131.402V131.374C629.351 129.666 628.175 128.574 626.803 128.574C625.459 128.574 624.185 129.708 624.185 131.36V131.388ZM635.34 135.14C634.304 135.14 633.156 134.734 632.344 134.076L632.89 133.306C633.674 133.894 634.542 134.23 635.396 134.23C636.264 134.23 636.894 133.782 636.894 133.082V133.054C636.894 132.326 636.04 132.046 635.088 131.78C633.954 131.458 632.694 131.066 632.694 129.736V129.708C632.694 128.462 633.73 127.636 635.158 127.636C636.04 127.636 637.02 127.944 637.762 128.434L637.272 129.246C636.6 128.812 635.83 128.546 635.13 128.546C634.276 128.546 633.73 128.994 633.73 129.596V129.624C633.73 130.31 634.626 130.576 635.592 130.87C636.712 131.206 637.916 131.64 637.916 132.942V132.97C637.916 134.342 636.782 135.14 635.34 135.14ZM647.51 135.14C646.474 135.14 645.326 134.734 644.514 134.076L645.06 133.306C645.844 133.894 646.712 134.23 647.566 134.23C648.434 134.23 649.064 133.782 649.064 133.082V133.054C649.064 132.326 648.21 132.046 647.258 131.78C646.124 131.458 644.864 131.066 644.864 129.736V129.708C644.864 128.462 645.9 127.636 647.328 127.636C648.21 127.636 649.19 127.944 649.932 128.434L649.442 129.246C648.77 128.812 648 128.546 647.3 128.546C646.446 128.546 645.9 128.994 645.9 129.596V129.624C645.9 130.31 646.796 130.576 647.762 130.87C648.882 131.206 650.086 131.64 650.086 132.942V132.97C650.086 134.342 648.952 135.14 647.51 135.14ZM655.893 135.168C653.723 135.168 652.141 133.46 652.141 131.416V131.388C652.141 129.344 653.737 127.608 655.921 127.608C658.091 127.608 659.687 129.316 659.687 131.36V131.388C659.687 133.432 658.077 135.168 655.893 135.168ZM653.247 131.388C653.247 132.942 654.395 134.202 655.921 134.202C657.489 134.202 658.581 132.942 658.581 131.416V131.388C658.581 129.834 657.419 128.56 655.893 128.56C654.325 128.56 653.247 129.834 653.247 131.36V131.388ZM662.14 127.762H663.218V128.98C663.694 128.266 664.338 127.608 665.556 127.608C666.732 127.608 667.488 128.238 667.88 129.05C668.398 128.252 669.168 127.608 670.428 127.608C672.094 127.608 673.116 128.728 673.116 130.52V135H672.038V130.772C672.038 129.372 671.338 128.588 670.162 128.588C669.07 128.588 668.16 129.4 668.16 130.828V135H667.096V130.744C667.096 129.386 666.382 128.588 665.234 128.588C664.086 128.588 663.218 129.54 663.218 130.87V135H662.14V127.762ZM676.6 131.822C676.754 133.348 677.874 134.23 679.148 134.23C680.142 134.23 680.842 133.824 681.43 133.208L682.102 133.81C681.374 134.622 680.492 135.168 679.12 135.168C677.132 135.168 675.508 133.642 675.508 131.388C675.508 129.288 676.978 127.608 678.98 127.608C681.122 127.608 682.354 129.316 682.354 131.444C682.354 131.542 682.354 131.654 682.34 131.822H676.6ZM676.6 130.954H681.262C681.136 129.638 680.38 128.518 678.952 128.518C677.706 128.518 676.754 129.554 676.6 130.954ZM687.163 135.126C686.001 135.126 685.119 134.552 685.119 133.082V128.714H684.111V127.762H685.119V125.578H686.197V127.762H688.493V128.714H686.197V132.942C686.197 133.824 686.687 134.146 687.415 134.146C687.779 134.146 688.087 134.076 688.465 133.894V134.818C688.087 135.014 687.681 135.126 687.163 135.126ZM690.901 124.78H691.979V129.022C692.455 128.238 693.211 127.608 694.457 127.608C696.207 127.608 697.229 128.784 697.229 130.506V135H696.151V130.772C696.151 129.428 695.423 128.588 694.149 128.588C692.903 128.588 691.979 129.498 691.979 130.856V135H690.901V124.78ZM700.056 124.99H701.288V126.18H700.056V124.99ZM700.126 135V127.762H701.204V135H700.126ZM704.206 127.762H705.284V129.022C705.76 128.238 706.516 127.608 707.762 127.608C709.512 127.608 710.534 128.784 710.534 130.506V135H709.456V130.772C709.456 129.428 708.728 128.588 707.454 128.588C706.208 128.588 705.284 129.498 705.284 130.856V135H704.206V127.762ZM716.539 137.268C715.335 137.268 714.215 136.932 713.249 136.26L713.739 135.42C714.565 136.022 715.489 136.344 716.525 136.344C718.121 136.344 719.157 135.462 719.157 133.768V132.914C718.527 133.754 717.645 134.44 716.315 134.44C714.579 134.44 712.913 133.138 712.913 131.052V131.024C712.913 128.91 714.593 127.608 716.315 127.608C717.673 127.608 718.555 128.28 719.143 129.064V127.762H720.221V133.74C720.221 134.86 719.885 135.714 719.297 136.302C718.653 136.946 717.687 137.268 716.539 137.268ZM714.019 131.024C714.019 132.48 715.181 133.488 716.525 133.488C717.897 133.488 719.185 132.494 719.185 131.038V131.01C719.185 129.526 717.897 128.56 716.525 128.56C715.153 128.56 714.019 129.512 714.019 130.996V131.024ZM727.211 127.762H728.359L730.263 133.572L732.209 127.734H733.105L735.065 133.572L736.969 127.762H738.089L735.541 135.056H734.603L732.657 129.344L730.697 135.056H729.745L727.211 127.762ZM740.674 131.822C740.828 133.348 741.948 134.23 743.222 134.23C744.216 134.23 744.916 133.824 745.504 133.208L746.176 133.81C745.448 134.622 744.566 135.168 743.194 135.168C741.206 135.168 739.582 133.642 739.582 131.388C739.582 129.288 741.052 127.608 743.054 127.608C745.196 127.608 746.428 129.316 746.428 131.444C746.428 131.542 746.428 131.654 746.414 131.822H740.674ZM740.674 130.954H745.336C745.21 129.638 744.454 128.518 743.026 128.518C741.78 128.518 740.828 129.554 740.674 130.954ZM748.815 127.762H749.893V129.022C750.369 128.238 751.125 127.608 752.371 127.608C754.121 127.608 755.143 128.784 755.143 130.506V135H754.065V130.772C754.065 129.428 753.337 128.588 752.063 128.588C750.817 128.588 749.893 129.498 749.893 130.856V135H748.815V127.762ZM760.364 135.126C759.202 135.126 758.32 134.552 758.32 133.082V128.714H757.312V127.762H758.32V125.578H759.398V127.762H761.694V128.714H759.398V132.942C759.398 133.824 759.888 134.146 760.616 134.146C760.98 134.146 761.288 134.076 761.666 133.894V134.818C761.288 135.014 760.882 135.126 760.364 135.126ZM768.184 127.762H769.332L771.236 133.572L773.182 127.734H774.078L776.038 133.572L777.942 127.762H779.062L776.514 135.056H775.576L773.63 129.344L771.67 135.056H770.718L768.184 127.762ZM781.358 127.762H782.436V129.652C782.968 128.448 784.018 127.58 785.39 127.636V128.798H785.306C783.724 128.798 782.436 129.932 782.436 132.116V135H781.358V127.762ZM790.522 135.168C788.352 135.168 786.77 133.46 786.77 131.416V131.388C786.77 129.344 788.366 127.608 790.55 127.608C792.72 127.608 794.316 129.316 794.316 131.36V131.388C794.316 133.432 792.706 135.168 790.522 135.168ZM787.876 131.388C787.876 132.942 789.024 134.202 790.55 134.202C792.118 134.202 793.21 132.942 793.21 131.416V131.388C793.21 129.834 792.048 128.56 790.522 128.56C788.954 128.56 787.876 129.834 787.876 131.36V131.388ZM796.768 127.762H797.846V129.022C798.322 128.238 799.078 127.608 800.324 127.608C802.074 127.608 803.096 128.784 803.096 130.506V135H802.018V130.772C802.018 129.428 801.29 128.588 800.016 128.588C798.77 128.588 797.846 129.498 797.846 130.856V135H796.768V127.762ZM809.101 137.268C807.897 137.268 806.777 136.932 805.811 136.26L806.301 135.42C807.127 136.022 808.051 136.344 809.087 136.344C810.683 136.344 811.719 135.462 811.719 133.768V132.914C811.089 133.754 810.207 134.44 808.877 134.44C807.141 134.44 805.475 133.138 805.475 131.052V131.024C805.475 128.91 807.155 127.608 808.877 127.608C810.235 127.608 811.117 128.28 811.705 129.064V127.762H812.783V133.74C812.783 134.86 812.447 135.714 811.859 136.302C811.215 136.946 810.249 137.268 809.101 137.268ZM806.581 131.024C806.581 132.48 807.743 133.488 809.087 133.488C810.459 133.488 811.747 132.494 811.747 131.038V131.01C811.747 129.526 810.459 128.56 809.087 128.56C807.715 128.56 806.581 129.512 806.581 130.996V131.024ZM820.264 133.53H821.552V135H820.264V133.53ZM824.195 133.53H825.483V135H824.195V133.53ZM828.127 133.53H829.415V135H828.127V133.53Z" fill="#CB0003"/>
<path d="M568.646 51.968H564.886V50.8H573.686V51.968H569.926V62H568.646V51.968ZM576.103 50.32H577.335V55.168C577.879 54.272 578.743 53.552 580.167 53.552C582.167 53.552 583.335 54.896 583.335 56.864V62H582.103V57.168C582.103 55.632 581.271 54.672 579.815 54.672C578.391 54.672 577.335 55.712 577.335 57.264V62H576.103V50.32ZM586.494 50.56H587.902V51.92H586.494V50.56ZM586.574 62V53.728H587.806V62H586.574ZM593.901 62.16C592.717 62.16 591.405 61.696 590.477 60.944L591.101 60.064C591.997 60.736 592.989 61.12 593.965 61.12C594.957 61.12 595.677 60.608 595.677 59.808V59.776C595.677 58.944 594.701 58.624 593.613 58.32C592.317 57.952 590.877 57.504 590.877 55.984V55.952C590.877 54.528 592.061 53.584 593.693 53.584C594.701 53.584 595.821 53.936 596.669 54.496L596.109 55.424C595.341 54.928 594.461 54.624 593.661 54.624C592.685 54.624 592.061 55.136 592.061 55.824V55.856C592.061 56.64 593.085 56.944 594.189 57.28C595.469 57.664 596.845 58.16 596.845 59.648V59.68C596.845 61.248 595.549 62.16 593.901 62.16ZM604.963 50.56H606.371V51.92H604.963V50.56ZM605.043 62V53.728H606.275V62H605.043ZM612.37 62.16C611.186 62.16 609.874 61.696 608.946 60.944L609.57 60.064C610.466 60.736 611.458 61.12 612.434 61.12C613.426 61.12 614.146 60.608 614.146 59.808V59.776C614.146 58.944 613.17 58.624 612.082 58.32C610.786 57.952 609.346 57.504 609.346 55.984V55.952C609.346 54.528 610.53 53.584 612.162 53.584C613.17 53.584 614.29 53.936 615.138 54.496L614.578 55.424C613.81 54.928 612.93 54.624 612.13 54.624C611.154 54.624 610.53 55.136 610.53 55.824V55.856C610.53 56.64 611.554 56.944 612.658 57.28C613.938 57.664 615.314 58.16 615.314 59.648V59.68C615.314 61.248 614.018 62.16 612.37 62.16ZM625.863 62.176C624.311 62.176 622.775 61.296 622.775 59.6V59.568C622.775 57.792 624.215 56.864 626.311 56.864C627.367 56.864 628.103 57.008 628.839 57.216V56.96C628.839 55.488 627.943 54.72 626.391 54.72C625.415 54.72 624.647 54.96 623.879 55.312L623.511 54.304C624.423 53.888 625.303 53.6 626.519 53.6C627.687 53.6 628.599 53.92 629.191 54.512C629.767 55.088 630.055 55.888 630.055 56.944V62H628.839V60.768C628.263 61.504 627.319 62.176 625.863 62.176ZM624.023 59.536C624.023 60.576 624.983 61.184 626.103 61.184C627.623 61.184 628.855 60.272 628.855 58.96V58.192C628.247 58.016 627.447 57.84 626.439 57.84C624.903 57.84 624.023 58.512 624.023 59.504V59.536ZM645.102 60.336C644.43 61.328 643.454 62.176 641.934 62.176C639.95 62.176 637.982 60.608 637.982 57.888V57.856C637.982 55.152 639.95 53.552 641.934 53.552C643.47 53.552 644.462 54.384 645.102 55.312V53.728H646.334V64.56H645.102V60.336ZM639.246 57.872C639.246 59.824 640.59 61.072 642.158 61.072C643.694 61.072 645.15 59.776 645.15 57.872V57.84C645.15 55.936 643.694 54.656 642.158 54.656C640.558 54.656 639.246 55.84 639.246 57.84V57.872ZM652.627 62.176C650.627 62.176 649.459 60.832 649.459 58.864V53.728H650.691V58.56C650.691 60.096 651.523 61.056 652.979 61.056C654.387 61.056 655.459 60.016 655.459 58.464V53.728H656.675V62H655.459V60.56C654.899 61.456 654.051 62.176 652.627 62.176ZM660.682 58.368C660.858 60.112 662.138 61.12 663.594 61.12C664.73 61.12 665.53 60.656 666.202 59.952L666.97 60.64C666.138 61.568 665.13 62.192 663.562 62.192C661.29 62.192 659.434 60.448 659.434 57.872C659.434 55.472 661.114 53.552 663.402 53.552C665.85 53.552 667.258 55.504 667.258 57.936C667.258 58.048 667.258 58.176 667.242 58.368H660.682ZM660.682 57.376H666.01C665.866 55.872 665.002 54.592 663.37 54.592C661.946 54.592 660.858 55.776 660.682 57.376ZM672.651 62.16C671.467 62.16 670.155 61.696 669.227 60.944L669.851 60.064C670.747 60.736 671.739 61.12 672.715 61.12C673.707 61.12 674.427 60.608 674.427 59.808V59.776C674.427 58.944 673.451 58.624 672.363 58.32C671.067 57.952 669.627 57.504 669.627 55.984V55.952C669.627 54.528 670.811 53.584 672.443 53.584C673.451 53.584 674.571 53.936 675.419 54.496L674.859 55.424C674.091 54.928 673.211 54.624 672.411 54.624C671.435 54.624 670.811 55.136 670.811 55.824V55.856C670.811 56.64 671.835 56.944 672.939 57.28C674.219 57.664 675.595 58.16 675.595 59.648V59.68C675.595 61.248 674.299 62.16 672.651 62.16ZM680.996 62.144C679.668 62.144 678.66 61.488 678.66 59.808V54.816H677.508V53.728H678.66V51.232H679.892V53.728H682.516V54.816H679.892V59.648C679.892 60.656 680.452 61.024 681.284 61.024C681.7 61.024 682.052 60.944 682.484 60.736V61.792C682.052 62.016 681.588 62.144 680.996 62.144ZM685.228 50.56H686.636V51.92H685.228V50.56ZM685.308 62V53.728H686.54V62H685.308ZM693.675 62.192C691.195 62.192 689.387 60.24 689.387 57.904V57.872C689.387 55.536 691.211 53.552 693.707 53.552C696.187 53.552 698.011 55.504 698.011 57.84V57.872C698.011 60.208 696.171 62.192 693.675 62.192ZM690.651 57.872C690.651 59.648 691.963 61.088 693.707 61.088C695.499 61.088 696.747 59.648 696.747 57.904V57.872C696.747 56.096 695.419 54.64 693.675 54.64C691.883 54.64 690.651 56.096 690.651 57.84V57.872ZM700.743 53.728H701.975V55.168C702.519 54.272 703.383 53.552 704.807 53.552C706.807 53.552 707.975 54.896 707.975 56.864V62H706.743V57.168C706.743 55.632 705.911 54.672 704.455 54.672C703.031 54.672 701.975 55.712 701.975 57.264V62H700.743V53.728Z" fill="black"/>
<path d="M718.207 53.648L716.559 54.816L716.127 54.064L717.983 53.216L716.127 52.352L716.559 51.616L718.207 52.768L718.047 50.768H718.879L718.719 52.768L720.367 51.616L720.799 52.352L718.943 53.216L720.799 54.064L720.367 54.816L718.719 53.648L718.879 55.648H718.047L718.207 53.648Z" fill="#CB0003"/>
<rect x="35" y="59" width="1" height="96.6007" transform="rotate(-90 35 59)" fill="#008574"/>
<rect x="13" y="47.2004" width="22" height="22" rx="11" fill="#008574"/>
<path d="M23.6029 63.2004V55.4444L21.9929 55.8224V54.4504L24.3589 53.4004H25.4649V63.2004H23.6029Z" fill="white"/>
<rect x="13" y="47.2004" width="22" height="22" rx="11" stroke="white" stroke-width="2"/>
<rect x="55" y="99" width="1" height="96.6007" transform="rotate(-90 55 99)" fill="#008574"/>
<rect x="33" y="87.2004" width="22" height="22" rx="11" fill="#008574"/>
<path d="M40.715 103.2V101.898C41.3123 101.404 41.891 100.914 42.451 100.428C43.0203 99.9431 43.5243 99.4624 43.963 98.9864C44.411 98.5104 44.7656 98.0484 45.027 97.6004C45.2976 97.1431 45.433 96.6998 45.433 96.2704C45.433 95.8691 45.321 95.5144 45.097 95.2064C44.8823 94.8984 44.523 94.7444 44.019 94.7444C43.5056 94.7444 43.1183 94.9124 42.857 95.2484C42.5956 95.5844 42.465 95.9904 42.465 96.4664H40.729C40.7476 95.7478 40.9063 95.1504 41.205 94.6744C41.5036 94.1891 41.9003 93.8298 42.395 93.5964C42.8896 93.3538 43.445 93.2324 44.061 93.2324C45.0596 93.2324 45.8343 93.5078 46.385 94.0584C46.945 94.5998 47.225 95.3044 47.225 96.1724C47.225 96.7138 47.099 97.2411 46.847 97.7544C46.6043 98.2678 46.2823 98.7624 45.881 99.2384C45.4796 99.7144 45.0456 100.162 44.579 100.582C44.1123 100.993 43.6596 101.376 43.221 101.73H47.463V103.2H40.715Z" fill="white"/>
<rect x="33" y="87.2004" width="22" height="22" rx="11" stroke="white" stroke-width="2"/>
<rect x="651.5" y="141.998" width="1" height="63.6007" fill="#008574"/>
<rect x="641" y="206" width="22" height="22" rx="11" fill="#008574"/>
<path d="M651.988 222.168C651.344 222.168 650.761 222.056 650.238 221.832C649.715 221.599 649.295 221.244 648.978 220.768C648.661 220.292 648.493 219.695 648.474 218.976H650.238C650.247 219.452 650.401 219.853 650.7 220.18C651.008 220.497 651.437 220.656 651.988 220.656C652.511 220.656 652.912 220.511 653.192 220.222C653.472 219.933 653.612 219.569 653.612 219.13C653.612 218.617 653.425 218.229 653.052 217.968C652.688 217.697 652.217 217.562 651.638 217.562H650.91V216.092H651.652C652.128 216.092 652.525 215.98 652.842 215.756C653.159 215.532 653.318 215.201 653.318 214.762C653.318 214.398 653.197 214.109 652.954 213.894C652.721 213.67 652.394 213.558 651.974 213.558C651.517 213.558 651.157 213.693 650.896 213.964C650.644 214.235 650.504 214.566 650.476 214.958H648.726C648.763 214.053 649.076 213.339 649.664 212.816C650.261 212.293 651.031 212.032 651.974 212.032C652.646 212.032 653.211 212.153 653.668 212.396C654.135 212.629 654.485 212.942 654.718 213.334C654.961 213.726 655.082 214.16 655.082 214.636C655.082 215.187 654.928 215.653 654.62 216.036C654.321 216.409 653.948 216.661 653.5 216.792C654.051 216.904 654.499 217.175 654.844 217.604C655.189 218.024 655.362 218.556 655.362 219.2C655.362 219.741 655.231 220.236 654.97 220.684C654.709 221.132 654.326 221.491 653.822 221.762C653.327 222.033 652.716 222.168 651.988 222.168Z" fill="white"/>
<rect x="641" y="206" width="22" height="22" rx="11" stroke="white" stroke-width="2"/>
</svg>
