<svg width="1000" height="262" viewBox="0 0 1000 262" fill="none" xmlns="http://www.w3.org/2000/svg">
<rect width="1000" height="262" fill="white"/>
<rect x="34" y="32" width="1" height="71.6007" transform="rotate(-90 34 32)" fill="#008574"/>
<rect x="12" y="20.2004" width="22" height="22" rx="11" fill="#008574"/>
<path d="M22.6029 36.2004V28.4444L20.9929 28.8224V27.4504L23.3589 26.4004H24.4649V36.2004H22.6029Z" fill="white"/>
<rect x="12" y="20.2004" width="22" height="22" rx="11" stroke="white" stroke-width="2"/>
<path d="M104.646 24.968H100.886V23.8H109.686V24.968H105.926V35H104.646V24.968ZM112.103 23.32H113.335V28.168C113.879 27.272 114.743 26.552 116.167 26.552C118.167 26.552 119.335 27.896 119.335 29.864V35H118.103V30.168C118.103 28.632 117.271 27.672 115.815 27.672C114.391 27.672 113.335 28.712 113.335 30.264V35H112.103V23.32ZM122.494 23.56H123.902V24.92H122.494V23.56ZM122.574 35V26.728H123.806V35H122.574ZM129.901 35.16C128.717 35.16 127.405 34.696 126.477 33.944L127.101 33.064C127.997 33.736 128.989 34.12 129.965 34.12C130.957 34.12 131.677 33.608 131.677 32.808V32.776C131.677 31.944 130.701 31.624 129.613 31.32C128.317 30.952 126.877 30.504 126.877 28.984V28.952C126.877 27.528 128.061 26.584 129.693 26.584C130.701 26.584 131.821 26.936 132.669 27.496L132.109 28.424C131.341 27.928 130.461 27.624 129.661 27.624C128.685 27.624 128.061 28.136 128.061 28.824V28.856C128.061 29.64 129.085 29.944 130.189 30.28C131.469 30.664 132.845 31.16 132.845 32.648V32.68C132.845 34.248 131.549 35.16 129.901 35.16ZM140.963 23.56H142.371V24.92H140.963V23.56ZM141.043 35V26.728H142.275V35H141.043ZM148.37 35.16C147.186 35.16 145.874 34.696 144.946 33.944L145.57 33.064C146.466 33.736 147.458 34.12 148.434 34.12C149.426 34.12 150.146 33.608 150.146 32.808V32.776C150.146 31.944 149.17 31.624 148.082 31.32C146.786 30.952 145.346 30.504 145.346 28.984V28.952C145.346 27.528 146.53 26.584 148.162 26.584C149.17 26.584 150.29 26.936 151.138 27.496L150.578 28.424C149.81 27.928 148.93 27.624 148.13 27.624C147.154 27.624 146.53 28.136 146.53 28.824V28.856C146.53 29.64 147.554 29.944 148.658 30.28C149.938 30.664 151.314 31.16 151.314 32.648V32.68C151.314 34.248 150.018 35.16 148.37 35.16ZM161.863 35.176C160.311 35.176 158.775 34.296 158.775 32.6V32.568C158.775 30.792 160.215 29.864 162.311 29.864C163.367 29.864 164.103 30.008 164.839 30.216V29.96C164.839 28.488 163.943 27.72 162.391 27.72C161.415 27.72 160.647 27.96 159.879 28.312L159.511 27.304C160.423 26.888 161.303 26.6 162.519 26.6C163.687 26.6 164.599 26.92 165.191 27.512C165.767 28.088 166.055 28.888 166.055 29.944V35H164.839V33.768C164.263 34.504 163.319 35.176 161.863 35.176ZM160.023 32.536C160.023 33.576 160.983 34.184 162.103 34.184C163.623 34.184 164.855 33.272 164.855 31.96V31.192C164.247 31.016 163.447 30.84 162.439 30.84C160.903 30.84 160.023 31.512 160.023 32.504V32.536ZM181.102 33.336C180.43 34.328 179.454 35.176 177.934 35.176C175.95 35.176 173.982 33.608 173.982 30.888V30.856C173.982 28.152 175.95 26.552 177.934 26.552C179.47 26.552 180.462 27.384 181.102 28.312V26.728H182.334V37.56H181.102V33.336ZM175.246 30.872C175.246 32.824 176.59 34.072 178.158 34.072C179.694 34.072 181.15 32.776 181.15 30.872V30.84C181.15 28.936 179.694 27.656 178.158 27.656C176.558 27.656 175.246 28.84 175.246 30.84V30.872ZM188.627 35.176C186.627 35.176 185.459 33.832 185.459 31.864V26.728H186.691V31.56C186.691 33.096 187.523 34.056 188.979 34.056C190.387 34.056 191.459 33.016 191.459 31.464V26.728H192.675V35H191.459V33.56C190.899 34.456 190.051 35.176 188.627 35.176ZM196.682 31.368C196.858 33.112 198.138 34.12 199.594 34.12C200.73 34.12 201.53 33.656 202.202 32.952L202.97 33.64C202.138 34.568 201.13 35.192 199.562 35.192C197.29 35.192 195.434 33.448 195.434 30.872C195.434 28.472 197.114 26.552 199.402 26.552C201.85 26.552 203.258 28.504 203.258 30.936C203.258 31.048 203.258 31.176 203.242 31.368H196.682ZM196.682 30.376H202.01C201.866 28.872 201.002 27.592 199.37 27.592C197.946 27.592 196.858 28.776 196.682 30.376ZM208.651 35.16C207.467 35.16 206.155 34.696 205.227 33.944L205.851 33.064C206.747 33.736 207.739 34.12 208.715 34.12C209.707 34.12 210.427 33.608 210.427 32.808V32.776C210.427 31.944 209.451 31.624 208.363 31.32C207.067 30.952 205.627 30.504 205.627 28.984V28.952C205.627 27.528 206.811 26.584 208.443 26.584C209.451 26.584 210.571 26.936 211.419 27.496L210.859 28.424C210.091 27.928 209.211 27.624 208.411 27.624C207.435 27.624 206.811 28.136 206.811 28.824V28.856C206.811 29.64 207.835 29.944 208.939 30.28C210.219 30.664 211.595 31.16 211.595 32.648V32.68C211.595 34.248 210.299 35.16 208.651 35.16ZM216.996 35.144C215.668 35.144 214.66 34.488 214.66 32.808V27.816H213.508V26.728H214.66V24.232H215.892V26.728H218.516V27.816H215.892V32.648C215.892 33.656 216.452 34.024 217.284 34.024C217.7 34.024 218.052 33.944 218.484 33.736V34.792C218.052 35.016 217.588 35.144 216.996 35.144ZM221.228 23.56H222.636V24.92H221.228V23.56ZM221.308 35V26.728H222.54V35H221.308ZM229.675 35.192C227.195 35.192 225.387 33.24 225.387 30.904V30.872C225.387 28.536 227.211 26.552 229.707 26.552C232.187 26.552 234.011 28.504 234.011 30.84V30.872C234.011 33.208 232.171 35.192 229.675 35.192ZM226.651 30.872C226.651 32.648 227.963 34.088 229.707 34.088C231.499 34.088 232.747 32.648 232.747 30.904V30.872C232.747 29.096 231.419 27.64 229.675 27.64C227.883 27.64 226.651 29.096 226.651 30.84V30.872ZM236.743 26.728H237.975V28.168C238.519 27.272 239.383 26.552 240.807 26.552C242.807 26.552 243.975 27.896 243.975 29.864V35H242.743V30.168C242.743 28.632 241.911 27.672 240.455 27.672C239.031 27.672 237.975 28.712 237.975 30.264V35H236.743V26.728Z" fill="black"/>
<path d="M254.207 26.648L252.559 27.816L252.127 27.064L253.983 26.216L252.127 25.352L252.559 24.616L254.207 25.768L254.047 23.768H254.879L254.719 25.768L256.367 24.616L256.799 25.352L254.943 26.216L256.799 27.064L256.367 27.816L254.719 26.648L254.879 28.648H254.047L254.207 26.648Z" fill="#CB0003"/>
<rect x="100.5" y="51.5" width="379" height="129" rx="3.5" fill="white"/>
<path d="M116.452 74.122L112.378 68.2H113.722L117.026 73.1L120.358 68.2H121.646L117.572 74.108V78H116.452V74.122ZM125.485 78.168C123.315 78.168 121.733 76.46 121.733 74.416V74.388C121.733 72.344 123.329 70.608 125.513 70.608C127.683 70.608 129.279 72.316 129.279 74.36V74.388C129.279 76.432 127.669 78.168 125.485 78.168ZM122.839 74.388C122.839 75.942 123.987 77.202 125.513 77.202C127.081 77.202 128.173 75.942 128.173 74.416V74.388C128.173 72.834 127.011 71.56 125.485 71.56C123.917 71.56 122.839 72.834 122.839 74.36V74.388ZM134.391 78.154C132.641 78.154 131.619 76.978 131.619 75.256V70.762H132.697V74.99C132.697 76.334 133.425 77.174 134.699 77.174C135.931 77.174 136.869 76.264 136.869 74.906V70.762H137.933V78H136.869V76.74C136.379 77.524 135.637 78.154 134.391 78.154ZM140.858 70.762H141.936V72.652C142.468 71.448 143.518 70.58 144.89 70.636V71.798H144.806C143.224 71.798 141.936 72.932 141.936 75.116V78H140.858V70.762ZM154.767 78.154C153.031 78.154 151.309 76.782 151.309 74.402V74.374C151.309 72.008 153.031 70.608 154.767 70.608C156.111 70.608 156.979 71.336 157.539 72.148V67.78H158.617V78H157.539V76.544C156.951 77.412 156.097 78.154 154.767 78.154ZM152.415 74.388C152.415 76.096 153.591 77.188 154.963 77.188C156.307 77.188 157.581 76.054 157.581 74.388V74.36C157.581 72.694 156.307 71.574 154.963 71.574C153.563 71.574 152.415 72.61 152.415 74.36V74.388ZM162.17 74.822C162.324 76.348 163.444 77.23 164.718 77.23C165.712 77.23 166.412 76.824 167 76.208L167.672 76.81C166.944 77.622 166.062 78.168 164.69 78.168C162.702 78.168 161.078 76.642 161.078 74.388C161.078 72.288 162.548 70.608 164.55 70.608C166.692 70.608 167.924 72.316 167.924 74.444C167.924 74.542 167.924 74.654 167.91 74.822H162.17ZM162.17 73.954H166.832C166.706 72.638 165.95 71.518 164.522 71.518C163.276 71.518 162.324 72.554 162.17 73.954ZM172.705 78.14C171.669 78.14 170.521 77.734 169.709 77.076L170.255 76.306C171.039 76.894 171.907 77.23 172.761 77.23C173.629 77.23 174.259 76.782 174.259 76.082V76.054C174.259 75.326 173.405 75.046 172.453 74.78C171.319 74.458 170.059 74.066 170.059 72.736V72.708C170.059 71.462 171.095 70.636 172.523 70.636C173.405 70.636 174.385 70.944 175.127 71.434L174.637 72.246C173.965 71.812 173.195 71.546 172.495 71.546C171.641 71.546 171.095 71.994 171.095 72.596V72.624C171.095 73.31 171.991 73.576 172.957 73.87C174.077 74.206 175.281 74.64 175.281 75.942V75.97C175.281 77.342 174.147 78.14 172.705 78.14ZM181.046 78.168C178.932 78.168 177.336 76.446 177.336 74.416V74.388C177.336 72.344 178.932 70.608 181.046 70.608C182.418 70.608 183.272 71.182 183.944 71.896L183.23 72.652C182.656 72.05 182.012 71.56 181.032 71.56C179.562 71.56 178.442 72.806 178.442 74.36V74.388C178.442 75.956 179.59 77.202 181.102 77.202C182.026 77.202 182.74 76.74 183.314 76.124L184 76.768C183.272 77.58 182.404 78.168 181.046 78.168ZM186.282 70.762H187.36V72.652C187.892 71.448 188.942 70.58 190.314 70.636V71.798H190.23C188.648 71.798 187.36 72.932 187.36 75.116V78H186.282V70.762ZM192.484 67.99H193.716V69.18H192.484V67.99ZM192.554 78V70.762H193.632V78H192.554ZM196.634 70.762H197.712V72.218C198.3 71.35 199.154 70.608 200.484 70.608C202.22 70.608 203.942 71.98 203.942 74.36V74.388C203.942 76.754 202.234 78.154 200.484 78.154C199.14 78.154 198.272 77.426 197.712 76.614V80.24H196.634V70.762ZM197.67 74.388C197.67 76.068 198.944 77.188 200.288 77.188C201.688 77.188 202.836 76.152 202.836 74.402V74.374C202.836 72.666 201.66 71.574 200.288 71.574C198.944 71.574 197.67 72.708 197.67 74.36V74.388ZM208.853 78.126C207.691 78.126 206.809 77.552 206.809 76.082V71.714H205.801V70.762H206.809V68.578H207.887V70.762H210.183V71.714H207.887V75.942C207.887 76.824 208.377 77.146 209.105 77.146C209.469 77.146 209.777 77.076 210.155 76.894V77.818C209.777 78.014 209.371 78.126 208.853 78.126ZM212.619 67.99H213.851V69.18H212.619V67.99ZM212.689 78V70.762H213.767V78H212.689ZM220.072 78.168C217.902 78.168 216.32 76.46 216.32 74.416V74.388C216.32 72.344 217.916 70.608 220.1 70.608C222.27 70.608 223.866 72.316 223.866 74.36V74.388C223.866 76.432 222.256 78.168 220.072 78.168ZM217.426 74.388C217.426 75.942 218.574 77.202 220.1 77.202C221.668 77.202 222.76 75.942 222.76 74.416V74.388C222.76 72.834 221.598 71.56 220.072 71.56C218.504 71.56 217.426 72.834 217.426 74.36V74.388ZM226.319 70.762H227.397V72.022C227.873 71.238 228.629 70.608 229.875 70.608C231.625 70.608 232.647 71.784 232.647 73.506V78H231.569V73.772C231.569 72.428 230.841 71.588 229.567 71.588C228.321 71.588 227.397 72.498 227.397 73.856V78H226.319V70.762Z" fill="#707070"/>
<path d="M468 153L452 169" stroke="#8CC8E9" stroke-linecap="round"/>
<path d="M468 161L460 169" stroke="#8CC8E9" stroke-linecap="round"/>
<rect x="100.5" y="51.5" width="379" height="129" rx="3.5" stroke="#8CC8E9"/>
<rect x="528.5" y="51.5" width="379" height="129" rx="3.5" fill="#FAE6E6"/>
<mask id="mask0_503_3698" style="mask-type:alpha" maskUnits="userSpaceOnUse" x="876" y="63" width="20" height="20">
<path d="M891.009 67.4012L886 72.4104L880.992 67.4021L880.402 67.9912L885.41 73.0012L880.402 78.0096L880.992 78.5987L886 73.5904L891.009 78.5987L891.598 78.0096L886.59 73.0012L891.598 67.9921L891.009 67.4012Z" fill="black"/>
</mask>
<g mask="url(#mask0_503_3698)">
<rect x="876" y="63" width="20" height="20" fill="#CB0003"/>
</g>
<path d="M544.452 94.122L540.378 88.2H541.722L545.026 93.1L548.358 88.2H549.646L545.572 94.108V98H544.452V94.122ZM553.485 98.168C551.315 98.168 549.733 96.46 549.733 94.416V94.388C549.733 92.344 551.329 90.608 553.513 90.608C555.683 90.608 557.279 92.316 557.279 94.36V94.388C557.279 96.432 555.669 98.168 553.485 98.168ZM550.839 94.388C550.839 95.942 551.987 97.202 553.513 97.202C555.081 97.202 556.173 95.942 556.173 94.416V94.388C556.173 92.834 555.011 91.56 553.485 91.56C551.917 91.56 550.839 92.834 550.839 94.36V94.388ZM562.391 98.154C560.641 98.154 559.619 96.978 559.619 95.256V90.762H560.697V94.99C560.697 96.334 561.425 97.174 562.699 97.174C563.931 97.174 564.869 96.264 564.869 94.906V90.762H565.933V98H564.869V96.74C564.379 97.524 563.637 98.154 562.391 98.154ZM568.858 90.762H569.936V92.652C570.468 91.448 571.518 90.58 572.89 90.636V91.798H572.806C571.224 91.798 569.936 92.932 569.936 95.116V98H568.858V90.762ZM582.767 98.154C581.031 98.154 579.309 96.782 579.309 94.402V94.374C579.309 92.008 581.031 90.608 582.767 90.608C584.111 90.608 584.979 91.336 585.539 92.148V87.78H586.617V98H585.539V96.544C584.951 97.412 584.097 98.154 582.767 98.154ZM580.415 94.388C580.415 96.096 581.591 97.188 582.963 97.188C584.307 97.188 585.581 96.054 585.581 94.388V94.36C585.581 92.694 584.307 91.574 582.963 91.574C581.563 91.574 580.415 92.61 580.415 94.36V94.388ZM590.17 94.822C590.324 96.348 591.444 97.23 592.718 97.23C593.712 97.23 594.412 96.824 595 96.208L595.672 96.81C594.944 97.622 594.062 98.168 592.69 98.168C590.702 98.168 589.078 96.642 589.078 94.388C589.078 92.288 590.548 90.608 592.55 90.608C594.692 90.608 595.924 92.316 595.924 94.444C595.924 94.542 595.924 94.654 595.91 94.822H590.17ZM590.17 93.954H594.832C594.706 92.638 593.95 91.518 592.522 91.518C591.276 91.518 590.324 92.554 590.17 93.954ZM600.705 98.14C599.669 98.14 598.521 97.734 597.709 97.076L598.255 96.306C599.039 96.894 599.907 97.23 600.761 97.23C601.629 97.23 602.259 96.782 602.259 96.082V96.054C602.259 95.326 601.405 95.046 600.453 94.78C599.319 94.458 598.059 94.066 598.059 92.736V92.708C598.059 91.462 599.095 90.636 600.523 90.636C601.405 90.636 602.385 90.944 603.127 91.434L602.637 92.246C601.965 91.812 601.195 91.546 600.495 91.546C599.641 91.546 599.095 91.994 599.095 92.596V92.624C599.095 93.31 599.991 93.576 600.957 93.87C602.077 94.206 603.281 94.64 603.281 95.942V95.97C603.281 97.342 602.147 98.14 600.705 98.14ZM609.046 98.168C606.932 98.168 605.336 96.446 605.336 94.416V94.388C605.336 92.344 606.932 90.608 609.046 90.608C610.418 90.608 611.272 91.182 611.944 91.896L611.23 92.652C610.656 92.05 610.012 91.56 609.032 91.56C607.562 91.56 606.442 92.806 606.442 94.36V94.388C606.442 95.956 607.59 97.202 609.102 97.202C610.026 97.202 610.74 96.74 611.314 96.124L612 96.768C611.272 97.58 610.404 98.168 609.046 98.168ZM614.282 90.762H615.36V92.652C615.892 91.448 616.942 90.58 618.314 90.636V91.798H618.23C616.648 91.798 615.36 92.932 615.36 95.116V98H614.282V90.762ZM620.484 87.99H621.716V89.18H620.484V87.99ZM620.554 98V90.762H621.632V98H620.554ZM624.634 90.762H625.712V92.218C626.3 91.35 627.154 90.608 628.484 90.608C630.22 90.608 631.942 91.98 631.942 94.36V94.388C631.942 96.754 630.234 98.154 628.484 98.154C627.14 98.154 626.272 97.426 625.712 96.614V100.24H624.634V90.762ZM625.67 94.388C625.67 96.068 626.944 97.188 628.288 97.188C629.688 97.188 630.836 96.152 630.836 94.402V94.374C630.836 92.666 629.66 91.574 628.288 91.574C626.944 91.574 625.67 92.708 625.67 94.36V94.388ZM636.853 98.126C635.691 98.126 634.809 97.552 634.809 96.082V91.714H633.801V90.762H634.809V88.578H635.887V90.762H638.183V91.714H635.887V95.942C635.887 96.824 636.377 97.146 637.105 97.146C637.469 97.146 637.777 97.076 638.155 96.894V97.818C637.777 98.014 637.371 98.126 636.853 98.126ZM640.619 87.99H641.851V89.18H640.619V87.99ZM640.689 98V90.762H641.767V98H640.689ZM648.072 98.168C645.902 98.168 644.32 96.46 644.32 94.416V94.388C644.32 92.344 645.916 90.608 648.1 90.608C650.27 90.608 651.866 92.316 651.866 94.36V94.388C651.866 96.432 650.256 98.168 648.072 98.168ZM645.426 94.388C645.426 95.942 646.574 97.202 648.1 97.202C649.668 97.202 650.76 95.942 650.76 94.416V94.388C650.76 92.834 649.598 91.56 648.072 91.56C646.504 91.56 645.426 92.834 645.426 94.36V94.388ZM654.319 90.762H655.397V92.022C655.873 91.238 656.629 90.608 657.875 90.608C659.625 90.608 660.647 91.784 660.647 93.506V98H659.569V93.772C659.569 92.428 658.841 91.588 657.567 91.588C656.321 91.588 655.397 92.498 655.397 93.856V98H654.319V90.762Z" fill="#141B4D"/>
<path d="M896 153L880 169" stroke="#CB0003" stroke-linecap="round"/>
<path d="M896 161L888 169" stroke="#CB0003" stroke-linecap="round"/>
<rect x="528.5" y="51.5" width="379" height="129" rx="3.5" stroke="#CB0003"/>
<circle cx="536" cy="197" r="8" fill="white"/>
<path d="M536 190C539.86 190 543 193.14 543 197C543 200.86 539.86 204 536 204C532.14 204 529 200.86 529 197C529 193.14 532.14 190 536 190ZM536 199.546C535.789 199.546 535.587 199.63 535.437 199.779C535.288 199.928 535.205 200.131 535.205 200.342C535.205 200.553 535.289 200.755 535.438 200.904C535.587 201.053 535.79 201.137 536.001 201.137C536.105 201.137 536.209 201.116 536.305 201.076C536.402 201.036 536.489 200.978 536.563 200.904C536.637 200.83 536.696 200.742 536.736 200.646C536.775 200.549 536.796 200.446 536.796 200.341C536.796 200.237 536.775 200.133 536.735 200.037C536.695 199.94 536.637 199.852 536.563 199.779C536.489 199.705 536.401 199.646 536.305 199.606C536.208 199.566 536.104 199.546 536 199.546ZM536.636 192.864H535.364V197.954H536.636V192.864Z" fill="#CB0003"/>
<path d="M553.386 194.2H560.47V195.208H554.492V198.554H559.84V199.562H554.492V202.992H560.54V204H553.386V194.2ZM563.083 196.762H564.161V198.652C564.693 197.448 565.743 196.58 567.115 196.636V197.798H567.031C565.449 197.798 564.161 198.932 564.161 201.116V204H563.083V196.762ZM569.257 196.762H570.335V198.652C570.867 197.448 571.917 196.58 573.289 196.636V197.798H573.205C571.623 197.798 570.335 198.932 570.335 201.116V204H569.257V196.762ZM578.42 204.168C576.25 204.168 574.668 202.46 574.668 200.416V200.388C574.668 198.344 576.264 196.608 578.448 196.608C580.618 196.608 582.214 198.316 582.214 200.36V200.388C582.214 202.432 580.604 204.168 578.42 204.168ZM575.774 200.388C575.774 201.942 576.922 203.202 578.448 203.202C580.016 203.202 581.108 201.942 581.108 200.416V200.388C581.108 198.834 579.946 197.56 578.42 197.56C576.852 197.56 575.774 198.834 575.774 200.36V200.388ZM584.667 196.762H585.745V198.652C586.277 197.448 587.327 196.58 588.699 196.636V197.798H588.615C587.033 197.798 585.745 198.932 585.745 201.116V204H584.667V196.762ZM590.911 194.998V194.2H592.171V194.998L591.835 201.228H591.233L590.911 194.998ZM590.897 204V202.53H592.185V204H590.897Z" fill="#CB0003"/>
<rect x="40" y="77" width="1" height="71.6007" transform="rotate(-90 40 77)" fill="#008574"/>
<rect x="18" y="65.2004" width="22" height="22" rx="11" fill="#008574"/>
<path d="M25.715 81.2004V79.8984C26.3123 79.4038 26.891 78.9138 27.451 78.4284C28.0203 77.9431 28.5243 77.4624 28.963 76.9864C29.411 76.5104 29.7656 76.0484 30.027 75.6004C30.2976 75.1431 30.433 74.6998 30.433 74.2704C30.433 73.8691 30.321 73.5144 30.097 73.2064C29.8823 72.8984 29.523 72.7444 29.019 72.7444C28.5056 72.7444 28.1183 72.9124 27.857 73.2484C27.5956 73.5844 27.465 73.9904 27.465 74.4664H25.729C25.7476 73.7478 25.9063 73.1504 26.205 72.6744C26.5036 72.1891 26.9003 71.8298 27.395 71.5964C27.8896 71.3538 28.445 71.2324 29.061 71.2324C30.0596 71.2324 30.8343 71.5078 31.385 72.0584C31.945 72.5998 32.225 73.3044 32.225 74.1724C32.225 74.7138 32.099 75.2411 31.847 75.7544C31.6043 76.2678 31.2823 76.7624 30.881 77.2384C30.4796 77.7144 30.0456 78.1624 29.579 78.5824C29.1123 78.9931 28.6596 79.3758 28.221 79.7304H32.463V81.2004H25.715Z" fill="white"/>
<rect x="18" y="65.2004" width="22" height="22" rx="11" stroke="white" stroke-width="2"/>
<rect x="459.5" y="172.998" width="1" height="49.6007" fill="#008574"/>
<rect x="449" y="223" width="22" height="22" rx="11" fill="#008574"/>
<path d="M459.988 239.168C459.344 239.168 458.761 239.056 458.238 238.832C457.715 238.599 457.295 238.244 456.978 237.768C456.661 237.292 456.493 236.695 456.474 235.976H458.238C458.247 236.452 458.401 236.853 458.7 237.18C459.008 237.497 459.437 237.656 459.988 237.656C460.511 237.656 460.912 237.511 461.192 237.222C461.472 236.933 461.612 236.569 461.612 236.13C461.612 235.617 461.425 235.229 461.052 234.968C460.688 234.697 460.217 234.562 459.638 234.562H458.91V233.092H459.652C460.128 233.092 460.525 232.98 460.842 232.756C461.159 232.532 461.318 232.201 461.318 231.762C461.318 231.398 461.197 231.109 460.954 230.894C460.721 230.67 460.394 230.558 459.974 230.558C459.517 230.558 459.157 230.693 458.896 230.964C458.644 231.235 458.504 231.566 458.476 231.958H456.726C456.763 231.053 457.076 230.339 457.664 229.816C458.261 229.293 459.031 229.032 459.974 229.032C460.646 229.032 461.211 229.153 461.668 229.396C462.135 229.629 462.485 229.942 462.718 230.334C462.961 230.726 463.082 231.16 463.082 231.636C463.082 232.187 462.928 232.653 462.62 233.036C462.321 233.409 461.948 233.661 461.5 233.792C462.051 233.904 462.499 234.175 462.844 234.604C463.189 235.024 463.362 235.556 463.362 236.2C463.362 236.741 463.231 237.236 462.97 237.684C462.709 238.132 462.326 238.491 461.822 238.762C461.327 239.033 460.716 239.168 459.988 239.168Z" fill="white"/>
<rect x="449" y="223" width="22" height="22" rx="11" stroke="white" stroke-width="2"/>
<rect x="893" y="77" width="1" height="71.6007" transform="rotate(-90 893 77)" fill="#008574"/>
<rect x="964.399" y="65.2004" width="22" height="22" rx="11" fill="#008574"/>
<path d="M976.347 81.2004V79.3804H971.517V77.9524L976.109 71.4004H978.139V77.8264H979.427V79.3804H978.139V81.2004H976.347ZM973.435 77.8264H976.459V73.3744L973.435 77.8264Z" fill="white"/>
<rect x="964.399" y="65.2004" width="22" height="22" rx="11" stroke="white" stroke-width="2"/>
</svg>
