
<svg width="120" height="22" viewBox="0 0 120 22" fill="none" xmlns="http://www.w3.org/2000/svg">
<path d="M1.176 6.2H3.5L6.076 10.344L8.652 6.2H10.976V16H8.834V9.602L6.076 13.788H6.02L3.29 9.644V16H1.176V6.2ZM16.0883 12.136L12.3223 6.2H14.8423L17.1803 10.134L19.5603 6.2H22.0103L18.2443 12.094V16H16.0883V12.136Z" fill="#0047BB"/>
<path d="M27.2878 4.714H23.0578V3.4H32.9578V4.714H28.7278V16H27.2878V4.714ZM33.9385 11.914C34.1365 13.876 35.5765 15.01 37.2145 15.01C38.4925 15.01 39.3925 14.488 40.1485 13.696L41.0125 14.47C40.0765 15.514 38.9425 16.216 37.1785 16.216C34.6225 16.216 32.5345 14.254 32.5345 11.356C32.5345 8.656 34.4245 6.496 36.9985 6.496C39.7525 6.496 41.3365 8.692 41.3365 11.428C41.3365 11.554 41.3365 11.698 41.3185 11.914H33.9385ZM33.9385 10.798H39.9325C39.7705 9.106 38.7985 7.666 36.9625 7.666C35.3605 7.666 34.1365 8.998 33.9385 10.798ZM47.9568 16.216C45.2388 16.216 43.1868 14.002 43.1868 11.392V11.356C43.1868 8.728 45.2388 6.496 47.9568 6.496C49.7208 6.496 50.8188 7.234 51.6828 8.152L50.7648 9.124C50.0268 8.35 49.1988 7.72 47.9388 7.72C46.0488 7.72 44.6088 9.322 44.6088 11.32V11.356C44.6088 13.372 46.0848 14.974 48.0288 14.974C49.2168 14.974 50.1348 14.38 50.8728 13.588L51.7548 14.416C50.8188 15.46 49.7028 16.216 47.9568 16.216ZM54.046 2.86H55.432V8.314C56.044 7.306 57.016 6.496 58.618 6.496C60.868 6.496 62.182 8.008 62.182 10.222V16H60.796V10.564C60.796 8.836 59.86 7.756 58.222 7.756C56.62 7.756 55.432 8.926 55.432 10.672V16H54.046V2.86Z" fill="#141B4D"/>
</svg>
